mtllib Circle_007.mtl
v -0.024944091215729713 -0.01666710525751114 -0.02200000174343586
v -0.023190315812826157 -0.019031798467040062 -0.02200000174343586
v -0.02121320553123951 -0.02121320180594921 -0.02200000174343586
v -0.01903180219233036 -0.023190312087535858 -0.02200000174343586
v -0.016667108982801437 -0.024944087490439415 -0.02200000174343586
v -0.01414190512150526 -0.026457637548446655 -0.02200000174343586
v -0.01148050744086504 -0.027716387063264847 -0.02200000174343586
v -0.00870854314416647 -0.028708212077617645 -0.02200000174343586
v -0.005852712783962488 -0.029423559084534645 -0.02200000174343586
v -0.0029405171517282724 -0.02985554188489914 -0.02200000174343586
v -2.802372556232058e-09 -0.030000001192092896 -0.02200000174343586
v 0.0029405117966234684 -0.02985554188489914 -0.02200000174343586
v 0.0058527071960270405 -0.029423559084534645 -0.02200000174343586
v 0.008708537556231022 -0.028708212077617645 -0.02200000174343586
v 0.011480501852929592 -0.027716387063264847 -0.02200000174343586
v 0.014141899533569813 -0.026457641273736954 -0.02200000174343586
v 0.01666710525751114 -0.024944091215729713 -0.02200000174343586
v 0.019031798467040062 -0.023190315812826157 -0.02200000174343586
v 0.02121320180594921 -0.02121320553123951 -0.02200000174343586
v 0.023190312087535858 -0.01903180219233036 -0.02200000174343586
v 0.024944087490439415 -0.016667108982801437 -0.02200000174343586
v 0.024944091215729713 0.01666710525751114 -0.02200000174343586
v 0.023190315812826157 0.019031798467040062 -0.02200000174343586
v 0.02121320553123951 0.02121320180594921 -0.02200000174343586
v 0.01903180219233036 0.023190312087535858 -0.02200000174343586
v 0.016667108982801437 0.024944087490439415 -0.02200000174343586
v 0.014141903258860111 0.026457637548446655 -0.02200000174343586
v 0.01148050557821989 0.027716387063264847 -0.02200000174343586
v 0.00870854128152132 0.028708212077617645 -0.02200000174343586
v 0.0058527118526399136 0.029423559084534645 -0.02200000174343586
v 0.002940516220405698 0.02985554188489914 -0.02200000174343586
v 1.7275018082685278e-09 0.030000001192092896 -0.02200000174343586
v -0.002940512727946043 0.02985554188489914 -0.02200000174343586
v -0.005852708127349615 0.029423559084534645 -0.02200000174343586
v -0.008708539418876171 0.028708212077617645 -0.02200000174343586
v -0.011480503715574741 0.027716387063264847 -0.02200000174343586
v -0.014141901396214962 0.026457641273736954 -0.02200000174343586
v -0.01666710525751114 0.024944091215729713 -0.02200000174343586
v -0.019031798467040062 0.023190315812826157 -0.02200000174343586
v -0.02121320180594921 0.02121320553123951 -0.02200000174343586
v -0.023190312087535858 0.01903180219233036 -0.02200000174343586
v -0.024944087490439415 0.016667108982801437 -0.02200000174343586
v -0.019325263798236847 -0.015859832987189293 -0.02200000174343586
v -0.0176776722073555 -0.0176776684820652 -0.02200000174343586
v -0.01585983671247959 -0.01932526007294655 -0.02200000174343586
v -0.013889259658753872 -0.020786738023161888 -0.02200000174343586
v -0.011784922331571579 -0.02204803191125393 -0.02200000174343586
v -0.00956708937883377 -0.02309698797762394 -0.02200000174343586
v -0.007257119752466679 -0.023923510685563087 -0.02200000174343586
v -0.004877260886132717 -0.024519631639122963 -0.02200000174343586
v -0.0024504309985786676 -0.024879619479179382 -0.02200000174343586
v -2.4248829610939993e-09 -0.02500000037252903 -0.02200000174343586
v 0.002450426109135151 -0.024879619479179382 -0.02200000174343586
v 0.004877256229519844 -0.024519631639122963 -0.02200000174343586
v 0.007257114630192518 -0.023923510685563087 -0.02200000174343586
v 0.009567083790898323 -0.02309698797762394 -0.02200000174343586
v 0.011784916743636131 -0.02204803191125393 -0.02200000174343586
v 0.013889254070818424 -0.020786741748452187 -0.02200000174343586
v 0.015859831124544144 -0.019325263798236847 -0.02200000174343586
v 0.0176776684820652 -0.0176776722073555 -0.02200000174343586
v 0.01932526007294655 -0.01585983671247959 -0.02200000174343586
v 0.019325263798236847 0.015859832987189293 -0.02200000174343586
v 0.0176776722073555 0.0176776684820652 -0.02200000174343586
v 0.015859834849834442 0.01932526007294655 -0.02200000174343586
v 0.013889257796108723 0.020786738023161888 -0.02200000174343586
v 0.01178492046892643 0.02204803191125393 -0.02200000174343586
v 0.009567087516188622 0.02309698797762394 -0.02200000174343586
v 0.007257118355482817 0.023923510685563087 -0.02200000174343586
v 0.0048772599548101425 0.024519631639122963 -0.02200000174343586
v 0.002450430067256093 0.024879619479179382 -0.02200000174343586
v 1.3500123241527717e-09 0.02500000037252903 -0.02200000174343586
v -0.002450427273288369 0.024879619479179382 -0.02200000174343586
v -0.004877257160842419 0.024519631639122963 -0.02200000174343586
v -0.007257115561515093 0.023923510685563087 -0.02200000174343586
v -0.009567085653543472 0.02309698797762394 -0.02200000174343586
v -0.01178491860628128 0.02204803191125393 -0.02200000174343586
v -0.013889255933463573 0.020786741748452187 -0.02200000174343586
v -0.015859832987189293 0.019325263798236847 -0.02200000174343586
v -0.0176776684820652 0.0176776722073555 -0.02200000174343586
v -0.01932526007294655 0.01585983671247959 -0.02200000174343586
v -0.030000001192092896 1.9629453618108528e-09 0.10300000756978989
v -0.02985554188489914 -0.0029405124951153994 0.10300000756978989
v -0.029423559084534645 -0.005852708127349615 0.10300000756978989
v -0.028708212077617645 -0.008708538487553596 0.10300000756978989
v -0.027716387063264847 -0.011480502784252167 0.10300000756978989
v -0.026457641273736954 -0.014141900464892387 0.10300000756978989
v -0.024944091215729713 -0.01666710525751114 0.10300000756978989
v -0.023190315812826157 -0.019031798467040062 0.10300000756978989
v -0.02121320553123951 -0.02121320180594921 0.10300000756978989
v -0.01903180219233036 -0.023190312087535858 0.10300000756978989
v -0.016667108982801437 -0.024944087490439415 0.10300000756978989
v -0.01414190512150526 -0.026457637548446655 0.10300000756978989
v -0.01148050744086504 -0.027716387063264847 0.10300000756978989
v -0.00870854314416647 -0.028708212077617645 0.10300000756978989
v -0.005852712783962488 -0.029423559084534645 0.10300000756978989
v -0.0029405171517282724 -0.02985554188489914 0.10300000756978989
v -2.802372556232058e-09 -0.030000001192092896 0.10300000756978989
v 0.0029405117966234684 -0.02985554188489914 0.10300000756978989
v 0.0058527071960270405 -0.029423559084534645 0.10300000756978989
v 0.008708537556231022 -0.028708212077617645 0.10300000756978989
v 0.011480501852929592 -0.027716387063264847 0.10300000756978989
v 0.014141899533569813 -0.026457641273736954 0.10300000756978989
v 0.01666710525751114 -0.024944091215729713 0.10300000756978989
v 0.019031798467040062 -0.023190315812826157 0.10300000756978989
v 0.02121320180594921 -0.02121320553123951 0.10300000756978989
v 0.023190312087535858 -0.01903180219233036 0.10300000756978989
v 0.024944087490439415 -0.016667108982801437 0.10300000756978989
v 0.026457637548446655 -0.014141904190182686 0.10300000756978989
v 0.027716387063264847 -0.011480506509542465 0.10300000756978989
v 0.028708212077617645 -0.008708542212843895 0.10300000756978989
v 0.029423559084534645 -0.005852712783962488 0.10300000756978989
v 0.02985554188489914 -0.002940516918897629 0.10300000756978989
v 0.030000001192092896 -2.5669288916674304e-09 0.10300000756978989
v 0.02985554188489914 0.002940512029454112 0.10300000756978989
v 0.029423559084534645 0.0058527071960270405 0.10300000756978989
v 0.028708212077617645 0.008708538487553596 0.10300000756978989
v 0.027716387063264847 0.011480502784252167 0.10300000756978989
v 0.026457641273736954 0.014141900464892387 0.10300000756978989
v 0.024944091215729713 0.01666710525751114 0.10300000756978989
v 0.023190315812826157 0.019031798467040062 0.10300000756978989
v 0.02121320553123951 0.02121320180594921 0.10300000756978989
v 0.01903180219233036 0.023190312087535858 0.10300000756978989
v 0.016667108982801437 0.024944087490439415 0.10300000756978989
v 0.014141903258860111 0.026457637548446655 0.10300000756978989
v 0.01148050557821989 0.027716387063264847 0.10300000756978989
v 0.00870854128152132 0.028708212077617645 0.10300000756978989
v 0.0058527118526399136 0.029423559084534645 0.10300000756978989
v 0.002940516220405698 0.02985554188489914 0.10300000756978989
v 1.7275018082685278e-09 0.030000001192092896 0.10300000756978989
v -0.002940512727946043 0.02985554188489914 0.10300000756978989
v -0.005852708127349615 0.029423559084534645 0.10300000756978989
v -0.008708539418876171 0.028708212077617645 0.10300000756978989
v -0.011480503715574741 0.027716387063264847 0.10300000756978989
v -0.014141901396214962 0.026457641273736954 0.10300000756978989
v -0.01666710525751114 0.024944091215729713 0.10300000756978989
v -0.019031798467040062 0.023190315812826157 0.10300000756978989
v -0.02121320180594921 0.02121320553123951 0.10300000756978989
v -0.023190312087535858 0.01903180219233036 0.10300000756978989
v -0.024944087490439415 0.016667108982801437 0.10300000756978989
v -0.026457637548446655 0.014141904190182686 0.10300000756978989
v -0.027716387063264847 0.011480506509542465 0.10300000756978989
v -0.028708212077617645 0.008708542212843895 0.10300000756978989
v -0.029423559084534645 0.0058527118526399136 0.10300000756978989
v -0.02985554188489914 0.0029405164532363415 0.10300000756978989
v -0.02500000037252903 1.5854559887173991e-09 0.10300000756978989
v -0.024879619479179382 -0.0024504270404577255 0.10300000756978989
v -0.024519631639122963 -0.004877257160842419 0.10300000756978989
v -0.023923510685563087 -0.007257115561515093 0.10300000756978989
v -0.02309698797762394 -0.009567084722220898 0.10300000756978989
v -0.02204803191125393 -0.011784917674958706 0.10300000756978989
v -0.020786741748452187 -0.013889255002140999 0.10300000756978989
v -0.019325263798236847 -0.015859832987189293 0.10300000756978989
v -0.0176776722073555 -0.0176776684820652 0.10300000756978989
v -0.01585983671247959 -0.01932526007294655 0.10300000756978989
v -0.013889259658753872 -0.020786738023161888 0.10300000756978989
v -0.011784922331571579 -0.02204803191125393 0.10300000756978989
v -0.00956708937883377 -0.02309698797762394 0.10300000756978989
v -0.007257119752466679 -0.023923510685563087 0.10300000756978989
v -0.004877260886132717 -0.024519631639122963 0.10300000756978989
v -0.0024504309985786676 -0.024879619479179382 0.10300000756978989
v -2.4248829610939993e-09 -0.02500000037252903 0.10300000756978989
v 0.002450426109135151 -0.024879619479179382 0.10300000756978989
v 0.004877256229519844 -0.024519631639122963 0.10300000756978989
v 0.007257114630192518 -0.023923510685563087 0.10300000756978989
v 0.009567083790898323 -0.02309698797762394 0.10300000756978989
v 0.011784916743636131 -0.02204803191125393 0.10300000756978989
v 0.013889254070818424 -0.020786741748452187 0.10300000756978989
v 0.015859831124544144 -0.019325263798236847 0.10300000756978989
v 0.0176776684820652 -0.0176776722073555 0.10300000756978989
v 0.01932526007294655 -0.01585983671247959 0.10300000756978989
v 0.020786738023161888 -0.013889258727431297 0.10300000756978989
v 0.02204803191125393 -0.011784921400249004 0.10300000756978989
v 0.02309698797762394 -0.009567088447511196 0.10300000756978989
v 0.023923510685563087 -0.007257119752466679 0.10300000756978989
v 0.024519631639122963 -0.004877260886132717 0.10300000756978989
v 0.024879619479179382 -0.002450430765748024 0.10300000756978989
v 0.02500000037252903 -2.1894395185739768e-09 0.10300000756978989
v 0.024879619479179382 0.0024504263419657946 0.10300000756978989
v 0.024519631639122963 0.004877256229519844 0.10300000756978989
v 0.023923510685563087 0.007257114630192518 0.10300000756978989
v 0.02309698797762394 0.009567084722220898 0.10300000756978989
v 0.02204803191125393 0.011784917674958706 0.10300000756978989
v 0.020786741748452187 0.013889255002140999 0.10300000756978989
v 0.019325263798236847 0.015859832987189293 0.10300000756978989
v 0.0176776722073555 0.0176776684820652 0.10300000756978989
v 0.015859834849834442 0.01932526007294655 0.10300000756978989
v 0.013889257796108723 0.020786738023161888 0.10300000756978989
v 0.01178492046892643 0.02204803191125393 0.10300000756978989
v 0.009567087516188622 0.02309698797762394 0.10300000756978989
v 0.007257118355482817 0.023923510685563087 0.10300000756978989
v 0.0048772599548101425 0.024519631639122963 0.10300000756978989
v 0.002450430067256093 0.024879619479179382 0.10300000756978989
v 1.3500123241527717e-09 0.02500000037252903 0.10300000756978989
v -0.002450427273288369 0.024879619479179382 0.10300000756978989
v -0.004877257160842419 0.024519631639122963 0.10300000756978989
v -0.007257115561515093 0.023923510685563087 0.10300000756978989
v -0.009567085653543472 0.02309698797762394 0.10300000756978989
v -0.01178491860628128 0.02204803191125393 0.10300000756978989
v -0.013889255933463573 0.020786741748452187 0.10300000756978989
v -0.015859832987189293 0.019325263798236847 0.10300000756978989
v -0.0176776684820652 0.0176776722073555 0.10300000756978989
v -0.01932526007294655 0.01585983671247959 0.10300000756978989
v -0.020786738023161888 0.013889258727431297 0.10300000756978989
v -0.02204803191125393 0.011784921400249004 0.10300000756978989
v -0.02309698797762394 0.009567088447511196 0.10300000756978989
v -0.023923510685563087 0.007257118355482817 0.10300000756978989
v -0.024519631639122963 0.0048772599548101425 0.10300000756978989
v -0.024879619479179382 0.0024504303000867367 0.10300000756978989
v 0.01058305986225605 0.028037499636411667 0.005656753666698933
v 0.010583058930933475 0.022616472095251083 0.005656754598021507
v 0.010583055205643177 -0.022616472095251083 0.005656762979924679
v 0.010583056136965752 -0.028037497773766518 0.005656763445585966
v 0.008485285565257072 0.028764130547642708 0.008485273458063602
v 0.00870854128152132 0.028708212077617645 0.00823894888162613
v 0.008485285565257072 0.023484066128730774 0.008485274389386177
v 0.008485281839966774 -0.023484066128730774 0.008485283702611923
v 0.008485281839966774 -0.028764134272933006 0.008485285565257072
v 0.0076127247884869576 0.028982697054743767 0.00927611906081438
v 0.007612721994519234 -0.02379627153277397 0.009276128374040127
v 0.00761272432282567 0.02379627153277397 0.00927611906081438
v 0.007612721528857946 -0.028982697054743767 0.009276129305362701
v 0.0011762105859816074 0.029942216351628304 0.011942211538553238
v 0.0011762074427679181 -0.024942217394709587 0.011942221783101559
v 0.0011762070935219526 -0.029942218214273453 0.011942224577069283
v 0.0011762104695662856 0.02494220808148384 0.011942212469875813
v 0.007257118355482817 0.023923510685563087 0.00953985471278429
v 0.005656765773892403 0.029452629387378693 0.01058304775506258
v 0.005852711386978626 0.029423559084534645 0.010465599596500397
v 0.005656765773892403 0.02432437799870968 0.010583048686385155
v 0.005656762979924679 -0.02432437427341938 0.010583057999610901
v 0.005656762979924679 -0.029452621936798096 0.010583058930933475
v 0.004877255763858557 -0.024519631639122963 0.01095174066722393
v 0.006666847504675388 0.029219627380371094 0.009977628476917744
v 0.006666847504675388 0.02407137118279934 0.009977629408240318
v 0.0066668447107076645 -0.024071363732218742 0.009977638721466064
v 0.0058527071960270405 -0.029423559084534645 0.01046561449766159
v 0.006666844245046377 -0.029219629243016243 0.009977639652788639
v 0.004592205863445997 0.029610544443130493 0.011086547747254372
v 0.004592203535139561 -0.024561917409300804 0.011086557991802692
v 0.004592203069478273 -0.029610536992549896 0.011086558923125267
v 0.00459220539778471 0.024561919271945953 0.011086548678576946
v 0.0072571150958538055 -0.023923512548208237 0.009539860300719738
v 0.00487726042047143 0.024519633501768112 0.010951731353998184
v 0.009977640584111214 0.028254128992557526 0.006666835397481918
v 0.009567083790898323 -0.02309698797762394 0.00722040981054306
v 0.009977639652788639 0.02290281467139721 0.006666836328804493
v 0.009977634996175766 -0.02290281094610691 0.0066668447107076645
v 0.00997763592749834 -0.02825412154197693 0.006666845642030239
v 0.009276129305362701 0.028505124151706696 0.007612713146954775
v 0.009276129305362701 0.02320108935236931 0.0076127140782773495
v 0.009567087516188622 0.02309698797762394 0.007220401894301176
v 0.009276125580072403 -0.023201096802949905 0.007612722460180521
v 0.009276125580072403 -0.028505124151706696 0.007612723391503096
v 0.008708537556231022 -0.028708212077617645 0.00823895912617445
v 0.002940515987575054 0.02985554188489914 0.01161926705390215
v 0.00234108860604465 0.02988499402999878 0.011769416742026806
v 0.0023410858120769262 -0.024884991347789764 0.011769426986575127
v 0.002450426109135151 -0.024879619479179382 0.01174203772097826
v 0.0023410858120769262 -0.02988499030470848 0.011769427917897701
v 0.002450430067256093 0.024879619479179382 0.01174202561378479
v 0.00234108860604465 0.024884989485144615 0.01176941767334938
v 0.003483420703560114 0.02977500855922699 0.011483278125524521
v 0.0034834181424230337 -0.024726390838623047 0.011483289301395416
v 0.0029405117966234684 -0.02985554188489914 0.011619281955063343
v 0.0034834176767617464 -0.02977501042187214 0.011483288370072842
v 0.003483420703560114 0.024726390838623047 0.011483279056847095
v 0.011483287438750267 0.02771507389843464 0.0034834081307053566
v 0.011483287438750267 0.022190693765878677 0.003483409062027931
v 0.011483283713459969 -0.02771506831049919 0.0034834181424230337
v 0.011483283713459969 -0.022190691903233528 0.003483417211100459
v 0.01148050557821989 0.027716387063264847 0.003491184441372752
v 0.011480501852929592 -0.027716387063264847 0.003491193987429142
v 0.011086557060480118 0.027857346460223198 0.004592193756252527
v 0.011086557060480118 0.022378327324986458 0.004592194687575102
v 0.01108655333518982 -0.022378331050276756 0.004592202603816986
v 0.011086554266512394 -0.0278573427349329 0.004592203535139561
v 4.913726314725864e-09 0.030000008642673492 0.01199999451637268
v 1.8170190907440542e-09 -0.02500000037252903 0.012000005692243576
v 1.5355003935013656e-09 -0.030000001192092896 0.01200000662356615
v 4.632207062371663e-09 0.02500000409781933 0.011999995447695255
v -0.001176200807094574 0.029942220076918602 0.011942211538553238
v -0.0011762040667235851 -0.024942219257354736 0.011942221783101559
v -0.0011762009235098958 0.02494221180677414 0.011942213401198387
v -0.001176204183138907 -0.029942220076918602 0.011942222714424133
v 0.011942218989133835 0.027498014271259308 0.0011761975474655628
v 0.011942218989133835 0.021953748539090157 0.001176198711618781
v 0.011942215263843536 -0.02749801240861416 0.0011762073263525963
v 0.011942215263843536 -0.021953752264380455 0.0011762063950300217
v -0.004592199809849262 -0.024561917409300804 0.011086559854447842
v -0.00487726042047143 -0.024519631639122963 0.01095174066722393
v -0.004592197015881538 0.029610542580485344 0.011086549609899521
v -0.004592199809849262 -0.029610538855195045 0.011086560785770416
v -0.004592197481542826 0.024561909958720207 0.011086550541222095
v -0.002940512727946043 0.02985554188489914 0.011619274504482746
v -0.003483414649963379 -0.024726388975977898 0.011483290232717991
v -0.0034834113903343678 0.02977500855922699 0.01148327998816967
v -0.0034834148827940226 -0.029775012284517288 0.011483291164040565
v -0.0034834116231650114 0.024726388975977898 0.011483280919492245
v -0.0023410795256495476 0.02988499402999878 0.011769418604671955
v -0.002341082552447915 -0.024884991347789764 0.01176942978054285
v -0.0024504309985786676 -0.024879619479179382 0.011742041446268559
v -0.0023410795256495476 0.024884987622499466 0.01176941953599453
v -0.002450427273288369 0.024879619479179382 0.01174203772097826
v -0.0029405171517282724 -0.02985554188489914 0.011619281955063343
v -0.002341082552447915 -0.02988499030470848 0.01176942978054285
v -0.0066668386571109295 0.02921963483095169 0.009977632202208042
v -0.006666841916739941 -0.029219631105661392 0.009977643378078938
v -0.007257115561515093 0.023923510685563087 0.00953985471278429
v -0.006666839588433504 0.024071374908089638 0.009977634064853191
v -0.006666841916739941 -0.02407136559486389 0.009977642446756363
v -0.005656756926327944 0.029452629387378693 0.010583051480352879
v -0.005852712783962488 -0.029423559084534645 0.010465607047080994
v -0.005656760185956955 -0.029452625662088394 0.010583062656223774
v -0.005656756926327944 0.024324383586645126 0.010583052411675453
v -0.005656760185956955 -0.02432437613606453 0.0105830617249012
v 0.011769426986575127 0.027579745277762413 0.0023410760331898928
v 0.01178492046892643 0.02204803191125393 0.002236620057374239
v 0.011769426055252552 0.022055355831980705 0.0023410769645124674
v 0.011769422329962254 -0.027579735964536667 0.00234108604490757
v 0.011769422329962254 -0.022055359557271004 0.0023410851135849953
v 0.011784916743636131 -0.02204803191125393 0.002236631466075778
v -0.004877257160842419 0.024519631639122963 0.010951727628707886
v -0.005852708127349615 0.029423559084534645 0.010465599596500397
v 0.011769424192607403 0.027579741552472115 -0.0023410923313349485
v 0.011784921400249004 0.02204803191125393 -0.0022366258781403303
v 0.011769424192607403 0.022055361419916153 -0.0023410911671817303
v 0.011769420467317104 -0.027579737827181816 -0.0023410823196172714
v 0.011769420467317104 -0.022055363282561302 -0.002341083250939846
v 0.011784916743636131 -0.02204803191125393 -0.0022366163320839405
v 0.011942218989133835 0.027498014271259308 -0.0011762138456106186
v 0.011942218989133835 0.021953750401735306 -0.0011762127978727221
v 0.011942215263843536 -0.02749801240861416 -0.0011762040667235851
v 0.011942215263843536 -0.021953750401735306 -0.0011762049980461597
v 0.012000002898275852 0.027470679953694344 -8.136675333503263e-09
v 0.012000002898275852 0.021919118240475655 -7.1439942850304305e-09
v 0.011999998241662979 -0.027470683678984642 1.6874507346997802e-09
v 0.011999998241662979 -0.021919116377830505 6.947689645819821e-10
v -0.007612716406583786 0.028982708230614662 0.009276121854782104
v -0.00761271920055151 -0.028982698917388916 0.009276133030653
v -0.007612716406583786 0.02379627712070942 0.009276122786104679
v -0.0076127187348902225 -0.02379627525806427 0.00927613116800785
v -0.007257119752466679 -0.023923512548208237 0.009539860300719738
v 0.011483285576105118 0.027715075761079788 -0.0034834244288504124
v 0.011483284644782543 0.022190695628523827 -0.0034834234975278378
v 0.01148328185081482 -0.02771507203578949 -0.0034834144171327353
v 0.011483280919492245 -0.022190693765878677 -0.00348341534845531
v 0.01148050557821989 0.027716387063264847 -0.003491193987429142
v 0.011480501852929592 -0.027716387063264847 -0.0034911863040179014
v 0.011086554266512394 0.0278573427349329 -0.004592209123075008
v 0.011086555197834969 0.022378332912921906 -0.004592208191752434
v 0.01108655147254467 -0.022378332912921906 -0.0045922002755105495
v 0.01108655147254467 -0.0278573427349329 -0.004592199344187975
v -0.008708539418876171 0.028708212077617645 0.00823894888162613
v -0.009276121854782104 0.023201100528240204 0.0076127187348902225
v -0.009276125580072403 -0.028505127876996994 0.007612727582454681
v -0.009276121854782104 0.028505127876996994 0.007612717337906361
v -0.009276125580072403 -0.023201096802949905 0.007612726651132107
v -0.00956708937883377 -0.02309698984026909 0.007220404222607613
v -0.009977632202208042 0.02290281094610691 0.006666842382401228
v -0.009567085653543472 0.02309698797762394 0.007220400031656027
v -0.00997763592749834 -0.028254123404622078 0.006666851229965687
v -0.009977632202208042 0.028254128992557526 0.006666840985417366
v -0.00997763592749834 -0.02290281280875206 0.006666849832981825
v -0.008485277183353901 0.028764134272933006 0.008485277183353901
v -0.008485281839966774 -0.028764134272933006 0.008485289290547371
v -0.008485277183353901 0.023484062403440475 0.008485278114676476
v -0.008485281839966774 -0.023484067991375923 0.008485287427902222
v 0.009276125580072403 0.028505127876996994 -0.007612727582454681
v 0.009276125580072403 0.023201093077659607 -0.007612727116793394
v 0.009276121854782104 -0.023201096802949905 -0.007612718269228935
v 0.009567083790898323 -0.02309698797762394 -0.0072204009629786015
v 0.009276121854782104 -0.028505126014351845 -0.007612717337906361
v 0.00870854128152132 0.028708212077617645 -0.00823895912617445
v -0.00870854314416647 -0.028708212077617645 0.0082389572635293
v 0.010583055205643177 0.028037503361701965 -0.005656769033521414
v 0.010583054274320602 0.022616468369960785 -0.005656768102198839
v 0.010583051480352879 -0.022616472095251083 -0.005656760651618242
v 0.010583051480352879 -0.028037499636411667 -0.005656759720295668
v 0.00997763592749834 0.028254128992557526 -0.006666851229965687
v 0.00997763592749834 0.02290281094610691 -0.006666849832981825
v 0.009977632202208042 -0.02290281280875206 -0.006666842382401228
v 0.009977632202208042 -0.02825412154197693 -0.006666840985417366
v 0.008485281839966774 0.028764134272933006 -0.008485289290547371
v 0.008485281839966774 0.023484062403440475 -0.008485287427902222
v 0.008485277183353901 -0.023484067991375923 -0.008485278114676476
v 0.008708537556231022 -0.028708212077617645 -0.008238947950303555
v 0.008485277183353901 -0.028764134272933006 -0.008485278114676476
v 0.009567087516188622 0.02309698797762394 -0.007220410741865635
v -0.010583055205643177 -0.028037499636411667 0.005656769033521414
v -0.010583051480352879 0.022616472095251083 0.005656760651618242
v -0.010583051480352879 0.028037499636411667 0.005656759720295668
v -0.010583055205643177 -0.022616472095251083 0.005656768102198839
v -0.011086554266512394 -0.02785734459757805 0.004592209123075008
v -0.01108655147254467 0.022378332912921906 0.0045922002755105495
v -0.011086552403867245 0.027857348322868347 0.004592199344187975
v -0.011086555197834969 -0.022378332912921906 0.004592208191752434
v -0.01148050744086504 -0.027716387063264847 0.0034911921247839928
v -0.01148328185081482 0.022190695628523827 0.00348341534845531
v -0.011483284644782543 -0.02771507203578949 0.0034834244288504124
v -0.011480503715574741 0.027716387063264847 0.003491178620606661
v -0.011483282782137394 0.027715075761079788 0.0034834144171327353
v -0.011483284644782543 -0.022190695628523827 0.0034834234975278378
v -0.011769420467317104 0.022055357694625854 0.002341083250939846
v -0.011769424192607403 -0.027579737827181816 0.0023410923313349485
v -0.011769420467317104 0.027579737827181816 0.0023410823196172714
v -0.011769424192607403 -0.022055363282561302 0.0023410911671817303
v -0.011999998241662979 0.021919116377830505 -6.947688535596797e-10
v -0.012000002898275852 -0.027470681816339493 8.136675333503263e-09
v -0.011999998241662979 0.02747068740427494 -1.6874515118558975e-09
v -0.012000002898275852 -0.021919118240475655 7.1439942850304305e-09
v -0.011942215263843536 0.021953750401735306 0.0011762049980461597
v -0.011942218989133835 -0.027498014271259308 0.0011762138456106186
v -0.011942215263843536 0.027498016133904457 0.0011762040667235851
v -0.011942218989133835 -0.021953754127025604 0.0011762127978727221
v -0.01178491860628128 0.02204803191125393 0.002236604690551758
v -0.011784922331571579 -0.02204803191125393 0.0022366142366081476
v 0.00761271920055151 0.028982695192098618 -0.009276133030653
v 0.007257118355482817 0.023923510685563087 -0.009539863094687462
v 0.00761271920055151 0.023796269670128822 -0.009276132099330425
v 0.007612716406583786 -0.02379627339541912 -0.009276122786104679
v 0.007612715940922499 -0.028982698917388916 -0.009276121854782104
v 0.005656760185956955 0.029452625662088394 -0.010583062656223774
v 0.005656760185956955 0.02432437613606453 -0.0105830617249012
v 0.005656756926327944 -0.02432437613606453 -0.010583051480352879
v 0.0056567564606666565 -0.029452621936798096 -0.010583051480352879
v 0.0058527071960270405 -0.029423559084534645 -0.010465605184435844
v 0.0048772599548101425 0.024519631639122963 -0.010951736941933632
v 0.004592199809849262 0.029610538855195045 -0.011086560785770416
v 0.004592197015881538 -0.024561913684010506 -0.011086550541222095
v 0.004592197015881538 -0.029610536992549896 -0.011086549609899521
v 0.004592199809849262 0.024561917409300804 -0.011086559854447842
v 0.005852712318301201 0.029423559084534645 -0.010465612635016441
v 0.006666841916739941 0.029219631105661392 -0.009977643378078938
v 0.006666841451078653 0.024071374908089638 -0.009977641515433788
v 0.006666839122772217 -0.02407136559486389 -0.009977633133530617
v 0.006666839122772217 -0.02921963296830654 -0.009977633133530617
v 0.004877256229519844 -0.024519631639122963 -0.010951727628707886
v -0.011483283713459969 0.022190691903233528 -0.003483417211100459
v -0.011483287438750267 -0.02771507017314434 -0.003483407897874713
v -0.011483283713459969 0.02771507389843464 -0.0034834181424230337
v -0.011483287438750267 -0.022190695628523827 -0.003483409062027931
v 0.002341082552447915 0.029884984716773033 -0.011769428849220276
v 0.0023410795256495476 -0.024884991347789764 -0.01176941953599453
v 0.0023410795256495476 -0.02988499216735363 -0.01176941953599453
v 0.002341082552447915 0.024884987622499466 -0.011769428849220276
v 0.007257114630192518 -0.023923512548208237 -0.009539855644106865
v -0.011942215263843536 0.021953752264380455 -0.0011762063950300217
v -0.011942218989133835 -0.027498014271259308 -0.0011761975474655628
v -0.011942215263843536 0.02749801240861416 -0.0011762073263525963
v -0.011942218989133835 -0.021953752264380455 -0.0011761985952034593
v -0.011769422329962254 0.022055359557271004 -0.0023410851135849953
v -0.011784919537603855 0.02204803191125393 -0.0022366181947290897
v -0.011769426055252552 -0.027579737827181816 -0.002341075800359249
v -0.011769422329962254 0.027579734101891518 -0.0023410862777382135
v -0.011784922331571579 -0.02204803004860878 -0.0022366086486727
v -0.011769426055252552 -0.022055359557271004 -0.0023410769645124674
v 0.0024504258763045073 -0.024879619479179382 -0.011742029339075089
v 0.002940512029454112 -0.02985554374754429 -0.011619267985224724
v 0.0024504303000867367 0.024879619479179382 -0.01174203958362341
v 0.002940515987575054 0.02985554188489914 -0.011619278229773045
v 0.0034834148827940226 0.029775014147162437 -0.011483291164040565
v 0.0034834116231650114 -0.024726388975977898 -0.011483280919492245
v 0.0034834113903343678 -0.02977501042187214 -0.01148327998816967
v 0.003483414649963379 0.024726388975977898 -0.011483290232717991
v -0.011086557060480118 -0.0278573427349329 -0.004592193756252527
v -0.01108655333518982 0.022378334775567055 -0.004592202603816986
v -0.01108655333518982 0.027857348322868347 -0.004592203535139561
v -0.011086557060480118 -0.022378332912921906 -0.0045921942219138145
v -1.5355003935013656e-09 0.030000001192092896 -0.01200000662356615
v -4.632206618282453e-09 -0.02500000037252903 -0.011999995447695255
v -4.913725426547444e-09 -0.030000001192092896 -0.01199999451637268
v -1.8170187576771468e-09 0.02500000409781933 -0.012000005692243576
v 0.0011762042995542288 0.02994222193956375 -0.011942222714424133
v 0.0011762010399252176 -0.024942217394709587 -0.011942212469875813
v 0.0011762006906792521 -0.029942218214273453 -0.011942211538553238
v 0.0011762039503082633 0.02494220808148384 -0.011942221783101559
v -0.01148050744086504 -0.027716387063264847 -0.0034911767579615116
v -0.011480503715574741 0.027716387063264847 -0.003491187235340476
v -0.007612721528857946 0.028982702642679214 -0.009276129305362701
v -0.0076127247884869576 -0.028982698917388916 -0.009276118129491806
v -0.007612721528857946 0.02379627898335457 -0.009276128374040127
v -0.007257119752466679 -0.023923510685563087 -0.009539852850139141
v -0.00761272432282567 -0.02379627339541912 -0.00927611906081438
v -0.008485281839966774 0.028764141723513603 -0.008485285565257072
v -0.008485285565257072 -0.028764134272933006 -0.008485273458063602
v -0.008485281839966774 0.02348407357931137 -0.008485284633934498
v -0.008485285565257072 -0.023484066128730774 -0.008485274389386177
v -0.006666844245046377 0.02921963669359684 -0.009977639652788639
v -0.006666847504675388 -0.029219629243016243 -0.009977628476917744
v -0.007257115561515093 0.023923510685563087 -0.009539860300719738
v -0.0066668447107076645 0.024071363732218742 -0.009977638721466064
v -0.006666847504675388 -0.02407136559486389 -0.009977629408240318
v -0.0011762070935219526 0.029942210763692856 -0.011942222714424133
v -0.0011762104695662856 -0.024942217394709587 -0.011942212469875813
v -0.0011762074427679181 0.024942217394709587 -0.011942221783101559
v -0.0011762107023969293 -0.029942220076918602 -0.011942211538553238
v -0.01058305986225605 -0.028037499636411667 -0.005656753666698933
v -0.010583055205643177 0.022616472095251083 -0.0056567625142633915
v -0.010583055205643177 0.028037503361701965 -0.005656763445585966
v -0.010583058930933475 -0.022616472095251083 -0.005656754598021507
v -0.004877260886132717 -0.024519631639122963 -0.010951726697385311
v -0.005656762979924679 0.029452625662088394 -0.010583058930933475
v -0.00565676623955369 -0.029452627524733543 -0.01058304775506258
v -0.005656763445585966 0.02432437799870968 -0.010583057999610901
v -0.005656765308231115 -0.02432437613606453 -0.010583048686385155
v -0.00459220539778471 -0.024561915546655655 -0.011086548678576946
v -0.004592203069478273 0.029610536992549896 -0.011086558923125267
v -0.004592205863445997 -0.029610536992549896 -0.011086547747254372
v -0.004877257160842419 0.024519631639122963 -0.010951737873256207
v -0.004592203069478273 0.024561913684010506 -0.011086557991802692
v -0.0023410858120769262 0.029884980991482735 -0.011769427917897701
v -0.0023410883732140064 -0.024884989485144615 -0.01176941767334938
v -0.00234108604490757 0.024884989485144615 -0.011769426986575127
v -0.0023410888388752937 -0.02988499216735363 -0.011769416742026806
v -0.005852708593010902 0.029423559084534645 -0.01046561449766159
v -0.002940512727946043 0.02985554188489914 -0.01161927916109562
v -0.0024504309985786676 -0.024879619479179382 -0.011742029339075089
v -0.002450427273288369 0.024879619479179382 -0.01174203958362341
v -0.005852712783962488 -0.029423559084534645 -0.01046560239046812
v -0.0034834204707294703 -0.024726388975977898 -0.011483278125524521
v -0.0034834176767617464 0.029775012284517288 -0.011483289301395416
v -0.003483420703560114 -0.02977501042187214 -0.011483278125524521
v -0.0029405171517282724 -0.02985554374754429 -0.01161926705390215
v -0.00348341790959239 0.024726390838623047 -0.011483288370072842
v -0.009567085653543472 0.02309698984026909 -0.007220408879220486
v -0.009276125580072403 0.023201100528240204 -0.007612722460180521
v -0.009276129305362701 -0.028505124151706696 -0.007612713146954775
v -0.009276125580072403 0.028505131602287292 -0.007612723391503096
v -0.009276129305362701 -0.023201094940304756 -0.0076127140782773495
v -0.009977639652788639 -0.02825412154197693 -0.006666834931820631
v -0.00997763592749834 0.02290281467139721 -0.006666844245046377
v -0.009977636858820915 0.028254125267267227 -0.006666845642030239
v -0.009977639652788639 -0.02290281280875206 -0.006666836328804493
v -0.00956708937883377 -0.02309698797762394 -0.007220400031656027
v -0.00870854314416647 -0.028708212077617645 -0.00823894515633583
v -0.008708539418876171 0.028708212077617645 -0.008238958194851875
v 0.025883380323648453 0.015099995769560337 -0.02200000174343586
v 0.019888795912265778 0.015099994838237762 -0.02200000174343586
v -0.01988879218697548 0.015099998563528061 -0.02200000174343586
v -0.024014495313167572 0.015099999494850636 -0.02200000174343586
v -0.021352626383304596 0.015099999494850636 -0.02200000174343586
v -0.022598739713430405 0.015099999494850636 -0.02200000174343586
v 0.021352630108594894 0.015099995769560337 -0.02200000174343586
v 0.022598743438720703 0.015099994838237762 -0.02200000174343586
v 0.02401449903845787 0.015099994838237762 -0.02200000174343586
v -0.025883376598358154 -0.015100001357495785 -0.02200000174343586
v 0.01988878659904003 -0.015100005082786083 -0.02200000174343586
v -0.01988879032433033 -0.015100001357495785 -0.02200000174343586
v -0.0225987546145916 -0.015100001357495785 -0.02200000174343586
v -0.024014504626393318 -0.015100001357495785 -0.02200000174343586
v -0.021352633833885193 -0.015100001357495785 -0.02200000174343586
v 0.0225987508893013 -0.015100005082786083 -0.02200000174343586
v 0.02401449903845787 -0.015100006014108658 -0.02200000174343586
v 0.021352630108594894 -0.015100006014108658 -0.02200000174343586
v -0.025883374735713005 0.015100001357495785 4.168789313752086e-09
v -0.025883376598358154 0.015099999494850636 -0.02200000174343586
v 0.025883380323648453 0.015099998563528061 -7.983487648743903e-09
v 0.01988879218697548 0.015099998563528061 -6.576255096035766e-09
v -0.01988879032433033 0.015100001357495785 2.761557427177763e-09
v -0.025883378461003304 -0.015099997632205486 7.983486760565484e-09
v 0.025883376598358154 -0.01510000228881836 -4.168790201930506e-09
v 0.025883372873067856 -0.015100005082786083 -0.02200000174343586
v 0.01988878846168518 -0.01510000228881836 -2.7615572051331583e-09
v -0.01988879404962063 -0.015099997632205486 6.576255540124976e-09
v -0.026057280600070953 0.014809858985245228 0.0029458680655807257
v 0.026057284325361252 0.01480985525995493 0.0029458575882017612
v 0.020103979855775833 0.01480985525995493 0.0029458587523549795
v -0.020103976130485535 0.014809858985245228 0.002945867134258151
v -0.02878822200000286 0.00838911347091198 0.012555195949971676
v -0.028708212077617645 0.008708542212843895 0.012318295426666737
v 0.02351847104728222 0.008389109745621681 0.01255518477410078
v 0.02878822386264801 0.008389109745621681 0.012555182911455631
v -0.023518478497862816 0.00838911347091198 0.012555195018649101
v -0.02627309039235115 0.014449802227318287 0.0043833013623952866
v 0.026273101568222046 0.014449798502027988 0.0043832892552018166
v 0.02037101238965988 0.014449798502027988 0.0043832906521856785
v -0.02037101238965988 0.014449801295995712 0.004383299965411425
v -0.025926955044269562 0.01502729021012783 0.0014800631906837225
v 0.025926966220140457 0.015027287416160107 0.0014800525968894362
v 0.019942721351981163 0.015027287416160107 0.0014800536446273327
v -0.019942717626690865 0.01502729021012783 0.0014800617936998606
v -0.026057284325361252 -0.01480985525995493 0.0029458722565323114
v 0.026057280600070953 -0.014809858985245228 0.0029458613134920597
v 0.020103976130485535 -0.014809858985245228 0.002945862477645278
v -0.020103979855775833 -0.01480985525995493 0.002945871092379093
v 0.023958338424563408 0.007118090987205505 0.013317007571458817
v 0.023923510685563087 0.007257114630192518 0.013233676552772522
v -0.02910659648478031 0.007118095178157091 0.013317015953361988
v -0.02395833283662796 0.0071180942468345165 0.013317015022039413
v -0.023923508822917938 0.007257118355482817 0.013233688659965992
v 0.02910659648478031 0.007118090521544218 0.013317005708813667
v 0.02351846732199192 -0.008389109745621681 0.012555187568068504
v -0.02878822386264801 -0.008389106020331383 0.012555199675261974
v 0.02878822758793831 -0.008389109745621681 0.01255518663674593
v -0.023518478497862816 -0.008389106020331383 0.0125551987439394
v -0.02592695876955986 -0.015027286484837532 0.001480066915974021
v 0.02592696249485016 -0.015027291141450405 0.0014800562057644129
v 0.019942717626690865 -0.015027291141450405 0.0014800576027482748
v -0.019942721351981163 -0.015027286484837532 0.0014800656354054809
v 0.028708212077617645 -0.008708542212843895 0.012318281456828117
v 0.02309119701385498 -0.009579339064657688 0.011672455817461014
v 0.02309698797762394 -0.009567088447511196 0.011681541800498962
v -0.028708212077617645 -0.008708538487553596 0.012318295426666737
v -0.02839663438498974 -0.00957933533936739 0.011672467924654484
v -0.02309119515120983 -0.00957933533936739 0.01167246699333191
v -0.02309698797762394 -0.009567084722220898 0.011681552976369858
v 0.02839663065969944 -0.009579339064657688 0.01167245488613844
v 0.02210121974349022 -0.011672458611428738 0.009579338133335114
v 0.02204803191125393 -0.011784921400249004 0.009427696466445923
v -0.02762559987604618 -0.01167245488613844 0.009579349309206009
v -0.02210122160613537 -0.01167245488613844 0.009579348377883434
v -0.02204803004860878 -0.011784917674958706 0.009427708573639393
v 0.02762559801340103 -0.011672457680106163 0.009579337202012539
v -0.027208097279071808 -0.012555187568068504 0.008389119990170002
v 0.027208097279071808 -0.012555191293358803 0.008389106020331383
v 0.02158634178340435 -0.012555191293358803 0.008389107882976532
v -0.021586351096630096 -0.01255518663674593 0.008389117196202278
v -0.02627309411764145 -0.01444979663938284 0.004383305087685585
v 0.020371008664369583 -0.014449800364673138 0.004383294377475977
v 0.026273086667060852 -0.014449800364673138 0.004383292980492115
v -0.02037101611495018 -0.01444979663938284 0.004383303690701723
v -0.026457641273736954 -0.014141899533569813 0.005243814550340176
v -0.027716387063264847 -0.011480502784252167 0.009791138581931591
v -0.026548128575086594 -0.01395057700574398 0.00577852688729763
v 0.026548132300376892 -0.013950581662356853 0.00577851478010416
v 0.026457637548446655 -0.014141903258860111 0.0052438052371144295
v 0.020741255953907967 -0.013950581662356853 0.005778516177088022
v -0.020741263404488564 -0.01395057700574398 0.005778525490313768
v 0.022571897134184837 -0.01067731250077486 0.010677308775484562
v -0.02800377458333969 -0.010677308775484562 0.010677321814000607
v -0.02257188968360424 -0.010677308775484562 0.010677319951355457
v 0.02800377458333969 -0.01067731250077486 0.010677307844161987
v 0.027716387063264847 -0.01148050744086504 0.009791124612092972
v 0.02078673616051674 -0.013889258727431297 0.00590817304328084
v -0.020786741748452187 -0.013889255002140999 0.005908184219151735
v 0.029423559084534645 0.0058527071960270405 0.01391548290848732
v -0.02839663438498974 0.009579344652593136 0.011672464199364185
v 0.02309698797762394 0.009567084722220898 0.01168154552578926
v 0.023091189563274384 0.009579339064657688 0.01167245116084814
v 0.02839663065969944 0.009579339064657688 0.011672450229525566
v 0.028708212077617645 0.008708538487553596 0.012318281456828117
v -0.02309698797762394 0.009567088447511196 0.011681552976369858
v -0.023091193288564682 0.009579343721270561 0.01167246326804161
v 0.023923510685563087 -0.007257119752466679 0.013233676552772522
v 0.023958338424563408 -0.007118090987205505 0.013317008502781391
v -0.02910660021007061 -0.007118086330592632 0.013317017816007137
v -0.02395833469927311 -0.007118087261915207 0.013317017816007137
v -0.023923508822917938 -0.007257115561515093 0.013233688659965992
v 0.02910659648478031 -0.007118091452866793 0.013317008502781391
v -0.02800377458333969 0.010677316226065159 0.010677318088710308
v 0.02257189340889454 0.01067731250077486 0.010677305050194263
v 0.028003770858049393 0.01067731250077486 0.010677303187549114
v -0.02257188968360424 0.010677315294742584 0.010677316226065159
v -0.026548124849796295 0.013950583525002003 0.005778523627668619
v 0.026548128575086594 0.013950579799711704 0.005778511054813862
v 0.020786739885807037 0.013889255002140999 0.00590817304328084
v 0.020741255953907967 0.013950579799711704 0.005778512451797724
v -0.020741257816553116 0.013950583525002003 0.00577852176502347
v -0.020786738023161888 0.013889259658753872 0.005908178631216288
v -0.026847781613469124 0.013317013159394264 0.007118096109479666
v 0.026847783476114273 0.013317009434103966 0.007118084002286196
v 0.021129729226231575 0.013317009434103966 0.007118085399270058
v -0.021129729226231575 0.013317013159394264 0.007118094712495804
v -0.029423559084534645 -0.005852708127349615 0.013915495947003365
v -0.027716385200619698 0.01148050557821989 0.009791132062673569
v -0.026457637548446655 0.014141904190182686 0.005243818741291761
v -0.02762559801340103 0.011672460474073887 0.009579346515238285
v 0.02762559801340103 0.011672456748783588 0.00957933347672224
v 0.027716385200619698 0.011480502784252167 0.009791119024157524
v 0.022101223468780518 0.011672456748783588 0.009579334408044815
v -0.022101223468780518 0.011672459542751312 0.009579344652593136
v 0.026457641273736954 0.014141899533569813 0.0052438052371144295
v 0.02204803191125393 0.011784917674958706 0.009427696466445923
v -0.02204803191125393 0.011784922331571579 0.00942770391702652
v -0.02964152581989765 0.0043833027593791485 0.014449805952608585
v 0.024592911824584007 0.004383298102766275 0.014449793845415115
v 0.029641522094607353 0.004383297637104988 0.01444979291409254
v -0.02459290437400341 0.004383301828056574 0.01444980502128601
v -0.029854748398065567 0.0029458682984113693 0.014809863641858101
v 0.024806128814816475 0.002945864340290427 0.014809851534664631
v 0.029854748398065567 0.0029458641074597836 0.014809850603342056
v -0.024806126952171326 0.0029458680655807257 0.014809861779212952
v -0.024519631639122963 -0.004877257160842419 0.01427306979894638
v -0.0294345635920763 -0.005778515711426735 0.013950588181614876
v 0.02429387718439102 -0.005778519902378321 0.013950576074421406
v -0.02429387718439102 -0.005778516177088022 0.013950587250292301
v 0.029434559866786003 -0.005778520368039608 0.013950575143098831
v -0.02459290437400341 -0.004383294377475977 0.01444980502128601
v 0.024519631639122963 -0.004877260886132717 0.014273051172494888
v -0.02964152581989765 -0.00438329391181469 0.01444980688393116
v 0.024592900648713112 -0.004383298102766275 0.01444979477673769
v 0.0296415314078331 -0.004383298568427563 0.01444979291409254
v -0.024519631639122963 0.0048772599548101425 0.014273065142333508
v 0.02429387718439102 0.005778519902378321 0.013950575143098831
v -0.029423559084534645 0.0058527118526399136 0.013915495947003365
v -0.0294345635920763 0.0057785240933299065 0.013950586318969727
v 0.029434559866786003 0.005778519436717033 0.013950573280453682
v -0.02429387718439102 0.005778523627668619 0.013950586318969727
v 0.0249272920191288 0.0014800592325627804 0.015027285553514957
v -0.029927289113402367 0.0014800634235143661 0.015027298592031002
v 0.029927285388112068 0.001480058883316815 0.015027284622192383
v -0.0249272920191288 0.0014800630742684007 0.015027296729385853
v -0.024879619479179382 0.0024504303000867367 0.014883358962833881
v -0.024879619479179382 -0.0024504270404577255 0.014883355237543583
v -0.024806128814816475 -0.002945859683677554 0.014809862710535526
v -0.029854748398065567 -0.002945859218016267 0.014809863641858101
v -0.02985554188489914 -0.002940512727946043 0.014810655266046524
v 0.024806128814816475 -0.0029458634089678526 0.014809852465987206
v 0.02985554188489914 -0.002940516918897629 0.014810644090175629
v 0.029854748398065567 -0.0029458636417984962 0.014809851534664631
v -0.027208097279071808 0.012555192224681377 0.008389114402234554
v 0.027208097279071808 0.012555189430713654 0.008389102295041084
v 0.02158634178340435 0.012555189430713654 0.008389104157686234
v -0.021586349233984947 0.012555193156003952 0.008389114402234554
v -0.026847785338759422 -0.013317007571458817 0.007118099834769964
v 0.026847779750823975 -0.013317011296749115 0.007118087727576494
v 0.021129725500941277 -0.013317011296749115 0.007118089124560356
v -0.021129734814167023 -0.013317007571458817 0.007118098437786102
v 0.024519631639122963 0.004877256695181131 0.014273051172494888
v 0.024879619479179382 0.0024504263419657946 0.014883340336382389
v -0.02985554188489914 0.0029405164532363415 0.014810659922659397
v 0.02985554188489914 0.002940512029454112 0.014810644090175629
v 0.02500000037252903 3.9258885031756563e-10 0.015099997632205486
v -0.02500000037252903 4.167485023742756e-09 0.015100006945431232
v -0.030000001192092896 4.544974618880815e-09 0.015100007876753807
v 0.030000004917383194 1.5098977623750898e-11 0.015099996700882912
v 0.029423559084534645 -0.005852712783962488 0.013915486633777618
v -0.0249272920191288 -0.0014800546923652291 0.015027296729385853
v 0.024927282705903053 -0.0014800585340708494 0.015027285553514957
v -0.029927289113402367 -0.0014800543431192636 0.015027298592031002
v 0.029927292838692665 -0.001480058883316815 0.015027284622192383
v 0.02487962134182453 -0.002450430765748024 0.014883342199027538
v -1.980866848327878e-08 0.05000004544854164 0.040000006556510925
v -1.941127791837971e-08 0.03000004217028618 0.040000010281801224
v -1.9729059275164218e-08 -0.04999995976686478 0.04000002145767212
v -2.0126455169133806e-08 -0.02999996207654476 0.04000001773238182
v -0.0039207045920193195 -0.04999995976686478 0.039807409048080444
v -0.003920706920325756 -0.02999996207654476 0.039807405322790146
v -0.007803631946444511 -0.04999995976686478 0.03923143446445465
v -0.007803634740412235 -0.02999996207654476 0.03923143073916435
v -0.01161140576004982 -0.04999995976686478 0.03827764093875885
v -0.01161140762269497 -0.02999996207654476 0.03827763721346855
v -0.015307356603443623 -0.049999963492155075 0.03695520758628845
v -0.01530736219137907 -0.02999996207654476 0.036955200135707855
v -0.018855895847082138 -0.049999963492155075 0.0352768711745739
v -0.01885589398443699 -0.02999996207654476 0.0352768711745739
v -0.02222282998263836 -0.049999963492155075 0.03325881436467171
v -0.02222282811999321 -0.02999996207654476 0.03325881063938141
v -0.025375761091709137 -0.049999967217445374 0.030920444056391716
v -0.02537575736641884 -0.02999996580183506 0.030920440331101418
v -0.02828430011868477 -0.049999967217445374 0.02828429825603962
v -0.02828429639339447 -0.02999996580183506 0.028284292668104172
v -0.03092043846845627 -0.049999967217445374 0.025375759229063988
v -0.030920442193746567 -0.02999996580183506 0.02537575736641884
v -0.03325881063938141 -0.049999967217445374 0.022222837433218956
v -0.03325881063938141 -0.02999996580183506 0.022222833707928658
v -0.0352768711745739 -0.049999967217445374 0.018855897709727287
v -0.0352768711745739 -0.02999996952712536 0.01885589398443699
v -0.03695521131157875 -0.049999967217445374 0.015307367779314518
v -0.03695521131157875 -0.02999996952712536 0.01530736405402422
v -0.03827764466404915 -0.04999997094273567 0.01161141600459814
v -0.03827764466404915 -0.02999996952712536 0.011611411347985268
v -0.03923143818974495 -0.04999997094273567 0.0078036426566541195
v -0.03923143818974495 -0.02999996952712536 0.007803637534379959
v -0.03980742394924164 -0.04999997094273567 0.003920715302228928
v -0.03980742394924164 -0.029999971389770508 0.003920711576938629
v -0.04000003635883331 -0.04999997094273567 2.9385322619646104e-08
v -0.04000003635883331 -0.029999971389770508 2.5411733162172823e-08
v -0.03980742394924164 -0.04999997094273567 -0.0039206561632454395
v -0.03980742394924164 -0.029999971389770508 -0.003920660354197025
v -0.039231445640325546 -0.04999997094273567 -0.007803583983331919
v -0.039231445640325546 -0.029999973252415657 -0.0078035881742835045
v -0.038277652114629745 -0.04999997094273567 -0.01161135733127594
v -0.038277652114629745 -0.029999973252415657 -0.011611361987888813
v -0.03695521876215935 -0.04999997466802597 -0.015307311899960041
v -0.03695521876215935 -0.029999973252415657 -0.01530731562525034
v -0.035276878625154495 -0.04999997466802597 -0.01885584369301796
v -0.035276878625154495 -0.029999973252415657 -0.018855847418308258
v -0.0332588255405426 -0.04999997466802597 -0.02222278341650963
v -0.0332588255405426 -0.029999975115060806 -0.022222787141799927
v -0.030920453369617462 -0.04999997466802597 -0.02537570893764496
v -0.03092045895755291 -0.029999975115060806 -0.025375710800290108
v -0.028284315019845963 -0.04999997466802597 -0.02828424796462059
v -0.028284313157200813 -0.029999975115060806 -0.02828425168991089
v -0.02537577599287033 -0.04999997466802597 -0.030920393764972687
v -0.02537577413022518 -0.029999975115060806 -0.030920397490262985
v -0.022222850471735 -0.04999997839331627 -0.03325875848531723
v -0.02222284860908985 -0.029999980702996254 -0.03325876221060753
v -0.018855907022953033 -0.04999997839331627 -0.03527682647109032
v -0.01885591261088848 -0.029999980702996254 -0.03527682647109032
v -0.015307383611798286 -0.04999997839331627 -0.03695515915751457
v -0.015307381749153137 -0.029999980702996254 -0.03695516288280487
v -0.011611427180469036 -0.04999998211860657 -0.03827759250998497
v -0.011611429043114185 -0.029999980702996254 -0.03827759623527527
v -0.00780365290120244 -0.04999998211860657 -0.03923138976097107
v -0.007803655695170164 -0.029999980702996254 -0.03923139348626137
v -0.003920726478099823 -0.04999998211860657 -0.03980737179517746
v -0.003920728340744972 -0.029999980702996254 -0.03980737552046776
v -4.1226481783951385e-08 -0.04999998211860657 -0.039999984204769135
v -4.1623870572493615e-08 -0.029999980702996254 -0.03999998793005943
v 0.003920643590390682 -0.04999998211860657 -0.03980737179517746
v 0.0039206454530358315 -0.029999980702996254 -0.03980737552046776
v 0.007803570944815874 -0.04999998211860657 -0.039231397211551666
v 0.007803572341799736 -0.029999980702996254 -0.039231397211551666
v 0.01161134522408247 -0.04999998211860657 -0.03827759996056557
v 0.01161134708672762 -0.029999980702996254 -0.038277603685855865
v 0.015307299792766571 -0.04999997839331627 -0.03695516660809517
v 0.015307299792766571 -0.029999982565641403 -0.03695517033338547
v 0.018855830654501915 -0.04999997839331627 -0.035276833921670914
v 0.018855830654501915 -0.029999982565641403 -0.03527683764696121
v 0.022222770377993584 -0.04999997466802597 -0.03325877711176872
v 0.022222770377993584 -0.029999978840351105 -0.03325877711176872
v 0.025375695899128914 -0.04999997839331627 -0.03092041052877903
v 0.025375695899128914 -0.029999976977705956 -0.03092041239142418
v 0.028284234926104546 -0.04999997839331627 -0.028284262865781784
v 0.028284234926104546 -0.029999976977705956 -0.028284266591072083
v 0.030920380726456642 -0.04999997094273567 -0.025375723838806152
v 0.030920380726456642 -0.029999976977705956 -0.02537572756409645
v 0.033258747309446335 -0.04999997466802597 -0.02222280204296112
v 0.033258747309446335 -0.029999973252415657 -0.02222280390560627
v 0.03527681529521942 -0.04999997094273567 -0.018855862319469452
v 0.03527681529521942 -0.029999975115060806 -0.01885586604475975
v 0.03695514798164368 -0.04999997466802597 -0.015307330526411533
v 0.03695514798164368 -0.029999971389770508 -0.015307335183024406
v 0.038277581334114075 -0.04999997094273567 -0.011611377820372581
v 0.038277581334114075 -0.029999973252415657 -0.01161138340830803
v 0.039231378585100174 -0.04999997094273567 -0.0078036049380898476
v 0.039231378585100174 -0.029999973252415657 -0.007803609594702721
v 0.039807360619306564 -0.04999997466802597 -0.003920678049325943
v 0.039807360619306564 -0.029999975115060806 -0.0039206817746162415
v 0.03999997302889824 -0.04999997466802597 7.887904551751035e-09
v 0.03999997302889824 -0.029999975115060806 3.9143133179209144e-09
v 0.039807360619306564 -0.04999997466802597 0.0039206938818097115
v 0.039807360619306564 -0.029999975115060806 0.003920690156519413
v 0.03923138603568077 -0.04999997094273567 0.007803621701896191
v 0.03923138603568077 -0.02999996952712536 0.007803616113960743
v 0.03827758878469467 -0.04999997094273567 0.0116113955155015
v 0.03827758878469467 -0.02999996952712536 0.011611390858888626
v 0.036955155432224274 -0.049999967217445374 0.015307349152863026
v 0.036955155432224274 -0.02999996766448021 0.015307344496250153
v 0.03527682274580002 -0.049999963492155075 0.018855877220630646
v 0.03527682274580002 -0.029999971389770508 0.018855873495340347
v 0.03325876221060753 -0.049999967217445374 0.022222816944122314
v 0.03325876221060753 -0.02999996580183506 0.022222815081477165
v 0.030920395627617836 -0.049999963492155075 0.025375742465257645
v 0.030920395627617836 -0.02999996580183506 0.025375738739967346
v 0.02828424982726574 -0.04999997094273567 0.028284281492233276
v 0.02828424982726574 -0.02999996580183506 0.028284277766942978
v 0.025375710800290108 -0.04999997094273567 0.030920429155230522
v 0.025375710800290108 -0.02999996580183506 0.030920427292585373
v 0.022222789004445076 -0.049999967217445374 0.03325879946351051
v 0.022222789004445076 -0.029999960213899612 0.03325879946351051
v 0.018855849280953407 -0.049999963492155075 0.0352768637239933
v 0.018855849280953407 -0.02999996393918991 0.035276859998703
v 0.015307318419218063 -0.049999963492155075 0.03695519641041756
v 0.015307318419218063 -0.02999996393918991 0.03695519268512726
v 0.011611365713179111 -0.04999995976686478 0.03827763348817825
v 0.01161136757582426 -0.02999996207654476 0.038277626037597656
v 0.007803591899573803 -0.04999995976686478 0.039231427013874054
v 0.007803593296557665 -0.02999996207654476 0.039231427013874054
v 0.003920665010809898 -0.04999995976686478 0.039807409048080444
v 0.003920666873455048 -0.02999996207654476 0.039807405322790146
v -0.003920706454664469 0.03000004217028618 0.03980739787220955
v -0.0039207045920193195 0.05000004544854164 0.03980739414691925
v -0.007803633809089661 0.03000004217028618 0.03923141956329346
v -0.007803631946444511 0.05000004544854164 0.03923141956329346
v -0.01161140762269497 0.03000004217028618 0.038277626037597656
v -0.01161140576004982 0.05000004544854164 0.03827762231230736
v -0.015307360328733921 0.030000044032931328 0.03695519268512726
v -0.015307360328733921 0.05000004172325134 0.03695518895983696
v -0.01885589025914669 0.030000044032931328 0.035276859998703
v -0.01885589025914669 0.05000004172325134 0.035276856273412704
v -0.02222282998263836 0.03000004030764103 0.03325879946351051
v -0.02222282998263836 0.050000037997961044 0.03325879946351051
v -0.02537575736641884 0.03000003844499588 0.03092043101787567
v -0.02537575736641884 0.05000004172325134 0.030920429155230522
v -0.02828429639339447 0.03000003844499588 0.028284285217523575
v -0.02828429639339447 0.05000004172325134 0.028284281492233276
v -0.030920442193746567 0.03000003844499588 0.025375746190547943
v -0.030920442193746567 0.050000034272670746 0.025375742465257645
v -0.03325881063938141 0.03000003471970558 0.022222822532057762
v -0.03325881063938141 0.050000037997961044 0.022222820669412613
v -0.0352768748998642 0.03000003658235073 0.018855884671211243
v -0.0352768748998642 0.050000034272670746 0.018855880945920944
v -0.03695521131157875 0.030000032857060432 0.015307356603443623
v -0.03695521131157875 0.050000037997961044 0.01530735194683075
v -0.03827764466404915 0.03000003471970558 0.01161140389740467
v -0.03827764466404915 0.050000034272670746 0.011611399240791798
v -0.03923143818974495 0.03000003471970558 0.0078036305494606495
v -0.03923143818974495 0.050000034272670746 0.007803624961525202
v -0.03980742022395134 0.03000003658235073 0.003920703195035458
v -0.03980742022395134 0.050000037997961044 0.003920699469745159
v -0.040000032633543015 0.03000003658235073 1.730565735158507e-08
v -0.040000032633543015 0.050000037997961044 1.3332067005933368e-08
v -0.03980742022395134 0.03000003658235073 -0.003920668736100197
v -0.03980742022395134 0.050000037997961044 -0.003920672461390495
v -0.039231445640325546 0.030000029131770134 -0.007803596090525389
v -0.039231445640325546 0.050000034272670746 -0.007803600747138262
v -0.038277652114629745 0.030000029131770134 -0.01161136943846941
v -0.038277652114629745 0.050000034272670746 -0.011611374095082283
v -0.03695521876215935 0.030000027269124985 -0.015307323075830936
v -0.03695521876215935 0.05000003054738045 -0.01530732773244381
v -0.035276882350444794 0.030000032857060432 -0.018855854868888855
v -0.035276882350444794 0.05000002682209015 -0.018855858594179153
v -0.0332588255405426 0.030000025406479836 -0.022222796455025673
v -0.0332588255405426 0.05000003054738045 -0.022222798317670822
v -0.03092045709490776 0.030000029131770134 -0.025375720113515854
v -0.03092045709490776 0.05000002682209015 -0.025375723838806152
v -0.028284311294555664 0.030000029131770134 -0.028284259140491486
v -0.028284311294555664 0.050000034272670746 -0.028284262865781784
v -0.025375772267580032 0.030000029131770134 -0.03092040866613388
v -0.025375772267580032 0.050000034272670746 -0.03092041052877903
v -0.022222850471735 0.030000019818544388 -0.03325877711176872
v -0.022222850471735 0.05000003054738045 -0.03325877711176872
v -0.018855910748243332 0.030000023543834686 -0.03527683764696121
v -0.018855910748243332 0.05000002682209015 -0.03527684137225151
v -0.015307379886507988 0.030000023543834686 -0.03695517033338547
v -0.015307379886507988 0.05000002682209015 -0.036955174058675766
v -0.011611429043114185 0.030000021681189537 -0.038277603685855865
v -0.011611427180469036 0.05000002309679985 -0.038277607411146164
v -0.0078036547638475895 0.030000021681189537 -0.03923140466213226
v -0.00780365290120244 0.05000002309679985 -0.03923140466213226
v -0.003920727875083685 0.030000021681189537 -0.039807382971048355
v -0.003920726478099823 0.05000002309679985 -0.039807386696338654
v -4.090869154538268e-08 0.030000021681189537 -0.03999999538064003
v -4.130608388663859e-08 0.05000002309679985 -0.03999999910593033
v 0.003920645918697119 0.030000021681189537 -0.039807382971048355
v 0.003920643590390682 0.05000002309679985 -0.039807386696338654
v 0.007803573273122311 0.030000021681189537 -0.03923140838742256
v 0.007803570944815874 0.05000002309679985 -0.03923141211271286
v 0.01161134708672762 0.030000021681189537 -0.03827761113643646
v 0.01161134522408247 0.05000002309679985 -0.03827761486172676
v 0.01530730165541172 0.030000021681189537 -0.036955177783966064
v 0.015307295136153698 0.05000002682209015 -0.03695518150925636
v 0.018855832517147064 0.030000021681189537 -0.03527684882283211
v 0.018855834379792213 0.05000002682209015 -0.03527684882283211
v 0.022222768515348434 0.030000021681189537 -0.03325878828763962
v 0.022222770377993584 0.05000002682209015 -0.033258792012929916
v 0.025375697761774063 0.030000027269124985 -0.030920421704649925
v 0.025375699624419212 0.05000003054738045 -0.030920425429940224
v 0.028284236788749695 0.030000027269124985 -0.02828427404165268
v 0.028284238651394844 0.05000003054738045 -0.028284277766942978
v 0.03092038258910179 0.030000027269124985 -0.025375736877322197
v 0.030920377001166344 0.05000003054738045 -0.025375738739967346
v 0.033258747309446335 0.030000027269124985 -0.022222813218832016
v 0.033258747309446335 0.05000003054738045 -0.022222816944122314
v 0.03527681156992912 0.030000029131770134 -0.018855873495340347
v 0.03527681156992912 0.05000003054738045 -0.018855877220630646
v 0.03695514798164368 0.030000029131770134 -0.015307343564927578
v 0.03695514798164368 0.05000003054738045 -0.015307347290217876
v 0.038277581334114075 0.030000029131770134 -0.011611390858888626
v 0.038277581334114075 0.050000034272670746 -0.0116113955155015
v 0.039231378585100174 0.030000029131770134 -0.007803617510944605
v 0.039231378585100174 0.050000034272670746 -0.007803621701896191
v 0.03980736434459686 0.030000032857060432 -0.003920690156519413
v 0.03980736434459686 0.050000034272670746 -0.0039206938818097115
v 0.03999997675418854 0.030000032857060432 -4.19176116039921e-09
v 0.03999997675418854 0.050000034272670746 -8.165351061961701e-09
v 0.03980736434459686 0.030000032857060432 0.0039206817746162415
v 0.03980736434459686 0.050000034272670746 0.003920678049325943
v 0.03923138603568077 0.03000003471970558 0.007803609129041433
v 0.03923138603568077 0.050000034272670746 0.007803604006767273
v 0.03827758878469467 0.03000003471970558 0.01161138340830803
v 0.03827758878469467 0.050000034272670746 0.011611377820372581
v 0.036955155432224274 0.03000003471970558 0.015307337045669556
v 0.036955155432224274 0.050000037997961044 0.015307332389056683
v 0.03527681902050972 0.03000003471970558 0.01885586604475975
v 0.03527681902050972 0.050000037997961044 0.018855862319469452
v 0.03325876221060753 0.03000003658235073 0.02222280576825142
v 0.03325876221060753 0.050000037997961044 0.02222280204296112
v 0.030920397490262985 0.03000003658235073 0.0253757294267416
v 0.030920391902327538 0.050000037997961044 0.02537572756409645
v 0.02828425168991089 0.03000003658235073 0.02828427031636238
v 0.028284253552556038 0.050000037997961044 0.028284266591072083
v 0.025375712662935257 0.03000003658235073 0.030920417979359627
v 0.025375714525580406 0.050000037997961044 0.03092041425406933
v 0.022222787141799927 0.03000004217028618 0.03325878828763962
v 0.022222789004445076 0.05000004172325134 0.03325878456234932
v 0.018855851143598557 0.03000004217028618 0.03527684882283211
v 0.01885584555566311 0.05000004172325134 0.03527684882283211
v 0.015307320281863213 0.03000004217028618 0.03695518523454666
v 0.015307322144508362 0.05000004172325134 0.03695518150925636
v 0.01161136757582426 0.03000004217028618 0.03827761858701706
v 0.011611365713179111 0.05000004544854164 0.03827761486172676
v 0.007803594693541527 0.03000004217028618 0.03923141583800316
v 0.007803591899573803 0.05000004544854164 0.03923141211271286
v 0.003920667339116335 0.03000004217028618 0.03980739787220955
v 0.003920665010809898 0.05000004544854164 0.03980739414691925
usemtl Alu
f 22 544 543 23
f 51 9 50
f 1 549 551 2
f 42 540 556
f 19 59 60
f 42 542 540
f 2 43 3
f 41 541 542 42
f 41 80 539 541
f 40 80 41
f 26 66 27
f 20 554 552 21
f 43 44 3
f 39 78 40
f 5 4 45
f 44 45 3
f 25 64 26
f 78 38 77
f 6 5 47
f 23 62 24
f 47 5 46
f 28 68 29
f 7 6 47
f 78 39 38
f 36 75 76
f 48 7 47
f 75 36 74
f 8 7 49
f 17 57 58
f 34 74 35
f 49 9 8
f 34 73 74
f 50 9 49
f 33 73 34
f 10 9 51
f 33 72 73
f 24 64 25
f 72 33 71
f 11 10 52
f 76 38 37
f 31 71 32
f 31 70 71
f 11 52 12
f 71 33 32
f 31 69 70
f 54 12 53
f 30 69 31
f 54 13 12
f 30 68 69
f 55 13 54
f 29 68 30
f 55 14 13
f 67 68 28
f 14 55 15
f 49 7 48
f 28 66 67
f 57 15 56
f 27 66 28
f 57 16 15
f 65 66 26
f 16 57 17
f 64 65 26
f 40 78 79
f 77 38 76
f 18 59 19
f 63 64 24
f 17 59 18
f 17 58 59
f 76 37 36
f 62 63 24
f 52 10 51
f 19 60 61
f 40 79 80
f 19 61 20
f 74 36 35
f 46 5 45
f 20 61 547 554
f 21 552 553
f 21 553 562
f 3 45 4
f 82 145 81
f 15 55 56
f 12 52 53
f 119 120 183
f 83 146 82
f 145 208 144
f 84 148 83
f 146 145 82
f 85 148 84
f 208 143 144
f 141 206 205
f 208 207 143
f 145 144 81
f 86 87 150
f 160 159 95
f 147 146 83
f 140 141 204
f 87 88 151
f 206 141 142
f 111 175 174
f 139 140 204
f 105 169 168
f 139 204 203
f 148 85 149
f 118 119 182
f 88 89 152
f 138 139 203
f 138 203 202
f 109 174 173
f 150 87 151
f 137 138 202
f 123 124 188
f 151 88 152
f 106 107 171
f 85 86 150
f 152 89 153
f 136 137 200
f 91 154 90
f 153 89 154
f 122 123 186
f 200 199 135
f 92 156 91
f 120 121 184
f 156 155 91
f 125 126 190
f 93 156 92
f 117 118 182
f 200 135 136
f 133 198 197
f 157 156 93
f 197 196 133
f 94 158 93
f 103 167 166
f 206 142 143
f 131 132 196
f 158 94 95
f 131 196 195
f 159 158 95
f 130 131 195
f 96 160 95
f 130 195 194
f 121 122 186
f 194 193 130
f 97 161 96
f 141 205 204
f 198 134 135
f 128 129 193
f 128 193 192
f 97 98 161
f 193 129 130
f 128 192 191
f 163 162 98
f 127 128 191
f 163 98 99
f 127 191 190
f 164 163 99
f 126 127 190
f 164 99 100
f 189 125 190
f 100 101 164
f 109 173 172
f 158 157 93
f 125 189 188
f 166 165 101
f 124 125 188
f 166 101 102
f 187 123 188
f 102 103 166
f 186 123 187
f 137 201 200
f 199 198 135
f 104 105 168
f 185 121 186
f 103 104 168
f 103 168 167
f 198 133 134
f 184 121 185
f 161 160 96
f 105 170 169
f 137 202 201
f 183 120 184
f 105 106 170
f 182 119 183
f 196 132 133
f 155 154 91
f 106 171 170
f 181 117 182
f 149 85 150
f 180 117 181
f 107 172 171
f 110 111 174
f 107 108 172
f 179 178 115
f 108 109 172
f 115 116 180
f 89 90 154
f 178 177 114
f 179 115 180
f 174 109 110
f 177 112 113
f 176 175 111
f 176 111 112
f 117 180 116
f 101 165 164
f 148 147 83
f 177 176 112
f 115 178 114
f 207 206 143
f 114 177 113
f 98 162 161
f 23 24 121 120
f 24 25 122 121
f 25 26 123 122
f 26 27 124 123
f 27 28 347 343 324 330 334 285 316 267 271 125 124
f 28 29 373 368 379 375 349 347
f 29 30 432 433 417 383 373
f 30 31 460 461 428 422 432
f 31 32 469 473 442 460
f 32 33 516 511 493 469
f 33 34 515 502 507 521 516
f 34 35 536 484 479 488 515
f 62 538 558 580 567 576 657 656 183 184
f 35 36 478 467 499 532 528 536
f 63 62 184 185
f 36 37 134 133 400 401 405 413 409 449 454 440 478
f 64 63 185 186
f 37 38 135 134
f 65 64 186 187
f 38 39 136 135
f 66 65 187 188 317 286 335 331 325
f 39 40 137 136
f 67 66 325 326 344 350 376 380 388
f 40 41 138 137
f 68 67 388 369 384 419 418
f 41 42 139 138
f 1 2 88 87
f 69 68 418 434 423 427
f 42 556 555 578 565 574 666 140 139
f 2 3 89 88
f 70 69 427 431 464 459
f 3 4 90 89
f 71 70 459 445 476 472
f 4 5 91 90
f 72 71 472 495 513 518
f 5 6 92 91
f 73 72 518 524 510 509
f 6 7 477 439 453 448 408 412 404 399 397 93 92
f 74 73 509 504 491 490
f 7 8 535 527 530 497 465 477
f 75 74 490 481 486 526 525
f 8 9 519 489 480 485 535
f 76 75 525 531 498 466 438 451 452
f 9 10 523 522 508 503 519
f 77 76 452 447 407 411 415 198 199
f 10 11 471 496 514 523
f 78 77 199 200
f 11 12 458 444 475 471
f 79 78 200 201
f 12 13 426 425 430 463 458
f 80 79 201 202
f 13 14 386 387 421 436 426
f 43 548 564 599 585 621 628 635 151 152
f 14 15 348 352 378 382 372 386
f 44 43 152 153
f 15 16 102 101 272 269 319 287 336 332 327 345 348
f 45 44 153 154
f 16 17 103 102
f 46 45 154 155
f 17 18 104 103
f 47 46 155 156 416 414 410 450 455
f 18 19 105 104
f 48 47 455 456 441 468 500 533 534
f 19 20 106 105
f 49 48 534 529 487 483 482
f 20 21 107 106
f 50 49 482 492 505 501
f 21 562 561 597 583 620 626 108 107
f 51 50 501 506 520 517
f 52 51 517 512 494 470
f 53 52 470 474 443 457
f 54 53 457 462 429 437
f 55 54 437 424 435 446
f 56 55 446 420 385 370 371
f 57 56 371 381 377 351 346 328 329
f 58 57 329 333 337 288 321 166 167
f 59 58 167 168
f 60 59 168 169
f 61 60 169 170
f 22 23 120 119
f 465 468 441 439 477
f 466 467 478 440 438
f 240 239 232 230 231
f 241 238 227 229 243
f 397 393 389 361 355 374 94 93
f 393 396 392 389
f 394 395 391 390
f 332 333 329 328 327
f 331 330 324 326 325
f 271 273 209 244 249 214 126 125
f 278 282 300 301 160 161
f 345 346 351 352 348
f 344 343 347 349 350
f 290 315 310 342 158 159
f 372 370 385 387 386
f 369 368 373 383 384
f 382 381 371 370 372
f 380 379 368 369 388
f 496 494 512 514
f 495 493 511 513
f 254 253 248 212 276 272 101 100
f 436 435 424 425 426
f 434 433 432 422 423
f 530 533 500 497
f 531 532 499 498
f 297 295 301 300 305 304
f 298 296 294 299 302 303
f 378 377 381 382
f 376 375 379 380
f 221 219 216 217
f 220 218 213 215
f 279 224 259 264 98 97
f 292 289 295 297
f 293 291 296 298
f 399 402 396 393 397
f 398 401 400 395 394
f 226 220 215 250 251 189 190
f 303 302 283 280 193 194
f 307 310 315 313 312
f 309 306 323 311 314
f 387 385 420 421
f 384 383 417 419
f 342 341 367 357 358 157 158
f 421 420 446 435 436
f 419 417 433 434 418
f 243 229 234 226 190 191
f 258 257 223 278 161 162
f 245 252 216 219 242 164 165
f 232 239 263 258 162 163
f 276 275 270 269 272
f 274 273 271 267 268
f 305 300 282 284
f 302 299 281 283
f 236 237 221 217 254 100 99
f 497 500 468 465
f 498 499 467 466
f 253 252 245 247 248
f 250 249 244 246 251
f 439 441 456 453
f 438 440 454 451
f 444 443 474 475
f 445 442 473 476
f 453 456 455 450 448
f 451 454 449 447 452
f 313 315 290 289 292
f 314 311 291 293 322
f 269 270 320 319
f 268 267 316 318
f 389 392 363 361
f 390 391 362 359
f 353 356 362 391 395 400 133 132
f 360 354 366 340 308 196 197
f 265 263 239 240
f 266 262 238 241
f 212 211 275 276
f 210 209 273 274
f 361 363 358 357 355
f 359 362 356 354 360
f 304 305 284 279 97 96
f 527 529 534 533 530
f 526 528 532 531 525
f 374 365 339 307 312 95 94
f 260 266 241 243 191 192
f 471 470 494 496
f 472 469 493 495
f 312 313 292 297 304 96 95
f 301 295 289 290 159 160
f 259 257 258 263 265 264
f 261 256 255 262 266 260
f 319 320 321 288 287
f 318 316 285 286 317
f 277 281 299 294 130 129
f 339 341 342 310 307
f 340 338 306 309 308
f 294 296 291 311 323 131 130
f 365 367 341 339
f 366 364 338 340
f 352 351 377 378
f 350 349 375 376
f 323 306 338 364 353 132 131
f 430 429 462 463
f 431 428 461 464
f 228 227 238 262 255 128 127
f 280 225 261 260 192 193
f 475 474 470 471
f 476 473 469 472
f 355 357 367 365 374
f 354 356 353 364 366
f 242 235 230 232 163 164
f 415 403 398 394 390 359 360 197 198
f 508 506 501 505 503
f 510 507 502 504 509
f 485 487 529 527 535
f 486 484 536 528 526
f 284 282 278 279
f 283 281 277 280
f 514 512 517 520 522 523
f 513 511 516 521 524 518
f 463 462 457 443 444 458
f 464 461 460 442 445 459
f 336 337 333 332
f 335 334 330 331
f 358 363 392 396 402 406 416 156 157
f 264 265 240 231 236 99 98
f 327 328 346 345
f 326 324 343 344
f 279 278 223 224
f 280 277 222 225
f 489 492 482 483 480
f 491 488 479 481 490
f 237 235 242 219 221
f 234 233 218 220 226
f 255 256 222 277 129 128
f 231 230 235 237 236
f 229 227 228 233 234
f 217 216 252 253 254
f 215 213 214 249 250
f 503 505 492 489 519
f 504 502 515 488 491
f 224 223 257 259
f 225 222 256 261
f 412 414 416 406 404
f 411 413 405 403 415
f 248 247 211 212
f 246 244 209 210
f 287 288 337 336
f 286 285 334 335
f 448 450 410 408
f 447 449 409 407
f 522 520 506 508
f 524 521 507 510
f 425 424 437 429 430
f 423 422 428 431 427
f 322 293 298 303 194 195
f 404 406 402 399
f 403 405 401 398
f 480 483 487 485
f 481 479 484 486
f 308 309 314 322 195 196
f 321 320 270 275 211 247 245 165 166
f 408 410 414 412
f 407 409 413 411
f 214 213 218 233 228 127 126
f 251 246 210 274 268 318 317 188 189
f 624 628 621 618 622
f 627 625 626 620 619
f 590 573 642 205 206
f 578 581 568 565
f 580 579 566 567
f 574 577 658 654 666
f 576 575 672 655 657
f 722 681 677 697 636 115 114
f 667 671 653 650 665
f 670 668 669 652 651
f 689 685 645 644 174 175
f 725 730 707 82 81
f 603 604 630 623 85 84
f 711 714 674 671 667
f 713 712 668 670 673
f 730 728 704 705 706 707
f 729 731 709 710 708 732
f 727 687 692 710 709 112 111
f 569 573 590 589 588
f 571 572 591 586 587
f 614 617 718 715
f 616 615 716 717
f 660 663 714 711
f 662 661 712 713
f 723 729 732 176 177
f 720 699 723 177 178
f 550 549 1
f 602 601 629 608 609 172 173
f 636 591 572 641 116 115
f 543 538 62 23
f 537 545 22
f 648 647 686 683 147 148
f 664 646 593 603 84 83
f 707 706 690 684 664 83 82
f 650 653 643 637
f 651 652 640 639
f 637 643 642 573 569 570
f 639 640 641 572 571 638
f 606 595 648 148 149
f 638 571 587 180 181
f 704 728 724 145 146
f 560 564 548 551 549 550 546
f 563 561 562 553 552 554 547
f 570 569 588 695 143 142
f 546 550 1
f 715 718 635 628 624
f 717 716 625 627 634
f 618 621 585 582
f 619 620 583 584
f 644 592 602 173 174
f 679 682 703 702 700 721
f 680 681 722 701 699 720
f 582 585 599 596
f 584 583 597 598
f 587 586 694 719 179 180
f 695 696 675 679 721 144 143
f 709 731 726 113 112
f 724 702 703 208 145
f 610 611 612 617 614
f 608 613 615 616 609
f 669 668 712 661 655 672 118 117
f 693 698 589 590 206 207
f 612 611 631 605 606 149 150
f 642 643 653 671 674 204 205
f 600 594 649 727 111 110
f 725 724 728 730
f 723 726 731 729
f 703 682 678 693 207 208
f 557 558 538 543 544 545 537
f 559 555 556 540 542 541 539
f 656 662 713 673 182 183
f 726 701 722 114 113
f 666 654 660 711 667 665 141 140
f 654 658 659 663 660
f 657 655 661 662 656
f 696 698 693 678 675
f 694 697 677 676 719
f 623 610 614 715 624 622 86 85
f 635 718 617 612 150 151
f 700 702 724 725
f 699 701 726 723
f 641 640 652 669 117 116
f 665 650 637 570 142 141
f 684 686 647 646 664
f 685 687 727 649 645
f 630 631 611 610 623
f 629 632 633 613 608
f 675 678 682 679
f 676 677 681 680
f 706 705 688 690
f 708 710 692 691
f 555 559 581 578
f 558 557 579 580
f 672 575 566 579 557 537 22 119 118
f 626 625 716 615 613 633 109 108
f 565 568 577 574
f 567 566 575 576
f 593 595 606 605 604 603
f 592 594 600 607 601 602
f 719 676 680 720 178 179
f 659 658 577 568 581 559 539 80 202 203
f 646 647 648 595 593
f 645 649 594 592 644
f 633 632 607 600 110 109
f 673 670 651 639 638 181 182
f 596 599 564 560
f 598 597 561 563
f 690 688 683 686 684
f 691 692 687 685 689
f 588 589 698 696 695
f 586 591 636 697 694
f 545 544 22
f 634 627 619 584 598 563 547 61 170 171
f 609 616 717 634 171 172
f 604 605 631 630
f 601 607 632 629
f 551 548 43 2
f 674 714 663 659 203 204
f 721 700 725 81 144
f 732 708 691 689 175 176
f 622 618 582 596 560 546 1 87 86
f 683 688 705 704 146 147
usemtl Steel
f 864 733 988 986 984 982 980 978 976 974 972 970 968 966 964 962 960 958 956 954 952 950 948 946 944 942 940 938 936 934 932 930 928 926 924 922 920 918 916 914 912 910 908 906 904 902 900 898 896 894 892 890 888 886 884 882 880 878 876 874 872 870 868 866
f 735 736 738 737
f 983 984 986 985
f 737 738 740 739
f 981 982 984 983
f 739 740 742 741
f 979 980 982 981
f 741 742 744 743
f 977 978 980 979
f 743 744 746 745
f 975 976 978 977
f 745 746 748 747
f 973 974 976 975
f 747 748 750 749
f 971 972 974 973
f 749 750 752 751
f 969 970 972 971
f 751 752 754 753
f 967 968 970 969
f 753 754 756 755
f 965 966 968 967
f 755 756 758 757
f 963 964 966 965
f 757 758 760 759
f 961 962 964 963
f 759 760 762 761
f 959 960 962 961
f 761 762 764 763
f 957 958 960 959
f 763 764 766 765
f 955 956 958 957
f 765 766 768 767
f 953 954 956 955
f 767 768 770 769
f 951 952 954 953
f 769 770 772 771
f 949 950 952 951
f 771 772 774 773
f 947 948 950 949
f 773 774 776 775
f 945 946 948 947
f 775 776 778 777
f 943 944 946 945
f 777 778 780 779
f 941 942 944 943
f 779 780 782 781
f 939 940 942 941
f 781 782 784 783
f 937 938 940 939
f 783 784 786 785
f 935 936 938 937
f 785 786 788 787
f 933 934 936 935
f 787 788 790 789
f 931 932 934 933
f 789 790 792 791
f 929 930 932 931
f 791 792 794 793
f 927 928 930 929
f 793 794 796 795
f 925 926 928 927
f 795 796 798 797
f 923 924 926 925
f 797 798 800 799
f 921 922 924 923
f 799 800 802 801
f 919 920 922 921
f 801 802 804 803
f 917 918 920 919
f 803 804 806 805
f 915 916 918 917
f 805 806 808 807
f 913 914 916 915
f 807 808 810 809
f 911 912 914 913
f 809 810 812 811
f 909 910 912 911
f 811 812 814 813
f 907 908 910 909
f 813 814 816 815
f 905 906 908 907
f 815 816 818 817
f 903 904 906 905
f 817 818 820 819
f 901 902 904 903
f 819 820 822 821
f 899 900 902 901
f 821 822 824 823
f 897 898 900 899
f 823 824 826 825
f 895 896 898 897
f 825 826 828 827
f 893 894 896 895
f 827 828 830 829
f 891 892 894 893
f 829 830 832 831
f 889 890 892 891
f 831 832 834 833
f 887 888 890 889
f 833 834 836 835
f 885 886 888 887
f 835 836 838 837
f 883 884 886 885
f 837 838 840 839
f 881 882 884 883
f 839 840 842 841
f 879 880 882 881
f 841 842 844 843
f 877 878 880 879
f 843 844 846 845
f 875 876 878 877
f 845 846 848 847
f 873 874 876 875
f 847 848 850 849
f 871 872 874 873
f 849 850 852 851
f 869 870 872 871
f 851 852 854 853
f 867 868 870 869
f 853 854 856 855
f 734 863 865 867 869 871 873 875 877 879 881 883 885 887 889 891 893 895 897 899 901 903 905 907 909 911 913 915 917 919 921 923 925 927 929 931 933 935 937 939 941 943 945 947 949 951 953 955 957 959 961 963 965 967 969 971 973 975 977 979 981 983 985 987
f 865 866 868 867
f 855 856 858 857
f 987 988 733 734
f 863 864 866 865
f 857 858 860 859
f 738 736 862 860 858 856 854 852 850 848 846 844 842 840 838 836 834 832 830 828 826 824 822 820 818 816 814 812 810 808 806 804 802 800 798 796 794 792 790 788 786 784 782 780 778 776 774 772 770 768 766 764 762 760 758 756 754 752 750 748 746 744 742 740
f 734 733 864 863
f 859 860 862 861
f 985 986 988 987
f 861 862 736 735
f 735 737 739 741 743 745 747 749 751 753 755 757 759 761 763 765 767 769 771 773 775 777 779 781 783 785 787 789 791 793 795 797 799 801 803 805 807 809 811 813 815 817 819 821 823 825 827 829 831 833 835 837 839 841 843 845 847 849 851 853 855 857 859 861
