mtllib Circle_003.mtl
v 5.399871216837937e-09 -0.029999982565641403 -0.039999689906835556
v -0.002940509235486388 -0.029855523258447647 -0.039999689906835556
v -0.005852704402059317 -0.029423540458083153 -0.039999689906835556
v -0.008708535693585873 -0.028708191588521004 -0.039999689906835556
v -0.011480499990284443 -0.027716366574168205 -0.039999693632125854
v -0.014141897670924664 -0.026457618921995163 -0.039999693632125854
v -0.01666710153222084 -0.024944068863987923 -0.039999693632125854
v -0.019031794741749763 -0.023190293461084366 -0.039999693632125854
v -0.021213199943304062 -0.02121318317949772 -0.039999693632125854
v -0.02319031022489071 -0.01903178170323372 -0.03999969735741615
v -0.024944085627794266 -0.016667088493704796 -0.03999969735741615
v -0.026457635685801506 -0.014141881838440895 -0.03999969735741615
v -0.02771637961268425 -0.0114804832264781 -0.03999969735741615
v -0.028708206489682198 -0.008708519861102104 -0.03999970108270645
v -0.029423553496599197 -0.005852689500898123 -0.03999970108270645
v -0.02985553629696369 -0.0029404936358332634 -0.03999970108270645
v -0.029999995604157448 2.0722547233731348e-08 -0.03999970108270645
v -0.02985553629696369 0.0029405353125184774 -0.03999970108270645
v -0.029423553496599197 0.005852730479091406 -0.03999970480799675
v -0.028708206489682198 0.008708561770617962 -0.03999970480799675
v -0.02771637961268425 0.011480525135993958 -0.03999970480799675
v -0.026457631960511208 0.014141923747956753 -0.03999970480799675
v -0.024944081902503967 0.01666712574660778 -0.03999970480799675
v -0.02319030649960041 0.019031818956136703 -0.03999970480799675
v -0.021213196218013763 0.02121322602033615 -0.03999970480799675
v -0.019031794741749763 0.023190336301922798 -0.03999970480799675
v -0.01666710153222084 0.024944109842181206 -0.03999970480799675
v -0.014141895808279514 0.026457659900188446 -0.03999970480799675
v -0.011480498127639294 0.02771640568971634 -0.03999970480799675
v -0.008708533830940723 0.028708230704069138 -0.03999970480799675
v -0.005852702539414167 0.029423577710986137 -0.03999970480799675
v -0.002940507372841239 0.02985556237399578 -0.03999970480799675
v 7.307064286976583e-09 0.030000019818544388 -0.03999970480799675
v 0.002940521575510502 0.02985556237399578 -0.03999970480799675
v 0.0058527179062366486 0.029423577710986137 -0.03999970480799675
v 0.008708546869456768 0.028708230704069138 -0.03999970480799675
v 0.011480511166155338 0.02771640568971634 -0.03999970108270645
v 0.014141909778118134 0.026457656174898148 -0.03999970108270645
v 0.016667112708091736 0.024944106116890907 -0.03999970108270645
v 0.01903180591762066 0.02319033071398735 -0.03999970108270645
v 0.021213212981820107 0.021213222295045853 -0.03999970108270645
v 0.023190321400761604 0.019031818956136703 -0.03999969735741615
v 0.02494409680366516 0.01666712574660778 -0.03999969735741615
v 0.0264576468616724 0.014141921885311604 -0.03999969735741615
v 0.027716392651200294 0.011480523273348808 -0.03999969735741615
v 0.028708217665553093 0.008708559907972813 -0.039999693632125854
v 0.029423564672470093 0.005852728616446257 -0.039999693632125854
v 0.029855547472834587 0.0029405332170426846 -0.039999693632125854
v 0.030000006780028343 1.881535816039559e-08 -0.039999693632125854
v 0.029855547472834587 -0.0029404957313090563 -0.039999693632125854
v 0.029423564672470093 -0.005852691363543272 -0.039999689906835556
v 0.028708217665553093 -0.008708521723747253 -0.039999689906835556
v 0.027716392651200294 -0.011480485089123249 -0.039999689906835556
v 0.026457643136382103 -0.014141883701086044 -0.039999689906835556
v 0.024944093078374863 -0.016667088493704796 -0.039999689906835556
v 0.023190317675471306 -0.01903178170323372 -0.039999689906835556
v 0.02121320739388466 -0.021213186904788017 -0.039999689906835556
v 0.01903180591762066 -0.023190297186374664 -0.039999689906835556
v 0.016667112708091736 -0.02494407258927822 -0.039999689906835556
v 0.01414190698415041 -0.02645762264728546 -0.039999689906835556
v 0.011480509303510189 -0.027716366574168205 -0.039999689906835556
v 0.008708545006811619 -0.028708191588521004 -0.039999689906835556
v 0.005852715577930212 -0.029423540458083153 -0.039999689906835556
v 0.0029405197128653526 -0.029855523258447647 -0.039999689906835556
v 5.558804083705127e-09 -0.024999981746077538 -0.039999689906835556
v -0.0024504230823367834 -0.02487959899008274 -0.039999689906835556
v -0.004877252969890833 -0.02451961301267147 -0.039999689906835556
v -0.007257111370563507 -0.023923492059111595 -0.039999693632125854
v -0.009567081928253174 -0.023096969351172447 -0.039999693632125854
v -0.011784914880990982 -0.022048013284802437 -0.039999693632125854
v -0.013889252208173275 -0.020786719396710396 -0.039999693632125854
v -0.015859829261898994 -0.019325239583849907 -0.039999693632125854
v -0.01767766661942005 -0.01767764985561371 -0.039999693632125854
v -0.01932525634765625 -0.0158598143607378 -0.03999969735741615
v -0.02078673616051674 -0.013889236375689507 -0.03999969735741615
v -0.02204802632331848 -0.011784898117184639 -0.03999969735741615
v -0.023096982389688492 -0.009567066095769405 -0.03999969735741615
v -0.02392350509762764 -0.007257096469402313 -0.03999969735741615
v -0.024519626051187515 -0.004877238068729639 -0.03999970108270645
v -0.024879613891243935 -0.0024504081811755896 -0.03999970108270645
v -0.024999994784593582 2.0563616587310207e-08 -0.03999970108270645
v -0.024879613891243935 0.0024504491593688726 -0.03999970108270645
v -0.024519626051187515 0.004877279046922922 -0.03999970108270645
v -0.02392350509762764 0.007257137447595596 -0.03999970108270645
v -0.023096982389688492 0.009567108005285263 -0.03999970480799675
v -0.02204802632331848 0.011784940026700497 -0.03999970480799675
v -0.02078673243522644 0.013889278285205364 -0.03999970480799675
v -0.01932525262236595 0.015859855338931084 -0.03999970480799675
v -0.017677662894129753 0.01767769083380699 -0.03999970480799675
v -0.015859827399253845 0.01932528242468834 -0.03999970480799675
v -0.013889250345528126 0.020786762237548828 -0.03999970480799675
v -0.011784913018345833 0.02204805053770542 -0.03999970480799675
v -0.009567080065608025 0.023097006604075432 -0.03999970480799675
v -0.007257109507918358 0.02392352931201458 -0.03999970480799675
v -0.004877251107245684 0.024519650265574455 -0.03999970480799675
v -0.0024504216853529215 0.024879638105630875 -0.03999970480799675
v 7.1481323082878134e-09 0.02500002086162567 -0.03999970480799675
v 0.002450435422360897 0.024879638105630875 -0.03999970480799675
v 0.0048772660084068775 0.024519650265574455 -0.03999970480799675
v 0.007257124874740839 0.02392352931201458 -0.03999970108270645
v 0.00956709310412407 0.023097006604075432 -0.03999970108270645
v 0.011784926056861877 0.02204805053770542 -0.03999970108270645
v 0.01388926338404417 0.02078675664961338 -0.03999970108270645
v 0.01585984043776989 0.01932527869939804 -0.03999970108270645
v 0.017677677795290947 0.017677687108516693 -0.03999970108270645
v 0.019325269386172295 0.015859853476285934 -0.03999969735741615
v 0.020786747336387634 0.013889276422560215 -0.03999969735741615
v 0.022048037499189377 0.011784938164055347 -0.03999969735741615
v 0.023096993565559387 0.009567106142640114 -0.03999969735741615
v 0.023923516273498535 0.007257135584950447 -0.03999969735741615
v 0.02451963722705841 0.004877277184277773 -0.039999693632125854
v 0.02487962506711483 0.0024504477623850107 -0.039999693632125854
v 0.025000007823109627 1.897428703045989e-08 -0.039999693632125854
v 0.02487962506711483 -0.0024504095781594515 -0.039999693632125854
v 0.02451963722705841 -0.004877239931374788 -0.039999693632125854
v 0.023923516273498535 -0.0072570983320474625 -0.039999693632125854
v 0.023096993565559387 -0.009567067958414555 -0.039999689906835556
v 0.022048037499189377 -0.011784899979829788 -0.039999689906835556
v 0.020786743611097336 -0.013889238238334656 -0.039999689906835556
v 0.019325265660881996 -0.01585981622338295 -0.039999689906835556
v 0.01767767407000065 -0.017677653580904007 -0.039999689906835556
v 0.01585983857512474 -0.019325243309140205 -0.039999689906835556
v 0.013889261521399021 -0.020786723122000694 -0.039999689906835556
v 0.011784924194216728 -0.022048013284802437 -0.039999689906835556
v 0.00956709124147892 -0.023096969351172447 -0.039999689906835556
v 0.00725712301209569 -0.023923492059111595 -0.039999689906835556
v 0.004877264145761728 -0.02451961301267147 -0.039999689906835556
v 0.002450434025377035 -0.02487959899008274 -0.039999689906835556
v 3.3334092819359284e-08 -0.030000032857060432 -0.22499969601631165
v -0.0029404812958091497 -0.029855573549866676 -0.22499971091747284
v -0.005852676462382078 -0.029423588886857033 -0.22499971091747284
v -0.00870850682258606 -0.028708241879940033 -0.22499971091747284
v -0.01148047111928463 -0.027716416865587234 -0.22499971091747284
v -0.01414186879992485 -0.026457667350769043 -0.22499971091747284
v -0.016667073592543602 -0.024944117292761803 -0.22499971091747284
v -0.019031766802072525 -0.023190343752503395 -0.22499971091747284
v -0.021213172003626823 -0.021213233470916748 -0.22499971091747284
v -0.02319028228521347 -0.0190318301320076 -0.22499971091747284
v -0.024944055825471878 -0.016667138785123825 -0.22499971091747284
v -0.02645760588347912 -0.01414193119853735 -0.22499971091747284
v -0.02771635167300701 -0.011480533517897129 -0.22499971091747284
v -0.02870817668735981 -0.008708569221198559 -0.22499971091747284
v -0.02942352369427681 -0.005852739326655865 -0.22499971091747284
v -0.029855508357286453 -0.0029405434615910053 -0.22499971091747284
v -0.02999996766448021 -2.899022710778354e-08 -0.22499971091747284
v -0.029855508357286453 0.0029404854867607355 -0.22499971091747284
v -0.02942352369427681 0.005852681118994951 -0.22499971091747284
v -0.02870817668735981 0.008708511479198933 -0.22499971091747284
v -0.02771635167300701 0.011480475775897503 -0.22499971091747284
v -0.02645760215818882 0.014141874387860298 -0.22499972581863403
v -0.02494405210018158 0.0166670773178339 -0.22499972581863403
v -0.023190278559923172 0.019031770527362823 -0.22499972581863403
v -0.021213168278336525 0.021213175728917122 -0.22499972581863403
v -0.019031766802072525 0.02319028601050377 -0.22499972581863403
v -0.016667073592543602 0.024944061413407326 -0.22499972581863403
v -0.014141866937279701 0.026457609608769417 -0.22499972581863403
v -0.01148046925663948 0.02771635539829731 -0.22499972581863403
v -0.00870850495994091 0.02870818041265011 -0.22499972581863403
v -0.005852674599736929 0.029423527419567108 -0.22499972581863403
v -0.0029404794331640005 0.02985551208257675 -0.22499972581863403
v 3.524128544540872e-08 0.029999971389770508 -0.22499972581863403
v 0.0029405495151877403 0.02985551208257675 -0.22499971091747284
v 0.0058527453802526 0.029423527419567108 -0.22499971091747284
v 0.008708575740456581 0.02870818041265011 -0.22499971091747284
v 0.011480540037155151 0.02771635539829731 -0.22499971091747284
v 0.014141937717795372 0.02645760588347912 -0.22499971091747284
v 0.016667142510414124 0.024944055825471878 -0.22499971091747284
v 0.019031833857297897 0.02319028228521347 -0.22499971091747284
v 0.021213240921497345 0.021213172003626823 -0.22499971091747284
v 0.023190351203083992 0.019031770527362823 -0.22499971091747284
v 0.0249441247433424 0.0166670773178339 -0.22499971091747284
v 0.02645767480134964 0.014141872525215149 -0.22499971091747284
v 0.027716420590877533 0.011480473913252354 -0.22499971091747284
v 0.02870824560523033 0.008708509616553783 -0.22499971091747284
v 0.02942359261214733 0.005852679256349802 -0.22499971091747284
v 0.029855577275156975 0.0029404833912849426 -0.22499971091747284
v 0.03000003658235073 -3.0897417957476137e-08 -0.22499971091747284
v 0.029855577275156975 -0.002940545557066798 -0.22499971091747284
v 0.02942359261214733 -0.005852741189301014 -0.22499971091747284
v 0.02870824560523033 -0.008708571083843708 -0.22499971091747284
v 0.027716420590877533 -0.011480535380542278 -0.22499971091747284
v 0.02645767107605934 -0.014141933061182499 -0.22499969601631165
v 0.0249441210180521 -0.016667138785123825 -0.22499969601631165
v 0.023190347477793694 -0.0190318301320076 -0.22499969601631165
v 0.021213237196207047 -0.021213237196207047 -0.22499969601631165
v 0.019031833857297897 -0.023190347477793694 -0.22499969601631165
v 0.016667142510414124 -0.0249441210180521 -0.22499969601631165
v 0.014141935855150223 -0.02645767107605934 -0.22499969601631165
v 0.011480538174510002 -0.027716416865587234 -0.22499969601631165
v 0.008708573877811432 -0.028708241879940033 -0.22499969601631165
v 0.0058527435176074505 -0.029423588886857033 -0.22499969601631165
v 0.002940547652542591 -0.029855573549866676 -0.22499969601631165
v 3.3493027018494104e-08 -0.025000032037496567 -0.22499971091747284
v -0.002450395142659545 -0.02487964928150177 -0.22499971091747284
v -0.0048772250302135944 -0.02451966144144535 -0.22499971091747284
v -0.007257083896547556 -0.023923540487885475 -0.22499971091747284
v -0.00956705305725336 -0.023097017779946327 -0.22499971091747284
v -0.011784886009991169 -0.022048061713576317 -0.22499971091747284
v -0.013889223337173462 -0.020786769688129425 -0.22499971091747284
v -0.015859801322221756 -0.019325289875268936 -0.22499971091747284
v -0.017677638679742813 -0.01767769828438759 -0.22499971091747284
v -0.01932522840797901 -0.01585986278951168 -0.22499971091747284
v -0.0207867082208395 -0.013889285735785961 -0.22499971091747284
v -0.022047998383641243 -0.011784948408603668 -0.22499971091747284
v -0.023096954450011253 -0.00956711545586586 -0.22499971091747284
v -0.0239234771579504 -0.007257146295160055 -0.22499971091747284
v -0.024519598111510277 -0.004877287428826094 -0.22499971091747284
v -0.024879584088921547 -0.0024504580069333315 -0.22499971091747284
v -0.024999966844916344 -2.914915775420468e-08 -0.22499971091747284
v -0.024879584088921547 0.0024503993336111307 -0.22499971091747284
v -0.024519598111510277 0.00487722922116518 -0.22499971091747284
v -0.0239234771579504 0.007257088087499142 -0.22499971091747284
v -0.023096954450011253 0.009567057713866234 -0.22499971091747284
v -0.022047998383641243 0.011784890666604042 -0.22499971091747284
v -0.020786704495549202 0.01388922892510891 -0.22499971091747284
v -0.019325224682688713 0.015859805047512054 -0.22499971091747284
v -0.017677634954452515 0.01767764240503311 -0.22499971091747284
v -0.015859799459576607 0.01932523213326931 -0.22499971091747284
v -0.013889221474528313 0.0207867119461298 -0.22499972581863403
v -0.01178488414734602 0.02204800210893154 -0.22499972581863403
v -0.009567051194608212 0.023096958175301552 -0.22499972581863403
v -0.007257082033902407 0.0239234808832407 -0.22499971091747284
v -0.004877223167568445 0.024519601836800575 -0.22499971091747284
v -0.002450393745675683 0.024879587814211845 -0.22499971091747284
v 3.508235479898758e-08 0.024999970570206642 -0.22499971091747284
v 0.0024504633620381355 0.024879587814211845 -0.22499971091747284
v 0.004877293948084116 0.024519601836800575 -0.22499971091747284
v 0.00725715234875679 0.0239234808832407 -0.22499971091747284
v 0.009567121975123882 0.023096958175301552 -0.22499971091747284
v 0.01178495492786169 0.02204800210893154 -0.22499971091747284
v 0.013889292255043983 0.0207867082208395 -0.22499971091747284
v 0.015859870240092278 0.01932522840797901 -0.22499971091747284
v 0.017677705734968185 0.017677638679742813 -0.22499971091747284
v 0.019325297325849533 0.015859803184866905 -0.22499971091747284
v 0.020786777138710022 0.01388922706246376 -0.22499971091747284
v 0.022048065438866615 0.011784888803958893 -0.22499971091747284
v 0.023097021505236626 0.009567055851221085 -0.22499971091747284
v 0.023923544213175774 0.0072570862248539925 -0.22499971091747284
v 0.02451966516673565 0.004877227358520031 -0.22499971091747284
v 0.02487965300679207 0.002450397936627269 -0.22499971091747284
v 0.025000035762786865 -3.073848375834132e-08 -0.22499971091747284
v 0.02487965300679207 -0.0024504594039171934 -0.22499971091747284
v 0.02451966516673565 -0.00487728975713253 -0.22499971091747284
v 0.023923544213175774 -0.007257148157805204 -0.22499971091747284
v 0.023097021505236626 -0.00956711731851101 -0.22499971091747284
v 0.022048065438866615 -0.011784950271248817 -0.22499971091747284
v 0.020786773413419724 -0.01388928759843111 -0.22499971091747284
v 0.019325293600559235 -0.01585986465215683 -0.22499971091747284
v 0.017677702009677887 -0.017677702009677887 -0.22499971091747284
v 0.01585986837744713 -0.019325293600559235 -0.22499971091747284
v 0.013889290392398834 -0.020786773413419724 -0.22499969601631165
v 0.011784953065216541 -0.022048061713576317 -0.22499969601631165
v 0.009567120112478733 -0.023097017779946327 -0.22499969601631165
v 0.007257150486111641 -0.023923540487885475 -0.22499971091747284
v 0.004877292085438967 -0.02451966144144535 -0.22499971091747284
v 0.0024504619650542736 -0.02487964928150177 -0.22499971091747284
v -9.906455211705634e-09 -0.009999945759773254 0.02200031653046608
v 1.6366788813115818e-08 -0.01000003982335329 -0.06499969214200974
v 0.0009801614796742797 -0.00995179358869791 0.02200031653046608
v 0.0009801879059523344 -0.009951886720955372 -0.06499969214200974
v 0.0019508935511112213 -0.009807799942791462 0.02200031839311123
v 0.0019509197445586324 -0.009807893075048923 -0.06499969214200974
v 0.0029028370045125484 -0.009569350630044937 0.02200031839311123
v 0.0029028630815446377 -0.009569443762302399 -0.06499969214200974
v 0.0038268251810222864 -0.009238742291927338 0.02200031839311123
v 0.0038268512580543756 -0.0092388354241848 -0.06499969214200974
v 0.004713958594948053 -0.008819160051643848 0.02200031839311123
v 0.00471398513764143 -0.00881925318390131 -0.06499969214200974
v 0.0055556935258209705 -0.008314643986523151 0.02200031839311123
v 0.005555720068514347 -0.008314738050103188 -0.06499969214200974
v 0.006343924906104803 -0.0077300528064370155 0.02200031839311123
v 0.00634395144879818 -0.007730145938694477 -0.06499969214200974
v 0.007071059662848711 -0.007071016822010279 0.02200031839311123
v 0.0070710862055420876 -0.007071109488606453 -0.06499969214200974
v 0.0077300965785980225 -0.006343882065266371 0.02200031839311123
v 0.007730123586952686 -0.006343974731862545 -0.06499969214200974
v 0.008314688690006733 -0.005555651616305113 0.02200031653046608
v 0.008314713835716248 -0.005555744282901287 -0.06499969214200974
v 0.00881920475512743 -0.004713916685432196 0.02200031653046608
v 0.008819229900836945 -0.00471400935202837 -0.06499969214200974
v 0.009238788858056068 -0.0038267839699983597 0.02200031280517578
v 0.009238814003765583 -0.003826877335086465 -0.06499969214200974
v 0.009569397196173668 -0.0029027960263192654 0.02200031280517578
v 0.009569422341883183 -0.002902889158576727 -0.06499969959259033
v 0.009807846508920193 -0.0019508525729179382 0.02200031280517578
v 0.009807871654629707 -0.0019509459380060434 -0.06499969959259033
v 0.00995184201747179 -0.000980120967142284 0.022000307217240334
v 0.00995186623185873 -0.0009802142158150673 -0.06499969959259033
v 0.009999995119869709 5.051210649753557e-08 0.022000307217240334
v 0.010000019334256649 -4.2699376479049533e-08 -0.06499969959259033
v 0.00995184201747179 0.0009802220156416297 0.022000307217240334
v 0.00995186623185873 0.0009801287669688463 -0.06499969959259033
v 0.009807848371565342 0.0019509539706632495 0.022000307217240334
v 0.009807873517274857 0.0019508606055751443 -0.06499969959259033
v 0.009569399058818817 0.0029028975404798985 0.022000305354595184
v 0.009569424204528332 0.0029028041753917933 -0.06499969959259033
v 0.009238790720701218 0.0038268857169896364 0.022000305354595184
v 0.009238815866410732 0.0038267923519015312 -0.06499969959259033
v 0.008819208480417728 0.004714018665254116 0.022000305354595184
v 0.008819233626127243 0.0047139255329966545 -0.06499969959259033
v 0.008314693346619606 0.005555753596127033 0.022000301629304886
v 0.008314717561006546 0.005555660463869572 -0.06499969959259033
v 0.007730100303888321 0.006343984976410866 0.022000301629304886
v 0.007730127312242985 0.006343891844153404 -0.06499970704317093
v 0.007071064319461584 0.007071119733154774 0.022000301629304886
v 0.007071090862154961 0.007071026600897312 -0.06499970704317093
v 0.006343929562717676 0.007730156648904085 0.022000296041369438
v 0.006343956105411053 0.007730063982307911 -0.06499970704317093
v 0.005555699113756418 0.008314749225974083 0.022000296041369438
v 0.005555725656449795 0.008314656093716621 -0.06499970704317093
v 0.004713964182883501 0.00881926529109478 0.022000296041369438
v 0.004713990725576878 0.008819171227514744 -0.06499970704317093
v 0.0038268317002803087 0.009238849394023418 0.022000296041369438
v 0.0038268580101430416 0.009238755330443382 -0.06499970704317093
v 0.0029028435237705708 0.009569457732141018 0.022000296041369438
v 0.0029028698336333036 0.009569363668560982 -0.06499970704317093
v 0.001950900419615209 0.009807907044887543 0.022000296041369438
v 0.0019509266130626202 0.009807812981307507 -0.06499970704317093
v 0.000980168697424233 0.009951901622116566 0.022000296041369438
v 0.0009801950072869658 0.009951808489859104 -0.06499970704317093
v -2.7538911151481216e-09 0.010000054724514484 0.022000296041369438
v 2.3519351799450305e-08 0.009999961592257023 -0.06499970704317093
v -0.0009801742853596807 0.009951901622116566 0.022000296041369438
v -0.0009801479754969478 0.009951808489859104 -0.06499970704317093
v -0.0019509061239659786 0.009807908907532692 0.02200029417872429
v -0.0019508799305185676 0.009807814843952656 -0.06499970704317093
v -0.0029028498101979494 0.009569459594786167 0.02200029417872429
v -0.0029028235003352165 0.009569365531206131 -0.06499970704317093
v -0.0038268379867076874 0.009238851256668568 0.02200029417872429
v -0.0038268116768449545 0.009238757193088531 -0.06499970704317093
v -0.004713970702141523 0.008819269016385078 0.02200029417872429
v -0.004713944159448147 0.008819174952805042 -0.06499970704317093
v -0.0055557056330144405 0.008314752951264381 0.02200029417872429
v -0.005555679090321064 0.00831465981900692 -0.06499970704317093
v -0.006343937013298273 0.007730160374194384 0.02200029417872429
v -0.0063439104706048965 0.007730067707598209 -0.06499970704317093
v -0.007071071770042181 0.007071124389767647 0.02200029417872429
v -0.0070710452273488045 0.007071031257510185 -0.06499970704317093
v -0.00773010915145278 0.006343989633023739 0.02200029417872429
v -0.007730082608759403 0.006343896500766277 -0.06499970704317093
v -0.008314700797200203 0.005555759184062481 0.022000296041369438
v -0.008314675651490688 0.005555666051805019 -0.06499970704317093
v -0.008819215930998325 0.004714024253189564 0.022000296041369438
v -0.008819191716611385 0.004713931120932102 -0.06499970704317093
v -0.009238800033926964 0.0038268922362476587 0.022000299766659737
v -0.009238775819540024 0.003826799103990197 -0.06499970704317093
v -0.009569409303367138 0.0029029040597379208 0.022000299766659737
v -0.009569384157657623 0.002902810927480459 -0.06499969959259033
v -0.009807857684791088 0.0019509608391672373 0.022000299766659737
v -0.009807833470404148 0.001950867474079132 -0.06499969959259033
v -0.009951853193342686 0.0009802291169762611 0.022000303491950035
v -0.009951828047633171 0.0009801359847187996 -0.06499969959259033
v -0.010000006295740604 5.766466415479954e-08 0.022000303491950035
v -0.00999998115003109 -3.5546818821785564e-08 -0.06499969959259033
v -0.009951853193342686 -0.0009801138658076525 0.022000303491950035
v -0.009951828047633171 -0.000980206998065114 -0.06499969959259033
v -0.009807859547436237 -0.0019508457044139504 0.022000303491950035
v -0.009807835333049297 -0.0019509390695020556 -0.06499969959259033
v -0.009569411166012287 -0.0029027892742305994 0.022000305354595184
v -0.009569386020302773 -0.002902882406488061 -0.06499969959259033
v -0.009238802827894688 -0.0038267774507403374 0.022000305354595184
v -0.009238777682185173 -0.003826870582997799 -0.06499969959259033
v -0.008819219656288624 -0.004713910631835461 0.022000305354595184
v -0.008819195441901684 -0.004714003764092922 -0.06499969959259033
v -0.008314704522490501 -0.005555645562708378 0.022000310942530632
v -0.008314679376780987 -0.005555738694965839 -0.06499969959259033
v -0.007730112876743078 -0.00634387694299221 0.022000310942530632
v -0.007730086334049702 -0.006343970075249672 -0.06499969214200974
v -0.007071076892316341 -0.007071011699736118 0.022000310942530632
v -0.0070710498839616776 -0.00707110483199358 -0.06499969214200974
v -0.0063439421355724335 -0.007730049081146717 0.02200031653046608
v -0.00634391512721777 -0.007730142213404179 -0.06499969214200974
v -0.0055557116866111755 -0.008314640261232853 0.02200031653046608
v -0.005555684678256512 -0.008314734324812889 -0.06499969214200974
v -0.004713976755738258 -0.00881915632635355 0.02200031653046608
v -0.0047139497473835945 -0.008819249458611012 -0.06499969214200974
v -0.0038268447387963533 -0.009238740429282188 0.02200031653046608
v -0.0038268184289336205 -0.00923883356153965 -0.06499969214200974
v -0.0029028565622866154 -0.009569348767399788 0.02200031653046608
v -0.0029028302524238825 -0.00956944189965725 -0.06499969214200974
v -0.0019509129924699664 -0.009807798080146313 0.02200031653046608
v -0.0019508867990225554 -0.009807891212403774 -0.06499969214200974
v -0.000980181386694312 -0.00995179358869791 0.02200031653046608
v -0.0009801550768315792 -0.009951886720955372 -0.06499969214200974
v -1.1694596402378465e-08 -0.01499994657933712 0.022000322118401527
v 1.4578647622442986e-08 -0.015000039711594582 -0.06499967724084854
v 0.0014702455373480916 -0.014927717857062817 0.022000322118401527
v 0.0014702717307955027 -0.014927810989320278 -0.06499967724084854
v 0.0029263433534651995 -0.014711725525557995 0.022000322118401527
v 0.0029263696633279324 -0.014711819589138031 -0.06499967724084854
v 0.00435425853356719 -0.014354052022099495 0.022000322118401527
v 0.004354285541921854 -0.014354146085679531 -0.06499967724084854
v 0.005740241147577763 -0.01385814044624567 0.022000322118401527
v 0.0057402681559324265 -0.013858234509825706 -0.06499967724084854
v 0.00707094045355916 -0.01322876662015915 0.022000322118401527
v 0.007070966996252537 -0.013228860683739185 -0.06499967724084854
v 0.008333544246852398 -0.012471994385123253 0.022000322118401527
v 0.008333569392561913 -0.012472087517380714 -0.06499968469142914
v 0.00951589085161686 -0.011595106683671474 0.022000322118401527
v 0.0095159150660038 -0.011595199815928936 -0.06499968469142914
v 0.01060659158974886 -0.010606552474200726 0.02200031839311123
v 0.010606616735458374 -0.010606646537780762 -0.06499968469142914
v 0.011595147661864758 -0.009515849873423576 0.02200031839311123
v 0.011595172807574272 -0.009515943005681038 -0.06499968469142914
v 0.012472035363316536 -0.008333503268659115 0.02200031839311123
v 0.012472059577703476 -0.008333596400916576 -0.06499968469142914
v 0.013228810392320156 -0.007070902269333601 0.02200031839311123
v 0.013228834606707096 -0.0070709954015910625 -0.06499968469142914
v 0.013858185149729252 -0.005740202963352203 0.02200031839311123
v 0.013858210295438766 -0.005740296095609665 -0.06499969214200974
v 0.014354098588228226 -0.004354221746325493 0.02200031839311123
v 0.01435412373393774 -0.004354314412921667 -0.06499969214200974
v 0.0147117730230093 -0.002926306100562215 0.02200031466782093
v 0.01471179723739624 -0.00292639946565032 -0.06499969214200974
v 0.014927764423191547 -0.0014702085172757506 0.02200031280517578
v 0.014927789568901062 -0.001470301765948534 -0.06499969959259033
v 0.014999995008111 4.872396175414906e-08 0.022000307217240334
v 0.015000020153820515 -4.4487521222436044e-08 -0.06499969959259033
v 0.014927766285836697 0.0014703059569001198 0.022000307217240334
v 0.014927791431546211 0.0014702125918120146 -0.06499969959259033
v 0.01471177488565445 0.0029264038894325495 0.022000307217240334
v 0.01471179910004139 0.002926310757175088 -0.06499969959259033
v 0.014354100450873375 0.004354318603873253 0.022000307217240334
v 0.01435412559658289 0.004354225937277079 -0.06499969959259033
v 0.01385818887501955 0.005740301217883825 0.022000305354595184
v 0.013858214020729065 0.005740208551287651 -0.06499969959259033
v 0.013228815980255604 0.007071000523865223 0.022000301629304886
v 0.013228840194642544 0.007070907391607761 -0.06499969959259033
v 0.012472042813897133 0.008333603851497173 0.022000297904014587
v 0.012472067028284073 0.008333510719239712 -0.06499970704317093
v 0.011595155112445354 0.009515950456261635 0.022000297904014587
v 0.011595180258154869 0.009515857324004173 -0.06499970704317093
v 0.010606600902974606 0.01060665212571621 0.022000296041369438
v 0.01060662604868412 0.010606558062136173 -0.06499970704317093
v 0.009515898302197456 0.011595208197832108 0.022000296041369438
v 0.009515923447906971 0.011595114134252071 -0.06499970704317093
v 0.008333551697432995 0.012472094967961311 0.022000296041369438
v 0.00833357684314251 0.01247200183570385 -0.06499970704317093
v 0.007070949766784906 0.013228869996964931 0.022000296041369438
v 0.00707097677513957 0.01322877686470747 -0.06499970704317093
v 0.005740250926464796 0.013858245685696602 0.022000296041369438
v 0.005740277469158173 0.01385815255343914 -0.06499970704317093
v 0.004354269243776798 0.014354159124195576 0.02200029045343399
v 0.004354295786470175 0.014354065991938114 -0.06499970704317093
v 0.002926353830844164 0.014711832627654076 0.02200029045343399
v 0.0029263801407068968 0.014711739495396614 -0.06499970704317093
v 0.0014702562475576997 0.014927824959158897 0.02200029045343399
v 0.0014702825574204326 0.014927730895578861 -0.06499971449375153
v -9.657502575421972e-10 0.015000054612755775 0.02200029045343399
v 2.5307494766479977e-08 0.014999961480498314 -0.06499972194433212
v -0.0014702582266181707 0.014927826821804047 0.02200029045343399
v -0.0014702319167554379 0.01492773275822401 -0.06499972194433212
v -0.0029263561591506004 0.014711834490299225 0.02200029045343399
v -0.002926330082118511 0.014711741358041763 -0.06499972194433212
v -0.0043542711064219475 0.014354160986840725 0.02200029045343399
v -0.004354244563728571 0.014354067854583263 -0.06499972194433212
v -0.00574025372043252 0.0138582494109869 0.02200029045343399
v -0.005740227177739143 0.013858156278729439 -0.06499972194433212
v -0.00707095256075263 0.01322887558490038 0.02200029045343399
v -0.007070926018059254 0.013228782452642918 -0.06499972194433212
v -0.008333555422723293 0.012472102418541908 0.02200029045343399
v -0.008333531208336353 0.012472009286284447 -0.06499971449375153
v -0.009515902027487755 0.011595215648412704 0.02200029045343399
v -0.00951587688177824 0.011595121584832668 -0.06499971449375153
v -0.010606602765619755 0.010606661438941956 0.02200029417872429
v -0.010606578551232815 0.010606568306684494 -0.06499971449375153
v -0.011595158837735653 0.009515957906842232 0.02200029417872429
v -0.011595134623348713 0.00951586477458477 -0.06499971449375153
v -0.012472046539187431 0.008333612233400345 0.02200029417872429
v -0.012472021393477917 0.008333518169820309 -0.06499971449375153
v -0.013228821568191051 0.007071009837090969 0.02200029417872429
v -0.013228796422481537 0.007070917170494795 -0.06499971449375153
v -0.013858197256922722 0.005740310996770859 0.02200029417872429
v -0.013858172111213207 0.005740217864513397 -0.06499970704317093
v -0.014354110695421696 0.004354329314082861 0.02200029417872429
v -0.014354085549712181 0.004354236181825399 -0.06499970704317093
v -0.014711784198880196 0.002926414366811514 0.022000297904014587
v -0.014711759053170681 0.0029263212345540524 -0.06499970704317093
v -0.014927776530385017 0.0014703166671097279 0.022000299766659737
v -0.014927751384675503 0.0014702234184369445 -0.06499969959259033
v -0.015000006183981895 5.945280179275869e-08 0.022000303491950035
v -0.014999981969594955 -3.375868473654009e-08 -0.06499969959259033
v -0.014927778393030167 -0.0014701976906508207 0.022000303491950035
v -0.014927753247320652 -0.001470291055738926 -0.06499969959259033
v -0.014711786061525345 -0.0029262956231832504 0.022000303491950035
v -0.01471176091581583 -0.0029263889882713556 -0.06499969959259033
v -0.014354112558066845 -0.004354211036115885 0.022000303491950035
v -0.01435408741235733 -0.004354304168373346 -0.06499969959259033
v -0.01385820098221302 -0.005740193650126457 0.022000305354595184
v -0.013858175836503506 -0.005740286782383919 -0.06499969959259033
v -0.0132288271561265 -0.0070708924904465675 0.022000310942530632
v -0.013228802010416985 -0.007070985622704029 -0.06499969959259033
v -0.012472053989768028 -0.008333495818078518 0.02200031466782093
v -0.012472029775381088 -0.00833358895033598 -0.06499969214200974
v -0.011595167219638824 -0.009515841491520405 0.02200031466782093
v -0.01159514207392931 -0.009515935555100441 -0.06499969214200974
v -0.010606613010168076 -0.01060654316097498 0.02200031653046608
v -0.010606587864458561 -0.010606636293232441 -0.06499969214200974
v -0.009515909478068352 -0.011595099233090878 0.02200031653046608
v -0.009515885263681412 -0.011595192365348339 -0.06499969214200974
v -0.00833356287330389 -0.012471986003220081 0.02200031653046608
v -0.00833353865891695 -0.012472080066800117 -0.06499969214200974
v -0.007070962339639664 -0.013228761032223701 0.02200031653046608
v -0.007070935796946287 -0.013228855095803738 -0.06499969214200974
v -0.005740263033658266 -0.013858136720955372 0.02200031653046608
v -0.0057402364909648895 -0.013858229853212833 -0.06499969214200974
v -0.0043542818166315556 -0.014354050159454346 0.022000322118401527
v -0.004354254808276892 -0.014354144223034382 -0.06499969214200974
v -0.002926366636529565 -0.014711723662912846 0.022000322118401527
v -0.0029263405594974756 -0.014711817726492882 -0.06499969214200974
v -0.0014702689368277788 -0.014927715994417667 0.022000322118401527
v -0.0014702427433803678 -0.014927809126675129 -0.06499968469142914
v 0.0038268384523689747 0.009238824248313904 0.003827139036729932
v -0.0038268330972641706 0.009238827973604202 0.0038271378725767136
v 0.011800678446888924 0.00923882145434618 0.00382714020088315
v -0.011800670996308327 0.009238830767571926 0.003827132983133197
v 0.0029028463177382946 0.009569433517754078 0.0029031503945589066
v -0.002902848646044731 0.009569435380399227 0.002903149463236332
v 0.01154667604714632 0.009569428861141205 0.0029031517915427685
v 0.011595160700380802 0.009515930898487568 0.0030526728369295597
v -0.01154666393995285 0.009569439105689526 0.002903144573792815
v -0.011595153249800205 0.009515938349068165 0.0030526730697602034
v 0.01392422802746296 -0.005555681884288788 -0.008314385078847408
v 0.013858193531632423 -0.005740235093981028 -0.008177513256669044
v 0.008314698003232479 -0.005555678624659777 -0.008314386010169983
v -0.013924227096140385 -0.005555667448788881 -0.00831439346075058
v -0.013858193531632423 -0.005740226246416569 -0.008177514187991619
v -0.00831469614058733 -0.00555567117407918 -0.008314392529428005
v 0.013572675175964832 -0.0063439118675887585 -0.007729793898761272
v 0.0077301072888076305 -0.006343908607959747 -0.007729794830083847
v -0.013572677038609982 -0.006343898829072714 -0.007729801815003157
v -0.007730106357485056 -0.006343902088701725 -0.007729800883680582
v 0.004713968839496374 0.008819240145385265 0.004714270122349262
v 0.012111866846680641 0.008819237351417542 0.004714271519333124
v -0.00471396604552865 0.008819245733320713 0.0047142687253654
v -0.012111854739487171 0.008819247595965862 0.004714267328381538
v 0.013228753581643105 -0.007071046158671379 -0.007070755120366812
v 0.013228817842900753 -0.007070933002978563 -0.007070858497172594
v 0.007071071770042181 -0.007071042899042368 -0.007070760242640972
v -0.01322875451296568 -0.007071032654494047 -0.007070763036608696
v -0.013228818774223328 -0.00707092322409153 -0.0070708622224628925
v -0.0070710680447518826 -0.007071036379784346 -0.007070762105286121
v 0.012833734042942524 0.007730125915259123 -0.006343628279864788
v 0.006343937944620848 0.007730129640549421 -0.006343629211187363
v -0.0063439286313951015 0.007730135228484869 -0.006343631073832512
v -0.012833728455007076 0.0077301389537751675 -0.0063436320051550865
v 0.012483352795243263 0.008314717561006546 -0.00555539783090353
v 0.005555703770369291 0.00831472035497427 -0.005555398762226105
v -0.00555569538846612 0.008314725942909718 -0.005555400159209967
v -0.012483338825404644 0.008314728736877441 -0.005555401556193829
v 0.003826840315014124 0.009238822385668755 -0.0038265325129032135
v -0.0038268312346190214 0.009238826110959053 -0.0038265336770564318
v 0.011800678446888924 0.00923881959170103 -0.0038265313487499952
v -0.011800666339695454 0.009238829836249352 -0.00382653484120965
v 0.012833734042942524 0.007730131037533283 0.0063442387618124485
v 0.006343934219330549 0.007730134297162294 0.006344237830489874
v -0.0063439323566854 0.007730139885097742 0.006344235502183437
v -0.012833739630877972 0.007730144076049328 0.006344230845570564
v 0.012483349069952965 0.008314723148941994 0.005556007381528616
v 0.005555700045078993 0.008314725942909718 0.005556006450206041
v -0.005555699113756418 0.008314731530845165 0.005556004587560892
v -0.01248334813863039 0.008314735256135464 0.005555999465286732
v 0.000980175333097577 0.009951877407729626 -0.0009798685787245631
v 0.011200045235455036 0.009951871819794178 -0.0009798670653253794
v -0.0009801671840250492 0.009951877407729626 -0.0009798689279705286
v -0.01120003405958414 0.009951882995665073 -0.0009798704413697124
v 0.012472046539187431 0.00833358708769083 0.00552453612908721
v -0.012472042813897133 0.008333594538271427 0.005524531938135624
v 0.012472049333155155 0.008333574049174786 -0.005523941945284605
v -0.012472039088606834 0.008333581499755383 -0.0055239531211555
v 0.004713970702141523 0.008819238282740116 -0.004713662900030613
v 0.012111855670809746 0.008819235488772392 -0.004713661968708038
v -0.004713964182883501 0.008819243870675564 -0.004713668022304773
v -0.012111849151551723 0.008819246664643288 -0.004713669419288635
v 0.0009801748674362898 0.009951877407729626 0.0009804739383980632
v 0.011200045235455036 0.009951871819794178 0.000980475451797247
v -0.0009801676496863365 0.009951877407729626 0.0009804735891520977
v -0.011200036853551865 0.009951882995665073 0.0009804682340472937
v 0.011156401596963406 0.010000024922192097 3.041731702069228e-07
v 3.889915056731752e-09 0.01000002957880497 3.0248861548898276e-07
v -0.011156388558447361 0.010000035166740417 3.008040607710427e-07
v -0.0019509015837684274 0.009807885624468327 0.0019512033322826028
v 0.001950904494151473 0.009807883761823177 0.0019512077560648322
v 0.011330555193126202 0.009807880036532879 0.0019512091530486941
v -0.011330542154610157 0.009807889349758625 0.0019512020517140627
v 0.002902848180383444 0.009569431655108929 -0.0029025443363934755
v -0.002902846783399582 0.009569433517754078 -0.00290254526771605
v 0.011546672321856022 0.009569426998496056 -0.0029025429394096136
v -0.011546656489372253 0.009569438174366951 -0.0029025464318692684
v -0.0019509006524458528 0.009807881899178028 -0.0019506027456372976
v 0.0019509054254740477 0.009807880036532879 -0.0019506021635606885
v 0.011330550536513329 0.009807875379920006 -0.0019505969248712063
v -0.011330541223287582 0.009807886555790901 -0.0019506040262058377
v 0.011595160700380802 0.009515923447906971 -0.003052075393497944
v -0.011595153249800205 0.009515930898487568 -0.0030520865693688393
v 0.014856468886137009 0.0019509296398609877 0.009808161295950413
v -0.014927773736417294 0.001470303745009005 0.009879449382424355
v -0.01485647913068533 0.0019509445410221815 0.009808152914047241
v -0.009807858616113663 0.0019509418634697795 0.009808153845369816
v 0.009807851165533066 0.0019509323174133897 0.009808160364627838
v 0.014951839111745358 0.0009801981505006552 0.009952154941856861
v 0.014927768148481846 0.0014702931512147188 0.009879457764327526
v -0.014951853081583977 0.0009802129352465272 0.009952145628631115
v -0.009951849468052387 0.0009802104905247688 0.009952151216566563
v 0.00995184388011694 0.0009802005952224135 0.009952154010534286
v 0.013228746131062508 0.007071088999509811 -0.007070763036608696
v -0.0070710633881390095 0.007071099244058132 -0.00707076583057642
v 0.007071076892316341 0.0070710922591388226 -0.007070763967931271
v -0.013228736817836761 0.007071102503687143 -0.0070707667618989944
v 0.00995184388011694 -0.0009801422711461782 0.009952154941856861
v 0.014951835386455059 -0.0009801447158679366 0.009952155873179436
v 0.014927766285836697 -0.0014702214393764734 0.0098794624209404
v -0.014951853081583977 -0.0009801299311220646 0.00995214655995369
v -0.009951849468052387 -0.000980132375843823 0.009952147491276264
v 0.01485646702349186 -0.0019508765544742346 0.009808162227272987
v 0.009807849302887917 -0.0019508739933371544 0.009808161295950413
v -0.014856478199362755 -0.0019508617697283626 0.009808153845369816
v -0.009807860478758812 -0.0019508644472807646 0.00980815477669239
v 0.009999996982514858 2.9112477761827904e-08 0.010000311769545078
v 0.01499999687075615 2.6637868799639364e-08 0.010000311769545078
v -0.015000006183981895 4.1485524349127445e-08 0.010000303387641907
v -0.010000000707805157 3.9010910057868387e-08 0.010000303387641907
v -0.014927776530385017 -0.0014702107291668653 0.009879454039037228
v 0.00923879723995924 -0.0038268116768449545 -0.009238487109541893
v 0.014486226253211498 -0.003826814703643322 -0.009238485246896744
v -0.0144862225279212 -0.0038268002681434155 -0.00923849456012249
v -0.00923879723995924 -0.003826802596449852 -0.009238491766154766
v -0.014354105107486248 -0.004354244098067284 -0.008989030495285988
v 0.014225388877093792 -0.004713940434157848 0.008819523267447948
v 0.00881920661777258 -0.004713937174528837 0.008819522336125374
v -0.01422540657222271 -0.004713925998657942 0.008819514885544777
v -0.014354108832776546 -0.004354225005954504 0.00898964237421751
v -0.008819215930998325 -0.004713929258286953 0.00881951954215765
v 0.014715274795889854 -0.0029028269927948713 -0.009569093585014343
v 0.014711782336235046 -0.0029263400938361883 -0.009560676291584969
v 0.009569408372044563 -0.0029028241988271475 -0.009569094516336918
v -0.014715266413986683 -0.0029028120916336775 -0.009569101966917515
v -0.014711776748299599 -0.002926329616457224 -0.00956068653613329
v -0.009569401852786541 -0.0029028146527707577 -0.00956910103559494
v 0.013924217782914639 -0.0055556753650307655 0.008315006271004677
v 0.00831469427794218 -0.005555672105401754 0.008315005339682102
v -0.013924228958785534 -0.005555660929530859 0.008315001614391804
v -0.008314701728522778 -0.00555566418915987 0.008315002545714378
v 0.013858187943696976 -0.00574021739885211 0.008178142830729485
v -0.013858197256922722 -0.005740208085626364 0.008178130723536015
v 0.014711784198880196 0.0029263701289892197 -0.009560682810842991
v 0.014715268276631832 0.002902866108343005 -0.009569094516336918
v -0.01471177488565445 0.002926380606368184 -0.009560691192746162
v -0.014715258032083511 0.0029028807766735554 -0.00956910289824009
v -0.009569399990141392 0.002902878215536475 -0.009569101966917515
v 0.009569410234689713 0.0029028686694800854 -0.009569095447659492
v 0.013924225233495235 0.005555721931159496 -0.008314387872815132
v 0.013858198188245296 0.005740269087255001 -0.008177519775927067
v -0.013924218714237213 0.0055557359009981155 -0.008314396254718304
v -0.01385818887501955 0.005740278400480747 -0.008177532814443111
v -0.00831469427794218 0.005555733107030392 -0.008314395323395729
v 0.008314701728522778 0.0055557251907885075 -0.008314390666782856
v 0.014486223459243774 0.0038268547505140305 -0.009238487109541893
v -0.014486213214695454 0.0038268694188445807 -0.00923849456012249
v 0.00923879910260439 0.0038268575444817543 -0.009238489903509617
v -0.00923879537731409 0.003826866624876857 -0.00923849456012249
v 0.014225402846932411 0.004713987000286579 -0.008818905800580978
v -0.014225396327674389 0.004714001435786486 -0.008818913251161575
v 0.008819214068353176 0.00471399025991559 -0.008818907663226128
v -0.008819208480417728 0.0047139981761574745 -0.008818912319839
v 0.014354108832776546 0.004354286007583141 -0.008989032357931137
v -0.014354103244841099 0.004354296252131462 -0.008989041671156883
v 0.014225414954125881 -0.004713946953415871 -0.008818901143968105
v 0.008819210343062878 -0.0047139436937868595 -0.00881890207529068
v -0.014225408434867859 -0.004713932517915964 -0.008818908594548702
v -0.008819212205708027 -0.004713936243206263 -0.008818907663226128
v 0.014354106970131397 -0.004354254342615604 -0.008989023044705391
v 0.013228744268417358 -0.007071041502058506 0.007071377243846655
v 0.0070710680447518826 -0.007071038242429495 0.00707137631252408
v -0.01322875265032053 -0.007071027997881174 0.007071373518556356
v -0.007071071770042181 -0.007071031257510185 0.007071374449878931
v 0.013572662137448788 -0.006343906279653311 0.007730415556579828
v 0.007730099372565746 -0.0063439030200243 0.007730414625257254
v -0.013572675175964832 -0.006343892775475979 0.007730407640337944
v -0.007730108220130205 -0.00634389603510499 0.007730408571660519
v 0.013228814117610455 -0.007070918567478657 0.007071491796523333
v -0.013228824362158775 -0.007070908788591623 0.007071483880281448
v 0.013572671450674534 0.0063439542427659035 -0.007729797158390284
v -0.007730100303888321 0.006343964021652937 -0.0077298046089708805
v 0.0077301072888076305 0.006343957036733627 -0.007729798089712858
v -0.013572664931416512 0.006343967281281948 -0.007729805540293455
v 0.013228822499513626 0.007070968858897686 -0.0070708696730434895
v -0.013228814117610455 0.007070979103446007 -0.007070881314575672
v 0.014225402846932411 0.004713993985205889 0.008819520473480225
v -0.014225407503545284 0.004714007955044508 0.008819512091577053
v 0.008819210343062878 0.0047139972448349 0.00881951954215765
v -0.008819212205708027 0.004714004695415497 0.008819513022899628
v 0.013924229890108109 0.005555728916078806 0.008315003477036953
v -0.013924225233495235 0.005555742885917425 0.008314995095133781
v -0.008314699865877628 0.005555739626288414 0.008314996026456356
v 0.00831469427794218 0.005555732175707817 0.008315002545714378
v 0.009238793514668941 -0.0038268056232482195 0.009239104576408863
v 0.014486217871308327 -0.0038268081843852997 0.009239108301699162
v -0.014486223459243774 -0.0038267935160547495 0.009239097125828266
v -0.009238801896572113 -0.003826796542853117 0.00923909805715084
v 0.014354103244841099 -0.004354235250502825 0.008989649824798107
v 0.014354105107486248 0.004354305099695921 0.008989640511572361
v 0.014711776748299599 0.002926390618085861 0.009561296552419662
v 0.014715265482664108 0.002902873093262315 0.009569711983203888
v -0.014711782336235046 0.0029264010954648256 0.00956129189580679
v -0.014715270139276981 0.0029028879944235086 0.009569703601300716
v -0.009569408372044563 0.0029028854332864285 0.009569704532623291
v 0.009569401852786541 0.0029028758872300386 0.009569711051881313
v 0.014715267345309258 -0.0029028195422142744 0.009569712914526463
v 0.01471177488565445 -0.0029263196047395468 0.009561305865645409
v 0.009569399990141392 -0.002902817213907838 0.009569711983203888
v -0.014715272933244705 -0.0029028053395450115 0.009569704532623291
v -0.014711784198880196 -0.0029263088945299387 0.009561296552419662
v -0.009569410234689713 -0.002902807667851448 0.009569705463945866
v 0.014486223459243774 0.003826861036941409 0.009239106439054012
v -0.014486221596598625 0.0038268757052719593 0.009239095263183117
v -0.014354106970131397 0.004354315344244242 0.008989636786282063
v 0.00923879537731409 0.0038268635980784893 0.00923910178244114
v -0.00923879910260439 0.003826872678473592 0.009239095263183117
v 0.0009801643900573254 -0.009951815940439701 -0.000979863223619759
v 0.01120003405958414 -0.009951821528375149 -0.000979857868514955
v -0.011200045235455036 -0.009951810352504253 -0.0009798650862649083
v -0.0009801742853596807 -0.009951815940439701 -0.0009798635728657246
v 0.0019509022822603583 -0.009807824157178402 -0.0019505929667502642
v 0.01133054494857788 -0.009807828813791275 -0.001950591686181724
v -0.011330550536513329 -0.00980781763792038 -0.0019505987875163555
v -0.001950903795659542 -0.009807822294533253 -0.0019505973905324936
v -3.262643266666032e-09 -0.00999996904283762 3.0786296179030614e-07
v 0.011156384833157063 -0.009999973699450493 3.095475449299556e-07
v -0.011156396009027958 -0.009999963454902172 3.061784070723661e-07
v 0.014951848424971104 0.000980190932750702 -0.009951536543667316
v 0.014927776530385017 0.0014702718472108245 -0.009878838434815407
v -0.014951844699680805 0.000980205717496574 -0.009951544925570488
v -0.00995184388011694 0.0009802032727748156 -0.009951543994247913
v 0.009951851330697536 0.0009801933774724603 -0.00995153933763504
v 0.011800658889114857 -0.009238769300282001 0.0038271453231573105
v 0.0038268317002803087 -0.009238765574991703 0.003827144159004092
v -0.011800678446888924 -0.009238758124411106 0.003827141597867012
v -0.0038268398493528366 -0.009238761849701405 0.003827142994850874
v 0.012111842632293701 -0.008819186128675938 0.004714279901236296
v 0.004713966976851225 -0.00881918240338564 0.004714278504252434
v -0.012111862190067768 -0.008819174021482468 0.004714272450655699
v -0.0047139679081737995 -0.008819176815450191 0.004714273381978273
v 0.013228743337094784 0.007071094121783972 0.007071373518556356
v -0.007071067113429308 0.007071103900671005 0.007071370258927345
v 0.007071072701364756 0.007071097381412983 0.007071372587233782
v -0.013228747062385082 0.007071107160300016 0.007071365602314472
v 0.013228819705545902 0.007070985157042742 0.0070714764297008514
v -0.013228817842900753 0.007070994004607201 0.007071468513458967
v 0.012483333237469196 -0.008314668200910091 0.005556012038141489
v 0.012472039088606834 -0.008333520032465458 0.005524559877812862
v 0.005555698182433844 -0.008314665406942368 0.005556010641157627
v -0.012483352795243263 -0.008314657025039196 0.005556008312851191
v -0.01247205026447773 -0.008333512581884861 0.005524551961570978
v -0.005555706564337015 -0.00831465981900692 0.005556009244173765
v 0.012111850082874298 -0.008819187059998512 -0.004713657312095165
v 0.004713968839496374 -0.008819184266030788 -0.004713658709079027
v -0.012111865915358067 -0.008819176815450191 -0.004713661037385464
v -0.00471396604552865 -0.00881917867809534 -0.004713660106062889
v 0.011800667271018028 -0.00923877116292715 -0.0038265225011855364
v 0.003826833562925458 -0.009238767437636852 -0.0038265276234596968
v -0.011800678446888924 -0.009238759987056255 -0.0038265299517661333
v -0.0038268379867076874 -0.009238763712346554 -0.003826528787612915
v 0.0029028491117060184 -0.009569374844431877 -0.002902539214119315
v 0.011546656489372253 -0.00956937950104475 -0.0029025340918451548
v -0.011546669527888298 -0.009569368325173855 -0.0029025415424257517
v -0.0029028495773673058 -0.009569372981786728 -0.0029025401454418898
v 0.011595153249800205 -0.00951587688177824 -0.003052066545933485
v -0.011595160700380802 -0.009515869431197643 -0.0030520623549818993
v 0.000980163924396038 -0.009951815940439701 0.0009804791770875454
v 0.011200029402971268 -0.009951821528375149 0.000980480806902051
v -0.011200041510164738 -0.009951810352504253 0.000980477430857718
v -0.000980174751020968 -0.009951815940439701 0.0009804789442569017
v 0.0019509013509377837 -0.009807820431888103 0.0019512131111696362
v 0.011330537497997284 -0.009807824157178402 0.0019512143917381763
v -0.011330547742545605 -0.009807813912630081 0.001951207290403545
v -0.0019509047269821167 -0.009807818569242954 0.0019512125290930271
v 0.011595153249800205 -0.009515869431197643 0.003052700776606798
v 0.0029028472490608692 -0.009569372981786728 0.0029031557496637106
v 0.011546656489372253 -0.009569377638399601 0.002903156913816929
v -0.011595160700380802 -0.009515861980617046 0.0030526856426149607
v -0.011546667665243149 -0.009569366462528706 0.002903153421357274
v -0.002902851440012455 -0.009569371119141579 0.002903154818341136
v 0.01283372100442648 -0.007730077486485243 0.006344242487102747
v 0.006343929562717676 -0.007730074226856232 0.006344241555780172
v -0.012833744287490845 -0.0077300649136304855 0.0063442387618124485
v -0.006343937013298273 -0.007730068638920784 0.006344239693135023
v 0.013858193531632423 0.005740287248045206 0.008178125135600567
v -0.013858193531632423 0.005740296561270952 0.008178120478987694
v 0.010000000707805157 2.20244125159752e-08 -0.009999693371355534
v 0.015000004321336746 1.954980177742982e-08 -0.009999693371355534
v -0.014999995008111 3.439745555056106e-08 -0.00999970082193613
v -0.009999996982514858 3.192284836472936e-08 -0.00999970082193613
v 0.013572677038609982 0.006343959830701351 0.007730412296950817
v -0.007730104494839907 0.006343969609588385 0.0077304053120315075
v 0.0077301072888076305 0.006343963090330362 0.0077304113656282425
v -0.013572673313319683 0.006343972869217396 0.007730404380708933
v 0.009807860478758812 -0.0019508808618411422 -0.009807542897760868
v 0.014927773736417294 -0.0014702427433803678 -0.009878837503492832
v 0.014856476336717606 -0.0019508833065629005 -0.009807541966438293
v -0.014856473542749882 -0.0019508685218170285 -0.00980755127966404
v -0.009807851165533066 -0.0019508713157847524 -0.009807550348341465
v 0.012833732180297375 -0.007730082608759403 -0.006343620829284191
v 0.006343933288007975 -0.007730078883469105 -0.006343625485897064
v -0.01283374521881342 -0.007730070035904646 -0.006343628279864788
v -0.006343933288007975 -0.007730073295533657 -0.0063436273485422134
v 0.012483340688049793 -0.008314673788845539 -0.005555388983339071
v 0.012472041882574558 -0.008333534002304077 -0.005523921921849251
v 0.005555701907724142 -0.008314670994877815 -0.005555394571274519
v -0.012483352795243263 -0.008314662612974644 -0.0055553968995809555
v -0.012472046539187431 -0.008333525620400906 -0.005523925647139549
v -0.005555702839046717 -0.008314665406942368 -0.005555395968258381
v 0.009951851330697536 -0.0009801494888961315 -0.009951540268957615
v 0.014951848424971104 -0.0009801519336178899 -0.009951537474989891
v -0.014951844699680805 -0.0009801371488720179 -0.009951543994247913
v -0.014927768148481846 -0.0014702319167554379 -0.009878842160105705
v -0.00995184388011694 -0.0009801395935937762 -0.009951543062925339
v 0.014856473542749882 0.0019509227713569999 -0.009807542897760868
v -0.014856471680104733 0.001950937556102872 -0.009807552210986614
v -0.009807849302887917 0.0019509349949657917 -0.00980755127966404
v 0.009807862341403961 0.001950925448909402 -0.009807543829083443
v -0.014927766285836697 0.0014702826738357544 -0.009878848679363728
v -0.030000006780028343 -0.009999956004321575 3.033330813195789e-07
v 0.029999995604157448 -0.009999983943998814 3.3146633882097376e-07
v -0.030000006780028343 -0.009951801970601082 0.0009804745204746723
v 0.029999995604157448 -0.009951830841600895 0.0009805026929825544
v -0.030000006780028343 -0.00980780553072691 0.0019512082217261195
v 0.029999995604157448 -0.009807834401726723 0.0019512363942340016
v -0.030000006780028343 -0.00956935528665781 0.00290315062738955
v 0.029999995604157448 -0.009569384157657623 0.0029031787998974323
v -0.030000006780028343 -0.009238746017217636 0.003827138803899288
v 0.029999995604157448 -0.00923877488821745 0.0038271669764071703
v -0.030000006780028343 -0.008819161914288998 0.004714269191026688
v 0.029999995604157448 -0.00881919078528881 0.004714297596365213
v -0.030000004917383194 -0.008314643986523151 0.005556005053222179
v 0.029999997466802597 -0.008314672857522964 0.005556029733270407
v -0.030000008642673492 -0.007730050943791866 0.006344235967844725
v 0.0299999937415123 -0.007730080280452967 0.006344260647892952
v -0.030000008642673492 -0.0070710135623812675 0.007071370258927345
v 0.0299999937415123 -0.007071043364703655 0.007071394938975573
v -0.030000008642673492 -0.006343877874314785 0.0077304053120315075
v 0.0299999937415123 -0.006343907676637173 0.0077304295264184475
v -0.030000008642673492 -0.005555646028369665 0.008314996026456356
v 0.0299999937415123 -0.005555675830692053 0.008315023966133595
v -0.030000008642673492 -0.004713910631835461 0.00881950929760933
v 0.0299999937415123 -0.004713940434157848 0.008819536305963993
v -0.030000008642673492 -0.003826778382062912 0.009239090606570244
v 0.0299999937415123 -0.003826806554570794 0.009239119477570057
v -0.030000006780028343 -0.0029027897398918867 0.009569698944687843
v 0.029999995604157448 -0.002902817912399769 0.009569727815687656
v -0.030000006780028343 -0.0019508458208292723 0.009808148257434368
v 0.029999995604157448 -0.0019508744589984417 0.009808171540498734
v -0.030000006780028343 -0.0009801137493923306 0.009952140972018242
v 0.029999995604157448 -0.0009801423875615 0.00995216891169548
v -0.030000006780028343 5.773717504098386e-08 0.010000293143093586
v 0.029999995604157448 2.9126962175496374e-08 0.0100003182888031
v -0.030000006780028343 0.000980229233391583 0.009952136315405369
v 0.029999995604157448 0.0009802005952224135 0.009952164255082607
v -0.030000006780028343 0.0019509607227519155 0.00980814266949892
v 0.029999995604157448 0.001950932084582746 0.009808170609176159
v -0.030000006780028343 0.0029029035940766335 0.009569689631462097
v 0.029999995604157448 0.002902875654399395 0.009569717571139336
v -0.030000003054738045 0.003826891304925084 0.009239081293344498
v 0.029999999329447746 0.003826863132417202 0.009239109233021736
v -0.030000003054738045 0.004714024253189564 0.008819498121738434
v 0.029999999329447746 0.004713994916528463 0.008819526061415672
v -0.030000003054738045 0.005555758718401194 0.008314982056617737
v 0.029999999329447746 0.005555729381740093 0.0083150090649724
v -0.030000003054738045 0.006343988701701164 0.007730386685580015
v 0.029999999329447746 0.006343959365040064 0.007730414625257254
v -0.030000003054738045 0.0070711225271224976 0.007071351632475853
v 0.029999999329447746 0.00707109272480011 0.00707137631252408
v -0.030000003054738045 0.007730158511549234 0.006344216875731945
v 0.029999999329447746 0.007730129174888134 0.006344241090118885
v -0.029999999329447746 0.008314749225974083 0.0055559854954481125
v 0.030000003054738045 0.00831472035497427 0.00555601017549634
v -0.029999997466802597 0.008819262497127056 0.004714249633252621
v 0.030000004917383194 0.008819234557449818 0.004714274313300848
v -0.029999997466802597 0.00923884566873312 0.0038271150551736355
v 0.030000004917383194 0.009238816797733307 0.0038271432276815176
v -0.029999997466802597 0.009569453075528145 0.00290312641300261
v 0.030000004917383194 0.009569424204528332 0.0029031545855104923
v -0.029999997466802597 0.00980790052562952 0.0019511838909238577
v 0.030000004917383194 0.009807872585952282 0.0019512082217261195
v -0.029999995604157448 0.009951893240213394 0.0009804501896724105
v 0.030000006780028343 0.009951864369213581 0.0009804782457649708
v -0.029999995604157448 0.010000045411288738 2.788852668800246e-07
v 0.030000006780028343 0.010000016540288925 3.0701846753800055e-07
v -0.029999995604157448 0.009951891377568245 -0.0009798923274502158
v 0.030000006780028343 0.009951862506568432 -0.0009798642713576555
v -0.029999995604157448 0.009807894937694073 -0.001950626028701663
v 0.030000006780028343 0.009807866998016834 -0.001950597856193781
v -0.029999995604157448 0.009569444693624973 -0.0029025685507804155
v 0.030000006780028343 0.009569416753947735 -0.0029025403782725334
v -0.029999995604157448 0.0092388354241848 -0.0038265567272901535
v 0.030000006780028343 0.00923880748450756 -0.0038265285547822714
v -0.029999995604157448 0.00881925132125616 -0.004713687114417553
v 0.030000006780028343 0.008819222450256348 -0.0047136591747403145
v -0.029999997466802597 0.008314734324812889 -0.005555419251322746
v 0.030000004917383194 0.008314705453813076 -0.005555395036935806
v -0.0299999937415123 0.007730141747742891 -0.0063436501659452915
v 0.030000008642673492 0.007730111945420504 -0.0063436259515583515
v -0.0299999937415123 0.0070711043663322926 -0.007070784457027912
v 0.030000008642673492 0.007071075029671192 -0.007070760242640972
v -0.0299999937415123 0.00634396867826581 -0.007729819044470787
v 0.030000008642673492 0.00634393934160471 -0.007729794830083847
v -0.0299999937415123 0.00555573683232069 -0.008314411155879498
v 0.030000008642673492 0.0055557070299983025 -0.008314386010169983
v -0.0299999937415123 0.004714001435786486 -0.00881892628967762
v 0.030000008642673492 0.004713971633464098 -0.008818898350000381
v -0.0299999937415123 0.0038268675561994314 -0.00923850852996111
v 0.030000008642673492 0.0038268393836915493 -0.009238479658961296
v -0.029999995604157448 0.002902878914028406 -0.009569116868078709
v 0.030000006780028343 0.002902850741520524 -0.009569087997078896
v -0.029999995604157448 0.001950935460627079 -0.00980756338685751
v 0.030000006780028343 0.0019509068224579096 -0.00980753730982542
v -0.029999995604157448 0.0009802033891901374 -0.009951558895409107
v 0.030000006780028343 0.0009801748674362898 -0.009951530955731869
v -0.029999995604157448 3.190836395106089e-08 -0.009999709203839302
v 0.030000006780028343 3.298144424235261e-09 -0.009999681264162064
v -0.029999995604157448 -0.0009801395935937762 -0.009951554238796234
v 0.030000006780028343 -0.0009801681153476238 -0.009951526299118996
v -0.029999995604157448 -0.0019508710829541087 -0.009807560592889786
v 0.030000006780028343 -0.0019508997211232781 -0.009807532653212547
v -0.029999995604157448 -0.002902814419940114 -0.009569107554852962
v 0.030000006780028343 -0.002902842592447996 -0.009569080546498299
v -0.029999999329447746 -0.0038268021307885647 -0.009238499216735363
v 0.030000003054738045 -0.003826830303296447 -0.00923847034573555
v -0.029999999329447746 -0.004713933914899826 -0.0088189160451293
v 0.030000003054738045 -0.0047139632515609264 -0.00881888810545206
v -0.029999999329447746 -0.005555667914450169 -0.008314399048686028
v 0.030000003054738045 -0.005555697716772556 -0.008314371109008789
v -0.029999999329447746 -0.006343897897750139 -0.0077298046089708805
v 0.030000003054738045 -0.006343927700072527 -0.007729776203632355
v -0.029999999329447746 -0.0070710317231714725 -0.00707076583057642
v 0.030000003054738045 -0.00707106152549386 -0.00707074161618948
v -0.029999999329447746 -0.007730068173259497 -0.006343630608171225
v 0.030000003054738045 -0.007730097509920597 -0.006343606393784285
v -0.030000003054738045 -0.00831465981900692 -0.005555399693548679
v 0.029999999329447746 -0.008314687758684158 -0.005555375479161739
v -0.030000004917383194 -0.008819173090159893 -0.0047136638313531876
v 0.029999997466802597 -0.008819201961159706 -0.0047136396169662476
v -0.030000004917383194 -0.009238755330443382 -0.003826532745733857
v 0.029999997466802597 -0.009238784201443195 -0.003826504573225975
v -0.030000004917383194 -0.009569362737238407 -0.002902544103562832
v 0.029999997466802597 -0.00956939160823822 -0.0029025159310549498
v -0.030000004917383194 -0.009807811118662357 -0.001950597856193781
v 0.029999997466802597 -0.00980783998966217 -0.001950573525391519
v -0.030000006780028343 -0.009951803833246231 -0.0009798678802326322
v 0.029999995604157448 -0.009951832704246044 -0.0009798398241400719
usemtl Alu
f 2 1 65
f 39 103 40
f 3 2 66
f 65 64 128
f 4 3 68
f 66 2 65
f 5 4 68
f 128 64 63
f 61 125 126
f 128 63 127
f 65 1 64
f 6 70 7
f 80 15 79
f 67 3 66
f 60 124 61
f 7 71 8
f 126 62 61
f 31 94 95
f 59 124 60
f 25 88 89
f 59 123 124
f 68 69 5
f 38 102 39
f 8 72 9
f 58 123 59
f 58 122 123
f 29 93 94
f 70 71 7
f 57 122 58
f 43 108 44
f 71 72 8
f 26 91 27
f 5 70 6
f 72 73 9
f 56 120 57
f 11 10 74
f 73 74 9
f 42 106 43
f 120 55 119
f 12 11 76
f 40 104 41
f 76 11 75
f 45 110 46
f 13 12 76
f 37 102 38
f 120 56 55
f 53 117 118
f 77 13 76
f 117 53 116
f 14 13 78
f 23 86 87
f 126 63 62
f 51 116 52
f 78 15 14
f 51 115 116
f 79 15 78
f 50 115 51
f 16 15 80
f 50 114 115
f 41 106 42
f 114 50 113
f 17 16 81
f 61 124 125
f 118 55 54
f 48 113 49
f 48 112 113
f 17 81 18
f 113 50 49
f 48 111 112
f 83 18 82
f 47 111 48
f 83 19 18
f 47 110 111
f 84 19 83
f 46 110 47
f 84 20 19
f 109 110 45
f 20 84 21
f 29 92 93
f 78 13 77
f 45 108 109
f 86 21 85
f 44 108 45
f 86 22 21
f 107 108 43
f 22 86 23
f 106 107 43
f 57 120 121
f 119 55 118
f 24 88 25
f 105 106 41
f 23 88 24
f 23 87 88
f 118 54 53
f 104 105 41
f 81 16 80
f 25 89 90
f 57 121 122
f 103 104 40
f 25 90 26
f 102 103 39
f 116 53 52
f 75 11 74
f 26 90 91
f 101 102 37
f 69 70 5
f 100 101 37
f 27 91 92
f 30 94 31
f 27 92 28
f 99 35 98
f 28 92 29
f 35 100 36
f 9 74 10
f 98 34 97
f 130 193 129
f 99 100 35
f 94 30 29
f 97 33 32
f 96 31 95
f 96 32 31
f 37 36 100
f 21 84 85
f 68 3 67
f 97 32 96
f 35 34 98
f 127 63 126
f 34 33 97
f 18 81 82
f 167 168 231
f 131 194 130
f 193 256 192
f 132 196 131
f 194 193 130
f 133 196 132
f 256 191 192
f 189 254 253
f 256 255 191
f 193 192 129
f 134 135 198
f 208 207 143
f 195 194 131
f 188 189 252
f 135 136 199
f 254 189 190
f 159 223 222
f 187 188 252
f 153 217 216
f 187 252 251
f 196 133 197
f 166 167 230
f 136 137 200
f 186 187 251
f 186 251 250
f 157 222 221
f 198 135 199
f 185 186 250
f 171 172 236
f 199 136 200
f 154 155 219
f 133 134 198
f 200 137 201
f 184 185 248
f 139 202 138
f 201 137 202
f 170 171 234
f 248 247 183
f 140 204 139
f 168 169 232
f 204 203 139
f 173 174 238
f 141 204 140
f 165 166 230
f 248 183 184
f 181 246 245
f 205 204 141
f 245 244 181
f 142 206 141
f 151 215 214
f 254 190 191
f 179 180 244
f 206 142 143
f 179 244 243
f 207 206 143
f 178 179 243
f 144 208 143
f 178 243 242
f 169 170 234
f 242 241 178
f 145 209 144
f 189 253 252
f 246 182 183
f 176 177 241
f 176 241 240
f 145 146 209
f 241 177 178
f 176 240 239
f 211 210 146
f 175 176 239
f 211 146 147
f 175 239 238
f 212 211 147
f 174 175 238
f 212 147 148
f 237 173 238
f 148 149 212
f 157 221 220
f 206 205 141
f 173 237 236
f 214 213 149
f 172 173 236
f 214 149 150
f 235 171 236
f 150 151 214
f 234 171 235
f 185 249 248
f 247 246 183
f 152 153 216
f 233 169 234
f 151 152 216
f 151 216 215
f 246 181 182
f 232 169 233
f 209 208 144
f 153 218 217
f 185 250 249
f 231 168 232
f 153 154 218
f 230 167 231
f 244 180 181
f 203 202 139
f 154 219 218
f 229 165 230
f 197 133 198
f 228 165 229
f 155 220 219
f 158 159 222
f 155 156 220
f 227 226 163
f 156 157 220
f 163 164 228
f 137 138 202
f 226 225 162
f 227 163 228
f 222 157 158
f 225 160 161
f 224 223 159
f 224 159 160
f 165 228 164
f 149 213 212
f 196 195 131
f 225 224 160
f 163 226 162
f 255 254 191
f 162 225 161
f 146 210 209
f 92 91 219 220
f 40 41 169 168
f 93 92 220 221
f 41 42 170 169
f 94 93 221 222
f 42 43 171 170
f 95 94 222 223
f 43 44 172 171
f 96 95 223 224
f 44 45 173 172
f 97 96 224 225
f 45 46 174 173
f 98 97 225 226
f 46 47 175 174
f 99 98 226 227
f 47 48 176 175
f 100 99 227 228
f 48 49 177 176
f 101 100 228 229
f 49 50 178 177
f 102 101 229 230
f 50 51 179 178
f 103 102 230 231
f 51 52 180 179
f 104 103 231 232
f 52 53 181 180
f 1 2 130 129
f 105 104 232 233
f 53 54 182 181
f 2 3 131 130
f 106 105 233 234
f 54 55 183 182
f 3 4 132 131
f 107 106 234 235
f 55 56 184 183
f 4 5 133 132
f 108 107 235 236
f 56 57 185 184
f 5 6 134 133
f 109 108 236 237
f 57 58 186 185
f 6 7 135 134
f 110 109 237 238
f 58 59 187 186
f 7 8 136 135
f 111 110 238 239
f 59 60 188 187
f 8 9 137 136
f 112 111 239 240
f 60 61 189 188
f 9 10 138 137
f 113 112 240 241
f 61 62 190 189
f 10 11 139 138
f 114 113 241 242
f 62 63 191 190
f 11 12 140 139
f 115 114 242 243
f 63 64 192 191
f 12 13 141 140
f 116 115 243 244
f 64 1 129 192
f 13 14 142 141
f 117 116 244 245
f 66 65 193 194
f 14 15 143 142
f 118 117 245 246
f 67 66 194 195
f 15 16 144 143
f 119 118 246 247
f 68 67 195 196
f 16 17 145 144
f 120 119 247 248
f 69 68 196 197
f 17 18 146 145
f 121 120 248 249
f 70 69 197 198
f 18 19 147 146
f 122 121 249 250
f 71 70 198 199
f 19 20 148 147
f 123 122 250 251
f 72 71 199 200
f 20 21 149 148
f 124 123 251 252
f 73 72 200 201
f 21 22 150 149
f 125 124 252 253
f 74 73 201 202
f 22 23 151 150
f 126 125 253 254
f 75 74 202 203
f 23 24 152 151
f 127 126 254 255
f 76 75 203 204
f 24 25 153 152
f 128 127 255 256
f 77 76 204 205
f 25 26 154 153
f 65 128 256 193
f 78 77 205 206
f 26 27 155 154
f 79 78 206 207
f 27 28 156 155
f 80 79 207 208
f 28 29 157 156
f 81 80 208 209
f 29 30 158 157
f 82 81 209 210
f 30 31 159 158
f 83 82 210 211
f 31 32 160 159
f 84 83 211 212
f 32 33 161 160
f 85 84 212 213
f 33 34 162 161
f 86 85 213 214
f 34 35 163 162
f 87 86 214 215
f 35 36 164 163
f 88 87 215 216
f 36 37 165 164
f 89 88 216 217
f 37 38 166 165
f 90 89 217 218
f 38 39 167 166
f 91 90 218 219
f 39 40 168 167
f 257 259 770 728
f 259 261 774 770
f 261 263 779 774
f 263 265 737 779
f 265 267 741 737
f 267 269 752 741
f 269 271 785 752
f 271 273 674 785
f 273 275 678 674
f 275 277 641 678
f 277 279 630 641
f 279 281 697 630
f 281 283 711 697
f 283 285 616 711
f 285 287 610 616
f 287 289 619 610
f 289 291 605 619
f 291 293 600 605
f 293 295 708 600
f 295 297 718 708
f 297 299 691 718
f 299 301 696 691
f 301 303 796 696
f 303 305 746 796
f 305 307 556 746
f 307 309 560 556
f 309 311 533 560
f 311 313 513 533
f 313 315 517 513
f 315 317 583 517
f 317 319 575 583
f 319 321 580 575
f 321 323 577 580
f 323 325 582 577
f 325 327 518 582
f 327 329 514 518
f 329 331 535 514
f 331 333 561 535
f 333 335 557 561
f 335 337 745 557
f 337 339 795 745
f 339 341 695 795
f 341 343 692 695
f 343 345 719 692
f 345 347 707 719
f 347 349 599 707
f 349 351 604 599
f 351 353 622 604
f 353 355 614 622
f 355 357 618 614
f 357 359 714 618
f 359 361 700 714
f 361 363 633 700
f 363 365 643 633
f 365 367 680 643
f 367 369 676 680
f 369 371 787 676
f 371 373 755 787
f 373 375 743 755
f 375 377 739 743
f 377 379 783 739
f 379 381 777 783
f 381 383 773 777
f 383 257 728 773
f 385 386 388 387
f 387 388 390 389
f 389 390 392 391
f 391 392 394 393
f 393 394 396 395
f 395 396 398 397
f 397 398 400 399
f 399 400 402 401
f 401 402 404 768 765 725 721 729 771 775 780 778 403
f 403 778 736 740 751 405
f 405 751 750 784 673 681 407
f 407 681 677 644 409
f 409 644 640 629 701 411
f 411 701 698 710 413
f 413 710 709 615 612 415
f 415 612 611 620 417
f 417 620 601 602 419
f 419 602 596 704 703 421
f 421 703 715 702 423
f 423 702 689 693 788 425
f 425 788 794 748 427
f 427 748 744 555 559 567 429
f 429 567 534 515 520 431
f 431 520 519 584 576 579 564 592 588 594 432 434 433
f 433 434 436 435
f 435 436 438 437
f 437 438 440 439
f 439 440 442 441
f 441 442 444 443
f 443 444 446 445
f 445 446 448 447
f 447 448 450 449
f 449 450 452 451
f 451 452 454 453
f 453 454 456 455
f 455 456 458 457
f 457 458 460 459
f 459 460 462 461
f 461 462 464 463
f 463 464 466 465
f 465 466 468 595 589 593 566 581 578 585 521 522 467
f 467 522 516 536 568 469
f 469 568 562 558 747 749 471
f 471 749 797 789 473
f 473 789 694 690 717 475
f 475 717 716 705 477
f 477 705 706 598 597 479
f 479 597 603 621 481
f 481 621 613 623 483
f 483 623 617 712 713 485
f 485 713 699 632 487
f 487 632 631 642 645 489
f 489 645 679 682 491
f 491 682 675 786 753 754 493
f 493 754 742 738 781 495
f 495 781 782 776 772 730 722 726 766 769 496 498 497
f 497 498 500 499
f 499 500 502 501
f 501 502 504 503
f 503 504 506 505
f 505 506 508 507
f 507 508 510 509
f 509 510 512 511
f 511 512 386 385
f 381 379 507 509
f 347 345 473 475
f 313 311 439 441
f 380 382 510 508
f 279 277 405 407
f 346 348 476 474
f 312 314 442 440
f 278 280 408 406
f 383 381 509 511
f 349 347 475 477
f 315 313 441 443
f 382 384 512 510
f 281 279 407 409
f 348 350 478 476
f 314 316 444 442
f 280 282 410 408
f 257 383 511 385
f 351 349 477 479
f 317 315 443 445
f 384 258 386 512
f 283 281 409 411
f 350 352 480 478
f 316 318 446 444
f 282 284 412 410
f 353 351 479 481
f 319 317 445 447
f 285 283 411 413
f 352 354 482 480
f 318 320 448 446
f 284 286 414 412
f 355 353 481 483
f 321 319 447 449
f 287 285 413 415
f 354 356 484 482
f 320 322 450 448
f 286 288 416 414
f 357 355 483 485
f 323 321 449 451
f 289 287 415 417
f 356 358 486 484
f 322 324 452 450
f 288 290 418 416
f 359 357 485 487
f 325 323 451 453
f 291 289 417 419
f 358 360 488 486
f 324 326 454 452
f 290 292 420 418
f 361 359 487 489
f 259 257 385 387
f 327 325 453 455
f 293 291 419 421
f 360 362 490 488
f 326 328 456 454
f 292 294 422 420
f 258 260 388 386
f 363 361 489 491
f 329 327 455 457
f 295 293 421 423
f 362 364 492 490
f 261 259 387 389
f 328 330 458 456
f 294 296 424 422
f 260 262 390 388
f 365 363 491 493
f 331 329 457 459
f 297 295 423 425
f 364 366 494 492
f 263 261 389 391
f 330 332 460 458
f 296 298 426 424
f 262 264 392 390
f 367 365 493 495
f 333 331 459 461
f 299 297 425 427
f 366 368 496 494
f 265 263 391 393
f 332 334 462 460
f 298 300 428 426
f 264 266 394 392
f 369 367 495 497
f 335 333 461 463
f 301 299 427 429
f 368 370 498 496
f 267 265 393 395
f 334 336 464 462
f 300 302 430 428
f 266 268 396 394
f 371 369 497 499
f 337 335 463 465
f 303 301 429 431
f 370 372 500 498
f 269 267 395 397
f 336 338 466 464
f 302 304 432 430
f 268 270 398 396
f 373 371 499 501
f 339 337 465 467
f 305 303 431 433
f 372 374 502 500
f 271 269 397 399
f 338 340 468 466
f 304 306 434 432
f 270 272 400 398
f 375 373 501 503
f 341 339 467 469
f 307 305 433 435
f 374 376 504 502
f 273 271 399 401
f 340 342 470 468
f 306 308 436 434
f 272 274 402 400
f 377 375 503 505
f 343 341 469 471
f 309 307 435 437
f 376 378 506 504
f 275 273 401 403
f 342 344 472 470
f 308 310 438 436
f 274 276 404 402
f 379 377 505 507
f 345 343 471 473
f 311 309 437 439
f 378 380 508 506
f 277 275 403 405
f 344 346 474 472
f 310 312 440 438
f 276 278 406 404
f 738 739 783 782 781
f 737 736 778 780 779
f 798 813 288 286
f 639 627 362 360
f 762 763 759 758
f 761 760 756 757
f 659 661 665 663 667
f 660 658 666 662 664
f 636 798 286 284
f 578 577 582 585
f 575 576 584 583
f 521 518 514 516 522
f 517 519 520 515 513
f 558 557 745 747
f 556 555 744 746
f 655 686 688 472 474
f 821 651 296 294
f 562 561 557 558
f 560 559 555 556
f 727 723 384 382
f 764 761 266 264
f 613 614 618 617 623
f 610 611 612 615 616
f 694 695 692 690
f 696 693 689 691
f 753 755 743 742 754
f 752 750 751 740 741
f 637 639 802 801
f 636 634 800 798
f 667 663 654 655 474 476
f 536 535 561 562 568
f 533 534 567 559 560
f 686 684 607 609 688
f 685 683 687 606 608
f 806 812 374 372
f 684 656 342 340
f 766 767 763 762 769
f 764 765 768 760 761
f 626 627 639 637 638
f 624 625 635 634 636
f 790 735 292 290
f 538 537 803 807 808 406 408
f 526 528 671 670
f 525 523 668 669
f 804 539 274 272
f 747 745 795 797 749
f 746 744 748 794 796
f 791 814 799 416 418
f 664 657 302 300
f 797 795 695 694 789
f 796 794 788 693 696
f 532 542 370 368
f 723 728 258 384
f 822 819 649 648 478 480
f 607 684 340 338
f 527 526 670 628 488 490
f 635 625 672 412 414
f 586 591 318 316
f 653 652 662 666 424 426
f 730 728 723 722
f 728 729 721 720
f 554 552 587 589 595
f 551 553 594 588 586
f 801 802 817 815 816
f 798 800 799 814 813
f 742 743 739 738
f 741 740 736 737
f 544 548 310 308
f 573 549 334 332
f 782 783 777 776
f 779 780 775 774
f 546 545 549 550
f 544 543 547 548
f 594 553 572 569 430 432
f 646 647 818 732 420 422
f 541 531 527 490 492
f 598 599 604 603 597
f 600 596 602 601 605
f 548 571 312 310
f 571 551 314 312
f 776 777 773 772
f 774 775 771 770
f 670 671 627 626 628
f 669 668 672 625 624
f 569 547 543 606 687 428 430
f 589 587 590 593
f 586 588 592 591
f 758 759 812 810 811
f 757 756 808 807 809
f 732 731 791 418 420
f 817 802 358 356
f 649 650 661 659 648
f 651 647 646 658 660
f 574 573 552 554
f 571 572 553 551
f 565 590 326 324
f 810 812 806 805
f 809 807 803 804
f 786 787 755 753
f 785 784 750 752
f 587 552 330 328
f 820 734 352 350
f 525 669 280 278
f 563 580 322 320
f 648 659 667 476 478
f 621 622 614 613
f 619 620 611 610
f 812 759 376 374
f 813 790 290 288
f 763 767 380 378
f 799 800 634 635 414 416
f 819 820 650 649
f 821 818 647 651
f 593 590 565 566
f 591 592 564 563
f 687 683 653 426 428
f 531 532 528 526 527
f 530 529 524 523 525
f 650 820 350 348
f 540 542 532 531 541
f 539 537 538 529 530
f 516 514 535 536
f 513 515 534 533
f 809 804 272 270
f 660 664 300 298
f 671 528 366 364
f 530 525 278 276
f 716 719 707 706 705
f 718 715 703 704 708
f 570 574 554 595 468 470
f 608 544 308 306
f 603 604 622 621
f 605 601 620 619
f 591 563 320 318
f 627 671 364 362
f 805 806 542 540
f 804 803 537 539
f 669 624 282 280
f 665 661 346 344
f 802 639 360 358
f 761 757 268 266
f 657 685 304 302
f 699 700 633 631 632
f 697 698 701 629 630
f 675 676 787 786
f 674 673 784 785
f 524 529 538 408 410
f 815 817 793 792
f 813 814 791 790
f 706 707 599 598
f 708 704 596 600
f 617 618 714 712
f 616 615 709 711
f 552 573 332 330
f 581 580 577 578
f 580 579 576 575
f 528 532 368 366
f 808 756 760 768 404 406
f 685 608 306 304
f 757 809 270 268
f 734 793 354 352
f 759 763 378 376
f 585 582 518 521
f 583 584 519 517
f 792 793 734 733
f 790 791 731 735
f 642 643 680 679 645
f 641 640 644 677 678
f 654 656 684 686 655
f 657 652 653 683 685
f 792 733 822 480 482
f 624 636 284 282
f 656 665 344 342
f 720 724 262 260
f 663 665 656 654
f 664 662 652 657
f 609 607 545 546
f 608 606 543 544
f 688 609 546 550 570 470 472
f 733 734 820 819 822
f 735 731 732 818 821
f 631 633 643 642
f 630 629 640 641
f 767 727 382 380
f 661 650 348 346
f 580 565 324 322
f 550 549 573 574 570
f 548 547 569 572 571
f 566 565 580 581
f 563 564 579 580
f 545 607 338 336
f 772 773 728 730
f 770 771 729 728
f 712 714 700 699 713
f 711 709 710 698 697
f 590 587 328 326
f 690 692 719 716 717
f 691 689 702 715 718
f 666 658 646 422 424
f 551 586 316 314
f 769 762 758 811 494 496
f 726 727 767 766
f 724 725 765 764
f 724 764 264 262
f 679 680 676 675 682
f 678 677 681 673 674
f 811 810 805 540 541 492 494
f 728 720 260 258
f 628 626 638 486 488
f 549 545 336 334
f 542 806 372 370
f 539 530 276 274
f 816 815 792 482 484
f 735 821 294 292
f 722 723 727 726
f 720 721 725 724
f 638 637 801 816 484 486
f 793 817 356 354
f 651 660 298 296
f 672 668 523 524 410 412
usemtl Steel
f 823 824 826 825
f 825 826 828 827
f 827 828 830 829
f 829 830 832 831
f 831 832 834 833
f 833 834 836 835
f 835 836 838 837
f 837 838 840 839
f 839 840 842 841
f 841 842 844 843
f 843 844 846 845
f 845 846 848 847
f 847 848 850 849
f 849 850 852 851
f 851 852 854 853
f 853 854 856 855
f 855 856 858 857
f 857 858 860 859
f 859 860 862 861
f 861 862 864 863
f 863 864 866 865
f 865 866 868 867
f 867 868 870 869
f 869 870 872 871
f 871 872 874 873
f 873 874 876 875
f 875 876 878 877
f 877 878 880 879
f 879 880 882 881
f 881 882 884 883
f 883 884 886 885
f 885 886 888 887
f 887 888 890 889
f 889 890 892 891
f 891 892 894 893
f 893 894 896 895
f 895 896 898 897
f 897 898 900 899
f 899 900 902 901
f 901 902 904 903
f 903 904 906 905
f 905 906 908 907
f 907 908 910 909
f 909 910 912 911
f 911 912 914 913
f 913 914 916 915
f 915 916 918 917
f 917 918 920 919
f 919 920 922 921
f 921 922 924 923
f 923 924 926 925
f 925 926 928 927
f 927 928 930 929
f 929 930 932 931
f 931 932 934 933
f 933 934 936 935
f 935 936 938 937
f 937 938 940 939
f 939 940 942 941
f 941 942 944 943
f 943 944 946 945
f 945 946 948 947
f 826 824 950 948 946 944 942 940 938 936 934 932 930 928 926 924 922 920 918 916 914 912 910 908 906 904 902 900 898 896 894 892 890 888 886 884 882 880 878 876 874 872 870 868 866 864 862 860 858 856 854 852 850 848 846 844 842 840 838 836 834 832 830 828
f 947 948 950 949
f 949 950 824 823
f 823 825 827 829 831 833 835 837 839 841 843 845 847 849 851 853 855 857 859 861 863 865 867 869 871 873 875 877 879 881 883 885 887 889 891 893 895 897 899 901 903 905 907 909 911 913 915 917 919 921 923 925 927 929 931 933 935 937 939 941 943 945 947 949
