mtllib Circle_029.mtl
v -0.024944080039858818 0.01666710525751114 0.022000011056661606
v -0.02319030463695526 0.019031798467040062 0.022000011056661606
v -0.021213194355368614 0.02121320180594921 0.022000011056661606
v -0.019031791016459465 0.023190312087535858 0.022000011056661606
v -0.016667097806930542 0.024944087490439415 0.022000011056661606
v -0.01414189487695694 0.026457637548446655 0.022000009194016457
v -0.011480497196316719 0.0277163814753294 0.022000009194016457
v -0.008708532899618149 0.028708208352327347 0.022000009194016457
v -0.0058527011424303055 0.029423555359244347 0.022000007331371307
v -0.002940505975857377 0.02985553815960884 0.022000007331371307
v 8.644593485485075e-09 0.029999997466802597 0.022000005468726158
v 0.002940522972494364 0.02985553815960884 0.022000005468726158
v 0.0058527193032205105 0.029423555359244347 0.02200000360608101
v 0.008708547800779343 0.028708208352327347 0.02200000360608101
v 0.011480512097477913 0.0277163814753294 0.02200000174343586
v 0.014141910709440708 0.026457633823156357 0.02200000174343586
v 0.016667116433382034 0.024944083765149117 0.02199999988079071
v 0.019031809642910957 0.02319030836224556 0.02199999988079071
v 0.021213214844465256 0.021213198080658913 0.02199999801814556
v 0.023190323263406754 0.019031794741749763 0.02199999801814556
v 0.02494409866631031 0.01666710153222084 0.021999996155500412
v 0.024944094941020012 -0.016667112708091736 0.021999992430210114
v 0.023190319538116455 -0.01903180591762066 0.021999992430210114
v 0.021213209256529808 -0.021213209256529808 0.021999992430210114
v 0.01903180591762066 -0.023190319538116455 0.021999992430210114
v 0.016667112708091736 -0.024944094941020012 0.021999992430210114
v 0.014141906052827835 -0.026457644999027252 0.021999994292855263
v 0.011480508372187614 -0.027716390788555145 0.021999994292855263
v 0.008708544075489044 -0.028708215802907944 0.021999994292855263
v 0.00585271418094635 -0.029423562809824944 0.021999996155500412
v 0.002940518781542778 -0.029855545610189438 0.021999996155500412
v 4.114717899739162e-09 -0.030000004917383194 0.02199999801814556
v -0.002940510166808963 -0.029855545610189438 0.02199999801814556
v -0.0058527057990431786 -0.029423562809824944 0.02199999988079071
v -0.008708536624908447 -0.028708215802907944 0.02199999988079071
v -0.011480500921607018 -0.027716390788555145 0.02200000174343586
v -0.014141898602247238 -0.026457641273736954 0.02200000174343586
v -0.01666710153222084 -0.024944091215729713 0.02200000360608101
v -0.019031794741749763 -0.023190315812826157 0.02200000360608101
v -0.021213198080658913 -0.02121320553123951 0.022000005468726158
v -0.02319030836224556 -0.01903180219233036 0.022000005468726158
v -0.024944083765149117 -0.016667108982801437 0.022000007331371307
v -0.019325250759720802 0.015859832987189293 0.022000009194016457
v -0.017677661031484604 0.0176776684820652 0.022000009194016457
v -0.015859827399253845 0.01932526007294655 0.022000009194016457
v -0.013889249414205551 0.020786738023161888 0.022000009194016457
v -0.011784912087023258 0.02204802818596363 0.022000009194016457
v -0.00956707913428545 0.02309698425233364 0.022000007331371307
v -0.007257108576595783 0.02392350696027279 0.022000007331371307
v -0.004877250175923109 0.024519627913832664 0.022000007331371307
v -0.0024504202883690596 0.024879615753889084 0.022000005468726158
v 8.267104334436226e-09 0.02499999664723873 0.022000005468726158
v 0.0024504370521754026 0.024879615753889084 0.022000005468726158
v 0.004877266939729452 0.024519627913832664 0.02200000360608101
v 0.007257125806063414 0.02392350696027279 0.02200000360608101
v 0.009567094035446644 0.02309698425233364 0.02200000174343586
v 0.011784926988184452 0.02204802818596363 0.02200000174343586
v 0.013889264315366745 0.02078673429787159 0.02199999988079071
v 0.01585984230041504 0.0193252544850111 0.02199999988079071
v 0.017677679657936096 0.017677664756774902 0.02199999801814556
v 0.019325271248817444 0.015859829261898994 0.02199999801814556
v 0.019325267523527145 -0.01585983857512474 0.021999994292855263
v 0.017677675932645798 -0.017677675932645798 0.021999994292855263
v 0.01585983857512474 -0.019325267523527145 0.021999994292855263
v 0.013889260590076447 -0.020786745473742485 0.021999994292855263
v 0.011784923262894154 -0.022048035636544228 0.021999994292855263
v 0.009567090310156345 -0.023096991702914238 0.021999996155500412
v 0.007257122080773115 -0.023923514410853386 0.021999996155500412
v 0.004877263214439154 -0.02451963536441326 0.021999996155500412
v 0.0024504330940544605 -0.02487962320446968 0.02199999801814556
v 4.4922079389664304e-09 -0.02500000409781933 0.02199999801814556
v -0.002450424013659358 -0.02487962320446968 0.02199999801814556
v -0.0048772539012134075 -0.02451963536441326 0.02199999988079071
v -0.007257112301886082 -0.023923514410853386 0.02199999988079071
v -0.009567082859575748 -0.023096991702914238 0.02200000174343586
v -0.011784915812313557 -0.022048035636544228 0.02200000174343586
v -0.01388925313949585 -0.020786741748452187 0.02200000360608101
v -0.015859831124544144 -0.019325263798236847 0.02200000360608101
v -0.017677664756774902 -0.0176776722073555 0.022000005468726158
v -0.0193252544850111 -0.015859834849834442 0.022000005468726158
v -0.03000003471970558 1.8119498790269972e-08 -0.10300000011920929
v -0.029855575412511826 0.00294053228572011 -0.10300000011920929
v -0.029423590749502182 0.005852728616446257 -0.10300000011920929
v -0.028708243742585182 0.008708557114005089 -0.10300000011920929
v -0.027716418728232384 0.011480521410703659 -0.10300000011920929
v -0.026457669213414192 0.014141920022666454 -0.10300000011920929
v -0.024944119155406952 0.01666712388396263 -0.10300000011920929
v -0.023190345615148544 0.019031817093491554 -0.10300000011920929
v -0.021213235333561897 0.021213222295045853 -0.10300000011920929
v -0.0190318301320076 0.02319033071398735 -0.10300000011920929
v -0.016667138785123825 0.024944106116890907 -0.10300000011920929
v 0.0166670773178339 0.02494410239160061 -0.10300000756978989
v 0.019031770527362823 0.023190326988697052 -0.10300000756978989
v 0.021213173866271973 0.021213218569755554 -0.10300000756978989
v 0.02319028414785862 0.019031813368201256 -0.10300001502037048
v 0.024944059550762177 0.016667120158672333 -0.10300001502037048
v 0.026457607746124268 0.014141916297376156 -0.10300001502037048
v 0.02771635353565216 0.01148051768541336 -0.10300001502037048
v 0.02870817855000496 0.00870855338871479 -0.10300001502037048
v 0.02942352555692196 0.0058527239598333836 -0.10300001502037048
v 0.029855510219931602 0.002940528094768524 -0.10300001502037048
v 0.02999996952712536 1.3589625424970109e-08 -0.10300001502037048
v 0.029855510219931602 -0.0029405008535832167 -0.10300001502037048
v 0.02942352555692196 -0.005852696020156145 -0.10300001502037048
v 0.02870817855000496 -0.008708527311682701 -0.10300001502037048
v 0.02771635353565216 -0.011480491608381271 -0.10300001502037048
v 0.02645760402083397 -0.014141889289021492 -0.10300001502037048
v 0.02494405396282673 -0.016667094081640244 -0.10300001502037048
v 0.02319028042256832 -0.019031787291169167 -0.10300001502037048
v 0.021213170140981674 -0.021213190630078316 -0.10300001502037048
v 0.019031766802072525 -0.023190300911664963 -0.10300001502037048
v 0.016667073592543602 -0.02494407631456852 -0.10300001502037048
v -0.016667142510414124 -0.02494407258927822 -0.10300000756978989
v -0.019031833857297897 -0.023190297186374664 -0.10300000756978989
v -0.021213239058852196 -0.021213186904788017 -0.10300000756978989
v -0.023190349340438843 -0.019031783565878868 -0.10300000011920929
v -0.02494412288069725 -0.016667090356349945 -0.10300000011920929
v -0.02645767293870449 -0.014141885563731194 -0.10300000011920929
v -0.027716418728232384 -0.011480486951768398 -0.10300000011920929
v -0.028708243742585182 -0.008708523586392403 -0.10300000011920929
v -0.029423590749502182 -0.005852691363543272 -0.10300000011920929
v -0.029855575412511826 -0.002940496662631631 -0.10300000011920929
v -0.025000033900141716 1.7742008751042704e-08 -0.10300000011920929
v -0.02487965114414692 0.002450446132570505 -0.10300000011920929
v -0.0245196633040905 0.004877276718616486 -0.10300000011920929
v -0.023923542350530624 0.00725713511928916 -0.10300000011920929
v -0.023097019642591476 0.009567104279994965 -0.10300000011920929
v -0.022048063576221466 0.011784936301410198 -0.10300000011920929
v -0.020786771550774574 0.013889274559915066 -0.10300000011920929
v -0.019325291737914085 0.015859851613640785 -0.10300000011920929
v -0.017677700147032738 0.017677687108516693 -0.10300000011920929
v -0.01585986651480198 0.01932527869939804 -0.10300000011920929
v 0.015859803184866905 0.019325274974107742 -0.10300000756978989
v 0.017677640542387962 0.017677683383226395 -0.10300000756978989
v 0.01932523027062416 0.015859847888350487 -0.10300000756978989
v 0.02078671008348465 0.013889270834624767 -0.10300001502037048
v 0.022048000246286392 0.0117849325761199 -0.10300001502037048
v 0.023096956312656403 0.009567099623382092 -0.10300001502037048
v 0.02392347902059555 0.007257131393998861 -0.10300001502037048
v 0.024519599974155426 0.004877272993326187 -0.10300001502037048
v 0.024879585951566696 0.0024504424072802067 -0.10300001502037048
v 0.024999968707561493 1.3967114576018957e-08 -0.10300001502037048
v 0.024879585951566696 -0.002450414700433612 -0.10300001502037048
v 0.024519599974155426 -0.004877244122326374 -0.10300001502037048
v 0.02392347902059555 -0.0072571029886603355 -0.10300001502037048
v 0.023096956312656403 -0.009567073546350002 -0.10300001502037048
v 0.022048000246286392 -0.011784905567765236 -0.10300001502037048
v 0.02078670635819435 -0.013889243826270103 -0.10300001502037048
v 0.019325226545333862 -0.015859821811318398 -0.10300001502037048
v 0.017677636817097664 -0.017677657306194305 -0.10300001502037048
v 0.015859799459576607 -0.019325247034430504 -0.10300001502037048
v -0.015859870240092278 -0.019325243309140205 -0.10300000756978989
v -0.017677703872323036 -0.017677653580904007 -0.10300000756978989
v -0.019325295463204384 -0.0158598180860281 -0.10300000756978989
v -0.020786775276064873 -0.013889240100979805 -0.10300000011920929
v -0.022048063576221466 -0.011784901842474937 -0.10300000011920929
v -0.023097019642591476 -0.009567069821059704 -0.10300000011920929
v -0.023923542350530624 -0.00725709879770875 -0.10300000011920929
v -0.0245196633040905 -0.004877240397036076 -0.10300000011920929
v -0.02487965114414692 -0.0024504109751433134 -0.10300000011920929
v 0.010583054274320602 -0.028037499636411667 -0.005656761582940817
v 0.010583053342998028 -0.022616472095251083 -0.005656761582940817
v 0.010583057068288326 0.022616472095251083 -0.005656762979924679
v 0.010583057999610901 0.028037497773766518 -0.0056567625142633915
v 0.008485278114676476 -0.02876412868499756 -0.008485279977321625
v 0.008708534762263298 -0.028708210214972496 -0.008238956332206726
v 0.008485278114676476 -0.023484062403440475 -0.008485281839966774
v 0.008485282771289349 0.023484067991375923 -0.008485282771289349
v 0.008485282771289349 0.028764136135578156 -0.008485283702611923
v 0.007612716872245073 -0.028982695192098618 -0.009276125580072403
v 0.007612722925841808 0.02379627339541912 -0.009276127442717552
v 0.007612717337906361 -0.023796269670128822 -0.009276124648749828
v 0.007612723391503096 0.028982698917388916 -0.009276127442717552
v 0.0011762023204937577 -0.029942214488983154 -0.011942216195166111
v 0.00117620755918324 0.024942219257354736 -0.01194221805781126
v 0.0011762079084292054 0.029942220076918602 -0.01194221992045641
v 0.0011762029025703669 -0.02494220621883869 -0.011942216195166111
v 0.007257111836224794 -0.023923508822917938 -0.009539860300719738
v 0.005656757391989231 -0.029452627524733543 -0.010583054274320602
v 0.005852703470736742 -0.029423557221889496 -0.010465606115758419
v 0.005656758788973093 -0.02432437613606453 -0.010583054274320602
v 0.005656763445585966 0.02432437613606453 -0.010583056136965752
v 0.005656764376908541 0.029452625662088394 -0.010583056136965752
v 0.004877256229519844 0.024519633501768112 -0.010951738804578781
v 0.006666839588433504 -0.029219625517725945 -0.009977634996175766
v 0.006666840519756079 -0.02407136932015419 -0.009977634996175766
v 0.006666845176368952 0.02407136559486389 -0.009977636858820915
v 0.005852708593010902 0.029423560947179794 -0.010465611703693867
v 0.006666845642030239 0.029219631105661392 -0.00997763779014349
v 0.004592197481542826 -0.029610542580485344 -0.01108655333518982
v 0.004592204000800848 0.024561919271945953 -0.011086556129157543
v 0.004592204466462135 0.029610538855195045 -0.011086556129157543
v 0.004592197947204113 -0.024561917409300804 -0.01108655333518982
v 0.00725711602717638 0.023923514410853386 -0.009539859369397163
v 0.00487725343555212 -0.024519631639122963 -0.010951736010611057
v 0.009977634996175766 -0.028254127129912376 -0.006666843313723803
v 0.009567085653543472 0.02309698984026909 -0.007220409344881773
v 0.009977634064853191 -0.02290281280875206 -0.006666842848062515
v 0.009977636858820915 0.02290281280875206 -0.006666844245046377
v 0.00997763779014349 0.028254123404622078 -0.0066668447107076645
v 0.009276122786104679 -0.028505122289061546 -0.007612720597535372
v 0.009276122786104679 -0.02320108748972416 -0.007612720597535372
v 0.009567081928253174 -0.02309698611497879 -0.007220408879220486
v 0.009276126511394978 0.023201098665595055 -0.007612721994519234
v 0.009276126511394978 0.028505126014351845 -0.007612721994519234
v 0.008708538487553596 0.028708213940262794 -0.0082389572635293
v 0.00294050807133317 -0.02985554002225399 -0.011619272641837597
v 0.002341080456972122 -0.02988499216735363 -0.011769422329962254
v 0.0023410858120769262 0.024884993210434914 -0.011769424192607403
v 0.0024504263419657946 0.02487962134182453 -0.011742034927010536
v 0.0023410862777382135 0.02988499216735363 -0.011769424192607403
v 0.002450422616675496 -0.024879617616534233 -0.011742030270397663
v 0.0023410809226334095 -0.024884987622499466 -0.011769422329962254
v 0.0034834130201488733 -0.02977500669658184 -0.011483283713459969
v 0.0034834183752536774 0.024726392701268196 -0.011483286507427692
v 0.0029405124951153994 0.02985554374754429 -0.011619278229773045
v 0.0034834183752536774 0.029775012284517288 -0.011483284644782543
v 0.0034834134858101606 -0.024726388975977898 -0.011483283713459969
v 0.011483282782137394 -0.02771507389843464 -0.003483416046947241
v 0.011483282782137394 -0.022190693765878677 -0.003483416046947241
v 0.011483286507427692 0.02771506831049919 -0.0034834176767617464
v 0.011483286507427692 0.022190691903233528 -0.0034834174439311028
v 0.011480500921607018 -0.027716387063264847 -0.0034911923576146364
v 0.011480504646897316 0.027716387063264847 -0.0034911935217678547
v 0.01108655147254467 -0.027857346460223198 -0.0045922016724944115
v 0.01108655147254467 -0.022378327324986458 -0.0045922016724944115
v 0.011086555197834969 0.022378331050276756 -0.004592202603816986
v 0.011086556129157543 0.0278573427349329 -0.004592202603816986
v -3.389107439133454e-09 -0.030000006780028343 -0.011999999172985554
v 1.8189543204982783e-09 0.02500000223517418 -0.012000001966953278
v 2.2924144804647995e-09 0.030000003054738045 -0.012000001966953278
v -2.915646835077723e-09 -0.02500000223517418 -0.011999999172985554
v -0.0011762090725824237 -0.029942218214273453 -0.011942215263843536
v -0.0011762039503082633 0.024942221119999886 -0.01194221805781126
v -0.0011762084905058146 -0.02494220994412899 -0.011942217126488686
v -0.0011762032518163323 0.02994222193956375 -0.01194221805781126
v 0.011942215263843536 -0.027498014271259308 -0.001176205463707447
v 0.011942215263843536 -0.021953748539090157 -0.0011762056965380907
v 0.011942218989133835 0.02749801240861416 -0.0011762069771066308
v 0.011942218989133835 0.021953752264380455 -0.001176206860691309
v -0.004592199344187975 0.024561919271945953 -0.011086555197834969
v -0.0048772599548101425 0.024519633501768112 -0.010951736010611057
v -0.00459220539778471 -0.029610540717840195 -0.011086552403867245
v -0.0045921984128654 0.029610540717840195 -0.011086555197834969
v -0.004592204932123423 -0.024561908096075058 -0.011086552403867245
v -0.0029405206441879272 -0.02985554002225399 -0.011619278229773045
v -0.0034834144171327353 0.024726390838623047 -0.011483285576105118
v -0.003483419306576252 -0.02977500669658184 -0.011483283713459969
v -0.0034834141843020916 0.029775014147162437 -0.011483285576105118
v -0.0034834190737456083 -0.02472638711333275 -0.011483283713459969
v -0.0023410876747220755 -0.02988499216735363 -0.011769422329962254
v -0.002341082552447915 0.024884993210434914 -0.011769425123929977
v -0.002450430765748024 0.02487962134182453 -0.011742036789655685
v -0.002341087209060788 -0.024884985759854317 -0.011769422329962254
v -0.0024504344910383224 -0.024879617616534233 -0.011742040514945984
v -0.0029405164532363415 0.02985554374754429 -0.011619276367127895
v -0.002341081853955984 0.02988499216735363 -0.011769424192607403
v -0.006666846573352814 -0.02921963296830654 -0.009977634064853191
v -0.006666840519756079 0.02921963296830654 -0.009977636858820915
v -0.0072571225464344025 -0.023923508822917938 -0.009539855644106865
v -0.006666846573352814 -0.02407137304544449 -0.00997763592749834
v -0.006666841451078653 0.02407136932015419 -0.009977636858820915
v -0.005656765308231115 -0.029452627524733543 -0.010583054274320602
v -0.005852711386978626 0.029423560947179794 -0.010465600527822971
v -0.005656758788973093 0.029452627524733543 -0.010583056136965752
v -0.005656764376908541 -0.024324381723999977 -0.010583054274320602
v -0.005656759720295668 0.02432437799870968 -0.010583056136965752
v 0.011769422329962254 -0.027579745277762413 -0.002341083949431777
v 0.011784915812313557 -0.02204803191125393 -0.0022366272751241922
v 0.011769421398639679 -0.022055355831980705 -0.002341083949431777
v 0.011769425123929977 0.027579735964536667 -0.0023410855792462826
v 0.011769425123929977 0.022055359557271004 -0.0023410855792462826
v 0.011784919537603855 0.02204803191125393 -0.0022366319317370653
v -0.004877264145761728 -0.024519629776477814 -0.010951729491353035
v -0.005852716043591499 -0.029423557221889496 -0.01046560239046812
v 0.011769421398639679 -0.027579741552472115 0.0023410844150930643
v 0.01178491860628128 -0.02204803191125393 0.002236618660390377
v 0.011769421398639679 -0.022055361419916153 0.0023410844150930643
v 0.011769425123929977 0.027579737827181816 0.0023410827852785587
v 0.011769425123929977 0.022055363282561302 0.0023410827852785587
v 0.011784921400249004 0.02204803191125393 0.002236615866422653
v 0.011942215263843536 -0.027498014271259308 0.0011762059293687344
v 0.011942215263843536 -0.021953750401735306 0.0011762058129534125
v 0.011942218989133835 0.02749801240861416 0.0011762044159695506
v 0.011942218989133835 0.021953750401735306 0.0011762045323848724
v 0.011999998241662979 -0.027470679953694344 2.1575852215960367e-10
v 0.011999998241662979 -0.021919118240475655 6.134041885541563e-11
v 0.012000002898275852 0.027470683678984642 -1.312452369006678e-09
v 0.012000002898275852 0.021919116377830505 -1.1580337799799167e-09
v -0.00761272432282567 -0.028982706367969513 -0.009276123717427254
v -0.007612717337906361 0.028982702642679214 -0.009276126511394978
v -0.007612723391503096 -0.02379627525806427 -0.009276123717427254
v -0.007612717803567648 0.02379627712070942 -0.009276125580072403
v -0.007257118355482817 0.023923514410853386 -0.00953985471278429
v 0.011483282782137394 -0.027715075761079788 0.003483416512608528
v 0.01148328185081482 -0.022190695628523827 0.003483416512608528
v 0.011483286507427692 0.02771507203578949 0.0034834148827940226
v 0.011483285576105118 0.022190693765878677 0.003483415115624666
v 0.011480502784252167 -0.027716387063264847 0.0034911860711872578
v 0.011480506509542465 0.027716387063264847 0.0034911867696791887
v 0.011086552403867245 -0.0278573427349329 0.0045922016724944115
v 0.01108655333518982 -0.022378332912921906 0.0045922016724944115
v 0.011086557060480118 0.022378332912921906 0.0045922002755105495
v 0.011086557060480118 0.0278573427349329 0.0045922002755105495
v -0.008708545938134193 -0.028708210214972496 -0.008238950744271278
v -0.009276128374040127 -0.023201098665595055 -0.00761271920055151
v -0.009276124648749828 0.028505129739642143 -0.007612720597535372
v -0.009276128374040127 -0.028505126014351845 -0.0076127187348902225
v -0.009276124648749828 0.023201098665595055 -0.007612720597535372
v -0.009567087516188622 0.023096991702914238 -0.007220397237688303
v -0.00997763779014349 -0.02290280908346176 -0.006666842848062515
v -0.00956709124147892 -0.02309698611497879 -0.007220400497317314
v -0.009977634064853191 0.028254125267267227 -0.00666684377938509
v -0.00997763779014349 -0.028254127129912376 -0.006666841916739941
v -0.009977634064853191 0.02290281467139721 -0.006666843313723803
v -0.008485284633934498 -0.028764132410287857 -0.00848527904599905
v -0.008485279977321625 0.028764136135578156 -0.008485282771289349
v -0.008485284633934498 -0.023484060540795326 -0.00848527904599905
v -0.008485279977321625 0.023484069854021072 -0.008485279977321625
v 0.009276124648749828 -0.028505129739642143 0.007612720597535372
v 0.009276124648749828 -0.023201094940304756 0.007612721063196659
v 0.009276128374040127 0.023201094940304756 0.0076127187348902225
v 0.00956708937883377 0.02309698611497879 0.007220401428639889
v 0.009276128374040127 0.028505124151706696 0.0076127187348902225
v 0.008708540350198746 -0.028708213940262794 0.008238951675593853
v -0.008708542212843895 0.028708213940262794 -0.008238949812948704
v 0.010583053342998028 -0.028037503361701965 0.005656761582940817
v 0.010583052411675453 -0.022616468369960785 0.005656761582940817
v 0.010583057068288326 0.022616472095251083 0.005656760651618242
v 0.010583057068288326 0.028037499636411667 0.005656760651618242
v 0.009977634064853191 -0.028254130855202675 0.00666684377938509
v 0.009977634064853191 -0.02290281280875206 0.006666843313723803
v 0.00997763779014349 0.02290281094610691 0.006666842848062515
v 0.00997763779014349 0.02825411967933178 0.006666841916739941
v 0.008485279977321625 -0.028764136135578156 0.008485282771289349
v 0.008485279977321625 -0.023484066128730774 0.008485279977321625
v 0.008485284633934498 0.023484066128730774 0.00848527904599905
v 0.008708544075489044 0.028708210214972496 0.008238949812948704
v 0.008485284633934498 0.028764132410287857 0.008485279977321625
v 0.009567085653543472 -0.02309698984026909 0.007220404222607613
v -0.010583053342998028 0.028037499636411667 -0.005656761582940817
v -0.010583057068288326 -0.022616472095251083 -0.005656760651618242
v -0.010583057068288326 -0.028037499636411667 -0.005656760651618242
v -0.010583053342998028 0.022616472095251083 -0.005656761582940817
v -0.011086552403867245 0.02785734459757805 -0.0045922016724944115
v -0.011086557060480118 -0.022378332912921906 -0.0045922002755105495
v -0.011086557991802692 -0.027857348322868347 -0.0045922002755105495
v -0.01108655333518982 0.022378332912921906 -0.0045922016724944115
v -0.011480504646897316 0.027716387063264847 -0.0034911842085421085
v -0.011483286507427692 -0.022190695628523827 -0.003483415115624666
v -0.01148328185081482 0.02771507203578949 -0.003483416512608528
v -0.011480508372187614 -0.027716387063264847 -0.003491179086267948
v -0.011483287438750267 -0.027715075761079788 -0.0034834148827940226
v -0.01148328185081482 0.022190695628523827 -0.003483416512608528
v -0.011769425123929977 -0.022055357694625854 -0.0023410827852785587
v -0.011769421398639679 0.027579737827181816 -0.0023410844150930643
v -0.011769425123929977 -0.027579737827181816 -0.0023410827852785587
v -0.011769421398639679 0.022055363282561302 -0.0023410844150930643
v -0.012000002898275852 -0.021919116377830505 1.1580336689576143e-09
v -0.011999998241662979 0.027470681816339493 -2.1575852215960367e-10
v -0.012000002898275852 -0.02747068740427494 1.3124522579843756e-09
v -0.011999998241662979 0.021919118240475655 -6.134041885541563e-11
v -0.011942218989133835 -0.021953750401735306 -0.0011762045323848724
v -0.011942215263843536 0.027498014271259308 -0.0011762059293687344
v -0.011942218989133835 -0.027498016133904457 -0.0011762044159695506
v -0.011942215263843536 0.021953754127025604 -0.0011762058129534125
v -0.011784923262894154 -0.02204803191125393 -0.0022366042248904705
v -0.011784919537603855 0.02204803191125393 -0.002236607251688838
v 0.007612717337906361 -0.028982697054743767 0.009276126511394978
v 0.007257117424160242 -0.023923512548208237 0.009539857506752014
v 0.007612718269228935 -0.02379627153277397 0.009276126511394978
v 0.007612723391503096 0.02379627153277397 0.009276123717427254
v 0.007612723857164383 0.028982697054743767 0.009276123717427254
v 0.005656758788973093 -0.029452627524733543 0.010583056136965752
v 0.005656759720295668 -0.02432437799870968 0.010583056136965752
v 0.005656764376908541 0.02432437427341938 0.010583053342998028
v 0.005656764842569828 0.029452620074152946 0.010583054274320602
v 0.005852715112268925 0.029423557221889496 0.010465607978403568
v 0.004877259489148855 -0.024519633501768112 0.010951732285320759
v 0.0045921984128654 -0.029610540717840195 0.011086555197834969
v 0.004592204466462135 0.024561911821365356 0.011086552403867245
v 0.00459220539778471 0.029610533267259598 0.011086552403867245
v 0.004592199344187975 -0.024561919271945953 0.011086555197834969
v 0.005852710921317339 -0.029423560947179794 0.010465606115758419
v 0.006666840519756079 -0.02921963296830654 0.009977636858820915
v 0.006666840985417366 -0.024071376770734787 0.00997763592749834
v 0.006666846107691526 0.024071363732218742 0.009977634996175766
v 0.006666847039014101 0.029219631105661392 0.009977634996175766
v 0.004877263214439154 0.024519629776477814 0.010951729491353035
v -0.011483286507427692 -0.022190691903233528 0.0034834174439311028
v -0.011483282782137394 0.02771507017314434 0.003483415814116597
v -0.011483286507427692 -0.02771507389843464 0.0034834176767617464
v -0.011483282782137394 0.022190695628523827 0.003483416046947241
v 0.002341081853955984 -0.029884986579418182 0.011769423261284828
v 0.002341087209060788 0.024884989485144615 0.011769422329962254
v 0.0023410876747220755 0.02988499030470848 0.011769423261284828
v 0.002341082552447915 -0.024884989485144615 0.011769424192607403
v 0.007257121615111828 0.023923510685563087 0.00953985657542944
v -0.011942218989133835 -0.021953752264380455 0.001176206860691309
v -0.011942215263843536 0.027498014271259308 0.001176205463707447
v -0.011942218989133835 -0.02749801240861416 0.0011762069771066308
v -0.011942215263843536 0.021953752264380455 0.0011762055801227689
v -0.011769425123929977 -0.022055359557271004 0.0023410855792462826
v -0.011784922331571579 -0.02204803191125393 0.002236618660390377
v -0.011769421398639679 0.027579737827181816 0.0023410837166011333
v -0.011769425123929977 -0.027579734101891518 0.0023410858120769262
v -0.011784917674958706 0.02204803004860878 0.002236615866422653
v -0.011769421398639679 0.022055359557271004 0.002341083949431777
v 0.002450433326885104 0.024879617616534233 0.011742033064365387
v 0.0029405199456959963 0.02985554188489914 0.011619271710515022
v 0.002450430067256093 -0.02487962134182453 0.011742034927010536
v 0.002940515289083123 -0.02985554374754429 0.011619272641837597
v 0.0034834141843020916 -0.029775016009807587 0.011483285576105118
v 0.0034834190737456083 0.02472638711333275 0.011483283713459969
v 0.003483419306576252 0.02977500855922699 0.011483283713459969
v 0.0034834144171327353 -0.024726390838623047 0.011483285576105118
v -0.01108655147254467 0.0278573427349329 0.0045922016724944115
v -0.011086555197834969 -0.022378334775567055 0.004592202603816986
v -0.011086555197834969 -0.027857348322868347 0.004592202603816986
v -0.01108655147254467 0.022378332912921906 0.004592201206833124
v -2.2924144804647995e-09 -0.030000003054738045 0.012000001966953278
v 2.9156463909885133e-09 0.02499999850988388 0.011999999172985554
v 3.3891065509550344e-09 0.029999999329447746 0.011999999172985554
v -1.8189546535651857e-09 -0.025000007823109627 0.012000001966953278
v 0.0011762033682316542 -0.0299422238022089 0.01194221805781126
v 0.0011762086069211364 0.024942215532064438 0.011942216195166111
v 0.0011762089561671019 0.029942216351628304 0.011942215263843536
v 0.0011762038338929415 -0.02494220994412899 0.01194221805781126
v -0.011480502784252167 0.027716387063264847 0.003491184674203396
v -0.011480506509542465 -0.027716387063264847 0.0034911867696791887
v -0.007612723391503096 -0.028982704505324364 0.009276127442717552
v -0.007612716872245073 0.028982697054743767 0.009276124648749828
v -0.007612722460180521 -0.023796280845999718 0.009276127442717552
v -0.007257112767547369 0.023923508822917938 0.009539858438074589
v -0.007612717337906361 0.02379627153277397 0.009276124648749828
v -0.008485282771289349 -0.028764143586158752 0.008485283702611923
v -0.008485278114676476 0.028764132410287857 0.008485279977321625
v -0.008485282771289349 -0.02348407544195652 0.008485283702611923
v -0.008485278114676476 0.023484062403440475 0.008485281839966774
v -0.006666845642030239 -0.02921963855624199 0.00997763779014349
v -0.006666839588433504 0.029219627380371094 0.009977634996175766
v -0.0072571164928376675 -0.023923512548208237 0.009539859369397163
v -0.006666845176368952 -0.02407136559486389 0.009977636858820915
v -0.006666840519756079 0.024071363732218742 0.009977634996175766
v -0.0011762079084292054 -0.029942212626338005 0.011942218989133835
v -0.0011762029025703669 0.024942215532064438 0.011942216195166111
v -0.00117620755918324 -0.024942219257354736 0.01194221805781126
v -0.0011762024369090796 0.029942218214273453 0.011942216195166111
v -0.010583054274320602 0.028037499636411667 0.005656761582940817
v -0.010583057068288326 -0.022616472095251083 0.0056567625142633915
v -0.010583057068288326 -0.028037503361701965 0.0056567625142633915
v -0.010583053342998028 0.022616472095251083 0.005656761582940817
v -0.0048772539012134075 0.024519629776477814 0.010951731353998184
v -0.005656764376908541 -0.029452627524733543 0.010583056136965752
v -0.005656758323311806 0.029452625662088394 0.010583054274320602
v -0.005656763911247253 -0.024324379861354828 0.010583056136965752
v -0.005656758323311806 0.02432437427341938 0.010583054274320602
v -0.004592197947204113 0.024561913684010506 0.01108655333518982
v -0.004592204466462135 -0.029610538855195045 0.011086556129157543
v -0.004592197481542826 0.029610533267259598 0.01108655333518982
v -0.004877257626503706 -0.024519633501768112 0.010951736010611057
v -0.004592203535139561 -0.024561915546655655 0.011086556129157543
v -0.0023410862777382135 -0.029884982854127884 0.011769424192607403
v -0.002341080689802766 0.024884987622499466 0.011769422329962254
v -0.00234108604490757 -0.024884991347789764 0.011769424192607403
v -0.002341080689802766 0.02988499030470848 0.011769422329962254
v -0.005852709989994764 -0.029423560947179794 0.010465611703693867
v -0.002940513426437974 -0.02985554374754429 0.01161927543580532
v -0.0024504235479980707 0.024879617616534233 0.011742034927010536
v -0.002450427506119013 -0.02487962134182453 0.011742036789655685
v -0.005852704867720604 0.029423557221889496 0.010465608909726143
v -0.003483413252979517 0.02472638711333275 0.011483282782137394
v -0.0034834183752536774 -0.029775014147162437 0.011483285576105118
v -0.0034834130201488733 0.02977500855922699 0.011483283713459969
v -0.002940509235486388 0.02985554188489914 0.011619272641837597
v -0.0034834181424230337 -0.024726392701268196 0.011483285576105118
v -0.009567087516188622 -0.023096991702914238 0.007220408413559198
v -0.009276126511394978 -0.023201102390885353 0.007612721994519234
v -0.009276122786104679 0.028505122289061546 0.007612720597535372
v -0.009276126511394978 -0.02850513346493244 0.007612721994519234
v -0.009276122786104679 0.023201093077659607 0.007612720597535372
v -0.009977634064853191 0.02825411967933178 0.006666842848062515
v -0.00997763779014349 -0.02290281653404236 0.00666684377938509
v -0.009977638721466064 -0.028254127129912376 0.0066668447107076645
v -0.009977634064853191 0.02290281094610691 0.006666842848062515
v -0.009567083790898323 0.02309698611497879 0.0072204070165753365
v -0.008708536624908447 0.028708210214972496 0.008238951675593853
v -0.008708540350198746 -0.028708213940262794 0.008238956332206726
v 0.02588338404893875 -0.01510000228881836 0.021999992430210114
v 0.019888801500201225 -0.015100001357495785 0.021999994292855263
v -0.01988878846168518 -0.015099997632205486 0.022000005468726158
v -0.024014491587877274 -0.015099998563528061 0.022000007331371307
v -0.021352622658014297 -0.015099998563528061 0.022000005468726158
v -0.022598734125494957 -0.015099998563528061 0.022000007331371307
v 0.021352633833885193 -0.01510000228881836 0.021999992430210114
v 0.022598747164011 -0.015100001357495785 0.021999992430210114
v 0.02401450276374817 -0.015100001357495785 0.021999992430210114
v -0.02588336542248726 0.01510000228881836 0.022000011056661606
v 0.019888797774910927 0.015099998563528061 0.02199999801814556
v -0.019888779148459435 0.01510000228881836 0.022000009194016457
v -0.022598743438720703 0.01510000228881836 0.022000011056661606
v -0.024014493450522423 0.01510000228881836 0.022000011056661606
v -0.021352622658014297 0.01510000228881836 0.022000011056661606
v 0.022598762065172195 0.015099998563528061 0.021999996155500412
v 0.024014510214328766 0.015099999494850636 0.021999996155500412
v 0.02135264128446579 0.015099999494850636 0.02199999801814556
v -0.025883378461003304 -0.015099997632205486 1.689250517245e-09
v -0.025883372873067856 -0.015099998563528061 0.022000007331371307
v 0.025883376598358154 -0.01510000228881836 -2.4346265004027146e-09
v 0.01988878846168518 -0.01510000228881836 -1.9570811637947827e-09
v -0.01988879404962063 -0.015099997632205486 1.2117064018823953e-09
v -0.025883374735713005 0.015100001357495785 2.4346265004027146e-09
v 0.025883380323648453 0.015099998563528061 -1.6892500731557902e-09
v 0.02588338404893875 0.015099998563528061 0.021999996155500412
v 0.01988879218697548 0.015099998563528061 -1.2117061798377904e-09
v -0.01988879032433033 0.015100001357495785 1.957080719705573e-09
v -0.026057284325361252 -0.01480985525995493 -0.0029458622448146343
v 0.026057280600070953 -0.014809858985245228 -0.0029458680655807257
v 0.020103976130485535 -0.014809858985245228 -0.0029458673670887947
v -0.020103979855775833 -0.01480985525995493 -0.002945863176137209
v -0.02878822572529316 -0.008389107882976532 -0.012555188499391079
v -0.028708215802907944 -0.008708536624908447 -0.012318287044763565
v 0.02351846732199192 -0.00838911160826683 -0.012555193156003952
v 0.028788220137357712 -0.00838911160826683 -0.012555193156003952
v -0.023518482223153114 -0.008389107882976532 -0.012555189430713654
v -0.026273095980286598 -0.014449797570705414 -0.0043832953087985516
v 0.026273095980286598 -0.014449801295995712 -0.004383299499750137
v 0.020371006801724434 -0.014449801295995712 -0.00438329903408885
v -0.02037101797759533 -0.01444979663938284 -0.004383295774459839
v -0.02592695876955986 -0.015027286484837532 -0.0014800572535023093
v 0.02592696249485016 -0.015027291141450405 -0.0014800629578530788
v 0.019942717626690865 -0.015027291141450405 -0.001480062142945826
v -0.019942721351981163 -0.015027286484837532 -0.0014800578355789185
v -0.026057280600070953 0.014809858985245228 -0.002945861779153347
v 0.026057284325361252 0.01480985525995493 -0.002945867134258151
v 0.020103979855775833 0.01480985525995493 -0.00294586643576622
v -0.020103976130485535 0.014809858985245228 -0.002945862477645278
v 0.02395833469927311 -0.007118092849850655 -0.013317015953361988
v 0.02392350696027279 -0.0072571164928376675 -0.013233684934675694
v -0.02910660207271576 -0.007118088658899069 -0.013317008502781391
v -0.02395833656191826 -0.007118088658899069 -0.013317008502781391
v -0.023923512548208237 -0.007257112767547369 -0.01323368214070797
v 0.029106592759490013 -0.007118093315511942 -0.013317015953361988
v 0.023518463596701622 0.008389107882976532 -0.012555193156003952
v -0.02878822758793831 0.00838911160826683 -0.012555188499391079
v 0.02878822386264801 0.008389107882976532 -0.012555194087326527
v -0.023518482223153114 0.00838911160826683 -0.012555189430713654
v -0.025926955044269562 0.01502729021012783 -0.0014800565550103784
v 0.025926966220140457 0.015027287416160107 -0.0014800620265305042
v 0.019942721351981163 0.015027287416160107 -0.001480061560869217
v -0.019942717626690865 0.01502729021012783 -0.0014800570206716657
v 0.028708208352327347 0.008708540350198746 -0.012318289838731289
v 0.023091193288564682 0.009579337202012539 -0.011672461405396461
v 0.02309698425233364 0.009567086584866047 -0.01168154738843441
v -0.028708215802907944 0.008708544075489044 -0.012318284250795841
v -0.028396638110280037 0.009579340927302837 -0.011672457680106163
v -0.02309119887650013 0.009579340927302837 -0.011672458611428738
v -0.023096991702914238 0.009567090310156345 -0.011681544594466686
v 0.02839662693440914 0.009579337202012539 -0.011672462336719036
v 0.02210121601819992 0.011672456748783588 -0.009579343721270561
v 0.02204802818596363 0.01178491860628128 -0.009427701123058796
v -0.02762560360133648 0.011672460474073887 -0.009579338133335114
v -0.022101225331425667 0.011672460474073887 -0.009579339064657688
v -0.02204803377389908 0.011784922331571579 -0.009427699260413647
v 0.027625594288110733 0.011672455817461014 -0.009579344652593136
v -0.027208099141716957 0.012555192224681377 -0.008389108814299107
v 0.02720809541642666 0.012555188499391079 -0.008389112539589405
v 0.0215863399207592 0.012555188499391079 -0.008389112539589405
v -0.021586352959275246 0.012555191293358803 -0.008389108814299107
v -0.0262730922549963 0.014449801295995712 -0.004383294843137264
v 0.020371010527014732 0.014449797570705414 -0.004383298568427563
v 0.026273088529706 0.014449797570705414 -0.00438329903408885
v -0.02037101425230503 0.014449801295995712 -0.0043832953087985516
v -0.026457639411091805 0.014141904190182686 -0.005243804305791855
v -0.027716390788555145 0.011480508372187614 -0.009791127406060696
v -0.026548126712441444 0.013950582593679428 -0.0057785166427493095
v 0.02654813602566719 0.013950577937066555 -0.005778520833700895
v 0.026457639411091805 0.014141900464892387 -0.0052438112907111645
v 0.020741257816553116 0.013950577937066555 -0.005778520368039608
v -0.020741261541843414 0.013950582593679428 -0.005778517108410597
v 0.02257189340889454 0.010677310638129711 -0.01067731436342001
v -0.02800377830862999 0.01067731436342001 -0.010677311569452286
v -0.02257189340889454 0.01067731436342001 -0.010677311569452286
v 0.028003770858049393 0.010677310638129711 -0.010677315294742584
v 0.0277163814753294 0.01148050557821989 -0.009791131131350994
v 0.020786738023161888 0.013889255933463573 -0.005908177234232426
v -0.020786739885807037 0.013889259658753872 -0.005908175837248564
v 0.029423555359244347 -0.005852709989994764 -0.013915494084358215
v -0.028396638110280037 -0.009579338133335114 -0.011672456748783588
v 0.02309698425233364 -0.009567086584866047 -0.011681554839015007
v 0.023091185837984085 -0.009579340927302837 -0.011672460474073887
v 0.02839662693440914 -0.009579340927302837 -0.011672461405396461
v 0.028708208352327347 -0.008708540350198746 -0.012318292632699013
v -0.023096991702914238 -0.009567082859575748 -0.01168154738843441
v -0.02309119701385498 -0.009579337202012539 -0.011672457680106163
v 0.02392350696027279 0.007257117424160242 -0.013233683072030544
v 0.02395833469927311 0.007118089124560356 -0.013317015022039413
v -0.02910660393536091 0.007118092849850655 -0.013317007571458817
v -0.023958338424563408 0.007118092849850655 -0.013317009434103966
v -0.023923512548208237 0.007257121615111828 -0.01323368027806282
v 0.029106592759490013 0.007118088658899069 -0.013317015953361988
v -0.02800377830862999 -0.010677310638129711 -0.010677310638129711
v 0.02257188968360424 -0.01067731436342001 -0.010677313432097435
v 0.028003767132759094 -0.01067731436342001 -0.010677313432097435
v -0.02257189340889454 -0.010677309706807137 -0.010677310638129711
v -0.026548130437731743 -0.013950577937066555 -0.005778517574071884
v 0.026548122987151146 -0.013950582593679428 -0.005778521299362183
v 0.02078673429787159 -0.013889257796108723 -0.0059081814251840115
v 0.02074125036597252 -0.013950582593679428 -0.005778520833700895
v -0.020741263404488564 -0.013950577937066555 -0.005778517574071884
v -0.020786743611097336 -0.013889255002140999 -0.005908174440264702
v -0.02684778720140457 -0.013317008502781391 -0.007118090055882931
v 0.026847777888178825 -0.01331701222807169 -0.0071180942468345165
v 0.021129723638296127 -0.01331701222807169 -0.007118093781173229
v -0.021129734814167023 -0.013317008502781391 -0.007118090055882931
v -0.029423562809824944 0.005852714646607637 -0.01391548477113247
v -0.027716388925909996 -0.011480499990284443 -0.009791125543415546
v -0.026457643136382103 -0.014141899533569813 -0.005243812222033739
v -0.02762560173869133 -0.01167245488613844 -0.009579339064657688
v 0.027625594288110733 -0.011672458611428738 -0.009579344652593136
v 0.02771637961268425 -0.011480504646897316 -0.009791129268705845
v 0.02210121974349022 -0.011672458611428738 -0.009579343721270561
v -0.022101227194070816 -0.01167245302349329 -0.009579339064657688
v 0.026457635685801506 -0.014141902327537537 -0.00524381548166275
v 0.02204802818596363 -0.01178492046892643 -0.009427704848349094
v -0.022048035636544228 -0.011784917674958706 -0.009427699260413647
v -0.0296415314078331 -0.004383295774459839 -0.014449797570705414
v 0.02459290809929371 -0.004383299499750137 -0.014449802227318287
v 0.029641518369317055 -0.004383299965411425 -0.014449802227318287
v -0.02459290809929371 -0.004383295774459839 -0.014449798502027988
v -0.029854752123355865 -0.0029458620119839907 -0.01480985525995493
v 0.024806125089526176 -0.002945865970104933 -0.014809859916567802
v 0.02985474467277527 -0.0029458662029355764 -0.014809859916567802
v -0.024806130677461624 -0.0029458622448146343 -0.014809854328632355
v -0.02451963536441326 0.004877263214439154 -0.014273061417043209
v -0.0294345673173666 0.005778522230684757 -0.01395057700574398
v 0.024293873459100723 0.0057785180397331715 -0.013950583525002003
v -0.02429388090968132 0.00577852176502347 -0.013950577937066555
v 0.029434556141495705 0.005778517574071884 -0.013950584456324577
v -0.02459290809929371 0.004383300431072712 -0.01444979663938284
v 0.024519627913832664 0.004877259489148855 -0.01427305769175291
v -0.0296415314078331 0.004383300896733999 -0.014449797570705414
v 0.024592896923422813 0.0043832967057824135 -0.014449801295995712
v 0.02964152581989765 0.004383296240121126 -0.014449801295995712
v -0.02451963536441326 -0.0048772539012134075 -0.014273058623075485
v 0.024293873459100723 -0.00577852176502347 -0.013950584456324577
v -0.029423562809824944 -0.005852705333381891 -0.013915486633777618
v -0.0294345673173666 -0.005778517574071884 -0.01395057700574398
v 0.029434556141495705 -0.005778522230684757 -0.013950584456324577
v -0.02429388090968132 -0.0057785180397331715 -0.013950579799711704
v 0.024927286431193352 -0.0014800607459619641 -0.015027293004095554
v -0.029927292838692665 -0.0014800565550103784 -0.015027289278805256
v 0.02992728166282177 -0.0014800610952079296 -0.015027293935418129
v -0.024927295744419098 -0.0014800569042563438 -0.015027289278805256
v -0.02487962320446968 -0.0024504242464900017 -0.014883351512253284
v -0.02487962320446968 0.002450432861223817 -0.014883345924317837
v -0.024806132540106773 0.0029458655044436455 -0.014809854328632355
v -0.029854752123355865 0.002945865737274289 -0.014809854328632355
v -0.029855545610189438 0.0029405192472040653 -0.014810645952820778
v 0.024806125089526176 0.002945861779153347 -0.014809859916567802
v 0.02985553815960884 0.0029405145905911922 -0.0148106524720788
v 0.02985474467277527 0.0029458615463227034 -0.014809859916567802
v -0.027208099141716957 -0.012555187568068504 -0.008389107882976532
v 0.02720809541642666 -0.012555192224681377 -0.008389112539589405
v 0.0215863399207592 -0.012555192224681377 -0.008389112539589405
v -0.021586351096630096 -0.012555188499391079 -0.008389109745621681
v -0.026847783476114273 0.01331701222807169 -0.0071180895902216434
v 0.026847781613469124 0.013317008502781391 -0.007118093781173229
v 0.021129727363586426 0.013317008502781391 -0.007118093781173229
v -0.021129732951521873 0.01331701222807169 -0.007118090055882931
v 0.024519627913832664 -0.004877258092164993 -0.01427305955439806
v 0.024879615753889084 -0.002450428204610944 -0.01488334871828556
v -0.029855545610189438 -0.002940509933978319 -0.014810651540756226
v 0.02985553815960884 -0.002940514124929905 -0.014810653403401375
v 0.02499999664723873 -1.887447087511873e-09 -0.015100005082786083
v -0.02500000409781933 1.887447975690293e-09 -0.015099999494850636
v -0.030000004917383194 2.2649375708283515e-09 -0.015099998563528061
v 0.030000001192092896 -2.2649369046945367e-09 -0.015100006014108658
v 0.029423555359244347 0.005852709989994764 -0.013915495947003365
v -0.024927295744419098 0.0014800607459619641 -0.015027289278805256
v 0.024927278980612755 0.0014800569042563438 -0.015027293004095554
v -0.029927292838692665 0.0014800610952079296 -0.015027289278805256
v 0.029927289113402367 0.0014800565550103784 -0.015027293935418129
v 0.024879617616534233 0.0024504291359335184 -0.01488335058093071
v 0.028764115646481514 0.008485274389386177 -0.07251472771167755
v -0.028764162212610245 0.008485276252031326 -0.07251472026109695
v 0.02348404750227928 0.008485274389386177 -0.07251472771167755
v -0.02348409779369831 0.008485276252031326 -0.07251472026109695
v 0.028982678428292274 0.0076127140782773495 -0.07172387838363647
v -0.028982721269130707 0.007612715940922499 -0.07172387093305588
v 0.02379625476896763 0.007612714543938637 -0.07172387838363647
v -0.02379629947245121 0.007612715475261211 -0.07172387093305588
v -0.023923533037304878 0.007257130462676287 -0.07146015763282776
v 0.0292196124792099 0.00666683679446578 -0.07102237641811371
v 0.0240713469684124 0.0066668372601270676 -0.07102237641811371
v 0.023923486471176147 0.007257126271724701 -0.07146015763282776
v -0.029219651594758034 0.0066668386571109295 -0.07102236151695251
v -0.024071404710412025 0.006666838191449642 -0.07102236151695251
v 0.029452605172991753 0.00565675413236022 -0.07041695713996887
v 0.024324357509613037 0.005656754598021507 -0.07041694968938828
v 0.024519609287381172 0.0048772674053907394 -0.07004828006029129
v -0.029452651739120483 0.005656755995005369 -0.07041694223880768
v -0.024324405938386917 0.005656755529344082 -0.07041694223880768
v 0.029610518366098404 0.004592194687575102 -0.06991345435380936
v -0.024519653990864754 0.004877271596342325 -0.0700482577085495
v -0.029610559344291687 0.004592196084558964 -0.06991344690322876
v 0.024561895057559013 0.004592194687575102 -0.06991345435380936
v -0.024561939761042595 0.0045921956188976765 -0.06991344690322876
v -0.028037525713443756 0.010583052411675453 -0.07534323632717133
v 0.028037481009960175 0.010583048686385155 -0.07534324377775192
v -0.02261650189757347 0.010583052411675453 -0.07534323632717133
v 0.02261645533144474 0.010583048686385155 -0.07534324377775192
v -0.02988501638174057 0.0023410783614963293 -0.0692305713891983
v -0.024885017424821854 0.0023410783614963293 -0.0692305788397789
v 0.029884973540902138 0.0023410769645124674 -0.0692305862903595
v 0.024884970858693123 0.0023410769645124674 -0.0692305862903595
v -0.029423581436276436 0.005852723494172096 -0.07053440064191818
v 0.029423533007502556 0.005852718837559223 -0.07053440064191818
v -0.028505152091383934 0.009276121854782104 -0.0733872801065445
v 0.0285051092505455 0.009276119992136955 -0.07338728755712509
v -0.02309701032936573 0.009567099623382092 -0.0737796202301979
v -0.023201122879981995 0.009276121854782104 -0.0733872801065445
v 0.023201078176498413 0.009276119992136955 -0.07338728755712509
v -0.028254147619009018 0.009977632202208042 -0.07433315366506577
v 0.028254106640815735 0.009977630339562893 -0.07433316111564636
v -0.022902844473719597 0.009977633133530617 -0.07433315366506577
v 0.022902796044945717 0.009977630339562893 -0.07433316111564636
v 0.02309696562588215 0.009567095898091793 -0.0737796202301979
v 0.028708187863230705 0.008708549663424492 -0.07276106625795364
v -0.028708234429359436 0.00870855338871479 -0.07276106625795364
v -0.029942236840724945 0.001176200108602643 -0.06905777752399445
v 0.02994220145046711 0.0011761985952034593 -0.06905778497457504
v -0.02494223415851593 0.0011761999921873212 -0.06905777752399445
v 0.024942198768258095 0.0011761985952034593 -0.06905778497457504
v 0.029774991795420647 0.003483409062027931 -0.06951671838760376
v -0.029775036498904228 0.003483410459011793 -0.06951671093702316
v -0.024726413190364838 0.003483410459011793 -0.06951671093702316
v 0.024726370349526405 0.003483409062027931 -0.06951671838760376
v -0.02985556423664093 0.002940527396276593 -0.06938072293996811
v -0.024879641830921173 0.0024504412431269884 -0.06925796717405319
v 0.02487959899008274 0.00245043751783669 -0.06925797462463379
v 0.029855521395802498 0.002940522972494364 -0.0693807378411293
v 0.029999982565641403 -7.2864296818409e-09 -0.0690000131726265
v -0.03000001795589924 -5.621917154030598e-09 -0.0689999982714653
v -0.02500002272427082 -5.760627974638055e-09 -0.0689999982714653
v 0.02499997988343239 -7.147721081679492e-09 -0.0690000131726265
v -0.027715105563402176 0.011483280919492245 -0.0775165855884552
v -0.022190731018781662 0.011483280919492245 -0.0775165855884552
v 0.027715053409337997 0.011483279056847095 -0.0775165930390358
v 0.022190678864717484 0.011483279056847095 -0.0775165930390358
v -0.027857378125190735 0.011086550541222095 -0.076407790184021
v 0.027857322245836258 0.011086548678576946 -0.07640780508518219
v -0.02237836830317974 0.011086550541222095 -0.07640779763460159
v 0.022378316149115562 0.011086548678576946 -0.07640780508518219
v -0.027716411277651787 0.011480516754090786 -0.07750885933637619
v 0.027716360986232758 0.011480514891445637 -0.07750886678695679
v 0.02994219958782196 -0.0011762130307033658 -0.06905778497457504
v -0.02494223415851593 -0.0011762114008888602 -0.06905777752399445
v -0.029942233115434647 -0.0011762112844735384 -0.06905777752399445
v 0.024942195042967796 -0.0011762126814574003 -0.06905778497457504
v -0.02747071161866188 0.011999999172985554 -0.08099999278783798
v -0.021919148042798042 0.011999999172985554 -0.08099999278783798
v 0.02191910147666931 0.01199999637901783 -0.08100001513957977
v 0.0274706669151783 0.01199999637901783 -0.08100001513957977
v -0.027579765766859055 0.011769420467317104 -0.07865891605615616
v -0.02205539308488369 0.011769421398639679 -0.07865891605615616
v 0.027579721063375473 0.011769418604671955 -0.07865892350673676
v 0.02205534465610981 0.011769418604671955 -0.07865892350673676
v 0.02988496795296669 -0.0023410911671817303 -0.0692305862903595
v -0.029885001480579376 -0.0023410897701978683 -0.0692305788397789
v -0.024885013699531555 -0.0023410897701978683 -0.0692305788397789
v 0.024884968996047974 -0.0023410911671817303 -0.0692305862903595
v -0.027498044073581696 0.011942215263843536 -0.07982379198074341
v -0.021953783929347992 0.011942215263843536 -0.07982379198074341
v 0.021953733637928963 0.011942213401198387 -0.079823799431324
v 0.027497995644807816 0.011942212469875813 -0.079823799431324
v 0.029610512778162956 -0.004592208191752434 -0.06991346180438995
v -0.024561937898397446 -0.004592207260429859 -0.06991344690322876
v 0.024561893194913864 -0.004592208191752434 -0.06991345435380936
v -0.02961055189371109 -0.004592206794768572 -0.06991344690322876
v -0.02204805612564087 0.0117849325761199 -0.07876347750425339
v 0.02204800769686699 0.011784928850829601 -0.07876349240541458
v 0.0297749862074852 -0.0034834234975278378 -0.06951672583818436
v -0.02472641132771969 -0.003483421867713332 -0.06951671838760376
v 0.024726364761590958 -0.0034834234975278378 -0.06951672583818436
v -0.029775023460388184 -0.003483421867713332 -0.06951671838760376
v 0.029855521395802498 -0.002940505975857377 -0.0693807303905487
v -0.024879639968276024 -0.00245041586458683 -0.06925796717405319
v 0.02487959712743759 -0.0024504198227077723 -0.06925797462463379
v -0.02985556423664093 -0.0029405015520751476 -0.06938071548938751
v -0.02407138980925083 -0.006666848435997963 -0.07102236151695251
v -0.029423581436276436 -0.005852696485817432 -0.07053437829017639
v 0.024071339517831802 -0.006666849367320538 -0.07102237641811371
v 0.029219603165984154 -0.006666849367320538 -0.07102237641811371
v -0.029219653457403183 -0.006666847970336676 -0.07102236151695251
v 0.024519609287381172 -0.0048772492446005344 -0.0700482726097107
v 0.029452599585056305 -0.0056567685678601265 -0.07041695713996887
v -0.024519653990864754 -0.004877245519310236 -0.0700482577085495
v -0.02432439662516117 -0.005656767170876265 -0.07041694223880768
v -0.029452646151185036 -0.005656766705214977 -0.07041694223880768
v 0.02432435005903244 -0.005656768102198839 -0.07041695713996887
v 0.029423534870147705 -0.0058527011424303055 -0.07053438574075699
v -0.027498045936226845 0.011942215263843536 -0.08217620104551315
v -0.02195378951728344 0.011942216195166111 -0.08217619359493256
v 0.021953731775283813 0.011942213401198387 -0.08217622339725494
v 0.027497990056872368 0.011942212469875813 -0.08217620104551315
v -0.027579771354794502 0.011769421398639679 -0.083341084420681
v -0.02205539494752884 0.011769421398639679 -0.083341084420681
v 0.027579719200730324 0.01176941953599453 -0.0833410918712616
v 0.02205534093081951 0.011769418604671955 -0.0833410918712616
v -0.02392353117465973 -0.00725710391998291 -0.07146013528108597
v -0.02204805798828602 0.011784934438765049 -0.08323651552200317
v 0.02204800583422184 0.011784929782152176 -0.08323653042316437
v -0.027715103700757027 0.011483283713459969 -0.08448341488838196
v -0.02219073288142681 0.011483283713459969 -0.08448341488838196
v 0.027715051546692848 0.01148328185081482 -0.08448342233896255
v 0.022190675139427185 0.01148328185081482 -0.08448342978954315
v -0.027716413140296936 0.011480518616735935 -0.08449114859104156
v 0.02771635912358761 0.011480514891445637 -0.08449115604162216
v -0.023796284571290016 -0.007612725254148245 -0.07172387093305588
v 0.023796243593096733 -0.0076127261854708195 -0.07172387838363647
v 0.028982672840356827 -0.007612726651132107 -0.07172388583421707
v -0.028982719406485558 -0.0076127247884869576 -0.07172387093305588
v 0.023923488333821297 -0.007257107645273209 -0.07146014273166656
v -0.027857372537255287 0.011086554266512394 -0.08559219539165497
v 0.02785732038319111 0.01108655147254467 -0.08559220284223557
v -0.02237836830317974 0.011086554266512394 -0.08559218794107437
v 0.022378312423825264 0.011086552403867245 -0.08559220284223557
v 0.028764110058546066 0.00848527904599905 -0.0894852876663208
v -0.028764164075255394 0.008485281839966774 -0.0894852802157402
v 0.023484041914343834 0.00848527904599905 -0.0894852876663208
v -0.02348409779369831 0.008485281839966774 -0.0894852802157402
v -0.02850513905286789 -0.009276129305362701 -0.0733872801065445
v 0.028505098074674606 -0.009276132099330425 -0.07338728755712509
v -0.0232011079788208 -0.009276129305362701 -0.0733872801065445
v 0.023201067000627518 -0.00927613116800785 -0.07338728755712509
v 0.02309696562588215 -0.0095670772716403 -0.07377958297729492
v -0.028254147619009018 0.009977636858820915 -0.08766684681177139
v 0.028254099190235138 0.009977633133530617 -0.08766685426235199
v -0.022902848199009895 0.00997763592749834 -0.08766684681177139
v 0.02290279045701027 0.009977634064853191 -0.08766685426235199
v -0.02803751826286316 0.010583056136965752 -0.08665675669908524
v 0.028037477284669876 0.010583053342998028 -0.08665676414966583
v -0.022616509348154068 0.010583055205643177 -0.08665675669908524
v 0.022616447880864143 0.010583053342998028 -0.08665676414966583
v -0.028037510812282562 -0.010583058930933475 -0.07534323632717133
v 0.02803747169673443 -0.0105830617249012 -0.07534325122833252
v 0.022616440430283546 -0.010583060793578625 -0.07534325122833252
v -0.022616490721702576 -0.010583058930933475 -0.07534324377775192
v 0.028708182275295258 0.008708551526069641 -0.08923894912004471
v -0.028505153954029083 0.009276125580072403 -0.08861272037029266
v -0.028708240017294884 0.00870855525135994 -0.08923893421888351
v 0.028505101799964905 0.009276123717427254 -0.08861272782087326
v 0.023201072588562965 0.009276123717427254 -0.08861272782087326
v -0.02320113405585289 0.009276125580072403 -0.08861272037029266
v -0.023484092205762863 -0.008485286496579647 -0.07251472026109695
v 0.028764108195900917 -0.008485288359224796 -0.07251472026109695
v 0.023484036326408386 -0.008485289290547371 -0.07251473516225815
v -0.02876414731144905 -0.008485286496579647 -0.07251472026109695
v -0.028254132717847824 -0.009977638721466064 -0.07433315366506577
v 0.02825409360229969 -0.009977641515433788 -0.07433316111564636
v -0.02309701032936573 -0.009567073546350002 -0.07377957552671432
v 0.022902783006429672 -0.009977642446756363 -0.07433316111564636
v -0.022902837023139 -0.009977638721466064 -0.07433315366506577
v 0.028708187863230705 -0.008708531036973 -0.07276104390621185
v -0.028708234429359436 -0.008708527311682701 -0.07276102900505066
v -0.023097015917301178 0.00956710148602724 -0.08822038769721985
v 0.0230969600379467 0.009567097760736942 -0.08822039514780045
v 0.028982672840356827 0.007612719666212797 -0.09027613699436188
v -0.02898273430764675 0.007612721994519234 -0.09027612954378128
v -0.023923536762595177 0.0072571332566440105 -0.0905398428440094
v 0.02379625104367733 0.007612720597535372 -0.09027614444494247
v -0.02379630319774151 0.007612721528857946 -0.09027612209320068
v -0.027715085074305534 -0.011483288370072842 -0.0775165855884552
v -0.027716411277651787 -0.011480490677058697 -0.07750876247882843
v 0.027716360986232758 -0.011480494402348995 -0.07750877737998962
v -0.022190706804394722 -0.011483288370072842 -0.0775165855884552
v 0.02219066582620144 -0.011483290232717991 -0.0775166004896164
v 0.027715036645531654 -0.011483290232717991 -0.0775165855884552
v -0.02785736508667469 -0.011086557991802692 -0.07640780508518219
v 0.027857312932610512 -0.011086560785770416 -0.07640781253576279
v 0.022378303110599518 -0.011086559854447842 -0.07640781253576279
v -0.022378351539373398 -0.011086557060480118 -0.07640780508518219
v -0.027579747140407562 -0.011769426055252552 -0.07865891605615616
v -0.022055376321077347 -0.011769425123929977 -0.07865890860557556
v 0.022055329754948616 -0.011769428849220276 -0.07865892350673676
v 0.02757970616221428 -0.011769428849220276 -0.07865892350673676
v -0.027498021721839905 -0.011942218989133835 -0.07982378453016281
v 0.02195371687412262 -0.011942221783101559 -0.0798238068819046
v -0.02195376344025135 -0.011942218989133835 -0.07982379198074341
v 0.027497978881001472 -0.011942220851778984 -0.079823799431324
v 0.029219601303339005 0.006666842848062515 -0.09097763150930405
v 0.024071337655186653 0.006666843313723803 -0.09097763895988464
v 0.02392348274588585 0.007257129531353712 -0.0905398577451706
v -0.02921965718269348 0.006666844245046377 -0.09097763150930405
v -0.024071399122476578 0.0066668447107076645 -0.09097762405872345
v -0.029423587024211884 0.005852726753801107 -0.09146559238433838
v 0.02204800769686699 -0.011784910224378109 -0.07876329123973846
v -0.02204805612564087 -0.01178490649908781 -0.07876327633857727
v -0.027498023584485054 -0.011942218989133835 -0.08217620104551315
v 0.02195371314883232 -0.011942220851778984 -0.08217620104551315
v -0.021953770890831947 -0.01194221805781126 -0.08217619359493256
v 0.027497977018356323 -0.011942220851778984 -0.08217621594667435
v -0.027470692992210388 -0.012000002898275852 -0.08100000023841858
v 0.02191908098757267 -0.012000004760921001 -0.08100001513957977
v -0.021919135004281998 -0.012000001966953278 -0.08099999278783798
v 0.027470648288726807 -0.012000004760921001 -0.08100001513957977
v 0.029610510915517807 0.004592202138155699 -0.092086561024189
v -0.029610566794872284 0.004592203069478273 -0.0920865535736084
v -0.024561947211623192 0.004592203069478273 -0.0920865535736084
v 0.024561889469623566 0.004592202138155699 -0.092086561024189
v -0.029855571687221527 0.002940530888736248 -0.09261927008628845
v 0.0297749862074852 0.003483416512608528 -0.092483289539814
v -0.029775042086839676 0.00348341790959239 -0.0924832820892334
v -0.024726420640945435 0.00348341790959239 -0.0924832820892334
v 0.02472636103630066 0.003483416512608528 -0.092483289539814
v -0.029885027557611465 0.0023410858120769262 -0.09276942163705826
v 0.0298555139452219 0.0029405266977846622 -0.09261927753686905
v -0.024885019287467003 0.0023410858120769262 -0.09276941418647766
v -0.02487964741885662 0.0024504447355866432 -0.09274202585220337
v 0.02988496422767639 0.0023410841822624207 -0.09276942908763885
v 0.024879587814211845 0.002450440777465701 -0.09274203330278397
v 0.024884961545467377 0.0023410844150930643 -0.09276942908763885
v -0.02757975086569786 -0.011769425123929977 -0.083341084420681
v 0.02204800583422184 -0.011784909293055534 -0.08323673158884048
v -0.02204805798828602 -0.011784904636442661 -0.08323671668767929
v -0.022055381909012794 -0.011769425123929977 -0.083341084420681
v 0.022055329754948616 -0.011769427917897701 -0.0833410993218422
v 0.02757970429956913 -0.011769426986575127 -0.0833410918712616
v -0.027715081349015236 -0.011483285576105118 -0.08448341488838196
v -0.022190716117620468 -0.011483285576105118 -0.08448340743780136
v 0.02219066023826599 -0.011483287438750267 -0.08448342233896255
v 0.027715038508176804 -0.011483287438750267 -0.08448342233896255
v 0.029423527419567108 0.005852721631526947 -0.09146561473608017
v 0.02432435192167759 0.005656762048602104 -0.09158306568861008
v 0.029452599585056305 0.005656762048602104 -0.09158306568861008
v -0.029452648013830185 0.005656763445585966 -0.09158305078744888
v -0.024324409663677216 0.005656762979924679 -0.09158305078744888
v -0.0245196595788002 0.004877274390310049 -0.09195172041654587
v 0.024519603699445724 0.004877271130681038 -0.09195174276828766
v -0.02994224987924099 0.00117620755918324 -0.09294222295284271
v 0.029942190274596214 0.0011762059293687344 -0.09294223040342331
v -0.024942239746451378 0.0011762074427679181 -0.09294222295284271
v 0.02494218945503235 0.001176206162199378 -0.09294223040342331
v 0.027857312932610512 -0.011086556129157543 -0.08559221029281616
v -0.02785736508667469 -0.011086554266512394 -0.08559220284223557
v 0.02237829938530922 -0.011086556129157543 -0.08559221029281616
v -0.022378355264663696 -0.011086554266512394 -0.08559220284223557
v 0.029999973252415657 2.475660509926314e-10 -0.09300000965595245
v -0.030000025406479836 1.912077829402392e-09 -0.09299999475479126
v -0.02500002644956112 1.773368007995657e-09 -0.09299999475479126
v 0.024999970570206642 3.8627515075440044e-10 -0.09300000965595245
v -0.027716413140296936 -0.011480490677058697 -0.08449122309684753
v 0.02771635912358761 -0.01148049533367157 -0.08449123054742813
v -0.02379629760980606 -0.00761271920055151 -0.09027612954378128
v 0.023796241730451584 -0.007612720597535372 -0.09027613699436188
v 0.02392348274588585 -0.007257104851305485 -0.09053988009691238
v 0.02898266911506653 -0.007612720597535372 -0.09027613699436188
v -0.0289827361702919 -0.0076127187348902225 -0.09027612954378128
v -0.023484090343117714 -0.008485281839966774 -0.0894852802157402
v 0.02876410447061062 -0.008485283702611923 -0.0894852876663208
v 0.02348403073847294 -0.008485283702611923 -0.0894852876663208
v -0.02876417152583599 -0.008485281839966774 -0.0894852802157402
v -0.023923538625240326 -0.007257101591676474 -0.09053987264633179
v -0.02407139539718628 -0.006666842382401228 -0.09097763150930405
v 0.024071333929896355 -0.00666684377938509 -0.09097763895988464
v 0.029219597578048706 -0.006666843313723803 -0.09097763895988464
v -0.02921966463327408 -0.006666841916739941 -0.09097763150930405
v 0.029942188411951065 -0.001176205463707447 -0.09294223040342331
v -0.02494223788380623 -0.0011762039503082633 -0.09294222295284271
v -0.029942253604531288 -0.0011762038338929415 -0.09294222295284271
v 0.0249421875923872 -0.0011762052308768034 -0.09294223040342331
v -0.02803751826286316 -0.010583055205643177 -0.08665676414966583
v 0.02803746610879898 -0.010583056136965752 -0.08665677160024643
v 0.022616438567638397 -0.010583057999610901 -0.08665677160024643
v -0.022616490721702576 -0.010583055205643177 -0.08665676414966583
v 0.029452593997120857 -0.005656761582940817 -0.09158307313919067
v 0.024519603699445724 -0.004877246450632811 -0.09195175021886826
v -0.024324404075741768 -0.005656760185956955 -0.09158305823802948
v -0.029452648013830185 -0.005656759720295668 -0.09158305823802948
v 0.024324344471096992 -0.00565676111727953 -0.09158306568861008
v 0.029610510915517807 -0.0045922016724944115 -0.09208656847476959
v -0.0245196595788002 -0.004877242259681225 -0.09195174276828766
v -0.024561937898397446 -0.004592199809849262 -0.0920865535736084
v 0.024561885744333267 -0.004592201206833124 -0.092086561024189
v -0.029610561206936836 -0.004592199344187975 -0.0920865535736084
v 0.02988496422767639 -0.002341083949431777 -0.09276942908763885
v -0.02488502487540245 -0.002341082552447915 -0.09276942163705826
v -0.029885027557611465 -0.002341082552447915 -0.09276941418647766
v 0.024884963408112526 -0.002341083949431777 -0.09276942908763885
v -0.029423587024211884 -0.005852693226188421 -0.09146562963724136
v -0.02487964741885662 -0.0024504123721271753 -0.09274203330278397
v 0.024879591539502144 -0.002450416097417474 -0.09274204820394516
v -0.029855571687221527 -0.002940498059615493 -0.09261927753686905
v 0.029423529282212257 -0.005852698348462582 -0.09146562963724136
v 0.02977498061954975 -0.003483416046947241 -0.09248329699039459
v 0.02985551208257675 -0.0029405022505670786 -0.09261929243803024
v -0.024726420640945435 -0.003483414649963379 -0.092483289539814
v 0.02472635917365551 -0.003483416046947241 -0.09248330444097519
v -0.02977503091096878 -0.003483414649963379 -0.092483289539814
v -0.028505148366093636 -0.009276125580072403 -0.08861272037029266
v 0.028505094349384308 -0.009276127442717552 -0.08861273527145386
v -0.023097015917301178 -0.009567070752382278 -0.08822042495012283
v -0.023201119154691696 -0.009276125580072403 -0.08861271291971207
v 0.02320106327533722 -0.009276127442717552 -0.08861272782087326
v -0.02825414016842842 -0.009977634996175766 -0.08766684681177139
v 0.028254089877009392 -0.00997763779014349 -0.08766685426235199
v 0.0230969600379467 -0.009567075408995152 -0.08822043240070343
v 0.022902777418494225 -0.00997763779014349 -0.08766685426235199
v -0.02290283516049385 -0.009977634996175766 -0.08766684681177139
v 0.028708182275295258 -0.00870852917432785 -0.0892389714717865
v -0.028708240017294884 -0.008708525449037552 -0.0892389640212059
v -0.015100010670721531 -0.01988879218697548 -0.10300000756978989
v -0.015100010670721531 -0.022598693147301674 -0.10300000756978989
v -0.015100007876753807 0.02259872853755951 -0.10300000011920929
v -0.015100007876753807 0.02401450276374817 -0.10300000011920929
v -0.015100010670721531 -0.024014467373490334 -0.10300000756978989
v -0.015100007876753807 0.025883406400680542 -0.10300000011920929
v -0.015100007876753807 0.019888827577233315 -0.10300000011920929
v -0.015100010670721531 -0.025883376598358154 -0.10300000756978989
v -0.015100006945431232 -0.025883376598358154 -0.08100000023841858
v -0.015100004151463509 0.019888825714588165 -0.08100000023841858
v -0.015100006014108658 -0.01988879404962063 -0.08099999278783798
v -0.015100005082786083 0.025883398950099945 -0.08100001513957977
v 0.015099992975592613 0.02259879559278488 -0.10300000756978989
v 0.015099991112947464 0.02401452511548996 -0.10300000756978989
v 0.015099989250302315 -0.019888760522007942 -0.10300001502037048
v 0.015099993906915188 0.01988878846168518 -0.10300000756978989
v 0.015099989250302315 -0.022598769515752792 -0.10300001502037048
v 0.015099989250302315 -0.02401450090110302 -0.10300001502037048
v 0.015099989250302315 -0.025883350521326065 -0.10300001502037048
v -0.015027295798063278 -0.02592695690691471 -0.07951993495225906
v -0.015027293004095554 0.019942747429013252 -0.07951994240283966
v -0.015027294866740704 -0.019942721351981163 -0.07951994240283966
v -0.015027293004095554 0.0259269829839468 -0.07951994240283966
v -0.014449804089963436 -0.0262730922549963 -0.07661670446395874
v -0.014449802227318287 0.02037104405462742 -0.07661671191453934
v -0.01444980502128601 -0.02037101611495018 -0.07661670446395874
v -0.014141925610601902 0.02645765244960785 -0.0757562592625618
v -0.014449802227318287 0.026273120194673538 -0.07661671191453934
v -0.013317014090716839 -0.026847779750823975 -0.07388190180063248
v -0.013317014090716839 -0.021129729226231575 -0.07388190180063248
v -0.01331701222807169 0.021129747852683067 -0.07388190925121307
v -0.013317011296749115 0.026847802102565765 -0.07388191670179367
v -0.013950586318969727 -0.026548124849796295 -0.075221486389637
v -0.013950583525002003 0.020741289481520653 -0.075221486389637
v -0.013889280147850513 0.020786752924323082 -0.0750918760895729
v -0.013889283873140812 -0.020786726847290993 -0.07509186118841171
v -0.013950586318969727 -0.020741263404488564 -0.075221486389637
v -0.013950583525002003 0.026548154652118683 -0.07522149384021759
v -0.014809862710535526 -0.026057282462716103 -0.07805413007736206
v -0.014809860847890377 0.020104005932807922 -0.07805413752794266
v -0.014809862710535526 -0.020103979855775833 -0.07805413752794266
v -0.014809859916567802 0.026057304814457893 -0.07805414497852325
v -0.00838911347091198 -0.023518472909927368 -0.06844480335712433
v -0.00838911347091198 -0.028788220137357712 -0.06844480335712433
v -0.00870856549590826 -0.02870820090174675 -0.06868172436952591
v -0.00838911160826683 0.023518502712249756 -0.06844481080770493
v -0.00838911160826683 0.028788236901164055 -0.06844481825828552
v 0.013950574211776257 -0.020741233602166176 -0.0752214789390564
v 0.013889230787754059 -0.02078673057258129 -0.07509178668260574
v 0.013889234513044357 0.020786749199032784 -0.07509179413318634
v 0.01395057700574398 0.026548126712441444 -0.07522149384021759
v 0.013950577937066555 0.02074124850332737 -0.075221486389637
v 0.013950574211776257 -0.026548108085989952 -0.0752214789390564
v -0.0141419293358922 -0.02645762637257576 -0.0757562592625618
v 0.015027283690869808 -0.019942693412303925 -0.07951994985342026
v 0.015027285553514957 0.02592695876955986 -0.07951995730400085
v 0.015027286484837532 0.019942710176110268 -0.07951994985342026
v 0.015027283690869808 -0.02592693455517292 -0.07951994240283966
v 0.014809851534664631 -0.020103953778743744 -0.07805414497852325
v 0.01480985339730978 0.026057282462716103 -0.07805415242910385
v 0.014809854328632355 0.020103968679904938 -0.07805414497852325
v 0.014809851534664631 -0.026057260110974312 -0.07805413752794266
v 0.008389106020331383 -0.028788208961486816 -0.06844480335712433
v 0.008389105089008808 -0.023518458008766174 -0.06844480335712433
v 0.008708519861102104 0.02870822139084339 -0.06868170201778412
v 0.008389107882976532 0.023518487811088562 -0.06844481080770493
v 0.008389107882976532 0.028788236901164055 -0.06844481825828552
v 0.00957933533936739 -0.02309117279946804 -0.06932754069566727
v 0.009567061439156532 -0.023096978664398193 -0.06931844353675842
v 0.009579337202012539 0.023091187700629234 -0.06932755559682846
v 0.009567066095769405 0.023096997290849686 -0.06931844353675842
v 0.008708515204489231 -0.02870820090174675 -0.06868168711662292
v 0.009579337202012539 0.02839663252234459 -0.06932755559682846
v 0.00957933533936739 -0.028396617621183395 -0.06932754814624786
v 0.014141879975795746 0.02645764872431755 -0.07575615495443344
v 0.01444979477673769 -0.02037099003791809 -0.07661671191453934
v 0.01444979663938284 0.02627309411764145 -0.07661671936511993
v 0.01444979663938284 0.020371004939079285 -0.07661671191453934
v 0.014141876250505447 -0.02645763009786606 -0.07575614005327225
v 0.01444979477673769 -0.02627306990325451 -0.07661671191453934
v 0.015099992975592613 -0.01988876610994339 -0.08099999278783798
v 0.015099995769560337 0.025883374735713005 -0.08100001513957977
v 0.015099995769560337 0.019888781011104584 -0.08100001513957977
v 0.015099992975592613 -0.025883356109261513 -0.08099999278783798
v 0.015099991112947464 0.025883376598358154 -0.10300000756978989
v -0.0071180942468345165 -0.02395833283662796 -0.06768298149108887
v -0.007257141172885895 -0.02392350137233734 -0.06776632368564606
v -0.007257136981934309 0.023923521861433983 -0.06776632368564606
v -0.007118092384189367 0.023958351463079453 -0.06768299639225006
v -0.007118094712495804 -0.029106592759490013 -0.06768298894166946
v -0.007118092384189367 0.029106615111231804 -0.06768299639225006
v -0.005778520833700895 0.02943456545472145 -0.06704942882061005
v -0.005778523162007332 -0.024293875321745872 -0.06704941391944885
v -0.005778521299362183 0.02429388277232647 -0.06704942882061005
v -0.005852734204381704 -0.0294235497713089 -0.06708450615406036
v -0.005778523627668619 -0.029434558004140854 -0.06704941391944885
v -0.005852728616446257 0.02942356839776039 -0.06708451360464096
v -0.009567108005285263 0.023096999153494835 -0.06931846588850021
v -0.009579340927302837 0.023091210052371025 -0.06932754069566727
v -0.009567111730575562 -0.023096978664398193 -0.06931846588850021
v -0.009579343721270561 -0.023091193288564682 -0.06932754069566727
v -0.009579340927302837 0.028396647423505783 -0.06932754069566727
v -0.008708561770617962 0.02870822139084339 -0.0686817318201065
v -0.009579344652593136 -0.02839663252234459 -0.06932753324508667
v -0.0043833013623952866 -0.024592896923422813 -0.06655020266771317
v -0.004877281840890646 -0.024519622325897217 -0.06672694534063339
v -0.00438329903408885 0.02964153327047825 -0.06655021011829376
v -0.004383299499750137 0.024592911824584007 -0.06655021011829376
v -0.0043833013623952866 -0.029641520231962204 -0.06655019521713257
v -0.011672462336719036 -0.02762559801340103 -0.07142064720392227
v -0.01178494468331337 -0.022048020735383034 -0.07157231122255325
v -0.011784941889345646 0.022048043087124825 -0.07157233357429504
v -0.011672460474073887 0.027625620365142822 -0.07142066210508347
v -0.01167246326804161 -0.02210122160613537 -0.07142065465450287
v -0.011672460474073887 0.02210124395787716 -0.07142066210508347
v -0.011480525135993958 0.027716398239135742 -0.0712088942527771
v 0.0071180895902216434 0.02395833656191826 -0.06768300384283066
v 0.005852685775607824 -0.0294235497713089 -0.06708449870347977
v 0.007118087261915207 -0.029106581583619118 -0.06768298894166946
v 0.007118087727576494 -0.023958321660757065 -0.06768298894166946
v 0.0071180895902216434 0.029106594622135162 -0.06768300384283066
v 0.0072570969350636005 0.023923519998788834 -0.06776631623506546
v 0.007257093675434589 -0.02392350323498249 -0.06776630878448486
v -0.012555195018649101 -0.027208097279071808 -0.07261089235544205
v -0.012555195018649101 -0.021586354821920395 -0.07261089235544205
v -0.012555192224681377 0.021586377173662186 -0.07261089980602264
v -0.012555193156003952 0.027208112180233 -0.07261089980602264
v -0.010677316226065159 -0.028003770858049393 -0.0703226774930954
v -0.01067731436342001 0.022571908310055733 -0.070322684943676
v -0.010677316226065159 -0.02257188968360424 -0.070322684943676
v -0.01067731436342001 0.028003789484500885 -0.07032269984483719
v -0.01148052979260683 -0.027716374024748802 -0.0712088868021965
v 0.010677308775484562 -0.02257186733186245 -0.070322684943676
v 0.010677310638129711 0.02257188968360424 -0.07032269984483719
v 0.010677308775484562 -0.0280037522315979 -0.07032269984483719
v 0.010677310638129711 0.028003770858049393 -0.07032269984483719
v -3.194853270827025e-09 -0.029999995604157448 -0.06589999794960022
v -1.287666751004224e-09 0.03000001050531864 -0.06590000540018082
v -3.035918849647601e-09 -0.024999992921948433 -0.06589999049901962
v -1.4465990627599012e-09 0.025000015273690224 -0.06590001285076141
v -0.001480060163885355 0.029927290976047516 -0.0659727156162262
v -0.0014800619101151824 -0.024927282705903053 -0.0659727081656456
v -0.0014800602803006768 0.024927305057644844 -0.0659727156162262
v -0.0014800620265305042 -0.029927285388112068 -0.0659727156162262
v -0.0029458666685968637 -0.024806123226881027 -0.06619014590978622
v -0.002940533449873328 0.029855553060770035 -0.06618936359882355
v -0.002945865038782358 0.02480613812804222 -0.06619015336036682
v -0.0024504479952156544 0.02487962879240513 -0.06611665338277817
v -0.002945865271613002 0.029854753986001015 -0.06619015336036682
v -0.0029458669014275074 -0.02985474281013012 -0.06619013845920563
v -0.0029405378736555576 -0.029855532571673393 -0.06618934869766235
v -0.002450451720505953 -0.024879612028598785 -0.06611664593219757
v 0.0014800557401031256 -0.02992728352546692 -0.0659727156162262
v 0.0014800558565184474 -0.024927280843257904 -0.0659727156162262
v 0.0014800572535023093 0.024927301332354546 -0.0659727230668068
v 0.0014800576027482748 0.029927294701337814 -0.0659727156162262
v 0.011784893460571766 -0.022048020735383034 -0.07157226651906967
v 0.011672452092170715 -0.022101201117038727 -0.07142066210508347
v 0.01167245488613844 0.02210121788084507 -0.07142066955566406
v 0.011784897185862064 0.022048043087124825 -0.07157227396965027
v 0.01167245488613844 0.02762560546398163 -0.07142066955566406
v 0.011672452092170715 -0.02762557566165924 -0.07142065465450287
v 0.012555187568068504 0.02158634178340435 -0.07261089980602264
v 0.012555188499391079 0.027208097279071808 -0.07261090725660324
v 0.012555185705423355 -0.021586325019598007 -0.07261089980602264
v 0.012555185705423355 -0.027208078652620316 -0.07261089235544205
v 0.002450409345328808 0.02487962879240513 -0.06611666083335876
v 0.0024504053872078657 -0.024879608303308487 -0.06611664593219757
v 0.0029458608478307724 -0.029854735359549522 -0.06619014590978622
v 0.0029404908418655396 -0.029855532571673393 -0.06618934869766235
v 0.0029404954984784126 0.029855553060770035 -0.06618936359882355
v 0.002945862477645278 0.029854746535420418 -0.06619016081094742
v 0.0029458627104759216 0.024806126952171326 -0.06619016081094742
v 0.002945861080661416 -0.02480611577630043 -0.06619015336036682
v 0.011480479501187801 -0.027716374024748802 -0.07120884209871292
v 0.0114804832264781 0.027716398239135742 -0.07120886445045471
v 0.004383294843137264 -0.029641512781381607 -0.06655019521713257
v 0.004383297171443701 0.0296415276825428 -0.06655021011829376
v 0.0043832967057824135 0.024592923000454903 -0.06655021011829376
v 0.004383294843137264 -0.024592891335487366 -0.06655019521713257
v 0.005778518505394459 0.02429387904703617 -0.06704943627119064
v 0.005778516177088022 -0.029434552416205406 -0.06704942137002945
v 0.005778518505394459 0.029434561729431152 -0.06704943627119064
v 0.0057785166427493095 -0.024293864145874977 -0.06704942137002945
v 0.004877235274761915 -0.024519622325897217 -0.0667269378900528
v 0.004877239000052214 0.02451964095234871 -0.06672694534063339
v 0.013317009434103966 0.021129725500941277 -0.07388191670179367
v 0.013317008502781391 0.026847781613469124 -0.07388192415237427
v 0.013317006640136242 -0.021129708737134933 -0.07388191670179367
v 0.013317006640136242 -0.02684776484966278 -0.07388191670179367
v -0.00487727764993906 0.02451964095234871 -0.06672695279121399
v 0.005852690897881985 0.02942356839776039 -0.06708451360464096
usemtl Alu
f 22 496 495 23
f 51 9 50
f 1 501 503 2
f 42 492 508
f 19 59 60
f 42 494 492
f 2 43 3
f 41 493 494 42
f 41 80 491 493
f 40 80 41
f 26 66 27
f 20 506 504 21
f 43 44 3
f 39 78 40
f 5 4 45
f 44 45 3
f 25 64 26
f 78 38 77
f 6 5 47
f 23 62 24
f 47 5 46
f 28 68 29
f 7 6 47
f 78 39 38
f 36 75 76
f 48 7 47
f 75 36 74
f 8 7 49
f 17 57 58
f 34 74 35
f 49 9 8
f 34 73 74
f 50 9 49
f 33 73 34
f 10 9 51
f 33 72 73
f 24 64 25
f 72 33 71
f 11 10 52
f 76 38 37
f 31 71 32
f 31 70 71
f 11 52 12
f 71 33 32
f 31 69 70
f 54 12 53
f 30 69 31
f 54 13 12
f 30 68 69
f 55 13 54
f 29 68 30
f 55 14 13
f 67 68 28
f 14 55 15
f 49 7 48
f 28 66 67
f 57 15 56
f 27 66 28
f 57 16 15
f 65 66 26
f 16 57 17
f 64 65 26
f 40 78 79
f 77 38 76
f 18 59 19
f 63 64 24
f 17 59 18
f 17 58 59
f 76 37 36
f 62 63 24
f 52 10 51
f 19 60 61
f 40 79 80
f 19 61 20
f 74 36 35
f 46 5 45
f 20 61 499 506
f 21 504 505
f 21 505 514
f 3 45 4
f 82 123 81
f 15 55 56
f 12 52 53
f 108 109 148
f 83 124 82
f 123 160 122
f 84 126 83
f 124 123 82
f 85 126 84
f 160 121 122
f 119 158 157
f 160 159 121
f 123 122 81
f 86 87 128
f 125 124 83
f 118 119 156
f 87 88 129
f 158 119 120
f 100 140 139
f 117 118 156
f 94 134 133
f 117 156 155
f 126 85 127
f 107 108 147
f 88 89 130
f 116 117 155
f 116 155 154
f 98 139 138
f 128 87 129
f 115 116 154
f 112 1031 1030
f 129 88 130
f 95 96 136
f 85 86 128
f 130 89 131
f 114 115 152
f 91 132 90
f 131 89 132
f 111 112 151
f 152 1013 1014 113
f 109 110 149
f 106 107 147
f 152 113 114
f 92 1025 1026
f 158 120 121
f 110 111 151
f 119 157 156
f 98 138 137
f 151 112 1029 1027
f 115 153 152
f 93 94 133
f 150 110 151
f 92 93 133
f 92 133 1028 1025
f 149 110 150
f 94 135 134
f 115 154 153
f 148 109 149
f 94 95 135
f 147 108 148
f 95 136 135
f 146 106 147
f 127 85 128
f 145 106 146
f 96 137 136
f 99 100 139
f 96 97 137
f 144 143 104
f 97 98 137
f 104 105 145
f 89 90 132
f 143 142 103
f 144 104 145
f 139 98 99
f 142 101 102
f 141 140 100
f 141 100 101
f 106 145 105
f 126 125 83
f 142 141 101
f 104 143 103
f 159 158 121
f 103 142 102
f 23 24 110 109
f 24 25 111 110
f 25 26 112 111
f 26 27 1091 1092 1074 1070 1096 1031 112
f 27 28 299 295 276 282 286 237 268 219 223 1187 1174 1178 1202 1065 1091
f 28 29 325 320 331 327 301 299
f 29 30 384 385 369 335 325
f 30 31 412 413 380 374 384
f 31 32 421 425 394 412
f 32 33 468 463 445 421
f 33 34 467 454 459 473 468
f 34 35 488 436 431 440 467
f 62 490 510 532 519 528 609 608 148 149
f 35 36 430 419 451 484 480 488
f 63 62 149 150
f 36 37 1066 1045 1041 1136 1122 1144 352 353 357 365 361 401 406 392 430
f 64 63 150 151
f 37 38 113 1020 1021 1032 1051 1036 1066
f 65 64 151 1027 1093 1067 1071 1088 1060 1061
f 38 39 114 113
f 66 65 1061 1201 1177 1169 269 238 287 283 277
f 39 40 115 114
f 67 66 277 278 296 302 328 332 340
f 40 41 116 115
f 68 67 340 321 336 371 370
f 41 42 117 116
f 1 2 88 87
f 69 68 370 386 375 379
f 42 508 507 530 517 526 618 118 117
f 2 3 89 88
f 70 69 379 383 416 411
f 3 4 90 89
f 71 70 411 397 428 424
f 4 5 91 90
f 72 71 424 447 465 470
f 5 6 1039 1040 1054 1035 1024 1018 91
f 73 72 470 476 462 461
f 6 7 429 391 405 400 360 364 356 351 349 1128 1125 1139 1044 1050 1039
f 74 73 461 456 443 442
f 7 8 487 479 482 449 417 429
f 75 74 442 433 438 478 477
f 8 9 471 441 432 437 487
f 76 75 477 483 450 418 390 403 404
f 9 10 475 474 460 455 471
f 77 76 404 399 359 363 367 1123 1137 1042 1048
f 10 11 423 448 466 475
f 78 77 1048 1049 1038 1053 1034 1023 1013 152
f 11 12 410 396 427 423
f 79 78 152 153
f 12 13 378 377 382 415 410
f 80 79 153 154
f 13 14 338 339 373 388 378
f 43 500 516 551 537 573 580 587 129 130
f 14 15 300 304 330 334 324 338
f 44 43 130 131
f 15 16 1087 1063 1200 1176 1173 1188 224 221 271 239 288 284 279 297 300
f 45 44 131 132
f 16 17 92 1097 1094 1068 1072 1089 1087
f 46 45 132 1019 1022 1033 1052 1037 1046 1047
f 17 18 93 92
f 47 46 1047 1043 1138 1124 368 366 362 402 407
f 18 19 94 93
f 48 47 407 408 393 420 452 485 486
f 19 20 95 94
f 49 48 486 481 439 435 434
f 20 21 96 95
f 50 49 434 444 457 453
f 21 514 513 549 535 572 578 97 96
f 51 50 453 458 472 469
f 52 51 469 464 446 422
f 53 52 422 426 395 409
f 54 53 409 414 381 389
f 55 54 389 376 387 398
f 56 55 398 372 337 322 323
f 57 56 323 333 329 303 298 280 281
f 58 57 281 285 289 240 273 1172 1175 1199 1062
f 59 58 1062 1064 1090 1073 1069 1095 1028 133
f 60 59 133 134
f 61 60 134 135
f 22 23 109 108
f 417 420 393 391 429
f 418 419 430 392 390
f 192 191 184 182 183
f 193 190 179 181 195
f 349 345 341 313 307 326 1115 1114 1143 1128
f 345 348 344 341
f 346 347 343 342
f 284 285 281 280 279
f 283 282 276 278 277
f 223 225 161 196 201 166 1084 1086 1147 1187
f 230 234 252 253 1160 1155 1152
f 297 298 303 304 300
f 296 295 299 301 302
f 242 267 262 294 1100 1101 1106 1203
f 324 322 337 339 338
f 321 320 325 335 336
f 334 333 323 322 324
f 332 331 320 321 340
f 448 446 464 466
f 447 445 463 465
f 206 205 200 164 228 224 1188 1148 1085 1077
f 388 387 376 377 378
f 386 385 384 374 375
f 482 485 452 449
f 483 484 451 450
f 249 247 253 252 257 256
f 250 248 246 251 254 255
f 330 329 333 334
f 328 327 331 332
f 173 171 168 169
f 172 170 165 167
f 231 176 211 216 1183 1168 1150
f 244 241 247 249
f 245 243 248 250
f 351 354 348 345 349
f 350 353 352 347 346
f 178 172 167 202 203 1081 1076 1135
f 255 254 235 232 1151 1154 1164
f 259 262 267 265 264
f 261 258 275 263 266
f 339 337 372 373
f 336 335 369 371
f 294 293 319 309 310 1110 1058 1100
f 373 372 398 387 388
f 371 369 385 386 370
f 195 181 186 178 1135 1132 1196 1197
f 210 209 175 230 1152 1167 1179
f 197 204 168 171 194 1134 1078 1083
f 184 191 215 210 1179 1185 1191 1198
f 228 227 222 221 224
f 226 225 223 219 220
f 257 252 234 236
f 254 251 233 235
f 188 189 173 169 206 1077 1079 1133 1204
f 449 452 420 417
f 450 451 419 418
f 205 204 197 199 200
f 202 201 196 198 203
f 391 393 408 405
f 390 392 406 403
f 396 395 426 427
f 397 394 425 428
f 405 408 407 402 400
f 403 406 401 399 404
f 265 267 242 241 244
f 266 263 243 245 274
f 221 222 272 271
f 220 219 268 270
f 341 344 315 313
f 342 343 314 311
f 305 308 314 343 347 352 1144 1140 1116 1057
f 312 306 318 292 260 1099 1055 1112
f 217 215 191 192
f 218 214 190 193
f 164 163 227 228
f 162 161 225 226
f 313 315 310 309 307
f 311 314 308 306 312
f 256 257 236 231 1150 1153 1158
f 479 481 486 485 482
f 478 480 484 483 477
f 326 317 291 259 264 1109 1103 1059 1115
f 212 218 193 195 1197 1192 1186 1180
f 423 422 446 448
f 424 421 445 447
f 264 265 244 249 256 1158 1161 1119 1104 1109
f 253 247 241 242 1203 1120 1159 1160
f 211 209 210 215 217 216
f 213 208 207 214 218 212
f 271 272 273 240 239
f 270 268 237 238 269
f 229 233 251 246 1163 1156 1149
f 291 293 294 262 259
f 292 290 258 261 260
f 246 248 243 263 275 1107 1108 1121 1162 1163
f 317 319 293 291
f 318 316 290 292
f 304 303 329 330
f 302 301 327 328
f 275 258 290 316 305 1057 1056 1102 1107
f 382 381 414 415
f 383 380 413 416
f 180 179 190 214 207 1182 1181 1189 1194 1130
f 232 177 213 212 1180 1166 1151
f 427 426 422 423
f 428 425 421 424
f 307 309 319 317 326
f 306 308 305 316 318
f 194 187 182 184 1198 1193 1129 1134
f 367 355 350 346 342 311 312 1112 1113 1142 1126 1123
f 460 458 453 457 455
f 462 459 454 456 461
f 437 439 481 479 487
f 438 436 488 480 478
f 236 234 230 231
f 235 233 229 232
f 466 464 469 472 474 475
f 465 463 468 473 476 470
f 415 414 409 395 396 410
f 416 413 412 394 397 411
f 288 289 285 284
f 287 286 282 283
f 310 315 344 348 354 358 368 1124 1127 1141 1111 1110
f 216 217 192 183 188 1204 1195 1190 1184 1183
f 279 280 298 297
f 278 276 295 296
f 231 230 175 176
f 232 229 174 177
f 441 444 434 435 432
f 443 440 431 433 442
f 189 187 194 171 173
f 186 185 170 172 178
f 207 208 174 229 1149 1165 1182
f 183 182 187 189 188
f 181 179 180 185 186
f 169 168 204 205 206
f 167 165 166 201 202
f 455 457 444 441 471
f 456 454 467 440 443
f 176 175 209 211
f 177 174 208 213
f 364 366 368 358 356
f 363 365 357 355 367
f 200 199 163 164
f 198 196 161 162
f 239 240 289 288
f 238 237 286 287
f 400 402 362 360
f 399 401 361 359
f 474 472 458 460
f 476 473 459 462
f 377 376 389 381 382
f 375 374 380 383 379
f 274 245 250 255 1164 1157 1117 1118
f 356 358 354 351
f 355 357 353 350
f 432 435 439 437
f 433 431 436 438
f 260 261 266 274 1118 1105 1098 1099
f 273 272 222 227 163 199 197 1083 1082 1146 1171 1172
f 360 362 366 364
f 359 361 365 363
f 166 165 170 185 180 1130 1131 1075 1084
f 203 198 162 226 220 270 269 1169 1170 1145 1080 1081
f 576 580 573 570 574
f 579 577 578 572 571
f 542 525 594 862 835 856 820 811
f 530 533 520 517
f 532 531 518 519
f 526 529 610 606 618
f 528 527 624 607 609
f 674 633 629 649 588 802 797 777 783 787
f 619 623 605 602 617
f 622 620 621 604 603
f 641 637 597 596 696 695 700 701
f 677 682 659 739 713 731 744
f 555 556 582 575 755 751 709 724 719 730
f 663 666 626 623 619
f 665 664 620 622 625
f 682 680 656 657 658 659
f 681 683 661 662 660 684
f 679 639 644 662 661 742 735 704 699 718
f 521 525 542 541 540
f 523 524 543 538 539
f 566 569 670 667
f 568 567 668 669
f 612 615 666 663
f 614 613 664 665
f 675 681 684 741 716 734 746
f 672 651 675 746 760 772 789
f 502 501 1
f 554 553 581 560 561 782 768 750 754 712 727 728
f 588 543 524 593 865 857 822 794 802
f 495 490 62 23
f 489 497 22
f 600 599 638 635 705 703 698 693
f 616 598 545 555 730 686 690 697 717
f 659 658 642 636 616 717 702 706 736 739
f 602 605 595 589
f 603 604 592 591
f 589 595 594 525 521 522
f 591 592 593 524 523 590
f 558 547 600 693 692 688 722 721
f 590 523 539 824 821 858 836 837
f 656 680 676 745 733 714 740
f 512 516 500 503 501 502 498
f 515 513 514 505 504 506 499
f 522 521 540 647 792 795 823 859 866
f 498 502 1
f 667 670 587 580 576
f 669 668 577 579 586
f 570 573 537 534
f 571 572 535 536
f 596 544 554 728 723 687 691 696
f 631 634 655 654 652 673
f 632 633 674 653 651 672
f 534 537 551 548
f 536 535 549 550
f 539 538 646 671 796 801 793 824
f 647 648 627 631 673 790 786 780 800 792
f 661 683 678 743 732 715 742
f 676 654 655 788 771 758 745
f 562 563 564 569 566
f 560 565 567 568 561
f 621 620 664 613 607 624 107 106 954 933 929 903 907 891 887 879 876
f 645 650 541 542 811 791 799 798
f 564 563 583 557 558 721 726 711 753 748 766 781
f 594 595 605 623 626 899 885 877 883 849 864 862
f 552 546 601 679 718 694 689 685 729
f 677 676 680 682
f 675 678 683 681
f 655 634 630 645 798 778 784 788
f 509 510 490 495 496 497 489
f 511 507 508 492 494 493 491
f 608 614 665 625 898 889 905 901 925 147 148
f 678 653 674 787 769 757 743
f 618 606 612 663 619 617 875 874 884 888 904 900 924 930 953 119 118
f 606 610 611 615 612
f 609 607 613 614 608
f 648 650 645 630 627
f 646 649 629 628 671
f 575 562 566 667 576 574 86 85 818 814 807 803 761 773 765 747 755
f 587 670 569 564 781 774 762 804 812 128 129
f 652 654 676 677
f 651 653 678 675
f 593 592 604 621 876 881 847 861 834 865
f 617 602 589 522 866 833 860 846 880 875
f 636 638 599 598 616
f 637 639 679 601 597
f 582 583 563 562 575
f 581 584 585 565 560
f 627 630 634 631
f 628 629 633 632
f 658 657 640 642
f 660 662 644 643
f 507 511 533 530
f 510 509 531 532
f 624 527 518 531 509 489 22 108 107
f 578 577 668 567 565 585 756 749 767 776 764 806 809 816 819 98 97
f 517 520 529 526
f 519 518 527 528
f 545 547 558 557 556 555
f 544 546 552 559 553 554
f 671 628 632 672 789 785 779 796
f 611 610 529 520 533 511 491 80 154 155
f 598 599 600 547 545
f 597 601 546 544 596
f 585 584 559 552 729 720 725 710 752 756
f 625 622 603 591 590 837 863 848 882 878 886 898
f 548 551 516 512
f 550 549 513 515
f 642 640 635 638 636
f 643 644 639 637 641
f 540 541 650 648 647
f 538 543 588 649 646
f 497 496 22
f 586 579 571 536 550 515 499 61 135 136
f 561 568 669 586 136 137 813 805 763 775 782
f 556 557 583 582
f 553 559 584 581
f 503 500 43 2
f 626 666 615 611 155 156 926 902 906 890 899
f 673 652 677 744 759 770 790
f 684 660 643 641 701 707 738 741
f 574 570 534 548 512 498 1 87 86
f 635 640 657 656 740 737 708 705
f 920 919 943 951 123 124
f 819 826 843 839 853 850 99 98
f 945 947 932 933 954
f 948 946 953 930 931
f 918 921 942 949 102 101
f 704 707 701 700 699
f 708 706 702 703 705
f 881 882 848 847
f 883 880 846 849
f 806 805 813 810 809
f 804 803 807 808 812
f 816 817 828 826 819
f 815 814 818 825 827
f 853 854 831 829 850
f 855 851 852 830 832
f 839 841 868 854 853
f 840 838 851 855 867
f 922 916 911 940 140 141
f 969 972 990 987
f 970 971 989 988
f 957 966 981 978 144 145
f 934 936 908 913 918 101 100
f 950 941 917 912 82 81
f 892 893 935 936 934
f 896 895 897 937 938
f 1007 1009 975 974
f 1010 1006 973 976
f 783 785 789 772 769 787
f 784 786 790 770 771 788
f 843 845 841 839
f 844 842 838 840
f 997 996 982 977 995 104 103
f 1003 1010 976 948 931 927 926 156 157
f 689 691 687 685
f 692 690 686 688
f 777 779 785 783
f 778 780 786 784
f 1012 963 959 968 991 121 120
f 879 878 882 881 876
f 877 874 875 880 883
f 952 944 923 922 141 142
f 794 793 801 797 802
f 791 795 792 800 799
f 953 946 973 1006 1001 1012 120 119
f 993 990 972 952 142 143
f 964 955 960 1004 1003 157 158
f 829 831 872 869
f 832 830 870 873
f 939 910 915 920 124 125
f 869 872 894 893 892
f 873 870 895 896 871
f 850 829 869 892 934 100 99
f 752 754 750 749 756
f 753 751 755 747 748
f 871 896 938 939 125 126
f 769 772 760 757
f 771 770 759 758
f 897 895 870 830 852 84 83
f 974 975 947 945
f 976 973 946 948
f 894 872 831 854 868 138 139
f 720 723 728 727 725
f 722 719 724 726 721
f 933 932 928 929
f 931 930 924 927
f 921 923 944 942
f 919 917 941 943
f 929 928 925 901 903
f 927 924 900 902 926
f 797 801 796 779 777
f 799 800 780 778 798
f 749 750 768 767
f 748 747 765 766
f 847 848 863 861
f 849 846 860 864
f 735 738 707 704
f 737 736 706 708
f 710 712 754 752
f 711 709 751 753
f 861 863 837 836 834
f 864 860 833 835 862
f 1002 1005 1008 1009 1007
f 1004 1001 1006 1010 1003
f 852 851 838 842 825 818 85 84
f 991 980 986 1000 994 122 121
f 949 952 972 969
f 951 950 971 970
f 995 967 958 961 1011 105 104
f 715 716 741 738 735 742
f 714 713 739 736 737 740
f 868 841 845 828 817 810 813 137 138
f 767 768 782 775 776
f 766 765 773 774 781
f 822 821 824 793 794
f 820 823 795 791 811
f 857 858 821 822
f 856 859 823 820
f 826 828 845 843
f 827 825 842 844
f 1011 1002 1007 974 945 954 106 105
f 908 911 916 913
f 910 909 914 915
f 1008 1005 962 956 957 145 146
f 912 914 909 937 897 83 82
f 942 944 952 949
f 943 941 950 951
f 834 836 858 857 865
f 835 833 866 859 856
f 949 969 987 997 103 102
f 982 985 978 981 977
f 984 986 980 979 983
f 961 962 1005 1002 1011
f 960 963 1012 1001 1004
f 812 808 815 827 844 840 867 127 128
f 757 760 746 743
f 758 759 744 745
f 987 990 993 999 996 997
f 988 989 994 1000 998 992
f 913 916 922 923 921 918
f 915 914 912 917 919 920
f 764 763 805 806
f 762 761 803 804
f 940 935 893 894 139 140
f 809 810 817 816
f 808 807 814 815
f 743 746 734 732
f 745 744 731 733
f 967 966 957 956 958
f 965 968 959 955 964
f 694 695 696 691 689
f 698 697 690 692 693
f 699 700 695 694 718
f 703 702 717 697 698
f 685 687 723 720 729
f 688 686 730 719 722
f 977 981 966 967 995
f 979 980 991 968 965
f 732 734 716 715
f 733 731 713 714
f 994 989 971 950 81 122
f 992 998 984 983 159 160
f 867 855 832 873 871 126 127
f 891 889 898 886 887
f 890 888 884 885 899
f 725 727 712 710
f 726 724 709 711
f 983 979 965 964 158 159
f 776 775 763 764
f 774 773 761 762
f 903 901 905 907
f 902 900 904 906
f 996 999 985 982
f 998 1000 986 984
f 936 935 940 911 908
f 938 937 909 910 939
f 887 886 878 879
f 885 884 874 877
f 958 956 962 961
f 955 959 963 960
f 978 985 999 993 143 144
f 951 970 988 992 160 123
f 925 928 932 947 975 1009 1008 146 147
f 907 905 889 891
f 906 904 888 890
f 1178 1177 1201 1202
f 1175 1176 1200 1199
f 1036 1038 1049 1045 1066
f 1037 1040 1039 1050 1046
f 1147 1145 1170 1174 1187
f 1146 1148 1188 1173 1171
f 1165 1166 1180 1186 1181 1182
f 1167 1168 1183 1184 1185 1179
f 1045 1049 1048 1042 1041
f 1046 1050 1044 1043 1047
f 1018 1016 91
f 1116 1113 1112 1055 1056 1057
f 1111 1114 1115 1059 1058 1110
f 1065 1060 1088 1092 1091
f 1064 1063 1087 1089 1090
f 1026 1097 92
f 1017 1020 113
f 1016 1015 91
f 1051 1053 1038 1036
f 1052 1054 1040 1037
f 1015 1019 132 91
f 1075 1076 1081 1080 1086 1084
f 1078 1079 1077 1085 1082 1083
f 1070 1067 1093 1096
f 1069 1068 1094 1095
f 1162 1157 1164 1154 1156 1163
f 1159 1161 1158 1153 1155 1160
f 1156 1154 1151 1149
f 1155 1153 1150 1152
f 1149 1151 1166 1165
f 1152 1150 1168 1167
f 1102 1098 1105 1108 1107
f 1101 1103 1109 1104 1106
f 1108 1105 1118 1117 1121
f 1106 1104 1119 1120 1203
f 1189 1192 1197 1196 1194
f 1191 1190 1195 1193 1198
f 1136 1137 1123 1126 1122
f 1138 1139 1125 1127 1124
f 1074 1071 1067 1070
f 1073 1072 1068 1069
f 1174 1170 1169 1177 1178
f 1171 1173 1176 1175 1172
f 1056 1055 1099 1098 1102
f 1058 1059 1103 1101 1100
f 1131 1132 1135 1076 1075
f 1129 1133 1079 1078 1134
f 1202 1201 1061 1060 1065
f 1199 1200 1063 1064 1062
f 1194 1196 1132 1131 1130
f 1193 1195 1204 1133 1129
f 1096 1093 1027 1029 1030 1031
f 1095 1094 1097 1026 1025 1028
f 1122 1126 1142 1140 1144
f 1127 1125 1128 1143 1141
f 1030 1029 112
f 1181 1186 1192 1189
f 1185 1184 1190 1191
f 1086 1080 1145 1147
f 1082 1085 1148 1146
f 1041 1042 1137 1136
f 1043 1044 1139 1138
f 1021 1023 1034 1032
f 1022 1024 1035 1033
f 1024 1022 1019 1015 1016 1018
f 1023 1021 1020 1017 1014 1013
f 1092 1088 1071 1074
f 1090 1089 1072 1073
f 1121 1117 1157 1162
f 1120 1119 1161 1159
f 1014 1017 113
f 1140 1142 1113 1116
f 1141 1143 1114 1111
f 1032 1034 1053 1051
f 1033 1035 1054 1052
