mtllib Circle_023.mtl
v -0.024944089353084564 -0.016667094081640244 0.022000012919306755
v -0.023190315812826157 -0.019031787291169167 0.022000012919306755
v -0.02121320553123951 -0.021213192492723465 0.022000011056661606
v -0.01903180405497551 -0.023190302774310112 0.022000011056661606
v -0.016667110845446587 -0.024944080039858818 0.022000011056661606
v -0.01414190698415041 -0.02645763009786606 0.022000009194016457
v -0.011480509303510189 -0.02771637961268425 0.022000009194016457
v -0.008708545938134193 -0.028708206489682198 0.022000007331371307
v -0.005852715577930212 -0.029423555359244347 0.022000007331371307
v -0.00294052017852664 -0.02985553815960884 0.022000005468726158
v -5.917686340950468e-09 -0.029999999329447746 0.02200000360608101
v 0.002940508769825101 -0.02985554188489914 0.02200000360608101
v 0.005852704402059317 -0.029423559084534645 0.02200000174343586
v 0.008708534762263298 -0.028708213940262794 0.02200000174343586
v 0.011480499990284443 -0.027716388925909996 0.02199999988079071
v 0.014141897670924664 -0.026457644999027252 0.02199999801814556
v 0.01666710339486599 -0.024944094941020012 0.02199999801814556
v 0.019031796604394913 -0.023190321400761604 0.021999996155500412
v 0.02121320180594921 -0.021213212981820107 0.021999996155500412
v 0.023190312087535858 -0.019031809642910957 0.021999994292855263
v 0.024944089353084564 -0.016667116433382034 0.021999994292855263
v 0.024944104254245758 0.016667097806930542 0.021999988704919815
v 0.02319033071398735 0.019031791016459465 0.021999988704919815
v 0.021213222295045853 0.021213196218013763 0.021999992430210114
v 0.019031818956136703 0.02319030649960041 0.021999992430210114
v 0.01666712574660778 0.024944083765149117 0.021999992430210114
v 0.014141922816634178 0.026457633823156357 0.021999994292855263
v 0.011480524204671383 0.027716385200619698 0.021999994292855263
v 0.008708561770617962 0.028708210214972496 0.021999996155500412
v 0.005852731876075268 0.029423559084534645 0.021999996155500412
v 0.0029405364766716957 0.02985554188489914 0.02199999801814556
v 2.197705128992311e-08 0.030000003054738045 0.02199999988079071
v -0.002940492471680045 0.029855545610189438 0.02199999988079071
v -0.005852688103914261 0.029423562809824944 0.02200000174343586
v -0.008708519861102104 0.028708217665553093 0.02200000174343586
v -0.011480484157800674 0.027716392651200294 0.02200000360608101
v -0.01414188276976347 0.02645764872431755 0.022000005468726158
v -0.016667088493704796 0.02494409866631031 0.022000005468726158
v -0.01903178170323372 0.023190325126051903 0.022000007331371307
v -0.021213186904788017 0.021213216707110405 0.022000007331371307
v -0.023190297186374664 0.019031813368201256 0.022000009194016457
v -0.02494407445192337 0.016667120158672333 0.022000009194016457
v -0.019325261935591698 -0.015859823673963547 0.022000011056661606
v -0.0176776722073555 -0.017677659168839455 0.022000009194016457
v -0.01585983671247959 -0.019325250759720802 0.022000009194016457
v -0.013889258727431297 -0.02078673057258129 0.022000009194016457
v -0.011784922331571579 -0.02204802632331848 0.022000007331371307
v -0.00956708937883377 -0.023096982389688492 0.022000007331371307
v -0.007257120683789253 -0.02392350696027279 0.022000007331371307
v -0.004877261817455292 -0.024519627913832664 0.022000005468726158
v -0.002450432162731886 -0.024879615753889084 0.022000005468726158
v -3.593124908718437e-09 -0.02499999850988388 0.02200000360608101
v 0.0024504249449819326 -0.024879619479179382 0.02200000360608101
v 0.0048772552981972694 -0.024519631639122963 0.02200000174343586
v 0.007257113698869944 -0.023923510685563087 0.02200000174343586
v 0.009567083790898323 -0.02309698984026909 0.02199999988079071
v 0.011784916743636131 -0.02204803377389908 0.02199999988079071
v 0.013889255002140999 -0.020786745473742485 0.02199999801814556
v 0.015859832987189293 -0.019325267523527145 0.02199999801814556
v 0.0176776684820652 -0.017677677795290947 0.021999996155500412
v 0.019325261935591698 -0.01585984230041504 0.021999996155500412
v 0.01932527683675289 0.015859827399253845 0.021999992430210114
v 0.017677687108516693 0.017677662894129753 0.021999994292855263
v 0.015859851613640785 0.0193252544850111 0.021999994292855263
v 0.013889274559915066 0.02078673429787159 0.021999994292855263
v 0.011784937232732773 0.02204803004860878 0.021999996155500412
v 0.00956710521131754 0.02309698611497879 0.021999996155500412
v 0.007257136516273022 0.023923510685563087 0.021999996155500412
v 0.0048772781156003475 0.024519631639122963 0.02199999801814556
v 0.0024504484608769417 0.024879619479179382 0.02199999801814556
v 1.965248941360187e-08 0.02500000223517418 0.02199999988079071
v -0.0024504088796675205 0.02487962320446968 0.02199999988079071
v -0.004877239000052214 0.02451963536441326 0.02200000174343586
v -0.007257097400724888 0.023923514410853386 0.02200000174343586
v -0.00956706888973713 0.023096993565559387 0.02200000360608101
v -0.011784900911152363 0.022048037499189377 0.02200000360608101
v -0.013889240100979805 0.020786749199032784 0.022000005468726158
v -0.0158598180860281 0.019325271248817444 0.022000005468726158
v -0.017677653580904007 0.017677681520581245 0.022000007331371307
v -0.019325245171785355 0.015859846025705338 0.022000007331371307
v -0.03000004217028618 4.640850814752184e-09 -0.10299999266862869
v -0.02985558472573757 -0.002940509933978319 -0.10299999266862869
v -0.029423600062727928 -0.0058527057990431786 -0.10299999266862869
v -0.028708254918456078 -0.008708535693585873 -0.10299999266862869
v -0.02771642990410328 -0.011480500921607018 -0.10299999266862869
v -0.026457685977220535 -0.014141898602247238 -0.10299999266862869
v -0.024944137781858444 -0.01666710525751114 -0.10300000011920929
v -0.023190364241600037 -0.019031798467040062 -0.10300000011920929
v -0.02121325396001339 -0.02121320366859436 -0.10300000011920929
v -0.01903185248374939 -0.023190313950181007 -0.10300000011920929
v -0.016667159274220467 -0.024944091215729713 -0.10300000011920929
v 0.01666705682873726 -0.024944106116890907 -0.10300001502037048
v 0.019031748175621033 -0.02319033443927765 -0.10300001502037048
v 0.02121315523982048 -0.021213224157691002 -0.10300001502037048
v 0.023190265521407127 -0.019031820818781853 -0.10300001502037048
v 0.024944040924310684 -0.01666712760925293 -0.10300001502037048
v 0.026457590982317924 -0.014141923747956753 -0.10300001502037048
v 0.027716342359781265 -0.011480525135993958 -0.10300001502037048
v 0.028708167374134064 -0.008708562701940536 -0.10300001502037048
v 0.029423516243696213 -0.00585273327305913 -0.10300001502037048
v 0.029855500906705856 -0.002940537640824914 -0.10300001502037048
v 0.02999996207654476 -2.3253891257013493e-08 -0.10300002247095108
v 0.029855504631996155 0.002940491307526827 -0.10300002247095108
v 0.02942351996898651 0.005852686706930399 -0.10300002247095108
v 0.02870817482471466 0.008708517998456955 -0.10300002247095108
v 0.027716349810361862 0.0114804832264781 -0.10300002247095108
v 0.02645760588347912 0.014141881838440895 -0.10300002247095108
v 0.024944055825471878 0.016667086631059647 -0.10300001502037048
v 0.02319028414785862 0.01903177984058857 -0.10300001502037048
v 0.021213173866271973 0.021213185042142868 -0.10300001502037048
v 0.019031772390007973 0.023190295323729515 -0.10300001502037048
v 0.01666707918047905 0.02494407258927822 -0.10300001502037048
v -0.016667136922478676 0.024944087490439415 -0.10300000011920929
v -0.01903182826936245 0.023190313950181007 -0.10300000011920929
v -0.021213235333561897 0.02121320366859436 -0.10300000011920929
v -0.023190345615148544 0.01903180219233036 -0.10300000011920929
v -0.0249441210180521 0.016667108982801437 -0.10300000011920929
v -0.02645767107605934 0.014141906052827835 -0.10300000011920929
v -0.027716422453522682 0.011480508372187614 -0.10300000011920929
v -0.02870824746787548 0.008708545006811619 -0.10300000011920929
v -0.02942359633743763 0.00585271418094635 -0.10300000011920929
v -0.029855581000447273 0.0029405190143734217 -0.10300000011920929
v -0.025000041350722313 2.316288494341734e-09 -0.10300000011920929
v -0.024879660457372665 -0.002450426109135151 -0.10300000011920929
v -0.024519674479961395 -0.004877256695181131 -0.10300000011920929
v -0.02392355352640152 -0.0072571150958538055 -0.10300000011920929
v -0.023097030818462372 -0.009567084722220898 -0.10300000011920929
v -0.02204807661473751 -0.011784917674958706 -0.10300000011920929
v -0.020786788314580917 -0.013889255933463573 -0.10300000011920929
v -0.01932530850172043 -0.015859832987189293 -0.10300000011920929
v -0.01767772063612938 -0.01767767034471035 -0.10300000011920929
v -0.01585988514125347 -0.019325263798236847 -0.10300000011920929
v 0.015859784558415413 -0.01932527869939804 -0.10300001502037048
v 0.01767762005329132 -0.017677688971161842 -0.10300001502037048
v 0.019325213506817818 -0.015859853476285934 -0.10300001502037048
v 0.020786693319678307 -0.01388927549123764 -0.10300001502037048
v 0.022047987207770348 -0.011784938164055347 -0.10300001502037048
v 0.023096943274140358 -0.009567106142640114 -0.10300001502037048
v 0.023923467844724655 -0.007257137913256884 -0.10300001502037048
v 0.02451958879828453 -0.0048772795125842094 -0.10300001502037048
v 0.02487957663834095 -0.00245044962503016 -0.10300001502037048
v 0.024999961256980896 -2.0929327604335413e-08 -0.10300001502037048
v 0.02487958036363125 0.0024504077155143023 -0.10300001502037048
v 0.02451959252357483 0.004877237603068352 -0.10300001502037048
v 0.023923473432660103 0.007257096003741026 -0.10300001502037048
v 0.023096950724720955 0.009567067958414555 -0.10300001502037048
v 0.022047996520996094 0.011784899979829788 -0.10300001502037048
v 0.0207867082208395 0.01388923916965723 -0.10300001502037048
v 0.01932522840797901 0.01585981622338295 -0.10300001502037048
v 0.017677640542387962 0.017677651718258858 -0.10300001502037048
v 0.015859803184866905 0.019325243309140205 -0.10300001502037048
v -0.01585986651480198 0.01932526007294655 -0.10300000011920929
v -0.017677700147032738 0.01767767034471035 -0.10300000011920929
v -0.019325293600559235 0.015859834849834442 -0.10300000011920929
v -0.020786773413419724 0.013889257796108723 -0.10300000011920929
v -0.022048067301511765 0.011784921400249004 -0.10300000011920929
v -0.023097023367881775 0.009567088447511196 -0.10300000011920929
v -0.02392354980111122 0.007257118821144104 -0.10300000011920929
v -0.024519668892025948 0.00487726042047143 -0.10300000011920929
v -0.024879656732082367 0.0024504309985786676 -0.10300000011920929
v 0.010583068244159222 0.02803749591112137 -0.005656760651618242
v 0.010583065450191498 0.022616468369960785 -0.00565676111727953
v 0.010583044961094856 -0.022616475820541382 -0.005656764842569828
v 0.010583044029772282 -0.028037501499056816 -0.005656765308231115
v 0.008485293947160244 0.02876412682235241 -0.00848527904599905
v 0.008708549663424492 0.028708208352327347 -0.008238955400884151
v 0.008485292084515095 0.023484060540795326 -0.008485279977321625
v 0.00848526880145073 -0.023484069854021072 -0.008485284633934498
v 0.00848526693880558 -0.028764137998223305 -0.008485286496579647
v 0.0076127322390675545 0.02898269332945347 -0.009276124648749828
v 0.007612708956003189 -0.02379627525806427 -0.009276129305362701
v 0.007612729445099831 0.023796267807483673 -0.009276123717427254
v 0.007612706162035465 -0.028982702642679214 -0.009276129305362701
v 0.001176217570900917 0.029942214488983154 -0.011942214332520962
v 0.0011761931236833334 -0.024942219257354736 -0.01194221992045641
v 0.0011761907953768969 -0.029942220076918602 -0.011942221783101559
v 0.0011762154754251242 0.02494220621883869 -0.011942215263843536
v 0.007257124409079552 0.023923508822917938 -0.009539859369397163
v 0.005656772758811712 0.029452627524733543 -0.010583052411675453
v 0.005852718837559223 0.029423557221889496 -0.01046560425311327
v 0.005656770896166563 0.02432437613606453 -0.010583053342998028
v 0.00565674901008606 -0.02432437613606453 -0.010583057999610901
v 0.00565674714744091 -0.029452625662088394 -0.010583058930933475
v 0.0048772417940199375 -0.02451963536441326 -0.01095174066722393
v 0.006666854955255985 0.029219625517725945 -0.009977633133530617
v 0.006666853092610836 0.02407136932015419 -0.009977634064853191
v 0.0066668312065303326 -0.02407136559486389 -0.009977639652788639
v 0.005852691363543272 -0.029423560947179794 -0.01046561449766159
v 0.006666828878223896 -0.029219631105661392 -0.009977639652788639
v 0.004592212848365307 0.029610540717840195 -0.011086552403867245
v 0.0045921895653009415 -0.024561921134591103 -0.011086557991802692
v 0.004592187236994505 -0.029610540717840195 -0.011086557991802692
v 0.00459221052005887 0.024561915546655655 -0.011086552403867245
v 0.007257102057337761 -0.023923514410853386 -0.009539861232042313
v 0.00487726554274559 0.024519629776477814 -0.010951735079288483
v 0.009977648966014385 0.028254125267267227 -0.006666841916739941
v 0.009567072615027428 -0.023096991702914238 -0.0072204116731882095
v 0.009977645240724087 0.02290281094610691 -0.006666841916739941
v 0.00997762382030487 -0.02290281467139721 -0.006666846573352814
v 0.009977621957659721 -0.028254125267267227 -0.006666847039014101
v 0.009276137687265873 0.028505120426416397 -0.00761271920055151
v 0.009276134893298149 0.02320108562707901 -0.007612719666212797
v 0.00956709310412407 0.02309698425233364 -0.007220407947897911
v 0.009276114404201508 -0.023201100528240204 -0.007612723857164383
v 0.009276110678911209 -0.028505127876996994 -0.00761272432282567
v 0.008708523586392403 -0.028708215802907944 -0.008238960057497025
v 0.002940522972494364 0.02985553815960884 -0.011619270779192448
v 0.0023410958237946033 0.02988499216735363 -0.011769420467317104
v 0.0023410713765770197 -0.024884993210434914 -0.011769426055252552
v 0.002450411906465888 -0.02487962320446968 -0.011742036789655685
v 0.0023410695139318705 -0.02988499216735363 -0.011769426055252552
v 0.0024504351895302534 0.024879615753889084 -0.011742028407752514
v 0.002341093961149454 0.024884987622499466 -0.011769420467317104
v 0.003483427921310067 0.02977500483393669 -0.01148328185081482
v 0.0034834041725844145 -0.024726394563913345 -0.011483288370072842
v 0.0029404957313090563 -0.029855545610189438 -0.011619280092418194
v 0.0034834013786166906 -0.029775014147162437 -0.011483287438750267
v 0.0034834258258342743 0.02472638711333275 -0.011483282782137394
v 0.011483296751976013 0.02771507017314434 -0.003483415115624666
v 0.011483294889330864 0.02219069004058838 -0.0034834155812859535
v 0.011483272537589073 -0.02771507203578949 -0.0034834202378988266
v 0.011483274400234222 -0.022190695628523827 -0.0034834197722375393
v 0.011480514891445637 0.0277163814753294 -0.003491191426292062
v 0.011480490677058697 -0.027716390788555145 -0.003491196082904935
v 0.01108656544238329 0.0278573427349329 -0.0045922002755105495
v 0.01108656357973814 0.02237832359969616 -0.004592201206833124
v 0.011086543090641499 -0.022378334775567055 -0.004592204932123423
v 0.011086542159318924 -0.027857346460223198 -0.00459220539778471
v 1.1923189546791946e-08 0.030000006780028343 -0.011999997310340405
v -1.2591317322119266e-08 -0.02500000223517418 -0.012000003829598427
v -1.481990707929981e-08 -0.030000003054738045 -0.012000003829598427
v 9.694596236897723e-09 0.02500000223517418 -0.011999997310340405
v -0.0011761938221752644 0.029942218214273453 -0.011942213401198387
v -0.001176218269392848 -0.024942221119999886 -0.011942218989133835
v -0.0011761959176510572 0.02494220994412899 -0.011942215263843536
v -0.0011762204812839627 -0.02994222193956375 -0.01194221992045641
v 0.01194223016500473 0.02749801054596901 -0.0011762046488001943
v 0.011942228302359581 0.021953744813799858 -0.0011762052308768034
v 0.011942205019295216 -0.027498016133904457 -0.0011762096546590328
v 0.011942206881940365 -0.021953755989670753 -0.0011762091889977455
v -0.0045922137796878815 -0.024561917409300804 -0.011086556129157543
v -0.004877274390310049 -0.024519631639122963 -0.010951736941933632
v -0.004592190030962229 0.029610542580485344 -0.011086550541222095
v -0.004592215642333031 -0.029610538855195045 -0.011086556129157543
v -0.004592192359268665 0.024561909958720207 -0.011086550541222095
v -0.0029405057430267334 0.02985554188489914 -0.011619276367127895
v -0.003483428619801998 -0.024726388975977898 -0.011483286507427692
v -0.003483404405415058 0.02977500855922699 -0.011483280919492245
v -0.0034834309481084347 -0.029775012284517288 -0.011483287438750267
v -0.0034834067337214947 0.024726388975977898 -0.01148328185081482
v -0.002341072540730238 0.02988499216735363 -0.011769420467317104
v -0.002341096755117178 -0.024884993210434914 -0.011769426986575127
v -0.0024504452012479305 -0.024879619479179382 -0.011742038652300835
v -0.002341074403375387 0.024884985759854317 -0.011769420467317104
v -0.002450421918183565 0.024879619479179382 -0.011742038652300835
v -0.0029405332170426846 -0.02985554188489914 -0.011619278229773045
v -0.002341098617762327 -0.02988499216735363 -0.011769426055252552
v -0.006666830740869045 0.02921963669359684 -0.009977632202208042
v -0.006666857283562422 -0.029219629243016243 -0.009977638721466064
v -0.007257109973579645 0.023923512548208237 -0.009539853781461716
v -0.006666833534836769 0.024071376770734787 -0.009977633133530617
v -0.006666854955255985 -0.024071363732218742 -0.00997763779014349
v -0.005656749941408634 0.029452631250023842 -0.010583051480352879
v -0.005852728616446257 -0.029423557221889496 -0.01046560239046812
v -0.005656775552779436 -0.029452621936798096 -0.010583057999610901
v -0.005656751804053783 0.024324385449290276 -0.010583052411675453
v -0.005656773690134287 -0.02432437427341938 -0.010583057068288326
v 0.011769436299800873 0.027579741552472115 -0.0023410830181092024
v 0.011784927919507027 0.02204802818596363 -0.0022366265766322613
v 0.011769433505833149 0.022055352106690407 -0.0023410834837704897
v 0.011769411154091358 -0.027579739689826965 -0.0023410881403833628
v 0.011769413016736507 -0.022055363282561302 -0.0023410876747220755
v 0.01178490649908781 -0.022048035636544228 -0.002236634027212858
v -0.004877252038568258 0.024519631639122963 -0.010951727628707886
v -0.0058527011424303055 0.029423560947179794 -0.010465599596500397
v 0.011769435368478298 0.027579737827181816 0.002341085346415639
v 0.01178493071347475 0.02204802818596363 0.002236619358882308
v 0.011769433505833149 0.022055357694625854 0.0023410848807543516
v 0.011769411154091358 -0.027579741552472115 0.002341079991310835
v 0.011769413016736507 -0.0220553670078516 0.002341080456972122
v 0.011784909293055534 -0.022048035636544228 0.0022366135381162167
v 0.01194223016500473 0.02749801054596901 0.0011762067442759871
v 0.011942228302359581 0.021953746676445007 0.0011762062786146998
v 0.011942205019295216 -0.027498016133904457 0.0011762017384171486
v 0.011942206881940365 -0.021953754127025604 0.001176202204078436
v 0.012000013142824173 0.027470676228404045 1.0621398205401533e-09
v 0.012000011280179024 0.021919114515185356 5.547913239922764e-10
v 0.011999987997114658 -0.02747068740427494 -3.958859906560974e-09
v 0.011999989859759808 -0.021919120103120804 -3.4515117430800046e-09
v -0.007612708956003189 0.02898271195590496 -0.009276121854782104
v -0.007612734567373991 -0.028982695192098618 -0.009276127442717552
v -0.007612711284309626 0.023796280845999718 -0.009276121854782104
v -0.007612731773406267 -0.02379627153277397 -0.009276126511394978
v -0.007257132790982723 -0.023923510685563087 -0.009539855644106865
v 0.011483296751976013 0.02771507203578949 0.0034834174439311028
v 0.01148329395800829 0.022190691903233528 0.0034834169782698154
v 0.011483272537589073 -0.027715075761079788 0.0034834120888262987
v 0.011483273468911648 -0.022190697491168976 0.003483412554487586
v 0.011480516754090786 0.0277163814753294 0.0034911870025098324
v 0.011480492539703846 -0.027716390788555145 0.0034911842085421085
v 0.011086566373705864 0.0278573390096426 0.004592202603816986
v 0.01108656544238329 0.022378329187631607 0.004592202138155699
v 0.011086544953286648 -0.022378336638212204 0.004592197947204113
v 0.011086543090641499 -0.027857346460223198 0.004592197481542826
v -0.008708531036973 0.028708215802907944 -0.008238947950303555
v -0.009276116266846657 0.023201104253530502 -0.007612717337906361
v -0.009276139549911022 -0.028505124151706696 -0.007612721528857946
v -0.009276112541556358 0.028505131602287292 -0.007612716406583786
v -0.009276136755943298 -0.023201093077659607 -0.007612721063196659
v -0.009567100554704666 -0.02309698611497879 -0.007220398169010878
v -0.009977626614272594 0.02290281467139721 -0.006666840519756079
v -0.009567080065608025 0.023096991702914238 -0.007220398169010878
v -0.00997764989733696 -0.02825411967933178 -0.006666845176368952
v -0.00997762382030487 0.028254132717847824 -0.006666839588433504
v -0.009977647103369236 -0.02290280908346176 -0.006666844245046377
v -0.00848526880145073 0.028764137998223305 -0.008485276252031326
v -0.008485295809805393 -0.028764130547642708 -0.008485283702611923
v -0.008485270664095879 0.023484067991375923 -0.008485277183353901
v -0.008485293947160244 -0.023484062403440475 -0.008485281839966774
v 0.009276139549911022 0.028505124151706696 0.007612721528857946
v 0.009276136755943298 0.02320108935236931 0.007612721528857946
v 0.009276116266846657 -0.023201100528240204 0.007612716872245073
v 0.009567078202962875 -0.023096991702914238 0.007220399100333452
v 0.009276112541556358 -0.028505129739642143 0.007612716406583786
v 0.00870855525135994 0.028708208352327347 0.008238952606916428
v -0.008708557114005089 -0.028708208352327347 -0.008238950744271278
v 0.010583067312836647 0.028037499636411667 0.0056567625142633915
v 0.010583064518868923 0.022616464644670486 0.005656762048602104
v 0.010583044961094856 -0.022616475820541382 0.005656758788973093
v 0.010583043098449707 -0.028037503361701965 0.005656757391989231
v 0.00997764989733696 0.028254125267267227 0.006666845176368952
v 0.009977647103369236 0.022902807220816612 0.006666844245046377
v 0.009977626614272594 -0.02290281653404236 0.006666840519756079
v 0.00997762382030487 -0.028254125267267227 0.006666839588433504
v 0.008485295809805393 0.028764130547642708 0.008485283702611923
v 0.008485293947160244 0.023484058678150177 0.008485281839966774
v 0.008485270664095879 -0.02348407171666622 0.008485277183353901
v 0.00870852917432785 -0.028708215802907944 0.00823894701898098
v 0.00848526880145073 -0.028764137998223305 0.008485277183353901
v 0.009567098692059517 0.02309698425233364 0.007220405153930187
v -0.010583067312836647 -0.02803749591112137 -0.0056567625142633915
v -0.010583044961094856 0.022616475820541382 -0.005656758788973093
v -0.010583043098449707 0.028037503361701965 -0.005656757391989231
v -0.010583065450191498 -0.022616468369960785 -0.005656762048602104
v -0.011086566373705864 -0.02785734087228775 -0.004592202603816986
v -0.011086544953286648 0.022378336638212204 -0.004592197947204113
v -0.011086544021964073 0.027857352048158646 -0.004592197481542826
v -0.01108656544238329 -0.022378329187631607 -0.004592202138155699
v -0.011480518616735935 -0.0277163814753294 -0.003491185139864683
v -0.011483274400234222 0.022190699353814125 -0.003483412554487586
v -0.011483295820653439 -0.02771506831049919 -0.0034834174439311028
v -0.011480494402348995 0.027716390788555145 -0.003491176525130868
v -0.011483273468911648 0.027715079486370087 -0.0034834120888262987
v -0.01148329395800829 -0.022190691903233528 -0.0034834169782698154
v -0.011769413016736507 0.022055361419916153 -0.002341080456972122
v -0.011769435368478298 -0.027579734101891518 -0.002341085346415639
v -0.011769411154091358 0.027579741552472115 -0.002341079991310835
v -0.011769433505833149 -0.022055359557271004 -0.0023410848807543516
v -0.011999989859759808 0.021919120103120804 3.4515117430800046e-09
v -0.012000013142824173 -0.027470678091049194 -1.0621398205401533e-09
v -0.011999987997114658 0.02747069112956524 3.958860350650184e-09
v -0.012000011280179024 -0.021919114515185356 -5.547913239922764e-10
v -0.011942206881940365 0.021953754127025604 -0.001176202204078436
v -0.01194223016500473 -0.02749801054596901 -0.0011762067442759871
v -0.011942205019295216 0.027498019859194756 -0.0011762017384171486
v -0.011942228302359581 -0.021953750401735306 -0.0011762062786146998
v -0.011784911155700684 0.022048035636544228 -0.0022366021294146776
v -0.011784931644797325 -0.02204802818596363 -0.002236607950180769
v 0.007612734567373991 0.02898269146680832 0.009276127442717552
v 0.007257131859660149 0.023923508822917938 0.009539858438074589
v 0.0076127322390675545 0.023796265944838524 0.009276127442717552
v 0.007612711284309626 -0.02379627712070942 0.009276121854782104
v 0.007612708490341902 -0.028982704505324364 0.009276121854782104
v 0.005656775552779436 0.029452621936798096 0.010583057999610901
v 0.005656773690134287 0.02432437427341938 0.010583057068288326
v 0.005656751804053783 -0.02432437799870968 0.010583051480352879
v 0.005656749475747347 -0.029452625662088394 0.010583051480352879
v 0.005852700211107731 -0.029423560947179794 0.010465605184435844
v 0.004877273924648762 0.024519631639122963 0.010951733216643333
v 0.004592215642333031 0.029610538855195045 0.011086556129157543
v 0.004592191893607378 -0.024561913684010506 0.011086550541222095
v 0.004592190030962229 -0.029610536992549896 0.011086550541222095
v 0.0045922137796878815 0.024561917409300804 0.011086556129157543
v 0.005852728150784969 0.029423557221889496 0.010465607978403568
v 0.006666857283562422 0.029219629243016243 0.009977638721466064
v 0.006666854489594698 0.02407137304544449 0.009977636858820915
v 0.006666833069175482 -0.02407136932015419 0.009977632202208042
v 0.0066668312065303326 -0.02921963483095169 0.009977633133530617
v 0.004877251107245684 -0.024519631639122963 0.010951727628707886
v -0.011483274400234222 0.022190695628523827 0.0034834197722375393
v -0.011483296751976013 -0.027715066447854042 0.0034834148827940226
v -0.011483272537589073 0.027715077623724937 0.0034834202378988266
v -0.011483294889330864 -0.022190691903233528 0.0034834155812859535
v 0.002341098617762327 0.029884986579418182 0.011769425123929977
v 0.002341074403375387 -0.024884989485144615 0.011769420467317104
v 0.002341072540730238 -0.02988499030470848 0.011769421398639679
v 0.002341096755117178 0.024884989485144615 0.011769426055252552
v 0.0072571090422570705 -0.023923514410853386 0.00953985471278429
v -0.011942206881940365 0.021953755989670753 0.0011762091889977455
v -0.01194223016500473 -0.02749801054596901 0.0011762046488001943
v -0.011942205019295216 0.027498016133904457 0.0011762096546590328
v -0.011942228302359581 -0.021953748539090157 0.0011762051144614816
v -0.011769413016736507 0.022055363282561302 0.0023410876747220755
v -0.011784910224378109 0.022048035636544228 0.00223662075586617
v -0.011769435368478298 -0.027579734101891518 0.0023410827852785587
v -0.011769411154091358 0.027579737827181816 0.0023410883732140064
v -0.011784929782152176 -0.02204802632331848 0.0022366149351000786
v -0.011769433505833149 -0.022055355831980705 0.0023410834837704897
v 0.002450420754030347 -0.024879619479179382 0.011742030270397663
v 0.0029405050445348024 -0.02985554374754429 0.011619269847869873
v 0.0024504445027559996 0.024879619479179382 0.011742036789655685
v 0.0029405320528894663 0.02985554188489914 0.011619274504482746
v 0.0034834309481084347 0.029775014147162437 0.011483287438750267
v 0.0034834067337214947 -0.024726388975977898 0.01148328185081482
v 0.003483404405415058 -0.02977501042187214 0.011483280919492245
v 0.003483428619801998 0.024726388975977898 0.011483286507427692
v -0.01108656544238329 -0.0278573390096426 0.0045922002755105495
v -0.011086543090641499 0.022378338500857353 0.004592204932123423
v -0.011086540296673775 0.027857352048158646 0.00459220539778471
v -0.01108656357973814 -0.022378329187631607 0.0045922002755105495
v 1.481990707929981e-08 0.030000003054738045 0.012000003829598427
v -9.694595348719304e-09 -0.02499999850988388 0.011999997310340405
v -1.1923186882256687e-08 -0.029999999329447746 0.011999997310340405
v 1.2591317322119266e-08 0.025000007823109627 0.012000003829598427
v 0.0011762205976992846 0.0299422238022089 0.01194221992045641
v 0.001176196034066379 -0.024942215532064438 0.011942214332520962
v 0.0011761937057599425 -0.029942216351628304 0.011942213401198387
v 0.0011762181529775262 0.02494220994412899 0.011942218989133835
v -0.011480516754090786 -0.0277163814753294 0.0034911837428808212
v -0.011480492539703846 0.027716390788555145 0.003491189330816269
v -0.007612706162035465 0.028982706367969513 0.009276129305362701
v -0.0076127322390675545 -0.028982695192098618 0.009276123717427254
v -0.007612708490341902 0.023796282708644867 0.009276129305362701
v -0.007257125340402126 -0.023923508822917938 0.009539857506752014
v -0.007612729445099831 -0.023796269670128822 0.009276123717427254
v -0.00848526693880558 0.0287641454488039 0.008485286496579647
v -0.008485293947160244 -0.028764130547642708 0.00848527904599905
v -0.00848526880145073 0.02348407730460167 0.008485285565257072
v -0.008485292084515095 -0.023484060540795326 0.008485279977321625
v -0.006666828878223896 0.02921963855624199 0.009977639652788639
v -0.006666854955255985 -0.029219627380371094 0.009977633133530617
v -0.007257102522999048 0.023923512548208237 0.009539861232042313
v -0.0066668312065303326 0.02407136559486389 0.009977639652788639
v -0.006666853092610836 -0.024071363732218742 0.009977634064853191
v -0.0011761907953768969 0.029942212626338005 0.011942220851778984
v -0.0011762154754251242 -0.024942215532064438 0.011942215263843536
v -0.0011761931236833334 0.024942219257354736 0.01194221992045641
v -0.0011762176873162389 -0.029942218214273453 0.011942214332520962
v -0.010583068244159222 -0.02803749591112137 0.005656760651618242
v -0.010583044961094856 0.022616475820541382 0.005656764376908541
v -0.010583043098449707 0.028037507086992264 0.005656765308231115
v -0.010583065450191498 -0.022616468369960785 0.00565676111727953
v -0.0048772660084068775 -0.024519627913832664 0.01095173042267561
v -0.00565674714744091 0.029452627524733543 0.010583058930933475
v -0.005656773224473 -0.029452625662088394 0.010583052411675453
v -0.005656749475747347 0.024324379861354828 0.010583057999610901
v -0.005656770430505276 -0.02432437427341938 0.010583053342998028
v -0.00459221052005887 -0.024561911821365356 0.011086552403867245
v -0.004592187236994505 0.029610540717840195 0.011086557991802692
v -0.004592212848365307 -0.02961053140461445 0.011086552403867245
v -0.0048772431910037994 0.02451963536441326 0.010951737873256207
v -0.004592189099639654 0.024561917409300804 0.011086557991802692
v -0.0023410695139318705 0.029884982854127884 0.011769426055252552
v -0.0023410937283188105 -0.024884987622499466 0.011769420467317104
v -0.0023410716094076633 0.024884991347789764 0.011769426055252552
v -0.002341096056625247 -0.02988499030470848 0.011769420467317104
v -0.005852692760527134 0.029423560947179794 0.01046561449766159
v -0.002940496662631631 0.029855545610189438 0.01161927729845047
v -0.002450436120852828 -0.024879615753889084 0.011742033064365387
v -0.0024504128377884626 0.02487962320446968 0.011742038652300835
v -0.005852720234543085 -0.029423557221889496 0.010465607047080994
v -0.0034834255930036306 -0.0247263852506876 0.01148328185081482
v -0.0034834013786166906 0.029775016009807587 0.011483288370072842
v -0.003483427921310067 -0.02977500669658184 0.01148328185081482
v -0.002940524136647582 -0.02985554002225399 0.011619270779192448
v -0.003483403939753771 0.024726394563913345 0.011483287438750267
v -0.009567074477672577 0.023096993565559387 0.007220410741865635
v -0.009276114404201508 0.023201104253530502 0.007612723857164383
v -0.009276137687265873 -0.028505120426416397 0.00761271920055151
v -0.009276110678911209 0.02850513532757759 0.00761272432282567
v -0.009276134893298149 -0.023201091215014458 0.007612719666212797
v -0.00997764803469181 -0.02825411781668663 0.006666841451078653
v -0.009977624751627445 0.022902818396687508 0.006666846107691526
v -0.009977622888982296 0.028254128992557526 0.006666847039014101
v -0.009977645240724087 -0.02290280908346176 0.006666841916739941
v -0.009567094966769218 -0.02309698425233364 0.007220406085252762
v -0.008708551526069641 -0.028708208352327347 0.008238950744271278
v -0.008708525449037552 0.028708215802907944 0.00823895912617445
v 0.025883393362164497 0.015099986456334591 0.021999988704919815
v 0.01988881081342697 0.01509998831897974 0.021999992430210114
v -0.019888779148459435 0.015100007876753807 0.022000007331371307
v -0.024014482274651527 0.015100010670721531 0.022000009194016457
v -0.02135261334478855 0.015100009739398956 0.022000009194016457
v -0.02259872481226921 0.015100009739398956 0.022000009194016457
v 0.02135264314711094 0.01509998831897974 0.021999992430210114
v 0.022598756477236748 0.015099987387657166 0.021999992430210114
v 0.024014512076973915 0.015099986456334591 0.021999988704919815
v -0.025883374735713005 -0.01509998831897974 0.022000012919306755
v 0.01988878846168518 -0.015100010670721531 0.021999996155500412
v -0.01988878846168518 -0.015099991112947464 0.022000011056661606
v -0.02259875275194645 -0.01509999018162489 0.022000011056661606
v -0.02401450276374817 -0.015099989250302315 0.022000012919306755
v -0.021352631971240044 -0.01509999018162489 0.022000011056661606
v 0.02259875275194645 -0.015100011602044106 0.021999994292855263
v 0.02401450090110302 -0.015100013464689255 0.021999994292855263
v 0.021352631971240044 -0.01510001253336668 0.021999994292855263
v -0.025883369147777557 0.015100011602044106 4.590485769284669e-09
v -0.02588336355984211 0.015100011602044106 0.022000011056661606
v 0.0258833859115839 0.015099987387657166 -3.4159557404933594e-09
v 0.019888797774910927 0.01509999018162489 -2.4888100469411256e-09
v -0.019888784736394882 0.015100008808076382 3.663340519821645e-09
v -0.02588338404893875 -0.015099986456334591 3.415956850716384e-09
v 0.025883371010422707 -0.01510001253336668 -4.5904844370170395e-09
v 0.025883374735713005 -0.015100013464689255 0.021999992430210114
v 0.019888782873749733 -0.015100009739398956 -3.6633398536878303e-09
v -0.019888801500201225 -0.015099989250302315 2.4888096028519158e-09
v -0.026057276874780655 0.014809869229793549 -0.002945859218016267
v 0.02605728805065155 0.014809845015406609 -0.0029458689969033003
v 0.02010398358106613 0.014809847809374332 -0.002945867832750082
v -0.020103972405195236 0.014809866435825825 -0.0029458608478307724
v -0.02878822386264801 0.008389124646782875 -0.012555185705423355
v -0.028708213940262794 0.008708552457392216 -0.012318284250795841
v 0.02351846918463707 0.00838909950107336 -0.012555194087326527
v 0.02878822200000286 0.008389097638428211 -0.012555195018649101
v -0.023518480360507965 0.008389122784137726 -0.01255518663674593
v -0.026273086667060852 0.014449812471866608 -0.004383292514830828
v 0.026273105293512344 0.014449788257479668 -0.004383300431072712
v 0.02037101611495018 0.014449791051447392 -0.004383299499750137
v -0.020371008664369583 0.01444980874657631 -0.004383293446153402
v -0.025926949456334114 0.015027300454676151 -0.0014800543431192636
v 0.025926971808075905 0.015027277171611786 -0.0014800640055909753
v 0.01994272693991661 0.01502727996557951 -0.0014800627250224352
v -0.019942712038755417 0.015027297660708427 -0.00148005539085716
v -0.02605729177594185 -0.014809845015406609 -0.0029458608478307724
v 0.026057273149490356 -0.014809869229793549 -0.0029458701610565186
v 0.020103968679904938 -0.014809866435825825 -0.0029458687640726566
v -0.02010398730635643 -0.014809847809374332 -0.0029458620119839907
v 0.02395833469927311 0.007118080276995897 -0.013317016884684563
v 0.02392350696027279 0.0072571043856441975 -0.013233685865998268
v -0.02910660207271576 0.007118105888366699 -0.013317005708813667
v -0.02395833656191826 0.007118103094398975 -0.013317006640136242
v -0.023923512548208237 0.0072571272030472755 -0.01323368027806282
v 0.029106592759490013 0.007118077948689461 -0.013317017816007137
v 0.023518458008766174 -0.008389120921492577 -0.012555195949971676
v -0.028788235038518906 -0.008389095775783062 -0.01255518663674593
v 0.028788218274712563 -0.008389122784137726 -0.012555197812616825
v -0.023518487811088562 -0.008389097638428211 -0.012555188499391079
v -0.025926964357495308 -0.015027276240289211 -0.001480055507272482
v 0.02592695690691471 -0.015027301385998726 -0.0014800650533288717
v 0.019942712038755417 -0.015027298592031002 -0.0014800640055909753
v -0.01994272693991661 -0.015027279034256935 -0.0014800565550103784
v 0.02870820090174675 -0.008708554320037365 -0.012318292632699013
v 0.023091189563274384 -0.009579349309206009 -0.011672464199364185
v 0.023096980527043343 -0.009567097760736942 -0.011681550182402134
v -0.02870822139084339 -0.008708528243005276 -0.012318282388150692
v -0.028396641835570335 -0.009579325094819069 -0.011672456748783588
v -0.023091202601790428 -0.009579327888786793 -0.011672457680106163
v -0.023096995428204536 -0.0095670772716403 -0.011681543663144112
v 0.028396623209118843 -0.009579352103173733 -0.01167246513068676
v 0.022101212292909622 -0.011672467924654484 -0.009579346515238285
v 0.022048024460673332 -0.01178493071347475 -0.00942770391702652
v -0.027625607326626778 -0.011672444641590118 -0.009579337202012539
v -0.022101229056715965 -0.011672446504235268 -0.009579338133335114
v -0.022048037499189377 -0.011784910224378109 -0.009427698329091072
v 0.027625590562820435 -0.011672468855977058 -0.00957934744656086
v -0.027208106592297554 -0.012555178254842758 -0.008389107882976532
v 0.02720808796584606 -0.012555203400552273 -0.008389115333557129
v 0.021586330607533455 -0.012555201537907124 -0.008389115333557129
v -0.021586360409855843 -0.012555179186165333 -0.008389107882976532
v -0.026273101568222046 -0.014449785463511944 -0.00438329391181469
v 0.020371001213788986 -0.014449807815253735 -0.004383300896733999
v 0.026273077353835106 -0.014449810609221458 -0.004383301828056574
v -0.020371023565530777 -0.014449789188802242 -0.004383294843137264
v -0.02645764872431755 -0.014141889289021492 -0.00524380337446928
v -0.027716394513845444 -0.01148049347102642 -0.009791126474738121
v -0.02654813788831234 -0.013950567692518234 -0.005778515711426735
v 0.026548124849796295 -0.013950592838227749 -0.005778523627668619
v 0.02645763009786606 -0.014141914434731007 -0.005243814084678888
v 0.02074124850332737 -0.013950590044260025 -0.0057785226963460445
v -0.02074127085506916 -0.013950570486485958 -0.0057785166427493095
v 0.02257188968360424 -0.010677321814000607 -0.010677316226065159
v -0.028003782033920288 -0.010677299462258816 -0.010677310638129711
v -0.022571897134184837 -0.010677301324903965 -0.010677310638129711
v 0.028003767132759094 -0.010677323676645756 -0.010677317157387733
v 0.0277163777500391 -0.011480518616735935 -0.009791133925318718
v 0.020786728709936142 -0.013889268040657043 -0.005908179562538862
v -0.020786749199032784 -0.013889248482882977 -0.005908174905925989
v 0.029423555359244347 0.005852694157510996 -0.013915495947003365
v -0.02839663438498974 0.009579354897141457 -0.01167245302349329
v 0.02309698797762394 0.009567075408995152 -0.011681555770337582
v 0.023091189563274384 0.009579329751431942 -0.011672461405396461
v 0.02839663065969944 0.009579326957464218 -0.011672462336719036
v 0.028708210214972496 0.008708526380360126 -0.012318294495344162
v -0.02309698797762394 0.009567095898091793 -0.011681544594466686
v -0.023091193288564682 0.009579351171851158 -0.01167245488613844
v 0.02392350323498249 -0.007257129997014999 -0.013233684934675694
v 0.02395833097398281 -0.007118101231753826 -0.013317016884684563
v -0.029106607660651207 -0.007118075620383024 -0.013317005708813667
v -0.023958342149853706 -0.007118078414350748 -0.013317008502781391
v -0.023923516273498535 -0.007257107179611921 -0.013233679346740246
v 0.029106589034199715 -0.00711810402572155 -0.013317018747329712
v -0.02800377458333969 0.010677325539290905 -0.010677308775484562
v 0.02257189340889454 0.010677303187549114 -0.01067731436342001
v 0.028003770858049393 0.010677301324903965 -0.01067731436342001
v -0.02257188968360424 0.010677322745323181 -0.010677308775484562
v -0.026548121124505997 0.013950592838227749 -0.00577851478010416
v 0.026548132300376892 0.013950567692518234 -0.005778522230684757
v 0.020786743611097336 0.013889246620237827 -0.005908182356506586
v 0.020741259679198265 0.013950570486485958 -0.005778521299362183
v -0.020741254091262817 0.013950590044260025 -0.005778515245765448
v -0.02078673429787159 0.013889267109334469 -0.005908172111958265
v -0.026847777888178825 0.013317023403942585 -0.007118087261915207
v 0.02684778720140457 0.01331699825823307 -0.007118095178157091
v 0.021129732951521873 0.01331700012087822 -0.007118094712495804
v -0.021129725500941277 0.013317020609974861 -0.007118087727576494
v -0.029423566535115242 -0.005852698348462582 -0.01391548290848732
v -0.027716385200619698 0.011480514891445637 -0.009791122749447823
v -0.026457633823156357 0.014141915366053581 -0.005243809428066015
v -0.02762559801340103 0.011672469787299633 -0.009579336270689964
v 0.02762559801340103 0.011672444641590118 -0.00957934558391571
v 0.027716385200619698 0.011480491608381271 -0.00979113020002842
v 0.022101223468780518 0.011672446504235268 -0.009579344652593136
v -0.022101223468780518 0.01167246699333191 -0.009579336270689964
v 0.026457644999027252 0.014141889289021492 -0.005243816412985325
v 0.02204803191125393 0.01178490836173296 -0.009427705779671669
v -0.02204803191125393 0.011784929782152176 -0.009427696466445923
v -0.0296415314078331 0.004383313003927469 -0.01444979477673769
v 0.02459290809929371 0.004383287392556667 -0.014449803158640862
v 0.029641518369317055 0.0043832845985889435 -0.01444980502128601
v -0.02459290809929371 0.004383310209959745 -0.014449795708060265
v -0.029854752123355865 0.0029458787757903337 -0.014809852465987206
v 0.024806125089526176 0.0029458533972501755 -0.014809860847890377
v 0.02985474467277527 0.0029458513017743826 -0.014809861779212952
v -0.024806130677461624 0.002945876680314541 -0.014809852465987206
v -0.02451963908970356 -0.004877248778939247 -0.014273060485720634
v -0.0294345710426569 -0.005778505466878414 -0.013950575143098831
v 0.024293869733810425 -0.005778531078249216 -0.013950585387647152
v -0.02429388463497162 -0.005778507795184851 -0.01395057700574398
v 0.029434552416205406 -0.005778533406555653 -0.013950586318969727
v -0.024592911824584007 -0.004383285995572805 -0.014449795708060265
v 0.024519624188542366 -0.0048772720620036125 -0.014273060485720634
v -0.029641535133123398 -0.004383283667266369 -0.01444979477673769
v 0.024592893198132515 -0.004383309278637171 -0.014449804089963436
v 0.029641522094607353 -0.004383311606943607 -0.014449804089963436
v -0.02451963536441326 0.004877267871052027 -0.014273055829107761
v 0.024293873459100723 0.005778508726507425 -0.013950585387647152
v -0.029423562809824944 0.005852722097188234 -0.01391548477113247
v -0.0294345673173666 0.005778534337878227 -0.013950575143098831
v 0.029434556141495705 0.005778506398200989 -0.013950586318969727
v -0.02429388090968132 0.005778532009571791 -0.01395057700574398
v 0.024927284568548203 0.0014800482895225286 -0.015027294866740704
v -0.029927294701337814 0.0014800737844780087 -0.015027287416160107
v 0.02992727980017662 0.0014800458448007703 -0.015027295798063278
v -0.024927297607064247 0.0014800713397562504 -0.015027287416160107
v -0.02487962320446968 0.002450438914820552 -0.01488334871828556
v -0.02487962692975998 -0.0024504184257239103 -0.014883344992995262
v -0.024806136265397072 -0.002945851068943739 -0.01480985339730978
v -0.029854757711291313 -0.0029458487406373024 -0.014809852465987206
v -0.029855551198124886 -0.0029405022505670786 -0.014810644090175629
v 0.024806121364235878 -0.0029458743520081043 -0.014809861779212952
v 0.029855534434318542 -0.0029405297245830297 -0.014810655266046524
v 0.02985474094748497 -0.002945876447483897 -0.014809862710535526
v -0.02720809541642666 0.012555202469229698 -0.008389105089008808
v 0.027208099141716957 0.012555178254842758 -0.00838911347091198
v 0.0215863436460495 0.012555180117487907 -0.00838911347091198
v -0.021586347371339798 0.012555201537907124 -0.008389106951653957
v -0.02684779278934002 -0.01331699825823307 -0.007118088658899069
v 0.026847772300243378 -0.013317023403942585 -0.007118096575140953
v 0.02112971805036068 -0.013317020609974861 -0.007118096109479666
v -0.02112974226474762 -0.01331700012087822 -0.007118089124560356
v 0.024519627913832664 0.004877245519310236 -0.014273060485720634
v 0.024879615753889084 0.002450415398925543 -0.01488335058093071
v -0.029855545610189438 0.002940526930615306 -0.014810648746788502
v 0.02985553815960884 0.002940499223768711 -0.014810655266046524
v 0.024999994784593582 -1.0662851934739592e-08 -0.015100006945431232
v -0.025000007823109627 1.2582762387580715e-08 -0.015099997632205486
v -0.030000006780028343 1.4907325152080375e-08 -0.015099996700882912
v 0.029999999329447746 -1.2987415587417672e-08 -0.015100007876753807
v 0.029423551633954048 -0.005852725822478533 -0.013915497809648514
v -0.024927297607064247 -0.0014800463104620576 -0.015027287416160107
v 0.024927277117967606 -0.0014800694771111012 -0.015027294866740704
v -0.029927294701337814 -0.001480043982155621 -0.015027287416160107
v 0.029927287250757217 -0.0014800718054175377 -0.015027295798063278
v 0.024879613891243935 -0.0024504417087882757 -0.014883352443575859
v 0.028764106333255768 -0.008485286496579647 -0.07251472771167755
v -0.02876417152583599 -0.008485257625579834 -0.07251471281051636
v 0.023484038189053535 -0.008485284633934498 -0.07251472771167755
v -0.023484107106924057 -0.008485259488224983 -0.07251472026109695
v 0.02898266911506653 -0.007612725719809532 -0.07172387838363647
v -0.028982730582356453 -0.00761269498616457 -0.07172386348247528
v 0.023796245455741882 -0.007612722925841808 -0.07172387838363647
v -0.023796308785676956 -0.007612697780132294 -0.07172387093305588
v -0.023923540487885475 -0.007257112301886082 -0.07146015763282776
v 0.029219603165984154 -0.006666848435997963 -0.07102237641811371
v 0.024071339517831802 -0.006666846107691526 -0.07102237641811371
v 0.02392347902059555 -0.0072571346536278725 -0.07146015763282776
v -0.02921965904533863 -0.006666818168014288 -0.07102235406637192
v -0.024071412160992622 -0.0066668204963207245 -0.07102236151695251
v 0.029452599585056305 -0.00565676623955369 -0.07041695713996887
v 0.02432435192167759 -0.005656763911247253 -0.07041694968938828
v 0.024519603699445724 -0.004877276718616486 -0.07004828006029129
v -0.02945265732705593 -0.005656735505908728 -0.07041693478822708
v -0.024324413388967514 -0.0056567382998764515 -0.07041694223880768
v 0.029610512778162956 -0.004592206794768572 -0.06991345435380936
v -0.0245196595788002 -0.0048772539012134075 -0.0700482577085495
v -0.029610564932227135 -0.004592175595462322 -0.06991343945264816
v 0.024561889469623566 -0.004592204000800848 -0.06991345435380936
v -0.024561945348978043 -0.004592177923768759 -0.06991344690322876
v -0.02803753688931465 -0.010583032853901386 -0.07534322887659073
v 0.02803747169673443 -0.010583057999610901 -0.07534324377775192
v -0.022616511210799217 -0.010583034716546535 -0.07534323632717133
v 0.022616446018218994 -0.010583056136965752 -0.07534324377775192
v -0.029885021969676018 -0.0023410578723996878 -0.0692305639386177
v -0.0248850230127573 -0.0023410602007061243 -0.0692305788397789
v 0.02988496795296669 -0.0023410883732140064 -0.0692305862903595
v 0.024884965270757675 -0.00234108604490757 -0.0692305862903595
v -0.029423587024211884 -0.005852703005075455 -0.07053439319133759
v 0.029423527419567108 -0.005852730479091406 -0.07053440064191818
v -0.02850516140460968 -0.009276101365685463 -0.0733872726559639
v 0.028505099937319756 -0.009276130236685276 -0.07338728755712509
v -0.023097019642591476 -0.009567082859575748 -0.0737796202301979
v -0.02320113219320774 -0.009276104159653187 -0.0733872801065445
v 0.023201068863272667 -0.009276127442717552 -0.07338728755712509
v -0.028254156932234764 -0.0099776117131114 -0.07433314621448517
v 0.02825409732758999 -0.009977640584111214 -0.07433316111564636
v -0.022902853786945343 -0.009977615438401699 -0.07433315366506577
v 0.02290278673171997 -0.00997763779014349 -0.07433316111564636
v 0.023096956312656403 -0.009567104279994965 -0.0737796202301979
v 0.02870817855000496 -0.008708560839295387 -0.07276106625795364
v -0.028708243742585182 -0.008708533830940723 -0.07276105880737305
v -0.029942242428660393 -0.0011761796195060015 -0.06905777007341385
v 0.029942195862531662 -0.0011762104695662856 -0.06905779242515564
v -0.024942239746451378 -0.0011761821806430817 -0.06905777752399445
v 0.024942193180322647 -0.0011762076755985618 -0.06905778497457504
v 0.02977498434484005 -0.0034834204707294703 -0.06951671838760376
v -0.029775045812129974 -0.0034833899699151516 -0.06951670348644257
v -0.024726420640945435 -0.003483392531052232 -0.06951671093702316
v 0.02472636289894581 -0.00348341790959239 -0.06951671838760376
v -0.029855571687221527 -0.0029405069071799517 -0.06938071548938751
v -0.02487964928150177 -0.0024504230823367834 -0.06925796717405319
v 0.024879591539502144 -0.0024504465982317924 -0.06925797462463379
v 0.0298555139452219 -0.002940534381195903 -0.0693807378411293
v 0.029999976977705956 -4.539325360042312e-09 -0.06900002062320709
v -0.030000023543834686 2.6220773108320827e-08 -0.0689999908208847
v -0.02500002831220627 2.3657435122004244e-08 -0.0689999982714653
v 0.02499997429549694 -1.9759816005660014e-09 -0.0690000131726265
v -0.02771511673927307 -0.011483261361718178 -0.0775165781378746
v -0.022190740332007408 -0.011483263224363327 -0.0775165855884552
v 0.02771504409611225 -0.011483288370072842 -0.0775165930390358
v 0.022190669551491737 -0.011483286507427692 -0.0775165930390358
v -0.02785738743841648 -0.011086530983448029 -0.0764077827334404
v 0.027857312932610512 -0.011086557991802692 -0.07640780508518219
v -0.022378377616405487 -0.011086532846093178 -0.07640779763460159
v 0.022378306835889816 -0.011086556129157543 -0.07640780508518219
v -0.027716420590877533 -0.011480498127639294 -0.0775088518857956
v 0.02771635167300701 -0.011480524204671383 -0.07750886678695679
v 0.029942193999886513 0.0011762011563405395 -0.06905779242515564
v -0.024942239746451378 0.0011762292124330997 -0.06905777752399445
v -0.029942238703370094 0.00117623177357018 -0.06905777007341385
v 0.02494218945503235 0.0011762036010622978 -0.06905778497457504
v -0.027470722794532776 -0.011999979615211487 -0.08099998533725739
v -0.021919159218668938 -0.011999981477856636 -0.08099999278783798
v 0.021919090300798416 -0.012000003829598427 -0.08100001513957977
v 0.027470655739307404 -0.012000005692243576 -0.08100001513957977
v -0.02757977694272995 -0.011769400909543037 -0.07865890860557556
v -0.022055402398109436 -0.011769403703510761 -0.07865891605615616
v 0.027579711750149727 -0.011769427917897701 -0.07865892350673676
v 0.022055335342884064 -0.011769426055252552 -0.07865892350673676
v 0.029884962365031242 0.0023410797584801912 -0.0692305937409401
v -0.029885007068514824 0.00234111025929451 -0.0692305788397789
v -0.024885019287467003 0.0023411079309880733 -0.0692305788397789
v 0.024884963408112526 0.0023410823196172714 -0.0692305862903595
v -0.02749805338680744 -0.01194219570606947 -0.07982378453016281
v -0.021953793242573738 -0.011942197568714619 -0.07982379198074341
v 0.021953724324703217 -0.01194221992045641 -0.079823799431324
v 0.02749798446893692 -0.011942220851778984 -0.079823799431324
v 0.029610510915517807 0.004592196084558964 -0.06991346925497055
v -0.024561939761042595 0.004592224955558777 -0.06991344690322876
v 0.024561891332268715 0.004592198878526688 -0.06991345435380936
v -0.02961055375635624 0.004592227283865213 -0.06991344690322876
v -0.022048065438866615 -0.011784915812313557 -0.07876347750425339
v 0.022047998383641243 -0.011784936301410198 -0.07876349240541458
v 0.0297749824821949 0.003483411855995655 -0.06951673328876495
v -0.024726415053009987 0.0034834397956728935 -0.06951671838760376
v 0.02472636103630066 0.003483414649963379 -0.06951672583818436
v -0.029775027185678482 0.0034834423568099737 -0.06951671838760376
v 0.0298555176705122 0.0029404943343251944 -0.0693807378411293
v -0.024879643693566322 0.002450434025377035 -0.06925796717405319
v 0.024879593402147293 0.0024504107423126698 -0.06925797462463379
v -0.02985556796193123 0.002940522041171789 -0.06938071548938751
v -0.02407139353454113 0.006666866131126881 -0.07102236151695251
v -0.029423583298921585 0.005852716974914074 -0.07053437829017639
v 0.024071335792541504 0.006666840519756079 -0.07102237641811371
v 0.029219599440693855 0.006666837725788355 -0.0710223838686943
v -0.02921965718269348 0.006666868459433317 -0.07102236151695251
v 0.024519607424736023 0.004877240397036076 -0.0700482726097107
v 0.029452597722411156 0.0056567564606666565 -0.07041696459054947
v -0.024519655853509903 0.004877263214439154 -0.0700482577085495
v -0.02432439848780632 0.005656784866005182 -0.07041694223880768
v -0.029452648013830185 0.005656787194311619 -0.07041694223880768
v 0.02432434819638729 0.00565675925463438 -0.07041695713996887
v 0.029423533007502556 0.0058526890352368355 -0.07053439319133759
v -0.02749805524945259 -0.011942196637392044 -0.08217619359493256
v -0.021953798830509186 -0.011942199431359768 -0.08217619359493256
v 0.021953722462058067 -0.011942220851778984 -0.08217622339725494
v 0.02749798074364662 -0.011942221783101559 -0.08217620104551315
v -0.02757978066802025 -0.011769401840865612 -0.0833410769701004
v -0.022055404260754585 -0.011769403703510761 -0.083341084420681
v 0.027579709887504578 -0.011769428849220276 -0.0833410918712616
v 0.022055331617593765 -0.011769426055252552 -0.0833410918712616
v -0.023923534899950027 0.007257122080773115 -0.07146013528108597
v -0.022048067301511765 -0.011784917674958706 -0.08323651552200317
v 0.022047996520996094 -0.011784937232732773 -0.08323653042316437
v -0.027715114876627922 -0.011483264155685902 -0.08448340743780136
v -0.022190742194652557 -0.011483266018331051 -0.08448341488838196
v 0.027715042233467102 -0.011483291164040565 -0.08448342233896255
v 0.02219066582620144 -0.011483289301395416 -0.08448342978954315
v -0.027716422453522682 -0.011480499990284443 -0.08449114114046097
v 0.027716349810361862 -0.011480524204671383 -0.08449115604162216
v -0.023796286433935165 0.0076127429492771626 -0.07172387093305588
v 0.023796241730451584 0.007612717803567648 -0.07172387838363647
v 0.028982670977711678 0.007612715009599924 -0.07172389328479767
v -0.028982721269130707 0.007612745743244886 -0.07172387093305588
v 0.023923484608530998 0.00725709879770875 -0.07146014273166656
v -0.027857381850481033 -0.011086533777415752 -0.08559218794107437
v 0.027857311069965363 -0.011086559854447842 -0.08559220284223557
v -0.022378377616405487 -0.011086535640060902 -0.08559218794107437
v 0.022378303110599518 -0.011086558923125267 -0.08559220284223557
v 0.02876410074532032 -0.008485289290547371 -0.0894852876663208
v -0.02876417338848114 -0.008485260419547558 -0.0894852727651596
v 0.023484032601118088 -0.008485287427902222 -0.0894852876663208
v -0.023484107106924057 -0.008485262282192707 -0.0894852802157402
v -0.02850514091551304 0.009276148863136768 -0.0733872801065445
v 0.028505096212029457 0.009276121854782104 -0.07338729500770569
v -0.02320110984146595 0.009276146069169044 -0.0733872801065445
v 0.02320106513798237 0.009276123717427254 -0.07338728755712509
v 0.023096963763237 0.009567069821059704 -0.07377958297729492
v -0.028254158794879913 -0.009977615438401699 -0.0876668393611908
v 0.028254086151719093 -0.009977642446756363 -0.08766685426235199
v -0.02290285937488079 -0.009977617301046848 -0.08766684681177139
v 0.022902779281139374 -0.009977640584111214 -0.08766685426235199
v -0.028037529438734055 -0.01058303564786911 -0.08665674924850464
v 0.02803746610879898 -0.0105830617249012 -0.08665676414966583
v -0.022616520524024963 -0.010583036579191685 -0.08665675669908524
v 0.022616436704993248 -0.01058305986225605 -0.08665676414966583
v -0.02803751267492771 0.010583077557384968 -0.07534323632717133
v 0.02803746983408928 0.010583052411675453 -0.07534325867891312
v 0.022616438567638397 0.010583053342998028 -0.07534325122833252
v -0.022616492584347725 0.010583075694739819 -0.07534324377775192
v 0.02870817296206951 -0.008708561770617962 -0.08923894912004471
v -0.02850516326725483 -0.009276104159653187 -0.08861271291971207
v -0.02870824933052063 -0.008708534762263298 -0.08923892676830292
v 0.02850509248673916 -0.009276133030653 -0.08861272782087326
v 0.02320106327533722 -0.009276130236685276 -0.08861272782087326
v -0.023201145231723785 -0.00927610695362091 -0.08861272037029266
v -0.023484094068408012 0.00848530326038599 -0.07251472026109695
v 0.028764106333255768 0.008485276252031326 -0.07251472771167755
v 0.023484034463763237 0.00848527904599905 -0.07251473516225815
v -0.0287641491740942 0.00848530512303114 -0.07251472026109695
v -0.028254134580492973 0.009977659210562706 -0.07433315366506577
v 0.02825409173965454 0.009977631270885468 -0.07433316856622696
v -0.02309701219201088 0.009567090310156345 -0.07377957552671432
v 0.022902781143784523 0.009977634996175766 -0.07433316111564636
v -0.02290283888578415 0.009977655485272408 -0.07433315366506577
v 0.028708186000585556 0.008708520792424679 -0.07276105135679245
v -0.028708236292004585 0.008708546869456768 -0.07276102900505066
v -0.023097025230526924 -0.009567083790898323 -0.08822038769721985
v 0.023096948862075806 -0.00956710521131754 -0.08822039514780045
v 0.02898266352713108 -0.007612730376422405 -0.09027613699436188
v -0.028982743620872498 -0.007612699642777443 -0.09027612209320068
v -0.023923544213175774 -0.007257114164531231 -0.0905398428440094
v 0.023796241730451584 -0.007612727582454681 -0.09027614444494247
v -0.023796314373612404 -0.007612702902406454 -0.09027612209320068
v -0.027715086936950684 0.011483306996524334 -0.0775165855884552
v -0.027716413140296936 0.011480509303510189 -0.07750876247882843
v 0.02771635912358761 0.011480484157800674 -0.07750878483057022
v -0.02219070866703987 0.011483305133879185 -0.0775165855884552
v 0.02219066396355629 0.011483282782137394 -0.0775166004896164
v 0.027715034782886505 0.011483280919492245 -0.0775165930390358
v -0.02785736881196499 0.011086576618254185 -0.07640780508518219
v 0.027857311069965363 0.01108655147254467 -0.07640781998634338
v 0.02237830124795437 0.011086552403867245 -0.07640781253576279
v -0.022378353402018547 0.011086573824286461 -0.07640780508518219
v -0.02757974900305271 0.011769444681704044 -0.07865891605615616
v -0.022055378183722496 0.01176944188773632 -0.07865890860557556
v 0.022055327892303467 0.011769421398639679 -0.07865892350673676
v 0.02757970429956913 0.01176941953599453 -0.07865893095731735
v -0.027498023584485054 0.011942239478230476 -0.07982378453016281
v 0.02195371501147747 0.011942215263843536 -0.0798238068819046
v -0.0219537653028965 0.011942237615585327 -0.07982379198074341
v 0.027497977018356323 0.011942212469875813 -0.0798238068819046
v 0.02921959199011326 -0.006666853092610836 -0.09097763150930405
v 0.024071328341960907 -0.0066668507643043995 -0.09097763895988464
v 0.023923475295305252 -0.007257136981934309 -0.0905398577451706
v -0.029219666495919228 -0.006666822358965874 -0.09097762405872345
v -0.024071408435702324 -0.006666825618594885 -0.09097762405872345
v -0.02942359633743763 -0.005852704867720604 -0.09146558493375778
v 0.02204800583422184 0.011784901842474937 -0.07876329123973846
v -0.02204805798828602 0.011784924194216728 -0.07876327633857727
v -0.027498025447130203 0.011942238546907902 -0.08217620104551315
v 0.021953711286187172 0.011942213401198387 -0.08217620104551315
v -0.021953772753477097 0.011942235752940178 -0.08217619359493256
v 0.027497975155711174 0.011942211538553238 -0.08217622339725494
v -0.027470696717500687 0.012000022456049919 -0.08100000023841858
v 0.02191907726228237 0.011999997310340405 -0.08100001513957977
v -0.021919138729572296 0.012000019662082195 -0.08099999278783798
v 0.027470644563436508 0.011999995447695255 -0.08100002259016037
v 0.02961050160229206 -0.0045922123827040195 -0.092086561024189
v -0.02961057610809803 -0.004592180717736483 -0.0920865461230278
v -0.024561958387494087 -0.004592183977365494 -0.0920865535736084
v 0.02456188015639782 -0.004592209588736296 -0.092086561024189
v -0.029855581000447273 -0.0029405090026557446 -0.09261926263570786
v 0.029774976894259453 -0.0034834265243262053 -0.092483289539814
v -0.02977505326271057 -0.0034833960235118866 -0.0924832746386528
v -0.02472642995417118 -0.003483398584648967 -0.0924832820892334
v 0.024726351723074913 -0.003483423963189125 -0.092483289539814
v -0.02988503687083721 -0.0023410639259964228 -0.09276941418647766
v 0.029855504631996155 -0.0029405367095023394 -0.09261927753686905
v -0.0248850267380476 -0.0023410662543028593 -0.09276941418647766
v -0.024879656732082367 -0.0024504251778125763 -0.09274202585220337
v 0.029884956777095795 -0.0023410941939800978 -0.09276942908763885
v 0.0248795785009861 -0.0024504484608769417 -0.09274203330278397
v 0.02488495409488678 -0.002341092098504305 -0.09276942908763885
v -0.02757975272834301 0.01176944375038147 -0.083341084420681
v 0.02204800397157669 0.011784900911152363 -0.08323673158884048
v -0.022048059850931168 0.011784922331571579 -0.08323671668767929
v -0.022055385634303093 0.01176944188773632 -0.083341084420681
v 0.022055327892303467 0.011769420467317104 -0.0833410993218422
v 0.02757970243692398 0.01176941767334938 -0.0833410993218422
v -0.027715083211660385 0.01148330420255661 -0.08448341488838196
v -0.022190717980265617 0.011483302339911461 -0.08448340743780136
v 0.022190658375620842 0.01148327998816967 -0.08448342233896255
v 0.027715036645531654 0.011483278125524521 -0.08448342978954315
v 0.029423518106341362 -0.005852731876075268 -0.09146561473608017
v 0.024324342608451843 -0.005656769499182701 -0.09158306568861008
v 0.02945259027183056 -0.005656772293150425 -0.09158306568861008
v -0.02945265732705593 -0.005656741559505463 -0.09158304333686829
v -0.02432441897690296 -0.005656743887811899 -0.09158305078744888
v -0.024519668892025948 -0.0048772552981972694 -0.09195172041654587
v 0.02451959252357483 -0.004877278581261635 -0.09195174276828766
v -0.029942259192466736 -0.0011761854402720928 -0.09294220805168152
v 0.029942182824015617 -0.0011762161739170551 -0.0929422378540039
v -0.024942247197031975 -0.001176188001409173 -0.09294222295284271
v 0.02494218200445175 -0.0011762137291952968 -0.09294223040342331
v 0.027857311069965363 0.011086547747254372 -0.08559221774339676
v -0.02785736881196499 0.011086573824286461 -0.08559220284223557
v 0.02237829752266407 0.011086549609899521 -0.08559221029281616
v -0.022378357127308846 0.011086571961641312 -0.08559220284223557
v 0.02999996580183506 -1.0547561934970417e-08 -0.09300001710653305
v -0.03000003471970558 2.021253919792798e-08 -0.09299998730421066
v -0.025000033900141716 1.764919588254088e-08 -0.09299999475479126
v 0.024999963119626045 -7.984217731404897e-09 -0.09300000965595245
v -0.027716415002942085 0.011480509303510189 -0.08449122309684753
v 0.02771635726094246 0.011480485089123249 -0.08449123799800873
v -0.02379629947245121 0.007612737827003002 -0.09027612954378128
v 0.023796239867806435 0.007612713146954775 -0.09027613699436188
v 0.02392347902059555 0.0072570969350636005 -0.09053988009691238
v 0.02898266725242138 0.007612709887325764 -0.09027614444494247
v -0.02898273803293705 0.007612741086632013 -0.09027612954378128
v -0.023484092205762863 0.008485300466418266 -0.0894852802157402
v 0.02876410260796547 0.008485273458063602 -0.0894852951169014
v 0.02348402887582779 0.008485275320708752 -0.0894852876663208
v -0.02876417338848114 0.008485302329063416 -0.0894852802157402
v -0.023923542350530624 0.007257120683789253 -0.09053987264633179
v -0.024071400985121727 0.006666861474514008 -0.09097763150930405
v 0.024071328341960907 0.006666836328804493 -0.09097763895988464
v 0.02921959199011326 0.0066668326035141945 -0.09097765386104584
v -0.029219670221209526 0.006666863802820444 -0.09097763150930405
v 0.029942180961370468 0.0011761952191591263 -0.0929422378540039
v -0.024942245334386826 0.0011762233916670084 -0.09294222295284271
v -0.029942262917757034 0.0011762259528040886 -0.09294220805168152
v 0.024942180141806602 0.0011761976638808846 -0.09294223040342331
v -0.028037521988153458 0.010583074763417244 -0.08665676414966583
v 0.028037462383508682 0.01058304775506258 -0.08665677905082703
v 0.0226164348423481 0.010583051480352879 -0.08665677160024643
v -0.022616494446992874 0.010583072900772095 -0.08665676414966583
v 0.02945258840918541 0.005656750872731209 -0.09158308058977127
v 0.024519598111510277 0.004877239000052214 -0.09195175021886826
v -0.024324411526322365 0.005656779278069735 -0.09158305823802948
v -0.029452653601765633 0.005656781606376171 -0.09158305823802948
v 0.024324338883161545 0.005656753201037645 -0.09158306568861008
v 0.02961050532758236 0.004592190962284803 -0.09208657592535019
v -0.02451966516673565 0.0048772613517940044 -0.09195174276828766
v -0.024561943486332893 0.004592218901962042 -0.0920865535736084
v 0.02456188015639782 0.00459219329059124 -0.092086561024189
v -0.029610566794872284 0.004592221695929766 -0.0920865535736084
v 0.029884956777095795 0.0023410739377141 -0.09276943653821945
v -0.024885032325983047 0.002341102110221982 -0.09276942163705826
v -0.02988503687083721 0.0023411044385284185 -0.09276941418647766
v 0.02488495595753193 0.0023410762660205364 -0.09276942908763885
v -0.02942359261214733 0.005852715112268925 -0.09146562963724136
v -0.02487965300679207 0.0024504319299012423 -0.09274203330278397
v 0.024879585951566696 0.002450408646836877 -0.09274204820394516
v -0.029855577275156975 0.0029405199456959963 -0.09261927753686905
v 0.02942352369427681 0.0058526876382529736 -0.09146563708782196
v 0.029774975031614304 0.0034834060352295637 -0.09248330444097519
v 0.029855506494641304 0.0029404922388494015 -0.09261929988861084
v -0.024726426228880882 0.003483433974906802 -0.092483289539814
v 0.024726353585720062 0.003483408596366644 -0.09248330444097519
v -0.029775036498904228 0.0034834365360438824 -0.092483289539814
v -0.028505152091383934 0.009276146069169044 -0.08861272037029266
v 0.02850509248673916 0.009276118129491806 -0.08861274272203445
v -0.023097017779946327 0.009567088447511196 -0.08822042495012283
v -0.023201121017336845 0.00927614327520132 -0.08861271291971207
v 0.02320105955004692 0.00927612092345953 -0.08861272782087326
v -0.02825414389371872 0.009977655485272408 -0.08766684681177139
v 0.028254086151719093 0.009977628476917744 -0.08766686171293259
v 0.023096958175301552 0.00956706888973713 -0.08822043240070343
v 0.022902773693203926 0.009977631270885468 -0.08766685426235199
v -0.02290283888578415 0.009977652691304684 -0.08766684681177139
v 0.02870818041265011 0.008708519861102104 -0.0892389789223671
v -0.028708241879940033 0.008708545938134193 -0.0892389640212059
v -0.015100006945431232 0.019888808950781822 -0.10300000011920929
v -0.015100006014108658 0.022598708048462868 -0.10300000011920929
v -0.015100027434527874 -0.022598713636398315 -0.10300000011920929
v -0.015100028365850449 -0.024014487862586975 -0.10300000011920929
v -0.015100005082786083 0.024014482274651527 -0.10300000756978989
v -0.015100029297173023 -0.025883391499519348 -0.10300000011920929
v -0.0151000265032053 -0.01988881267607212 -0.10300000011920929
v -0.015100004151463509 0.025883391499519348 -0.10300000756978989
v -0.015099998563528061 0.0258833896368742 -0.08100000023841858
v -0.015100020915269852 -0.01988881267607212 -0.08100000023841858
v -0.01510000042617321 0.019888808950781822 -0.08099998533725739
v -0.01510002464056015 -0.0258833859115839 -0.08100001513957977
v 0.015099972486495972 -0.02259879931807518 -0.10300001502037048
v 0.015099970623850822 -0.024014528840780258 -0.10300000756978989
v 0.015099993906915188 0.019888756796717644 -0.10300001502037048
v 0.015099974349141121 -0.01988879218697548 -0.10300001502037048
v 0.015099994838237762 0.022598765790462494 -0.10300001502037048
v 0.015099995769560337 0.02401449717581272 -0.10300001502037048
v 0.015099996700882912 0.025883346796035767 -0.10300001502037048
v -0.015027287416160107 0.025926969945430756 -0.07951993495225906
v -0.015027309767901897 -0.019942734390497208 -0.07951994240283966
v -0.015027289278805256 0.019942734390497208 -0.07951993495225906
v -0.015027312561869621 -0.025926968082785606 -0.07951994240283966
v -0.014449795708060265 0.026273105293512344 -0.07661670446395874
v -0.01444981899112463 -0.020371029153466225 -0.07661671191453934
v -0.014449799433350563 0.020371029153466225 -0.07661669701337814
v -0.014141945168375969 -0.026457637548446655 -0.0757562592625618
v -0.014449821785092354 -0.026273107156157494 -0.07661671191453934
v -0.013317005708813667 0.02684779465198517 -0.07388190180063248
v -0.013317007571458817 0.02112974412739277 -0.07388190180063248
v -0.013317030854523182 -0.021129732951521873 -0.07388190925121307
v -0.013317031785845757 -0.02684778720140457 -0.07388191670179367
v -0.01395057700574398 0.026548141613602638 -0.075221486389637
v -0.013950600288808346 -0.02074127458035946 -0.075221486389637
v -0.013889296911656857 -0.020786738023161888 -0.0750918760895729
v -0.013889278285205364 0.020786741748452187 -0.07509186118841171
v -0.013950580731034279 0.020741278305649757 -0.075221486389637
v -0.01395060308277607 -0.02654813975095749 -0.07522149384021759
v -0.014809854328632355 0.026057295501232147 -0.07805413007736206
v -0.014809878543019295 -0.020103992894291878 -0.07805413752794266
v -0.014809857122600079 0.020103992894291878 -0.07805413007736206
v -0.014809880405664444 -0.02605729177594185 -0.07805414497852325
v -0.008389105089008808 0.023518482223153114 -0.06844480335712433
v -0.008389103226363659 0.02878822758793831 -0.06844480335712433
v -0.008708554320037365 0.028708210214972496 -0.06868172436952591
v -0.008389130234718323 -0.02351849526166916 -0.06844481080770493
v -0.008389132097363472 -0.02878822758793831 -0.06844481825828552
v 0.013950580731034279 0.020741229876875877 -0.0752214789390564
v 0.013889236375689507 0.020786726847290993 -0.07509178668260574
v 0.01388921681791544 -0.020786752924323082 -0.07509179413318634
v 0.013950557447969913 -0.026548130437731743 -0.07522149384021759
v 0.013950561173260212 -0.020741252228617668 -0.075221486389637
v 0.013950583525002003 0.026548104360699654 -0.0752214789390564
v -0.014141920953989029 0.026457641273736954 -0.0757562592625618
v 0.015027289278805256 0.019942687824368477 -0.07951994985342026
v 0.015027265064418316 -0.025926964357495308 -0.07951995730400085
v 0.015027268789708614 -0.019942715764045715 -0.07951995730400085
v 0.01502729207277298 0.025926928967237473 -0.07951994240283966
v 0.014809857122600079 0.020103948190808296 -0.07805414497852325
v 0.014809832908213139 -0.02605728805065155 -0.07805415242910385
v 0.014809836633503437 -0.020103974267840385 -0.07805415242910385
v 0.014809859916567802 0.026057254523038864 -0.07805413752794266
v 0.008389116264879704 0.028788208961486816 -0.06844480335712433
v 0.00838911347091198 0.023518458008766174 -0.06844480335712433
v 0.008708499372005463 -0.02870822139084339 -0.06868170201778412
v 0.008389090187847614 -0.023518487811088562 -0.06844481080770493
v 0.008389088325202465 -0.028788236901164055 -0.06844481825828552
v 0.009579343721270561 0.02309117279946804 -0.06932754069566727
v 0.009567069821059704 0.023096978664398193 -0.06931844353675842
v 0.009579320438206196 -0.023091187700629234 -0.06932755559682846
v 0.009567048400640488 -0.023096997290849686 -0.06931844353675842
v 0.008708526380360126 0.02870820090174675 -0.06868168711662292
v 0.009579317644238472 -0.02839663252234459 -0.06932755559682846
v 0.009579346515238285 0.028396617621183395 -0.06932754814624786
v 0.014141859486699104 -0.02645765244960785 -0.07575615495443344
v 0.014449800364673138 0.020370984449982643 -0.07661671191453934
v 0.014449776150286198 -0.026273099705576897 -0.07661671936511993
v 0.014449778944253922 -0.020371010527014732 -0.07661671936511993
v 0.014141884632408619 0.02645762637257576 -0.07575614005327225
v 0.014449803158640862 0.02627306431531906 -0.07661671191453934
v 0.015099998563528061 0.019888760522007942 -0.08099999278783798
v 0.015099975280463696 -0.025883380323648453 -0.08100001513957977
v 0.01509997807443142 -0.01988878659904003 -0.08100002259016037
v 0.015100001357495785 0.025883350521326065 -0.08099999278783798
v 0.015099969692528248 -0.025883380323648453 -0.10300000756978989
v -0.007118085864931345 0.023958338424563408 -0.06768298149108887
v -0.007257132325321436 0.02392350696027279 -0.06776632368564606
v -0.007257155142724514 -0.023923516273498535 -0.06776632368564606
v -0.007118110544979572 -0.023958345875144005 -0.06768299639225006
v -0.0071180835366249084 0.02910660021007061 -0.06768298894166946
v -0.007118113338947296 -0.029106609523296356 -0.06768299639225006
v -0.0057785422541201115 -0.029434559866786003 -0.06704942882061005
v -0.005778515245765448 0.02429388090968132 -0.06704941391944885
v -0.005778539925813675 -0.02429387718439102 -0.06704942882061005
v -0.005852723494172096 0.029423555359244347 -0.06708450615406036
v -0.005778512917459011 0.0294345635920763 -0.06704941391944885
v -0.005852750036865473 -0.029423562809824944 -0.06708451360464096
v -0.009567124769091606 -0.023096991702914238 -0.06931846588850021
v -0.009579358622431755 -0.023091202601790428 -0.06932754069566727
v -0.009567104279994965 0.02309698611497879 -0.06931846588850021
v -0.00957933533936739 0.02309120073914528 -0.06932754069566727
v -0.009579361416399479 -0.028396639972925186 -0.06932754069566727
v -0.008708581328392029 -0.028708213940262794 -0.0686817318201065
v -0.00957933347672224 0.028396639972925186 -0.06932753324508667
v -0.004383292980492115 0.02459290251135826 -0.06655020266771317
v -0.0048772734589874744 0.024519627913832664 -0.06672694534063339
v -0.004383319988846779 -0.02964152581989765 -0.06655021011829376
v -0.004383317660540342 -0.02459290623664856 -0.06655021011829376
v -0.004383290186524391 0.02964152581989765 -0.06655019521713257
v -0.011672452092170715 0.027625607326626778 -0.07142064720392227
v -0.011784937232732773 0.02204803004860878 -0.07157231122255325
v -0.011784959584474564 -0.02204803377389908 -0.07157233357429504
v -0.01167247910052538 -0.027625611051917076 -0.07142066210508347
v -0.011672455817461014 0.022101230919361115 -0.07142065465450287
v -0.01167247723788023 -0.022101232782006264 -0.07142066210508347
v -0.011480545625090599 -0.027716388925909996 -0.0712088942527771
v 0.0071180714294314384 -0.02395833469927311 -0.06768300384283066
v 0.005852696485817432 0.029423551633954048 -0.06708449870347977
v 0.007118098437786102 0.029106583446264267 -0.06768298894166946
v 0.007118096109479666 0.023958323523402214 -0.06768298894166946
v 0.007118068635463715 -0.029106592759490013 -0.06768300384283066
v 0.0072570787742733955 -0.023923518136143684 -0.06776631623506546
v 0.007257102522999048 0.02392350509762764 -0.06776630878448486
v -0.01255518663674593 0.027208108454942703 -0.07261089235544205
v -0.012555188499391079 0.02158636599779129 -0.07261089235544205
v -0.01255521085113287 -0.02158636599779129 -0.07261089980602264
v -0.012555213645100594 -0.027208101004362106 -0.07261089980602264
v -0.010677307844161987 0.02800378017127514 -0.0703226774930954
v -0.010677332058548927 -0.022571898996829987 -0.070322684943676
v -0.010677309706807137 0.022571898996829987 -0.070322684943676
v -0.010677333921194077 -0.02800378017127514 -0.07032269984483719
v -0.011480520479381084 0.027716385200619698 -0.0712088868021965
v 0.010677315294742584 0.0225718691945076 -0.070322684943676
v 0.010677292011678219 -0.02257188782095909 -0.07032269984483719
v 0.010677317157387733 0.02800375409424305 -0.07032269984483719
v 0.01067729014903307 -0.028003768995404243 -0.07032269984483719
v 8.074876767238948e-09 0.029999999329447746 -0.06589999049901962
v -2.2442550928758465e-08 -0.030000006780028343 -0.06590001285076141
v 5.5317599390036776e-09 0.02499999664723873 -0.06589999049901962
v -1.9899433212344775e-08 -0.025000011548399925 -0.06590001285076141
v -0.0014800813514739275 -0.029927287250757217 -0.0659727230668068
v -0.0014800535282120109 0.024927286431193352 -0.0659727081656456
v -0.0014800787903368473 -0.024927301332354546 -0.0659727230668068
v -0.0014800508506596088 0.029927289113402367 -0.0659727081656456
v -0.0029458580538630486 0.024806128814816475 -0.06619014590978622
v -0.002940554404631257 -0.029855545610189438 -0.06618937104940414
v -0.0029458836652338505 -0.024806132540106773 -0.06619016081094742
v -0.0024504666216671467 -0.02487962320446968 -0.06611666083335876
v -0.0029458862263709307 -0.029854748398065567 -0.06619016081094742
v -0.0029458559583872557 0.029854748398065567 -0.06619013845920563
v -0.002940526930615306 0.02985553815960884 -0.06618934869766235
v -0.0024504431057721376 0.024879617616534233 -0.06611664593219757
v 0.001480066915974021 0.029927287250757217 -0.0659727081656456
v 0.0014800643548369408 0.024927284568548203 -0.0659727081656456
v 0.0014800388598814607 -0.024927297607064247 -0.0659727230668068
v 0.0014800362987443805 -0.029927290976047516 -0.0659727230668068
v 0.011784900911152363 0.022048022598028183 -0.07157226651906967
v 0.011672460474073887 0.022101202979683876 -0.07142066210508347
v 0.011672437191009521 -0.02210121601819992 -0.07142066955566406
v 0.011784880422055721 -0.022048041224479675 -0.07157227396965027
v 0.011672435328364372 -0.02762560360133648 -0.07142066955566406
v 0.011672462336719036 0.02762557752430439 -0.07142065465450287
v 0.012555169872939587 -0.02158634178340435 -0.07261089980602264
v 0.012555168941617012 -0.027208097279071808 -0.07261090725660324
v 0.012555192224681377 0.021586325019598007 -0.07261089980602264
v 0.012555194087326527 0.027208078652620316 -0.07261089235544205
v 0.0024503907188773155 -0.02487962692975998 -0.06611666083335876
v 0.002450414001941681 0.024879610165953636 -0.06611663848161697
v 0.002945871790871024 0.02985473722219467 -0.06619013845920563
v 0.0029405017849057913 0.029855534434318542 -0.06618934124708176
v 0.00294047431088984 -0.029855551198124886 -0.06618936359882355
v 0.002945841522887349 -0.02985474467277527 -0.06619016081094742
v 0.0029458440840244293 -0.024806125089526176 -0.06619016081094742
v 0.0029458696953952312 0.02480611763894558 -0.06619014590978622
v 0.011480488814413548 0.02771637588739395 -0.07120884209871292
v 0.011480463668704033 -0.027716396376490593 -0.07120886445045471
v 0.00438330601900816 0.029641514644026756 -0.06655019521713257
v 0.004383276216685772 -0.02964152581989765 -0.06655021011829376
v 0.0043832785449922085 -0.024592921137809753 -0.06655021011829376
v 0.004383303225040436 0.024592893198132515 -0.06655019521713257
v 0.0057784998789429665 -0.02429387718439102 -0.06704943627119064
v 0.00577852688729763 0.029434554278850555 -0.06704942137002945
v 0.005778497084975243 -0.029434559866786003 -0.06704943627119064
v 0.005778524558991194 0.024293866008520126 -0.06704942137002945
v 0.004877243656665087 0.024519624188542366 -0.0667269378900528
v 0.004877220839262009 -0.02451963908970356 -0.06672694534063339
v 0.013316991738975048 -0.021129729226231575 -0.07388191670179367
v 0.013316988945007324 -0.026847785338759422 -0.07388192415237427
v 0.013317013159394264 0.021129705011844635 -0.07388191670179367
v 0.013317015022039413 0.026847761124372482 -0.07388191670179367
v -0.004877295810729265 -0.02451963536441326 -0.06672695279121399
v 0.0058526694774627686 -0.029423566535115242 -0.06708451360464096
usemtl Alu
f 22 496 495 23
f 51 9 50
f 1 501 503 2
f 42 492 508
f 19 59 60
f 42 494 492
f 2 43 3
f 41 493 494 42
f 41 80 491 493
f 40 80 41
f 26 66 27
f 20 506 504 21
f 43 44 3
f 39 78 40
f 5 4 45
f 44 45 3
f 25 64 26
f 78 38 77
f 6 5 47
f 23 62 24
f 47 5 46
f 28 68 29
f 7 6 47
f 78 39 38
f 36 75 76
f 48 7 47
f 75 36 74
f 8 7 49
f 17 57 58
f 34 74 35
f 49 9 8
f 34 73 74
f 50 9 49
f 33 73 34
f 10 9 51
f 33 72 73
f 24 64 25
f 72 33 71
f 11 10 52
f 76 38 37
f 31 71 32
f 31 70 71
f 11 52 12
f 71 33 32
f 31 69 70
f 54 12 53
f 30 69 31
f 54 13 12
f 30 68 69
f 55 13 54
f 29 68 30
f 55 14 13
f 67 68 28
f 14 55 15
f 49 7 48
f 28 66 67
f 57 15 56
f 27 66 28
f 57 16 15
f 65 66 26
f 16 57 17
f 64 65 26
f 40 78 79
f 77 38 76
f 18 59 19
f 63 64 24
f 17 59 18
f 17 58 59
f 76 37 36
f 62 63 24
f 52 10 51
f 19 60 61
f 40 79 80
f 19 61 20
f 74 36 35
f 46 5 45
f 20 61 499 506
f 21 504 505
f 21 505 514
f 3 45 4
f 82 123 81
f 15 55 56
f 12 52 53
f 108 109 148
f 83 124 82
f 123 160 122
f 84 126 83
f 124 123 82
f 85 126 84
f 160 121 122
f 119 158 157
f 160 159 121
f 123 122 81
f 86 87 128
f 125 124 83
f 118 119 156
f 87 88 129
f 158 119 120
f 100 140 139
f 117 118 156
f 94 134 133
f 117 156 155
f 126 85 127
f 107 108 147
f 88 89 130
f 116 117 155
f 116 155 154
f 98 139 138
f 128 87 129
f 115 116 154
f 112 1031 1030
f 129 88 130
f 95 96 136
f 85 86 128
f 130 89 131
f 114 115 152
f 91 132 90
f 131 89 132
f 111 112 151
f 152 1013 1014 113
f 109 110 149
f 106 107 147
f 152 113 114
f 92 1025 1026
f 158 120 121
f 110 111 151
f 119 157 156
f 98 138 137
f 151 112 1029 1027
f 115 153 152
f 93 94 133
f 150 110 151
f 92 93 133
f 92 133 1028 1025
f 149 110 150
f 94 135 134
f 115 154 153
f 148 109 149
f 94 95 135
f 147 108 148
f 95 136 135
f 146 106 147
f 127 85 128
f 145 106 146
f 96 137 136
f 99 100 139
f 96 97 137
f 144 143 104
f 97 98 137
f 104 105 145
f 89 90 132
f 143 142 103
f 144 104 145
f 139 98 99
f 142 101 102
f 141 140 100
f 141 100 101
f 106 145 105
f 126 125 83
f 142 141 101
f 104 143 103
f 159 158 121
f 103 142 102
f 23 24 110 109
f 24 25 111 110
f 25 26 112 111
f 26 27 1091 1092 1074 1070 1096 1031 112
f 27 28 299 295 276 282 286 237 268 219 223 1187 1174 1178 1202 1065 1091
f 28 29 325 320 331 327 301 299
f 29 30 384 385 369 335 325
f 30 31 412 413 380 374 384
f 31 32 421 425 394 412
f 32 33 468 463 445 421
f 33 34 467 454 459 473 468
f 34 35 488 436 431 440 467
f 62 490 510 532 519 528 609 608 148 149
f 35 36 430 419 451 484 480 488
f 63 62 149 150
f 36 37 1066 1045 1041 1136 1122 1144 352 353 357 365 361 401 406 392 430
f 64 63 150 151
f 37 38 113 1020 1021 1032 1051 1036 1066
f 65 64 151 1027 1093 1067 1071 1088 1060 1061
f 38 39 114 113
f 66 65 1061 1201 1177 1169 269 238 287 283 277
f 39 40 115 114
f 67 66 277 278 296 302 328 332 340
f 40 41 116 115
f 68 67 340 321 336 371 370
f 41 42 117 116
f 1 2 88 87
f 69 68 370 386 375 379
f 42 508 507 530 517 526 618 118 117
f 2 3 89 88
f 70 69 379 383 416 411
f 3 4 90 89
f 71 70 411 397 428 424
f 4 5 91 90
f 72 71 424 447 465 470
f 5 6 1039 1040 1054 1035 1024 1018 91
f 73 72 470 476 462 461
f 6 7 429 391 405 400 360 364 356 351 349 1128 1125 1139 1044 1050 1039
f 74 73 461 456 443 442
f 7 8 487 479 482 449 417 429
f 75 74 442 433 438 478 477
f 8 9 471 441 432 437 487
f 76 75 477 483 450 418 390 403 404
f 9 10 475 474 460 455 471
f 77 76 404 399 359 363 367 1123 1137 1042 1048
f 10 11 423 448 466 475
f 78 77 1048 1049 1038 1053 1034 1023 1013 152
f 11 12 410 396 427 423
f 79 78 152 153
f 12 13 378 377 382 415 410
f 80 79 153 154
f 13 14 338 339 373 388 378
f 43 500 516 551 537 573 580 587 129 130
f 14 15 300 304 330 334 324 338
f 44 43 130 131
f 15 16 1087 1063 1200 1176 1173 1188 224 221 271 239 288 284 279 297 300
f 45 44 131 132
f 16 17 92 1097 1094 1068 1072 1089 1087
f 46 45 132 1019 1022 1033 1052 1037 1046 1047
f 17 18 93 92
f 47 46 1047 1043 1138 1124 368 366 362 402 407
f 18 19 94 93
f 48 47 407 408 393 420 452 485 486
f 19 20 95 94
f 49 48 486 481 439 435 434
f 20 21 96 95
f 50 49 434 444 457 453
f 21 514 513 549 535 572 578 97 96
f 51 50 453 458 472 469
f 52 51 469 464 446 422
f 53 52 422 426 395 409
f 54 53 409 414 381 389
f 55 54 389 376 387 398
f 56 55 398 372 337 322 323
f 57 56 323 333 329 303 298 280 281
f 58 57 281 285 289 240 273 1172 1175 1199 1062
f 59 58 1062 1064 1090 1073 1069 1095 1028 133
f 60 59 133 134
f 61 60 134 135
f 22 23 109 108
f 417 420 393 391 429
f 418 419 430 392 390
f 192 191 184 182 183
f 193 190 179 181 195
f 349 345 341 313 307 326 1115 1114 1143 1128
f 345 348 344 341
f 346 347 343 342
f 284 285 281 280 279
f 283 282 276 278 277
f 223 225 161 196 201 166 1084 1086 1147 1187
f 230 234 252 253 1160 1155 1152
f 297 298 303 304 300
f 296 295 299 301 302
f 242 267 262 294 1100 1101 1106 1203
f 324 322 337 339 338
f 321 320 325 335 336
f 334 333 323 322 324
f 332 331 320 321 340
f 448 446 464 466
f 447 445 463 465
f 206 205 200 164 228 224 1188 1148 1085 1077
f 388 387 376 377 378
f 386 385 384 374 375
f 482 485 452 449
f 483 484 451 450
f 249 247 253 252 257 256
f 250 248 246 251 254 255
f 330 329 333 334
f 328 327 331 332
f 173 171 168 169
f 172 170 165 167
f 231 176 211 216 1183 1168 1150
f 244 241 247 249
f 245 243 248 250
f 351 354 348 345 349
f 350 353 352 347 346
f 178 172 167 202 203 1081 1076 1135
f 255 254 235 232 1151 1154 1164
f 259 262 267 265 264
f 261 258 275 263 266
f 339 337 372 373
f 336 335 369 371
f 294 293 319 309 310 1110 1058 1100
f 373 372 398 387 388
f 371 369 385 386 370
f 195 181 186 178 1135 1132 1196 1197
f 210 209 175 230 1152 1167 1179
f 197 204 168 171 194 1134 1078 1083
f 184 191 215 210 1179 1185 1191 1198
f 228 227 222 221 224
f 226 225 223 219 220
f 257 252 234 236
f 254 251 233 235
f 188 189 173 169 206 1077 1079 1133 1204
f 449 452 420 417
f 450 451 419 418
f 205 204 197 199 200
f 202 201 196 198 203
f 391 393 408 405
f 390 392 406 403
f 396 395 426 427
f 397 394 425 428
f 405 408 407 402 400
f 403 406 401 399 404
f 265 267 242 241 244
f 266 263 243 245 274
f 221 222 272 271
f 220 219 268 270
f 341 344 315 313
f 342 343 314 311
f 305 308 314 343 347 352 1144 1140 1116 1057
f 312 306 318 292 260 1099 1055 1112
f 217 215 191 192
f 218 214 190 193
f 164 163 227 228
f 162 161 225 226
f 313 315 310 309 307
f 311 314 308 306 312
f 256 257 236 231 1150 1153 1158
f 479 481 486 485 482
f 478 480 484 483 477
f 326 317 291 259 264 1109 1103 1059 1115
f 212 218 193 195 1197 1192 1186 1180
f 423 422 446 448
f 424 421 445 447
f 264 265 244 249 256 1158 1161 1119 1104 1109
f 253 247 241 242 1203 1120 1159 1160
f 211 209 210 215 217 216
f 213 208 207 214 218 212
f 271 272 273 240 239
f 270 268 237 238 269
f 229 233 251 246 1163 1156 1149
f 291 293 294 262 259
f 292 290 258 261 260
f 246 248 243 263 275 1107 1108 1121 1162 1163
f 317 319 293 291
f 318 316 290 292
f 304 303 329 330
f 302 301 327 328
f 275 258 290 316 305 1057 1056 1102 1107
f 382 381 414 415
f 383 380 413 416
f 180 179 190 214 207 1182 1181 1189 1194 1130
f 232 177 213 212 1180 1166 1151
f 427 426 422 423
f 428 425 421 424
f 307 309 319 317 326
f 306 308 305 316 318
f 194 187 182 184 1198 1193 1129 1134
f 367 355 350 346 342 311 312 1112 1113 1142 1126 1123
f 460 458 453 457 455
f 462 459 454 456 461
f 437 439 481 479 487
f 438 436 488 480 478
f 236 234 230 231
f 235 233 229 232
f 466 464 469 472 474 475
f 465 463 468 473 476 470
f 415 414 409 395 396 410
f 416 413 412 394 397 411
f 288 289 285 284
f 287 286 282 283
f 310 315 344 348 354 358 368 1124 1127 1141 1111 1110
f 216 217 192 183 188 1204 1195 1190 1184 1183
f 279 280 298 297
f 278 276 295 296
f 231 230 175 176
f 232 229 174 177
f 441 444 434 435 432
f 443 440 431 433 442
f 189 187 194 171 173
f 186 185 170 172 178
f 207 208 174 229 1149 1165 1182
f 183 182 187 189 188
f 181 179 180 185 186
f 169 168 204 205 206
f 167 165 166 201 202
f 455 457 444 441 471
f 456 454 467 440 443
f 176 175 209 211
f 177 174 208 213
f 364 366 368 358 356
f 363 365 357 355 367
f 200 199 163 164
f 198 196 161 162
f 239 240 289 288
f 238 237 286 287
f 400 402 362 360
f 399 401 361 359
f 474 472 458 460
f 476 473 459 462
f 377 376 389 381 382
f 375 374 380 383 379
f 274 245 250 255 1164 1157 1117 1118
f 356 358 354 351
f 355 357 353 350
f 432 435 439 437
f 433 431 436 438
f 260 261 266 274 1118 1105 1098 1099
f 273 272 222 227 163 199 197 1083 1082 1146 1171 1172
f 360 362 366 364
f 359 361 365 363
f 166 165 170 185 180 1130 1131 1075 1084
f 203 198 162 226 220 270 269 1169 1170 1145 1080 1081
f 576 580 573 570 574
f 579 577 578 572 571
f 542 525 594 862 835 856 820 811
f 530 533 520 517
f 532 531 518 519
f 526 529 610 606 618
f 528 527 624 607 609
f 674 633 629 649 588 802 797 777 783 787
f 619 623 605 602 617
f 622 620 621 604 603
f 641 637 597 596 696 695 700 701
f 677 682 659 739 713 731 744
f 555 556 582 575 755 751 709 724 719 730
f 663 666 626 623 619
f 665 664 620 622 625
f 682 680 656 657 658 659
f 681 683 661 662 660 684
f 679 639 644 662 661 742 735 704 699 718
f 521 525 542 541 540
f 523 524 543 538 539
f 566 569 670 667
f 568 567 668 669
f 612 615 666 663
f 614 613 664 665
f 675 681 684 741 716 734 746
f 672 651 675 746 760 772 789
f 502 501 1
f 554 553 581 560 561 782 768 750 754 712 727 728
f 588 543 524 593 865 857 822 794 802
f 495 490 62 23
f 489 497 22
f 600 599 638 635 705 703 698 693
f 616 598 545 555 730 686 690 697 717
f 659 658 642 636 616 717 702 706 736 739
f 602 605 595 589
f 603 604 592 591
f 589 595 594 525 521 522
f 591 592 593 524 523 590
f 558 547 600 693 692 688 722 721
f 590 523 539 824 821 858 836 837
f 656 680 676 745 733 714 740
f 512 516 500 503 501 502 498
f 515 513 514 505 504 506 499
f 522 521 540 647 792 795 823 859 866
f 498 502 1
f 667 670 587 580 576
f 669 668 577 579 586
f 570 573 537 534
f 571 572 535 536
f 596 544 554 728 723 687 691 696
f 631 634 655 654 652 673
f 632 633 674 653 651 672
f 534 537 551 548
f 536 535 549 550
f 539 538 646 671 796 801 793 824
f 647 648 627 631 673 790 786 780 800 792
f 661 683 678 743 732 715 742
f 676 654 655 788 771 758 745
f 562 563 564 569 566
f 560 565 567 568 561
f 621 620 664 613 607 624 107 106 954 933 929 903 907 891 887 879 876
f 645 650 541 542 811 791 799 798
f 564 563 583 557 558 721 726 711 753 748 766 781
f 594 595 605 623 626 899 885 877 883 849 864 862
f 552 546 601 679 718 694 689 685 729
f 677 676 680 682
f 675 678 683 681
f 655 634 630 645 798 778 784 788
f 509 510 490 495 496 497 489
f 511 507 508 492 494 493 491
f 608 614 665 625 898 889 905 901 925 147 148
f 678 653 674 787 769 757 743
f 618 606 612 663 619 617 875 874 884 888 904 900 924 930 953 119 118
f 606 610 611 615 612
f 609 607 613 614 608
f 648 650 645 630 627
f 646 649 629 628 671
f 575 562 566 667 576 574 86 85 818 814 807 803 761 773 765 747 755
f 587 670 569 564 781 774 762 804 812 128 129
f 652 654 676 677
f 651 653 678 675
f 593 592 604 621 876 881 847 861 834 865
f 617 602 589 522 866 833 860 846 880 875
f 636 638 599 598 616
f 637 639 679 601 597
f 582 583 563 562 575
f 581 584 585 565 560
f 627 630 634 631
f 628 629 633 632
f 658 657 640 642
f 660 662 644 643
f 507 511 533 530
f 510 509 531 532
f 624 527 518 531 509 489 22 108 107
f 578 577 668 567 565 585 756 749 767 776 764 806 809 816 819 98 97
f 517 520 529 526
f 519 518 527 528
f 545 547 558 557 556 555
f 544 546 552 559 553 554
f 671 628 632 672 789 785 779 796
f 611 610 529 520 533 511 491 80 154 155
f 598 599 600 547 545
f 597 601 546 544 596
f 585 584 559 552 729 720 725 710 752 756
f 625 622 603 591 590 837 863 848 882 878 886 898
f 548 551 516 512
f 550 549 513 515
f 642 640 635 638 636
f 643 644 639 637 641
f 540 541 650 648 647
f 538 543 588 649 646
f 497 496 22
f 586 579 571 536 550 515 499 61 135 136
f 561 568 669 586 136 137 813 805 763 775 782
f 556 557 583 582
f 553 559 584 581
f 503 500 43 2
f 626 666 615 611 155 156 926 902 906 890 899
f 673 652 677 744 759 770 790
f 684 660 643 641 701 707 738 741
f 574 570 534 548 512 498 1 87 86
f 635 640 657 656 740 737 708 705
f 920 919 943 951 123 124
f 819 826 843 839 853 850 99 98
f 945 947 932 933 954
f 948 946 953 930 931
f 918 921 942 949 102 101
f 704 707 701 700 699
f 708 706 702 703 705
f 881 882 848 847
f 883 880 846 849
f 806 805 813 810 809
f 804 803 807 808 812
f 816 817 828 826 819
f 815 814 818 825 827
f 853 854 831 829 850
f 855 851 852 830 832
f 839 841 868 854 853
f 840 838 851 855 867
f 922 916 911 940 140 141
f 969 972 990 987
f 970 971 989 988
f 957 966 981 978 144 145
f 934 936 908 913 918 101 100
f 950 941 917 912 82 81
f 892 893 935 936 934
f 896 895 897 937 938
f 1007 1009 975 974
f 1010 1006 973 976
f 783 785 789 772 769 787
f 784 786 790 770 771 788
f 843 845 841 839
f 844 842 838 840
f 997 996 982 977 995 104 103
f 1003 1010 976 948 931 927 926 156 157
f 689 691 687 685
f 692 690 686 688
f 777 779 785 783
f 778 780 786 784
f 1012 963 959 968 991 121 120
f 879 878 882 881 876
f 877 874 875 880 883
f 952 944 923 922 141 142
f 794 793 801 797 802
f 791 795 792 800 799
f 953 946 973 1006 1001 1012 120 119
f 993 990 972 952 142 143
f 964 955 960 1004 1003 157 158
f 829 831 872 869
f 832 830 870 873
f 939 910 915 920 124 125
f 869 872 894 893 892
f 873 870 895 896 871
f 850 829 869 892 934 100 99
f 752 754 750 749 756
f 753 751 755 747 748
f 871 896 938 939 125 126
f 769 772 760 757
f 771 770 759 758
f 897 895 870 830 852 84 83
f 974 975 947 945
f 976 973 946 948
f 894 872 831 854 868 138 139
f 720 723 728 727 725
f 722 719 724 726 721
f 933 932 928 929
f 931 930 924 927
f 921 923 944 942
f 919 917 941 943
f 929 928 925 901 903
f 927 924 900 902 926
f 797 801 796 779 777
f 799 800 780 778 798
f 749 750 768 767
f 748 747 765 766
f 847 848 863 861
f 849 846 860 864
f 735 738 707 704
f 737 736 706 708
f 710 712 754 752
f 711 709 751 753
f 861 863 837 836 834
f 864 860 833 835 862
f 1002 1005 1008 1009 1007
f 1004 1001 1006 1010 1003
f 852 851 838 842 825 818 85 84
f 991 980 986 1000 994 122 121
f 949 952 972 969
f 951 950 971 970
f 995 967 958 961 1011 105 104
f 715 716 741 738 735 742
f 714 713 739 736 737 740
f 868 841 845 828 817 810 813 137 138
f 767 768 782 775 776
f 766 765 773 774 781
f 822 821 824 793 794
f 820 823 795 791 811
f 857 858 821 822
f 856 859 823 820
f 826 828 845 843
f 827 825 842 844
f 1011 1002 1007 974 945 954 106 105
f 908 911 916 913
f 910 909 914 915
f 1008 1005 962 956 957 145 146
f 912 914 909 937 897 83 82
f 942 944 952 949
f 943 941 950 951
f 834 836 858 857 865
f 835 833 866 859 856
f 949 969 987 997 103 102
f 982 985 978 981 977
f 984 986 980 979 983
f 961 962 1005 1002 1011
f 960 963 1012 1001 1004
f 812 808 815 827 844 840 867 127 128
f 757 760 746 743
f 758 759 744 745
f 987 990 993 999 996 997
f 988 989 994 1000 998 992
f 913 916 922 923 921 918
f 915 914 912 917 919 920
f 764 763 805 806
f 762 761 803 804
f 940 935 893 894 139 140
f 809 810 817 816
f 808 807 814 815
f 743 746 734 732
f 745 744 731 733
f 967 966 957 956 958
f 965 968 959 955 964
f 694 695 696 691 689
f 698 697 690 692 693
f 699 700 695 694 718
f 703 702 717 697 698
f 685 687 723 720 729
f 688 686 730 719 722
f 977 981 966 967 995
f 979 980 991 968 965
f 732 734 716 715
f 733 731 713 714
f 994 989 971 950 81 122
f 992 998 984 983 159 160
f 867 855 832 873 871 126 127
f 891 889 898 886 887
f 890 888 884 885 899
f 725 727 712 710
f 726 724 709 711
f 983 979 965 964 158 159
f 776 775 763 764
f 774 773 761 762
f 903 901 905 907
f 902 900 904 906
f 996 999 985 982
f 998 1000 986 984
f 936 935 940 911 908
f 938 937 909 910 939
f 887 886 878 879
f 885 884 874 877
f 958 956 962 961
f 955 959 963 960
f 978 985 999 993 143 144
f 951 970 988 992 160 123
f 925 928 932 947 975 1009 1008 146 147
f 907 905 889 891
f 906 904 888 890
f 1178 1177 1201 1202
f 1175 1176 1200 1199
f 1036 1038 1049 1045 1066
f 1037 1040 1039 1050 1046
f 1147 1145 1170 1174 1187
f 1146 1148 1188 1173 1171
f 1165 1166 1180 1186 1181 1182
f 1167 1168 1183 1184 1185 1179
f 1045 1049 1048 1042 1041
f 1046 1050 1044 1043 1047
f 1018 1016 91
f 1116 1113 1112 1055 1056 1057
f 1111 1114 1115 1059 1058 1110
f 1065 1060 1088 1092 1091
f 1064 1063 1087 1089 1090
f 1026 1097 92
f 1017 1020 113
f 1016 1015 91
f 1051 1053 1038 1036
f 1052 1054 1040 1037
f 1015 1019 132 91
f 1075 1076 1081 1080 1086 1084
f 1078 1079 1077 1085 1082 1083
f 1070 1067 1093 1096
f 1069 1068 1094 1095
f 1162 1157 1164 1154 1156 1163
f 1159 1161 1158 1153 1155 1160
f 1156 1154 1151 1149
f 1155 1153 1150 1152
f 1149 1151 1166 1165
f 1152 1150 1168 1167
f 1102 1098 1105 1108 1107
f 1101 1103 1109 1104 1106
f 1108 1105 1118 1117 1121
f 1106 1104 1119 1120 1203
f 1189 1192 1197 1196 1194
f 1191 1190 1195 1193 1198
f 1136 1137 1123 1126 1122
f 1138 1139 1125 1127 1124
f 1074 1071 1067 1070
f 1073 1072 1068 1069
f 1174 1170 1169 1177 1178
f 1171 1173 1176 1175 1172
f 1056 1055 1099 1098 1102
f 1058 1059 1103 1101 1100
f 1131 1132 1135 1076 1075
f 1129 1133 1079 1078 1134
f 1202 1201 1061 1060 1065
f 1199 1200 1063 1064 1062
f 1194 1196 1132 1131 1130
f 1193 1195 1204 1133 1129
f 1096 1093 1027 1029 1030 1031
f 1095 1094 1097 1026 1025 1028
f 1122 1126 1142 1140 1144
f 1127 1125 1128 1143 1141
f 1030 1029 112
f 1181 1186 1192 1189
f 1185 1184 1190 1191
f 1086 1080 1145 1147
f 1082 1085 1148 1146
f 1041 1042 1137 1136
f 1043 1044 1139 1138
f 1021 1023 1034 1032
f 1022 1024 1035 1033
f 1024 1022 1019 1015 1016 1018
f 1023 1021 1020 1017 1014 1013
f 1092 1088 1071 1074
f 1090 1089 1072 1073
f 1121 1117 1157 1162
f 1120 1119 1161 1159
f 1014 1017 113
f 1140 1142 1113 1116
f 1141 1143 1114 1111
f 1032 1034 1053 1051
f 1033 1035 1054 1052
