mtllib Cube_008.mtl
v 0.054999999701976776 -0.060000013560056686 0.10499995201826096
v 0.054999999701976776 -0.060000013560056686 0.17499996721744537
v -0.05500000715255737 -0.05999999865889549 0.10499995201826096
v -0.05500000715255737 -0.05999999865889549 0.17499996721744537
v 0.05500000715255737 0.05999999865889549 0.10499995201826096
v 0.05500000715255737 0.05999999865889549 0.17499996721744537
v -0.054999999701976776 0.060000013560056686 0.10499995201826096
v -0.054999999701976776 0.060000013560056686 0.17499996721744537
v 0.09182249754667282 0.04554908350110054 0.15926142036914825
v 0.09182249009609222 -0.0578177236020565 0.16559070348739624
v 0.09182249009609222 -0.05625295266509056 0.2008272409439087
v 0.09182249009609222 -0.0578177236020565 0.19899514317512512
v 0.09182249009609222 -0.05907661095261574 0.1969408094882965
v 0.09182249009609222 -0.05999864265322685 0.19471484422683716
v 0.09182249009609222 -0.058220766484737396 0.1920013576745987
v 0.09182249009609222 -0.06056109815835953 0.17221380770206451
v 0.09182249754667282 -0.045302990823984146 0.16162364184856415
v 0.09182249009609222 -0.04779775068163872 0.1594504565000534
v 0.09182250499725342 0.056406229734420776 0.2008272409439087
v 0.09182250499725342 0.06071439012885094 0.17221380770206451
v 0.09182250499725342 0.05922989919781685 0.16764503717422485
v 0.09182249009609222 -0.05442085489630699 0.20239199697971344
v 0.09182249009609222 -0.06056109815835953 0.19237203896045685
v 0.09182249009609222 -0.05442085489630699 0.16219384968280792
v 0.09182250499725342 0.05457413196563721 0.16219384968280792
v 0.09182250499725342 0.056406229734420776 0.16375860571861267
v 0.09182250499725342 0.05922989919781685 0.1969408094882965
v 0.09182250499725342 0.04795103520154953 0.20513539016246796
v 0.09182249009609222 -0.049408335238695145 0.16226646304130554
v 0.09182249754667282 -0.045302990823984146 0.2029622197151184
v 0.09182249754667282 0.04554908350110054 0.2053244262933731
v 0.09182249754667282 -0.045395806431770325 0.2053244262933731
v 0.09182249009609222 -0.04779775068163872 0.20513539016246796
v 0.09182249009609222 -0.05014055222272873 0.20457293093204498
v 0.09182249009609222 -0.05236652120947838 0.20365090668201447
v 0.05520833283662796 -0.05999864265322685 0.19471484422683716
v 0.09182249009609222 -0.06075013428926468 0.18997009098529816
v 0.09182249009609222 -0.06075013428926468 0.1746157556772232
v 0.09182249009609222 -0.05999864265322685 0.1698710173368454
v 0.09182249009609222 -0.05907661095261574 0.16764503717422485
v 0.09182249009609222 -0.05625295266509056 0.16375860571861267
v 0.09182249009609222 -0.05236652120947838 0.1609349399805069
v 0.09182249009609222 -0.05014055222272873 0.16001293063163757
v 0.09182249754667282 -0.045395806431770325 0.15926142036914825
v 0.09182250499725342 0.04795103520154953 0.1594504565000534
v 0.09182250499725342 0.05029382184147835 0.16001293063163757
v 0.09182250499725342 0.052519798278808594 0.1609349399805069
v 0.09182250499725342 0.05797100067138672 0.16559070348739624
v 0.09182250499725342 0.06015191227197647 0.1698710173368454
v 0.05520834028720856 0.06090341508388519 0.18997009098529816
v 0.09182250499725342 0.06090341508388519 0.1746157556772232
v 0.09182250499725342 0.06071439012885094 0.19237203896045685
v 0.09182250499725342 0.06090341508388519 0.18997009098529816
v 0.09182250499725342 0.06015191227197647 0.19471484422683716
v 0.09182250499725342 0.05797100067138672 0.19899514317512512
v 0.09182250499725342 0.05457413196563721 0.20239199697971344
v 0.09182250499725342 0.052519798278808594 0.20365090668201447
v 0.09182250499725342 0.05029382184147835 0.20457293093204498
v 0.0894603282213211 -0.01613500714302063 0.18167611956596375
v 0.0894603282213211 -0.01729927957057953 0.1818748116493225
v 0.0894603282213211 -0.017721109092235565 0.1826743483543396
v 0.0894603282213211 -0.01745401881635189 0.18353796005249023
v 0.0894603282213211 -0.016955148428678513 0.1838913857936859
v 0.0894603282213211 -0.016654491424560547 0.18395978212356567
v 0.0894603282213211 -0.017652710899710655 0.18237368762493134
v 0.0894603282213211 -0.0156361423432827 0.18202954530715942
v 0.0894603282213211 -0.01770935021340847 0.1829824447631836
v 0.08827921748161316 -0.046501316130161285 0.16650672256946564
v 0.08827921748161316 -0.025930700823664665 0.16976478695869446
v 0.08827921003103256 -0.05617470666766167 0.18229225277900696
v 0.08827921003103256 -0.055307600647211075 0.18776698410511017
v 0.08827921003103256 -0.04887169599533081 0.1966252624988556
v 0.08827921748161316 -0.028044650331139565 0.1966252624988556
v 0.08827921748161316 -0.030415039509534836 0.19807782769203186
v 0.08827921748161316 -0.04393288493156433 0.1991416960954666
v 0.08827921748161316 -0.03568670153617859 0.19979067146778107
v 0.08827921748161316 -0.04122965410351753 0.19979067146778107
v 0.08827921748161316 -0.03845817595720291 0.2000087946653366
v 0.08827921748161316 -0.025930700823664665 0.19481973350048065
v 0.08827921003103256 -0.052791155874729156 0.19270578026771545
v 0.08827921748161316 -0.02412520907819271 0.19270578026771545
v 0.08827921748161316 -0.0216087494045496 0.18776698410511017
v 0.08827921748161316 -0.02095975913107395 0.17952078580856323
v 0.08827921748161316 -0.02412520907819271 0.17187875509262085
v 0.08827921748161316 -0.028044650331139565 0.1679592877626419
v 0.08827921748161316 -0.030415039509534836 0.16650672256946564
v 0.08827921748161316 -0.032983459532260895 0.1654428392648697
v 0.08827921748161316 -0.03568670153617859 0.16479384899139404
v 0.08827921748161316 -0.03845817595720291 0.1645757257938385
v 0.08827921748161316 -0.020741630345582962 0.18229225277900696
v 0.08827921748161316 -0.02095975913107395 0.18506374955177307
v 0.0894603282213211 -0.01547189150005579 0.18229050934314728
v 0.09064142405986786 -0.01547189150005579 0.18229050934314728
v 0.0894603282213211 -0.015380810014903545 0.18258507549762726
v 0.0894603282213211 -0.01586230844259262 0.18182000517845154
v 0.09064142405986786 -0.01586230844259262 0.18182000517845154
v 0.0894603282213211 -0.01536905113607645 0.18289317190647125
v 0.09064142405986786 -0.01613500714302063 0.18167611956596375
v 0.0894603282213211 -0.015437452122569084 0.18319383263587952
v 0.0894603282213211 -0.016435669735074043 0.18160772323608398
v 0.09064142405986786 -0.016435669735074043 0.18160772323608398
v 0.0894603282213211 -0.015581327490508556 0.18346653878688812
v 0.0894603282213211 -0.016743769869208336 0.18161948025226593
v 0.0894603282213211 -0.015790879726409912 0.18369270861148834
v 0.09064142405986786 -0.015790879726409912 0.18369270861148834
v 0.0894603282213211 -0.017038339748978615 0.18171058595180511
v 0.09064142405986786 -0.016051819548010826 0.18385693430900574
v 0.0894603282213211 -0.016051819548010826 0.18385693430900574
v 0.09064142405986786 -0.016346391290426254 0.18394802510738373
v 0.0894603282213211 -0.016346391290426254 0.18394802510738373
v 0.0894603282213211 -0.01750882901251316 0.18210098147392273
v 0.09064142405986786 -0.017652710899710655 0.18237368762493134
v 0.0894603282213211 -0.01722785085439682 0.18374751508235931
v 0.09064142405986786 -0.01722785085439682 0.18374751508235931
v 0.09064142405986786 -0.01745401881635189 0.18353796005249023
v 0.09064142405986786 -0.017618240788578987 0.18327701091766357
v 0.0894603282213211 -0.017618240788578987 0.18327701091766357
v 0.08827921748161316 -0.032983459532260895 0.1991416960954666
v 0.08827921748161316 -0.022672610357403755 0.19033539295196533
v 0.09064142405986786 -0.0216087494045496 0.18776698410511017
v 0.09064142405986786 -0.04393288493156433 0.1991416960954666
v 0.08827921748161316 -0.046501316130161285 0.19807782769203186
v 0.08827921748161316 -0.0216087494045496 0.17681755125522614
v 0.09064142405986786 -0.0216087494045496 0.17681755125522614
v 0.09064141660928726 -0.04887169599533081 0.1966252624988556
v 0.08827921748161316 -0.022672610357403755 0.17424912750720978
v 0.09064142405986786 -0.022672610357403755 0.17424912750720978
v 0.09064141660928726 -0.050985656678676605 0.19481973350048065
v 0.08827921003103256 -0.050985656678676605 0.19481973350048065
v 0.08827921003103256 -0.054243724793195724 0.19033539295196533
v 0.09064141660928726 -0.054243724793195724 0.19033539295196533
v 0.09064142405986786 -0.028044650331139565 0.1679592877626419
v 0.09064141660928726 -0.055307600647211075 0.18776698410511017
v 0.09064141660928726 -0.05595659092068672 0.18506374955177307
v 0.08827921003103256 -0.05595659092068672 0.18506374955177307
v 0.09064142405986786 -0.032983459532260895 0.1654428392648697
v 0.09064141660928726 -0.05595659092068672 0.17952078580856323
v 0.08827921003103256 -0.05595659092068672 0.17952078580856323
v 0.09064142405986786 -0.03845817595720291 0.1645757257938385
v 0.08827921003103256 -0.055307600647211075 0.17681755125522614
v 0.09064142405986786 -0.04122965410351753 0.16479384899139404
v 0.08827921748161316 -0.04122965410351753 0.16479384899139404
v 0.09064141660928726 -0.054243724793195724 0.17424912750720978
v 0.08827921003103256 -0.054243724793195724 0.17424912750720978
v 0.08827921748161316 -0.04393288493156433 0.1654428392648697
v 0.08827921003103256 -0.052791155874729156 0.17187875509262085
v 0.09064142405986786 -0.046501316130161285 0.16650672256946564
v 0.08827921003103256 -0.050985656678676605 0.16976478695869446
v 0.08827921003103256 -0.04887169599533081 0.1679592877626419
v 0.09064141660928726 -0.04887169599533081 0.1679592877626419
v 0.09064142405986786 -0.015380810014903545 0.18258507549762726
v 0.09064142405986786 -0.015437452122569084 0.18319383263587952
v 0.09064142405986786 -0.015581327490508556 0.18346653878688812
v 0.09064142405986786 3.5141212720191106e-05 0.17062094807624817
v 0.09064142405986786 0.010425490327179432 0.18096084892749786
v 0.09064142405986786 0.005845214240252972 0.19209522008895874
v 0.09064142405986786 -0.04530300199985504 0.1616237461566925
v 0.09064143151044846 0.051444072276353836 0.16304630041122437
v 0.09064142405986786 -0.04393288493156433 0.1654428392648697
v 0.09064141660928726 -0.05590074881911278 0.16698358952999115
v 0.09064141660928726 -0.050985656678676605 0.16976478695869446
v 0.09064141660928726 -0.052791155874729156 0.19270578026771545
v 0.09064141660928726 -0.057745110243558884 0.19398273527622223
v 0.09064142405986786 -0.046501316130161285 0.19807782769203186
v 0.09064142405986786 -0.04122965410351753 0.19979067146778107
v 0.09064143151044846 0.04758034646511078 0.20279517769813538
v 0.09064142405986786 0.045456260442733765 0.20296233892440796
v 0.09064142405986786 -0.03568670153617859 0.16479384899139404
v 0.09064143151044846 0.05605402961373329 0.16698358952999115
v 0.09064142405986786 -0.016743769869208336 0.18161948025226593
v 0.09064142405986786 -0.017038339748978615 0.18171058595180511
v 0.09064142405986786 -0.01729927957057953 0.1818748116493225
v 0.09064142405986786 -0.01750882901251316 0.18210098147392273
v 0.09064142405986786 -0.01770935021340847 0.1829824447631836
v 0.09064142405986786 -0.02412520907819271 0.19270578026771545
v 0.09064142405986786 -0.0030497282277792692 0.1945018321275711
v 0.09064142405986786 -0.022672610357403755 0.19033539295196533
v 0.09064142405986786 -0.02095975913107395 0.18506374955177307
v 0.09064142405986786 -0.01344010978937149 0.1841619312763214
v 0.09064142405986786 -0.016654491424560547 0.18395978212356567
v 0.09064142405986786 -0.02095975913107395 0.17952078580856323
v 0.09064142405986786 -0.011076797731220722 0.17525537312030792
v 0.09064143151044846 0.05789836123585701 0.17060333490371704
v 0.09064141660928726 -0.05302809923887253 0.20047517120838165
v 0.09064142405986786 -0.03845817595720291 0.2000087946653366
v 0.09064141660928726 -0.058220770210027695 0.19200147688388824
v 0.09064141660928726 -0.05617470666766167 0.18229225277900696
v 0.09064142405986786 -0.03568670153617859 0.19979067146778107
v 0.09064142405986786 -0.032983459532260895 0.1991416960954666
v 0.09064142405986786 -0.030415039509534836 0.19807782769203186
v 0.09064142405986786 -0.028044650331139565 0.1966252624988556
v 0.09064142405986786 0.009627072140574455 0.18714168667793274
v 0.09064142405986786 0.008026544004678726 0.17520888149738312
v 0.09064142405986786 -0.01536905113607645 0.18289317190647125
v 0.09064142405986786 -0.0156361423432827 0.18202954530715942
v 0.09064143151044846 0.05789836123585701 0.19398273527622223
v 0.09064143151044846 0.05711863562464714 0.1958652138710022
v 0.09064143151044846 0.05605402961373329 0.1976025104522705
v 0.09064143151044846 0.051444072276353836 0.2015397697687149
v 0.09064143151044846 0.04956160858273506 0.20231950283050537
v 0.09064141660928726 -0.04940834268927574 0.20231950283050537
v 0.09064141660928726 -0.058220770210027695 0.17258460819721222
v 0.09064143151044846 0.05711863562464714 0.16872088611125946
v 0.09064143151044846 0.05837404355406761 0.17258460819721222
v 0.09064142405986786 -0.020741630345582962 0.18229225277900696
v 0.09064142405986786 -0.02412520907819271 0.17187875509262085
v 0.09064142405986786 -0.025930700823664665 0.16976478695869446
v 0.09064142405986786 -0.030415039509534836 0.16650672256946564
v 0.09064141660928726 -0.052791155874729156 0.17187875509262085
v 0.09064141660928726 -0.055307600647211075 0.17681755125522614
v 0.09064142405986786 -0.025930700823664665 0.19481973350048065
v 0.09064142405986786 -0.017721109092235565 0.1826743483543396
v 0.09064142405986786 -0.016955148428678513 0.1838913857936859
v 0.09064142405986786 -0.008813328109681606 0.1921308934688568
v 0.09064142405986786 -0.006087588146328926 0.19369575381278992
v 0.08827921748161316 -0.0113379480317235 0.1785174012184143
v 0.08827921748161316 -0.0099562993273139 0.17611083388328552
v 0.09064142405986786 -0.0099562993273139 0.17611083388328552
v 0.09064142405986786 0.009028274565935135 0.18114827573299408
v 0.09064142405986786 0.00832333229482174 0.18660537898540497
v 0.09064142405986786 0.004984303843230009 0.19097888469696045
v 0.09064142405986786 -0.00992479920387268 0.18905296921730042
v 0.09064142405986786 -0.0113379480317235 0.1785174012184143
v 0.09064142405986786 0.008303534239530563 0.17846961319446564
v 0.09064142405986786 0.004943261854350567 0.17411237955093384
v 0.09064142405986786 0.0025366912595927715 0.17273075878620148
v 0.09064142405986786 0.006910216063261032 0.17606979608535767
v 0.09064142405986786 -0.005551278591156006 0.1923920214176178
v 0.09064142405986786 -0.007957849651575089 0.19101040065288544
v 0.09064142405986786 -0.005599068012088537 0.1727505475282669
v 0.09064142405986786 -0.012049641460180283 0.1811995655298233
v 0.08827921748161316 -0.007998887449502945 0.17414386570453644
v 0.09064142405986786 -0.007998887449502945 0.17414386570453644
v 0.08827921748161316 0.0025366912595927715 0.17273075878620148
v 0.08827921748161316 0.004943262320011854 0.17411237955093384
v 0.08827921748161316 0.006910216063261032 0.17606979608535767
v 0.08827921748161316 0.008303534239530563 0.17846961319446564
v 0.08827921748161316 0.009028274565935135 0.18114827573299408
v 0.09064142405986786 0.0090350192040205 0.18392321467399597
v 0.08827921748161316 0.0090350192040205 0.18392321467399597
v 0.08827921748161316 0.00832333229482174 0.18660537898540497
v 0.09064142405986786 0.0069417161867022514 0.18901193141937256
v 0.09064142405986786 0.0025844848714768887 0.19237221777439117
v 0.09064142405986786 -9.415558452019468e-05 0.19309696555137634
v 0.08827921748161316 -9.415540262125432e-05 0.19309696555137634
v 0.08827921748161316 -0.002869129879400134 0.19310370087623596
v 0.09064142405986786 -0.002869129879400134 0.19310370087623596
v 0.08827921748161316 -0.0055512781254947186 0.1923920214176178
v 0.08827921748161316 -0.007957849651575089 0.19101040065288544
v 0.09064142405986786 -0.011318149976432323 0.18665316700935364
v 0.09064142405986786 -0.012042858637869358 0.1839745193719864
v 0.09064142405986786 -0.0029204278253018856 0.17202581465244293
v 0.09064142405986786 -0.0001454608718631789 0.17201906442642212
v 0.08827921748161316 -0.0031078392639756203 0.1706285923719406
v 0.08827921748161316 0.008026544004678726 0.17520888149738312
v 0.08827921748161316 0.009627072140574455 0.18714168667793274
v 0.08827921748161316 0.0069417161867022514 0.18901193141937256
v 0.08827921748161316 0.004984304308891296 0.19097888469696045
v 0.08827921748161316 0.0025844848714768887 0.19237221777439117
v 0.08827921748161316 -0.0029204278253018856 0.17202581465244293
v 0.08827921748161316 -0.012641659937798977 0.17798109352588654
v 0.08827921748161316 -0.00992479920387268 0.18905296921730042
v 0.08827921748161316 -0.011318149976432323 0.18665316700935364
v 0.08827921748161316 -0.012042858637869358 0.1839745193719864
v 0.08827921748161316 -0.012049641460180283 0.1811995655298233
v 0.08827921748161316 -0.013447759672999382 0.18101894855499268
v 0.08827921748161316 -0.011076797731220722 0.17525537312030792
v 0.08827921748161316 -0.008859798312187195 0.17302754521369934
v 0.08827921748161316 -0.00559906754642725 0.1727505475282669
v 0.08827921748161316 -0.00014546068268828094 0.17201906442642212
v 0.08827921748161316 -0.006141739431768656 0.1714494377374649
v 0.08827921748161316 0.008062214590609074 0.18986739218235016
v 0.08827921748161316 0.010433143936097622 0.1841038316488266
v 0.08827921748161316 0.010425490327179432 0.18096084892749786
v 0.08827921748161316 0.009604662656784058 0.1779269576072693
v 0.08827921748161316 0.0030730045400559902 0.17142702639102936
v 0.08827921748161316 0.005845214705914259 0.19209522008895874
v 0.08827921748161316 0.003127120668068528 0.19367334246635437
v 0.08827921748161316 9.32201583054848e-05 0.19449417293071747
v 0.08827921748161316 -0.0030497282277792692 0.1945018321275711
v 0.08827921748161316 -0.006087587680667639 0.19369575381278992
v 0.08827921748161316 -0.008813328109681606 0.1921308934688568
v 0.08827921748161316 -0.01104112807661295 0.18991389870643616
v 0.08827921748161316 -0.01261925045400858 0.18719582259655
v 0.08827921748161316 -0.01344010978937149 0.1841619312763214
v 0.09064142405986786 0.009604662656784058 0.1779269576072693
v 0.09064142405986786 0.010433143936097622 0.1841038316488266
v 0.09064142405986786 0.008062214590609074 0.18986739218235016
v 0.09064142405986786 0.003127120668068528 0.19367334246635437
v 0.09064142405986786 9.321997640654445e-05 0.19449417293071747
v 0.09064142405986786 -0.01104112807661295 0.18991389870643616
v 0.09064142405986786 -0.01261925045400858 0.18719582259655
v 0.09064142405986786 -0.013447759672999382 0.18101894855499268
v 0.09064142405986786 -0.012641659937798977 0.17798109352588654
v 0.09064142405986786 -0.008859798312187195 0.17302754521369934
v 0.09064142405986786 -0.006141739897429943 0.1714494377374649
v 0.09064142405986786 -0.0031078392639756203 0.1706285923719406
v 0.08827921748161316 3.514139461913146e-05 0.17062094807624817
v 0.09064142405986786 0.0030730045400559902 0.17142702639102936
v 0.08827921748161316 0.005798716098070145 0.17299187183380127
v 0.09064142405986786 0.005798715632408857 0.17299187183380127
v 0.09182251989841461 -0.04742708429694176 0.16179092228412628
v 0.09064141660928726 -0.04742708429694176 0.16179092228412628
v 0.09064141660928726 -0.04940834268927574 0.1622665822505951
v 0.09182252734899521 0.045456260442733765 0.1616237461566925
v 0.09064141660928726 -0.05129080265760422 0.16304630041122437
v 0.09182251989841461 -0.05129080265760422 0.16304630041122437
v 0.09064142405986786 0.045456260442733765 0.1616237461566925
v 0.09064143151044846 0.04758034646511078 0.16179092228412628
v 0.0918225347995758 0.04758034646511078 0.16179092228412628
v 0.09064141660928726 -0.05302809923887253 0.16411092877388
v 0.09182251989841461 -0.05302809923887253 0.16411092877388
v 0.0918225347995758 0.04956160858273506 0.1622665822505951
v 0.09064143151044846 0.04956160858273506 0.1622665822505951
v 0.09064141660928726 -0.05457746982574463 0.16543421149253845
v 0.09182251989841461 -0.05457746982574463 0.16543421149253845
v 0.0918225347995758 0.051444072276353836 0.16304630041122437
v 0.09182251989841461 -0.05590074881911278 0.16698358952999115
v 0.09064143151044846 0.053181376308202744 0.16411092877388
v 0.0918225347995758 0.053181376308202744 0.16411092877388
v 0.09182251989841461 -0.05696537718176842 0.16872088611125946
v 0.09064141660928726 -0.05696537718176842 0.16872088611125946
v 0.09064143151044846 0.054730724543333054 0.16543421149253845
v 0.0918225347995758 0.054730724543333054 0.16543421149253845
v 0.09064141660928726 -0.057745110243558884 0.17060333490371704
v 0.09182251989841461 -0.057745110243558884 0.17060333490371704
v 0.0918225347995758 0.05605402961373329 0.16698358952999115
v 0.09182251989841461 -0.058220770210027695 0.17258460819721222
v 0.0918225347995758 0.05711863562464714 0.16872088611125946
v 0.09064141660928726 -0.05838794261217117 0.17470869421958923
v 0.09182251989841461 -0.05838794261217117 0.17470869421958923
v 0.0918225347995758 0.05789836123585701 0.17060333490371704
v 0.0918225347995758 0.05837404355406761 0.17258460819721222
v 0.09182251989841461 -0.05838794261217117 0.18987737596035004
v 0.09064141660928726 -0.05838794261217117 0.18987737596035004
v 0.09182251989841461 -0.057745110243558884 0.19398273527622223
v 0.09064143151044846 0.05854120850563049 0.17470869421958923
v 0.0918225347995758 0.05854120850563049 0.17470869421958923
v 0.0918225347995758 0.05854120850563049 0.18987737596035004
v 0.09064141660928726 -0.05696537718176842 0.1958652138710022
v 0.09182251989841461 -0.05696537718176842 0.1958652138710022
v 0.09064143151044846 0.05837404355406761 0.19200147688388824
v 0.09064143151044846 0.05854120850563049 0.18987737596035004
v 0.0918225347995758 0.05837404355406761 0.19200147688388824
v 0.09182251989841461 -0.05590074881911278 0.1976025104522705
v 0.09064141660928726 -0.05590074881911278 0.1976025104522705
v 0.0918225347995758 0.05789836123585701 0.19398273527622223
v 0.09064141660928726 -0.05457746982574463 0.19915185868740082
v 0.09182251989841461 -0.05457746982574463 0.19915185868740082
v 0.0918225347995758 0.05711863562464714 0.1958652138710022
v 0.09182251989841461 -0.05302809923887253 0.20047517120838165
v 0.0918225347995758 0.05605402961373329 0.1976025104522705
v 0.09182251989841461 -0.05129080265760422 0.2015397697687149
v 0.09064141660928726 -0.05129080265760422 0.2015397697687149
v 0.0918225347995758 0.054730724543333054 0.19915185868740082
v 0.09064143151044846 0.054730724543333054 0.19915185868740082
v 0.09182251989841461 -0.04940834268927574 0.20231950283050537
v 0.0918225347995758 0.053181376308202744 0.20047517120838165
v 0.09064143151044846 0.053181376308202744 0.20047517120838165
v 0.09064141660928726 -0.04742708429694176 0.20279517769813538
v 0.09182251989841461 -0.04742708429694176 0.20279517769813538
v 0.0918225347995758 0.051444072276353836 0.2015397697687149
v 0.09064142405986786 -0.04530300199985504 0.20296233892440796
v 0.0918225347995758 0.04956160858273506 0.20231950283050537
v 0.09182252734899521 0.045456260442733765 0.20296233892440796
v 0.0918225347995758 0.04758034646511078 0.20279517769813538
v -0.058177486062049866 -0.05774509534239769 0.1859576553106308
v 0.05520835518836975 -0.057745110243558884 0.1859576553106308
v -0.058177486062049866 -0.05014054849743843 0.1753673553466797
v -0.05817748233675957 0.05029382184147835 0.1753673553466797
v -0.058177486062049866 -0.05302809178829193 0.17946523427963257
v -0.058177486062049866 -0.06056109815835953 0.18756824731826782
v -0.058177486062049866 -0.0582207590341568 0.18793891370296478
v -0.058177486062049866 -0.06075013056397438 0.18997018039226532
v -0.058177486062049866 -0.059998635202646255 0.19471493363380432
v -0.058177486062049866 -0.04742707684636116 0.202795147895813
v -0.05817748233675957 0.04956161603331566 0.17762088775634766
v -0.05817748233675957 0.05640623718500137 0.17911303043365479
v -0.05817748233675957 0.05605404078960419 0.1823378950357437
v -0.05817748233675957 0.05922990292310715 0.18299946188926697
v -0.05817748233675957 0.057898376137018204 0.1859576553106308
v -0.05817748233675957 0.06071439012885094 0.18756824731826782
v -0.05817748233675957 0.05837405472993851 0.18793891370296478
v -0.05817748233675957 0.06071439012885094 0.192372128367424
v -0.05817748233675957 0.05473073571920395 0.19915184378623962
v -0.05817748233675957 0.05640623718500137 0.20082734525203705
v -0.05817748233675957 0.05318138748407364 0.20047512650489807
v -0.05817748233675957 0.054574135690927505 0.2023921012878418
v -0.05817748233675957 0.05144408345222473 0.20153973996639252
v -0.05817748233675957 0.06090341508388519 0.18997018039226532
v -0.05817748233675957 0.057118646800518036 0.18407519161701202
v -0.05817748233675957 0.05144408345222473 0.17840063571929932
v -0.05817748233675957 0.052519798278808594 0.1762893795967102
v -0.058177486062049866 -0.045395802706480026 0.20295500755310059
v -0.058177486062049866 -0.056252945214509964 0.20082734525203705
v -0.058177486062049866 -0.057817716151475906 0.19899523258209229
v -0.058177486062049866 -0.059998635202646255 0.1852254420518875
v -0.058177486062049866 -0.049408331513404846 0.17762088775634766
v -0.058177486062049866 -0.05442085117101669 0.17754827439785004
v -0.05817748233675957 0.04795103892683983 0.17480488121509552
v -0.058177486062049866 -0.04779774695634842 0.17480488121509552
v -0.05817748233675957 0.05029382184147835 0.20457302033901215
v -0.05817748233675957 0.052519798278808594 0.20365101099014282
v -0.05817748233675957 0.057971008121967316 0.19899523258209229
v -0.058177486062049866 -0.05236652120947838 0.1762893795967102
v -0.058177486062049866 -0.05236652120947838 0.20365101099014282
v -0.058177486062049866 -0.05014054849743843 0.20457302033901215
v -0.058177486062049866 -0.04779774695634842 0.20513547956943512
v -0.058177486062049866 -0.049408331513404846 0.20231948792934418
v -0.058177486062049866 -0.056965362280607224 0.1958651840686798
v -0.058177486062049866 -0.05774509534239769 0.19398270547389984
v -0.058177486062049866 -0.05129079148173332 0.17840063571929932
v -0.058177486062049866 -0.04742707684636116 0.17714522778987885
v -0.05817748233675957 0.05473073571920395 0.1807885318994522
v -0.058177486062049866 -0.05590073764324188 0.1823378950357437
v -0.058177486062049866 -0.056965362280607224 0.18407519161701202
v -0.058177486062049866 -0.04744153097271919 0.18878908455371857
v -0.058177486062049866 -0.04744153097271919 0.19115129113197327
v -0.058177486062049866 -0.0460071824491024 0.19225189089775085
v -0.058177486062049866 0.01054790336638689 0.19271422922611237
v -0.058177486062049866 0.009830723516643047 0.19326454401016235
v -0.058177486062049866 0.010853602550923824 0.19503618776798248
v -0.05817748233675957 0.04956161603331566 0.20231948792934418
v -0.05817748233675957 0.047580357640981674 0.202795147895813
v -0.05817748233675957 0.04545627161860466 0.20296230912208557
v -0.058177486062049866 -0.045302990823984146 0.20296230912208557
v -0.05817748233675957 0.047219425439834595 0.18829984962940216
v -0.05817748233675957 0.04783079773187637 0.1905815601348877
v -0.05817748233675957 0.047219425439834595 0.19164051115512848
v -0.058177486062049866 0.0114441541954875 0.19283221662044525
v -0.058177486062049866 0.01168874278664589 0.19301991164684296
v -0.058177486062049866 0.011876454576849937 0.19326454401016235
v -0.058177486062049866 0.011994442902505398 0.19354939460754395
v -0.058177486062049866 0.011994442902505398 0.19416077435016632
v -0.058177486062049866 0.01168874278664589 0.1946902573108673
v -0.058177486062049866 0.0114441541954875 0.19487793743610382
v -0.058177486062049866 -0.044784415513277054 0.18768846988677979
v -0.058177486062049866 -0.044214699417352676 0.18792444467544556
v -0.05817748233675957 0.04436798393726349 0.18792444467544556
v -0.05817748233675957 0.04318688437342644 0.18997018039226532
v -0.05817748233675957 0.04350335896015167 0.19115129113197327
v -0.05817748233675957 0.04493771493434906 0.19225189089775085
v -0.058177486062049866 -0.044784415513277054 0.19225189089775085
v -0.05817748233675957 0.043267372995615005 0.1905815601348877
v -0.058177486062049866 -0.04303359612822533 0.18997018039226532
v -0.05817748233675957 0.043267372995615005 0.18935880064964294
v -0.058177486062049866 -0.043114084750413895 0.18935880064964294
v -0.05817748233675957 0.043878745287656784 0.18829984962940216
v -0.05817748233675957 0.04493771493434906 0.18768846988677979
v -0.05817748233675957 0.04554908722639084 0.18760798871517181
v -0.058177486062049866 0.011876454576849937 0.1944456398487091
v -0.058177486062049866 0.011159274727106094 0.19271422922611237
v -0.058177486062049866 0.010853602550923824 0.19267398118972778
v -0.05817748233675957 0.047594815492630005 0.19115129113197327
v -0.05817748233675957 0.04791128262877464 0.18997018039226532
v -0.05817748233675957 0.04673018306493759 0.18792444467544556
v -0.05817748233675957 0.046160489320755005 0.18768846988677979
v -0.058177486062049866 -0.05129079148173332 0.20153973996639252
v -0.058177486062049866 -0.054577458649873734 0.19915184378623962
v -0.058177486062049866 0.010263023898005486 0.19487793743610382
v -0.058177486062049866 0.010018434375524521 0.1946902573108673
v -0.058177486062049866 0.009712735190987587 0.19416077435016632
v -0.058177486062049866 0.009672473184764385 0.19385509192943573
v -0.058177486062049866 0.009712735190987587 0.19354939460754395
v -0.058177486062049866 0.010018434375524521 0.19301991164684296
v -0.058177486062049866 -0.04657690227031708 0.19201591610908508
v -0.058177486062049866 -0.054577458649873734 0.1807885318994522
v -0.05817748233675957 0.047580357640981674 0.17714522778987885
v -0.05817748233675957 0.04554908722639084 0.17698535323143005
v -0.058177486062049866 -0.045302990823984146 0.17697806656360626
v -0.058177486062049866 -0.045395802706480026 0.19233238697052002
v -0.058177486062049866 -0.047066133469343185 0.19164051115512848
v -0.058177486062049866 -0.04767751321196556 0.1905815601348877
v -0.058177486062049866 -0.04775800555944443 0.18997018039226532
v -0.058177486062049866 -0.04767751321196556 0.18935880064964294
v -0.058177486062049866 -0.047066133469343185 0.18829984962940216
v -0.058177486062049866 -0.04657690227031708 0.18792444467544556
v -0.058177486062049866 -0.0460071824491024 0.18768846988677979
v -0.058177486062049866 -0.045395802706480026 0.18760798871517181
v -0.058177486062049866 -0.04372547194361687 0.18829984962940216
v -0.058177486062049866 -0.04335007071495056 0.18878908455371857
v -0.058177486062049866 -0.043114084750413895 0.1905815601348877
v -0.058177486062049866 -0.04335007071495056 0.19115129113197327
v -0.058177486062049866 -0.04372547194361687 0.19164051115512848
v -0.058177486062049866 -0.044214699417352676 0.19201591610908508
v -0.05817748233675957 0.047594815492630005 0.18878908455371857
v -0.05817748233675957 0.04783079773187637 0.18935880064964294
v -0.05817748233675957 0.04673018306493759 0.19201591610908508
v -0.05817748233675957 0.046160489320755005 0.19225189089775085
v -0.05817748233675957 0.04554908722639084 0.19233238697052002
v -0.05817748233675957 0.04436798393726349 0.19201591610908508
v -0.05817748233675957 0.043878745287656784 0.19164051115512848
v -0.05817748233675957 0.04350335896015167 0.18878908455371857
v -0.058177486062049866 0.010263023898005486 0.19283221662044525
v -0.058177486062049866 0.0120347049087286 0.19385509192943573
v -0.058177486062049866 0.011159274727106094 0.1949959397315979
v -0.058177486062049866 0.01054790336638689 0.1949959397315979
v -0.058177486062049866 0.009830723516643047 0.1944456398487091
v 0.05520835518836975 -0.05838063359260559 0.18997018039226532
v 0.05520835518836975 -0.05302809551358223 0.17946523427963257
v 0.05520835518836975 -0.058220770210027695 0.18793891370296478
v 0.05520835518836975 -0.060750141739845276 0.18997018039226532
v 0.05520835518836975 -0.05696537718176842 0.1958651840686798
v 0.05520835518836975 -0.05625296011567116 0.20082734525203705
v 0.05520835518836975 -0.04940833896398544 0.20231948792934418
v 0.05520835518836975 -0.05014055594801903 0.20457302033901215
v 0.05520836263895035 0.05605402961373329 0.1823378950357437
v 0.05520836263895035 0.05837404355406761 0.18793891370296478
v 0.05520836263895035 0.058533892035484314 0.18997018039226532
v 0.05520836263895035 0.06071437522768974 0.192372128367424
v 0.05520836263895035 0.05473072826862335 0.19915184378623962
v 0.05520836263895035 0.05318138003349304 0.20047512650489807
v 0.05520836263895035 0.04956160858273506 0.20231948792934418
v 0.05520836263895035 0.04554907977581024 0.20532451570034027
v 0.05520836263895035 0.05029381439089775 0.20457302033901215
v 0.05520836263895035 0.051444076001644135 0.20153973996639252
v 0.05520836263895035 0.05640622600913048 0.20082734525203705
v 0.05520836263895035 0.05789836123585701 0.1859576553106308
v 0.05520836263895035 0.05711863562464714 0.18407519161701202
v 0.05520836263895035 0.05473072826862335 0.1807885318994522
v 0.05520835518836975 -0.04530299827456474 0.17697806656360626
v 0.05520835518836975 -0.04539581015706062 0.20532451570034027
v 0.05520835518836975 -0.052366528660058975 0.20365101099014282
v 0.05520835518836975 -0.057745110243558884 0.19398270547389984
v 0.05520835518836975 -0.058220770210027695 0.19200146198272705
v 0.05520835518836975 -0.05457746610045433 0.1807885318994522
v 0.05520835518836975 -0.04742708057165146 0.17714522778987885
v 0.05520835518836975 -0.052366528660058975 0.1762893795967102
v 0.05520835518836975 -0.04539581015706062 0.20296230912208557
v 0.05520835518836975 -0.05302809551358223 0.20047512650489807
v 0.05520835518836975 -0.05696537718176842 0.18407519161701202
v 0.05520835518836975 -0.05590074881911278 0.1823378950357437
v 0.05520836263895035 0.04545626416802406 0.17697806656360626
v 0.05520836263895035 0.04758035019040108 0.17714522778987885
v 0.05520836263895035 0.05318138003349304 0.17946523427963257
v 0.05520836263895035 0.05837404355406761 0.19200146198272705
v 0.05520836263895035 0.05711863562464714 0.1958651840686798
v 0.05520836263895035 0.060151901096105576 0.19471493363380432
v 0.05520836263895035 0.052519794553518295 0.1762893795967102
v 0.05520835518836975 -0.05999865010380745 0.1852254420518875
v 0.05520835518836975 -0.0578177310526371 0.19899523258209229
v 0.05520836263895035 0.04956160858273506 0.17762088775634766
v 0.05520836263895035 0.051444076001644135 0.17840063571929932
v -0.05817748233675957 0.05318138748407364 0.17946523427963257
v -0.05817748233675957 0.05853390321135521 0.18997018039226532
v -0.05817748233675957 0.05837405472993851 0.19200146198272705
v 0.05520836263895035 0.05789836123585701 0.19398270547389984
v -0.05817748233675957 0.057898376137018204 0.19398270547389984
v -0.05817748233675957 0.057118646800518036 0.1958651840686798
v -0.05817748233675957 0.05605404078960419 0.19760246574878693
v 0.05520836263895035 0.05605402961373329 0.19760246574878693
v 0.05520836263895035 0.04758035019040108 0.202795147895813
v -0.05817748233675957 0.04554908722639084 0.20295500755310059
v 0.05520836263895035 0.04554907977581024 0.20296230912208557
v 0.05520836263895035 0.04795103147625923 0.20513547956943512
v -0.05817748233675957 0.04795103892683983 0.20513547956943512
v -0.05817748233675957 0.04554908722639084 0.20532451570034027
v 0.05520836263895035 0.052519794553518295 0.20365101099014282
v 0.05520836263895035 0.05457412824034691 0.2023921012878418
v 0.05520836263895035 0.05797099322080612 0.19899523258209229
v -0.05817748233675957 0.05922990292310715 0.19694091379642487
v 0.05520836263895035 0.05922989174723625 0.19694091379642487
v -0.05817748233675957 0.06015191227197647 0.19471493363380432
v -0.05817748233675957 0.06015191227197647 0.1852254420518875
v -0.05817748233675957 0.057971008121967316 0.18094512820243835
v -0.05817748233675957 0.054574135690927505 0.17754827439785004
v -0.05817748233675957 0.04554908722639084 0.17461584508419037
v -0.058177486062049866 -0.045395802706480026 0.17461584508419037
v 0.05520835518836975 -0.05442085862159729 0.17754827439785004
v -0.058177486062049866 -0.056252945214509964 0.17911303043365479
v -0.058177486062049866 -0.057817716151475906 0.18094512820243835
v -0.058177486062049866 -0.05907660722732544 0.18299946188926697
v 0.05520835518836975 -0.06056111305952072 0.192372128367424
v -0.058177486062049866 -0.06056109815835953 0.192372128367424
v 0.05520835518836975 -0.059076618403196335 0.19694091379642487
v -0.058177486062049866 -0.05907660722732544 0.19694091379642487
v 0.05520835518836975 -0.05442085862159729 0.2023921012878418
v -0.058177486062049866 -0.05442085117101669 0.2023921012878418
v 0.05520835518836975 -0.047797754406929016 0.20513547956943512
v -0.058177486062049866 -0.045395802706480026 0.20532451570034027
v 0.05520835518836975 -0.04742708057165146 0.202795147895813
v 0.05520835518836975 -0.05129079893231392 0.20153973996639252
v -0.058177486062049866 -0.05302809178829193 0.20047512650489807
v 0.05520835518836975 -0.05457746610045433 0.19915184378623962
v -0.058177486062049866 -0.05590073764324188 0.19760246574878693
v 0.05520835518836975 -0.05590074881911278 0.19760246574878693
v -0.058177486062049866 -0.0582207590341568 0.19200146198272705
v -0.058177486062049866 -0.0583806186914444 0.18997018039226532
v 0.05520835518836975 -0.05129079893231392 0.17840063571929932
v 0.05520835518836975 -0.04940833896398544 0.17762088775634766
v -0.05817748233675957 0.04545627161860466 0.17697806656360626
v 0.055208370089530945 0.04795103147625923 0.15945057570934296
v 0.055208370089530945 0.05029381439089775 0.16001303493976593
v 0.055208366364240646 -0.052366528660058975 0.16093505918979645
v 0.055208370089530945 0.052519794553518295 0.16093505918979645
v 0.055208370089530945 0.05457412824034691 0.16219396889209747
v 0.055208366364240646 -0.05625296011567116 0.16375872492790222
v 0.055208366364240646 -0.0578177310526371 0.1655908226966858
v 0.055208366364240646 -0.060750141739845276 0.17461587488651276
v 0.055208366364240646 -0.047797754406929016 0.1748049259185791
v 0.055208366364240646 -0.059076618403196335 0.18299947679042816
v 0.055208366364240646 -0.06056111305952072 0.18756826221942902
v 0.055208370089530945 0.060903400182724 0.17461587488651276
v 0.055208370089530945 0.05029381439089775 0.17536737024784088
v 0.055208370089530945 0.05640622600913048 0.17911306023597717
v 0.055208370089530945 0.05797099322080612 0.18094515800476074
v 0.055208370089530945 0.060151901096105576 0.1852254569530487
v 0.055208370089530945 0.06071437522768974 0.18756826221942902
v 0.055208370089530945 0.05922989174723625 0.18299947679042816
v 0.055208370089530945 0.05457412824034691 0.17754828929901123
v 0.055208370089530945 0.04795103147625923 0.1748049259185791
v 0.055208366364240646 -0.04539581015706062 0.17461587488651276
v 0.055208370089530945 0.06071437522768974 0.17221392691135406
v 0.055208366364240646 -0.0578177310526371 0.18094515800476074
v 0.055208370089530945 0.060151901096105576 0.16987112164497375
v 0.055208370089530945 0.05922989174723625 0.1676451563835144
v 0.055208370089530945 0.05797099322080612 0.1655908226966858
v 0.055208370089530945 0.05640622600913048 0.16375872492790222
v 0.055208366364240646 -0.05442085862159729 0.16219396889209747
v 0.055208366364240646 -0.05014055594801903 0.16001303493976593
v 0.055208366364240646 -0.047797754406929016 0.15945057570934296
v 0.055208366364240646 -0.05625296011567116 0.17911306023597717
v 0.055208366364240646 -0.05014055594801903 0.17536737024784088
v 0.055208370089530945 0.04554907977581024 0.17461587488651276
v 0.055208370089530945 0.04554907977581024 0.1592615395784378
v 0.055208366364240646 -0.04539581015706062 0.1592615395784378
v 0.055208366364240646 -0.059076618403196335 0.1676451563835144
v 0.055208366364240646 -0.05999865010380745 0.16987112164497375
v 0.055208366364240646 -0.06056111305952072 0.17221392691135406
v -0.014999999664723873 1.5196951475004994e-09 -8.344652968617083e-08
v -0.014999999664723873 1.5196951475004994e-09 0.10999996960163116
v -0.01492777094244957 0.001470258692279458 -8.344652968617083e-08
v -0.01492777094244957 0.001470258692279458 0.10999996960163116
v -0.014711778610944748 0.002926356391981244 -8.344652968617083e-08
v -0.014711778610944748 0.002926356391981244 0.10999996960163116
v -0.014354105107486248 0.004354271572083235 -8.344652968617083e-08
v -0.014354105107486248 0.004354271572083235 0.10999996960163116
v -0.013858193531632423 0.00574025372043252 -8.344652968617083e-08
v -0.013858193531632423 0.00574025372043252 0.10999996960163116
v -0.013228818774223328 0.00707095256075263 -8.344652968617083e-08
v -0.013228818774223328 0.00707095256075263 0.10999996960163116
v -0.012472043745219707 0.008333554491400719 -8.344652968617083e-08
v -0.012472043745219707 0.008333554491400719 0.10999996960163116
v -0.011595156043767929 0.00951590109616518 -8.344652968617083e-08
v -0.011595156043767929 0.00951590109616518 0.10999996960163116
v -0.010606600902974606 0.010606602765619755 -8.344652968617083e-08
v -0.010606600902974606 0.010606602765619755 0.10999996960163116
v -0.009515899233520031 0.011595157906413078 -8.344652968617083e-08
v -0.009515899233520031 0.011595157906413078 0.10999996960163116
v -0.008333553560078144 0.012472044676542282 -8.344652968617083e-08
v -0.008333553560078144 0.012472044676542282 0.10999996960163116
v -0.007070950698107481 0.013228820636868477 -8.344652968617083e-08
v -0.007070950698107481 0.013228820636868477 0.10999996960163116
v -0.005740251392126083 0.013858193531632423 -8.344652968617083e-08
v -0.005740251392126083 0.013858193531632423 0.10999996960163116
v -0.004354269243776798 0.014354106038808823 -8.344652968617083e-08
v -0.004354269243776798 0.014354106038808823 0.10999996960163116
v -0.002926353830844164 0.014711778610944748 -8.344652968617083e-08
v -0.002926353830844164 0.014711778610944748 0.10999996960163116
v -0.001470256014727056 0.014927771873772144 -8.344652968617083e-08
v -0.001470256014727056 0.014927771873772144 0.10999996960163116
v 1.1324684523472683e-09 0.014999999664723873 -8.344652968617083e-08
v 1.1324684523472683e-09 0.014999999664723873 0.10999996960163116
v 0.0014702583430334926 0.014927771873772144 -8.344652968617083e-08
v 0.0014702583430334926 0.014927771873772144 0.10999996960163116
v 0.0029263561591506004 0.014711778610944748 -8.344652968617083e-08
v 0.0029263561591506004 0.014711778610944748 0.10999996960163116
v 0.0043542711064219475 0.014354106038808823 -8.344652968617083e-08
v 0.0043542711064219475 0.014354106038808823 0.10999996960163116
v 0.005740253254771233 0.013858193531632423 -8.344652968617083e-08
v 0.005740253254771233 0.013858193531632423 0.10999996960163116
v 0.00707095256075263 0.013228818774223328 -8.344652968617083e-08
v 0.00707095256075263 0.013228818774223328 0.10999996960163116
v 0.008333554491400719 0.012472043745219707 -8.344652968617083e-08
v 0.008333554491400719 0.012472043745219707 0.10999996960163116
v 0.00951590109616518 0.011595156043767929 -8.344652968617083e-08
v 0.00951590109616518 0.011595156043767929 0.10999996960163116
v 0.010606602765619755 0.010606600902974606 -8.344652968617083e-08
v 0.010606602765619755 0.010606600902974606 0.10999996960163116
v 0.011595157906413078 0.009515899233520031 -8.344652968617083e-08
v 0.011595157906413078 0.009515899233520031 0.10999996960163116
v 0.012472045607864857 0.00833355262875557 -8.344652968617083e-08
v 0.012472045607864857 0.00833355262875557 0.10999996960163116
v 0.013228820636868477 0.007070950698107481 -8.344652968617083e-08
v 0.013228820636868477 0.007070950698107481 0.10999996960163116
v 0.013858193531632423 0.005740251392126083 -8.344652968617083e-08
v 0.013858193531632423 0.005740251392126083 0.10999996960163116
v 0.014354105107486248 0.004354268778115511 -8.344652968617083e-08
v 0.014354105107486248 0.004354268778115511 0.10999996960163116
v 0.014711778610944748 0.002926354296505451 -8.344652968617083e-08
v 0.014711778610944748 0.002926354296505451 0.10999996960163116
v 0.01492777094244957 0.0014702564803883433 -8.344652968617083e-08
v 0.01492777094244957 0.0014702564803883433 0.10999996960163116
v 0.014999999664723873 -7.452420347497934e-10 -8.344652968617083e-08
v 0.014999999664723873 -7.452420347497934e-10 0.10999996960163116
v 0.01492777094244957 -0.001470257993787527 -8.344652968617083e-08
v 0.01492777094244957 -0.001470257993787527 0.10999996960163116
v 0.014711778610944748 -0.0029263554606586695 -8.344652968617083e-08
v 0.014711778610944748 -0.0029263554606586695 0.10999996960163116
v 0.014354105107486248 -0.00435427064076066 -8.344652968617083e-08
v 0.014354105107486248 -0.00435427064076066 0.10999996960163116
v 0.013858193531632423 -0.005740253254771233 -8.344652968617083e-08
v 0.013858193531632423 -0.005740253254771233 0.10999996960163116
v 0.013228818774223328 -0.007070951629430056 -8.344652968617083e-08
v 0.013228818774223328 -0.007070951629430056 0.10999996960163116
v 0.012472043745219707 -0.008333554491400719 -8.344652968617083e-08
v 0.012472043745219707 -0.008333554491400719 0.10999996960163116
v 0.011595156043767929 -0.00951590109616518 -8.344652968617083e-08
v 0.011595156043767929 -0.00951590109616518 0.10999996960163116
v 0.010606600902974606 -0.010606602765619755 -8.344652968617083e-08
v 0.010606600902974606 -0.010606602765619755 0.10999996960163116
v 0.009515899233520031 -0.011595157906413078 -8.344652968617083e-08
v 0.009515899233520031 -0.011595157906413078 0.10999996960163116
v 0.008333553560078144 -0.012472044676542282 -8.344652968617083e-08
v 0.008333553560078144 -0.012472044676542282 0.10999996960163116
v 0.007070950698107481 -0.013228820636868477 -8.344652968617083e-08
v 0.007070950698107481 -0.013228820636868477 0.10999996960163116
v 0.005740251392126083 -0.013858193531632423 -8.344652968617083e-08
v 0.005740251392126083 -0.013858193531632423 0.10999996960163116
v 0.004354269243776798 -0.014354106038808823 -8.344652968617083e-08
v 0.004354269243776798 -0.014354106038808823 0.10999996960163116
v 0.002926353830844164 -0.014711778610944748 -8.344652968617083e-08
v 0.002926353830844164 -0.014711778610944748 0.10999996960163116
v 0.001470256014727056 -0.014927771873772144 -8.344652968617083e-08
v 0.001470256014727056 -0.014927771873772144 0.10999996960163116
v -1.1324684523472683e-09 -0.014999999664723873 -8.344652968617083e-08
v -1.1324684523472683e-09 -0.014999999664723873 0.10999996960163116
v -0.0014702583430334926 -0.014927771873772144 -8.344652968617083e-08
v -0.0014702583430334926 -0.014927771873772144 0.10999996960163116
v -0.0029263561591506004 -0.014711778610944748 -8.344652968617083e-08
v -0.0029263561591506004 -0.014711778610944748 0.10999996960163116
v -0.0043542711064219475 -0.014354106038808823 -8.344652968617083e-08
v -0.0043542711064219475 -0.014354106038808823 0.10999996960163116
v -0.005740253254771233 -0.013858193531632423 -8.344652968617083e-08
v -0.005740253254771233 -0.013858193531632423 0.10999996960163116
v -0.00707095256075263 -0.013228818774223328 -8.344652968617083e-08
v -0.00707095256075263 -0.013228818774223328 0.10999996960163116
v -0.008333554491400719 -0.012472043745219707 -8.344652968617083e-08
v -0.008333554491400719 -0.012472043745219707 0.10999996960163116
v -0.00951590109616518 -0.011595156043767929 -8.344652968617083e-08
v -0.00951590109616518 -0.011595156043767929 0.10999996960163116
v -0.010606602765619755 -0.010606600902974606 -8.344652968617083e-08
v -0.010606602765619755 -0.010606600902974606 0.10999996960163116
v -0.011595157906413078 -0.009515899233520031 -8.344652968617083e-08
v -0.011595157906413078 -0.009515899233520031 0.10999996960163116
v -0.012472045607864857 -0.00833355262875557 -8.344652968617083e-08
v -0.012472045607864857 -0.00833355262875557 0.10999996960163116
v -0.013228820636868477 -0.007070949766784906 -8.344652968617083e-08
v -0.013228820636868477 -0.007070949766784906 0.10999996960163116
v -0.013858193531632423 -0.005740250460803509 -8.344652968617083e-08
v -0.013858193531632423 -0.005740250460803509 0.10999996960163116
v -0.014354105107486248 -0.004354268312454224 -8.344652968617083e-08
v -0.014354105107486248 -0.004354268312454224 0.10999996960163116
v -0.014711778610944748 -0.0029263533651828766 -8.344652968617083e-08
v -0.014711778610944748 -0.0029263533651828766 0.10999996960163116
v -0.01492777094244957 -0.0014702557818964124 -8.344652968617083e-08
v -0.01492777094244957 -0.0014702557818964124 0.10999996960163116
usemtl Alu
f 1 2 4 3
f 3 4 8 7
f 7 8 6 5
f 5 6 2 1
f 3 7 5 1
f 8 4 2 6
f 25 305 47
f 305 25 310
f 310 25 313
f 313 25 26
f 313 26 317
f 317 26 320
f 320 26 48
f 320 48 324
f 324 48 327
f 327 48 21
f 327 21 329
f 329 21 49
f 329 49 332
f 332 49 20
f 332 20 333
f 333 20 51
f 333 51 338
f 338 51 53
f 338 53 339
f 339 53 344
f 344 53 52
f 344 52 347
f 347 52 54
f 347 54 350
f 350 54 27
f 350 27 352
f 352 27 55
f 352 55 355
f 355 55 19
f 355 19 358
f 358 19 362
f 362 19 56
f 362 56 364
f 364 56 366
f 366 56 57
f 366 57 365
f 365 57 30
f 45 44 9
f 44 45 18
f 18 45 46
f 18 46 43
f 43 46 42
f 42 46 47
f 42 47 17
f 42 17 24
f 17 47 305
f 24 17 302
f 24 302 29
f 24 29 41
f 41 29 307
f 41 307 312
f 41 312 10
f 10 312 316
f 10 316 318
f 10 318 40
f 40 318 321
f 40 321 39
f 39 321 326
f 39 326 16
f 16 326 328
f 16 328 38
f 38 328 331
f 38 331 37
f 37 331 334
f 37 334 15
f 37 15 23
f 23 15 336
f 23 336 14
f 14 336 341
f 14 341 13
f 13 341 345
f 13 345 12
f 12 345 349
f 12 349 11
f 11 349 351
f 11 351 353
f 11 353 22
f 22 353 357
f 22 357 361
f 22 361 35
f 35 361 30
f 35 30 57
f 35 57 58
f 35 58 34
f 34 58 28
f 34 28 33
f 33 28 31
f 33 31 32
f 31 522 32
f 522 31 514
f 32 579 33
f 579 32 522
f 33 506 34
f 506 33 579
f 34 523 35
f 523 34 506
f 35 577 22
f 577 35 523
f 22 504 11
f 504 22 577
f 504 12 11
f 12 504 541
f 541 13 12
f 13 541 575
f 575 14 13
f 14 575 36
f 36 23 14
f 23 36 573
f 573 37 23
f 37 573 502
f 502 38 37
f 38 502 599
f 599 16 38
f 16 599 629
f 629 39 16
f 39 629 628
f 628 40 39
f 40 628 627
f 627 10 40
f 10 627 598
f 598 41 10
f 41 598 597
f 619 41 597
f 41 619 24
f 594 24 619
f 24 594 42
f 620 42 594
f 42 620 43
f 621 43 620
f 43 621 18
f 626 18 621
f 18 626 44
f 625 44 626
f 44 625 9
f 592 9 625
f 9 592 45
f 593 45 592
f 45 593 46
f 593 47 46
f 47 593 595
f 595 25 47
f 25 595 596
f 596 26 25
f 26 596 618
f 26 617 48
f 617 26 618
f 48 616 21
f 616 48 617
f 21 615 49
f 615 21 616
f 49 613 20
f 613 49 615
f 20 603 51
f 603 20 613
f 51 50 53
f 50 51 603
f 50 52 53
f 52 50 510
f 510 54 52
f 54 510 538
f 538 27 54
f 27 538 562
f 562 55 27
f 55 562 560
f 560 19 55
f 19 560 517
f 19 559 56
f 559 19 517
f 56 558 57
f 558 56 559
f 57 515 58
f 515 57 558
f 58 555 28
f 555 58 515
f 28 514 31
f 514 28 555
f 59 103 100
f 103 59 106
f 106 59 95
f 106 95 60
f 60 95 66
f 60 66 111
f 111 66 92
f 111 92 65
f 65 92 94
f 65 94 61
f 61 94 97
f 61 97 67
f 67 97 99
f 67 99 117
f 117 99 102
f 117 102 62
f 62 102 104
f 62 104 113
f 113 104 108
f 113 108 63
f 63 108 110
f 63 110 64
f 88 142 89
f 142 88 87
f 142 87 145
f 145 87 86
f 145 86 68
f 68 86 85
f 68 85 149
f 149 85 69
f 149 69 148
f 148 69 84
f 148 84 146
f 146 84 144
f 144 84 126
f 144 126 140
f 140 126 123
f 140 123 83
f 140 83 138
f 138 83 70
f 70 83 90
f 70 90 135
f 135 90 91
f 135 91 71
f 71 91 82
f 71 82 130
f 130 82 119
f 130 119 81
f 130 81 80
f 80 79 129
f 129 79 72
f 72 79 73
f 72 73 74
f 72 74 122
f 122 74 118
f 122 118 75
f 75 118 76
f 75 76 77
f 77 76 78
f 79 80 81
f 92 195 93
f 195 92 66
f 94 93 151
f 92 93 94
f 195 95 96
f 95 195 66
f 97 151 194
f 151 97 94
f 96 59 98
f 59 96 95
f 99 194 152
f 194 99 97
f 98 100 101
f 100 98 59
f 102 152 153
f 152 102 99
f 101 103 170
f 103 101 100
f 104 153 105
f 153 104 102
f 170 106 171
f 106 170 103
f 104 107 108
f 105 107 104
f 171 60 172
f 60 171 106
f 108 109 110
f 109 108 107
f 60 173 172
f 173 60 111
f 110 180 64
f 180 110 109
f 111 112 173
f 112 111 65
f 64 213 63
f 213 64 180
f 65 212 112
f 212 65 61
f 63 114 113
f 114 63 213
f 212 67 174
f 67 212 61
f 113 115 62
f 115 113 114
f 67 116 174
f 116 67 117
f 117 115 116
f 115 117 62
f 79 191 73
f 191 79 211
f 73 190 74
f 190 73 191
f 79 175 211
f 175 79 81
f 74 189 118
f 189 74 190
f 81 177 175
f 177 81 119
f 118 188 76
f 188 118 189
f 119 120 177
f 120 119 82
f 76 185 78
f 185 76 188
f 82 178 120
f 178 82 91
f 78 165 77
f 165 78 185
f 91 205 178
f 205 91 90
f 77 121 75
f 121 77 165
f 90 181 205
f 181 90 83
f 75 164 122
f 164 75 121
f 83 124 181
f 124 83 123
f 122 125 72
f 125 122 164
f 123 127 124
f 127 123 126
f 72 128 129
f 128 72 125
f 126 206 127
f 206 126 84
f 162 129 128
f 129 162 80
f 84 207 206
f 207 84 69
f 131 80 162
f 80 131 130
f 207 85 132
f 85 207 69
f 133 130 131
f 130 133 71
f 132 86 208
f 86 132 85
f 134 71 133
f 71 134 135
f 208 87 136
f 87 208 86
f 187 135 134
f 135 187 70
f 136 88 168
f 88 136 87
f 137 70 187
f 70 137 138
f 168 89 139
f 89 168 88
f 210 138 137
f 138 210 140
f 139 142 141
f 142 139 89
f 143 140 210
f 140 143 144
f 141 145 159
f 145 141 142
f 209 144 143
f 144 209 146
f 159 68 147
f 68 159 145
f 161 146 209
f 146 161 148
f 147 149 150
f 149 147 68
f 150 148 161
f 148 150 149
f 293 98 101
f 98 293 96
f 96 293 195
f 195 293 179
f 195 179 93
f 93 179 151
f 151 179 194
f 194 179 152
f 152 179 153
f 153 179 105
f 105 179 107
f 107 179 109
f 109 179 180
f 204 154 183
f 154 204 299
f 299 204 301
f 301 204 337
f 301 337 193
f 193 337 343
f 193 343 286
f 286 343 155
f 155 343 287
f 287 343 192
f 192 343 288
f 288 343 156
f 156 343 342
f 156 342 196
f 156 196 289
f 289 196 290
f 290 196 197
f 290 197 176
f 176 197 211
f 211 197 191
f 191 197 198
f 191 198 190
f 190 198 356
f 190 356 189
f 189 356 188
f 188 356 359
f 188 359 185
f 309 157 308
f 157 309 303
f 303 309 314
f 303 314 304
f 304 314 306
f 306 314 158
f 306 158 311
f 311 158 319
f 311 319 139
f 311 139 315
f 315 139 141
f 315 141 159
f 315 159 160
f 160 159 147
f 160 147 150
f 160 150 322
f 322 150 161
f 322 161 325
f 325 161 209
f 325 209 202
f 202 209 143
f 202 143 330
f 330 143 210
f 330 210 137
f 330 137 335
f 335 137 187
f 335 187 134
f 335 134 133
f 335 133 131
f 335 131 186
f 186 131 162
f 186 162 163
f 163 162 128
f 163 128 340
f 340 128 125
f 340 125 346
f 346 125 164
f 346 164 348
f 348 164 121
f 348 121 165
f 348 165 184
f 184 165 185
f 184 185 359
f 184 359 199
f 184 199 354
f 354 199 200
f 354 200 201
f 201 200 166
f 201 166 360
f 360 166 167
f 360 167 363
f 323 139 319
f 139 323 168
f 168 323 136
f 136 323 169
f 136 169 208
f 208 169 132
f 132 169 203
f 132 203 207
f 207 203 183
f 207 183 154
f 207 154 297
f 207 297 206
f 206 297 296
f 206 296 295
f 206 295 127
f 127 295 182
f 127 182 124
f 124 182 294
f 124 294 181
f 181 294 293
f 181 293 205
f 205 293 170
f 170 293 101
f 205 170 171
f 205 171 172
f 205 172 173
f 205 173 112
f 205 112 178
f 178 112 212
f 178 212 174
f 178 174 116
f 178 116 115
f 178 115 114
f 178 114 213
f 178 213 180
f 178 179 292
f 178 292 120
f 120 292 291
f 120 291 177
f 177 291 214
f 177 214 175
f 175 214 215
f 175 215 211
f 211 215 176
f 179 178 180
f 216 218 223
f 218 216 217
f 226 252 253
f 252 226 230
f 230 226 225
f 230 225 233
f 233 225 227
f 233 227 218
f 218 227 224
f 218 224 223
f 223 224 219
f 223 219 231
f 231 219 239
f 231 239 251
f 251 239 220
f 251 220 250
f 250 220 242
f 250 242 222
f 222 242 221
f 222 221 229
f 229 221 243
f 229 243 228
f 228 243 244
f 228 244 247
f 265 223 231
f 223 265 216
f 217 233 218
f 233 217 232
f 235 226 234
f 226 235 225
f 236 225 235
f 225 236 227
f 227 237 224
f 237 227 236
f 224 238 219
f 238 224 237
f 219 240 239
f 240 219 238
f 239 241 220
f 241 239 240
f 220 257 242
f 257 220 241
f 257 221 242
f 221 257 258
f 221 259 243
f 259 221 258
f 243 245 244
f 245 243 259
f 246 244 245
f 247 244 246
f 247 248 228
f 248 247 246
f 228 249 229
f 249 228 248
f 229 262 222
f 262 229 249
f 262 250 222
f 250 262 263
f 263 251 250
f 251 263 264
f 264 231 251
f 231 264 265
f 269 233 232
f 233 269 230
f 260 230 269
f 230 260 252
f 270 252 260
f 252 270 253
f 234 253 270
f 253 234 226
f 276 254 298
f 254 276 271
f 270 276 300
f 270 300 234
f 234 300 235
f 235 300 255
f 235 255 236
f 236 255 275
f 236 275 237
f 237 275 274
f 237 274 238
f 238 274 273
f 238 273 240
f 240 273 241
f 241 273 256
f 241 256 257
f 257 256 272
f 257 272 258
f 258 272 277
f 258 277 259
f 259 277 278
f 259 278 245
f 245 278 246
f 271 260 268
f 260 271 270
f 268 260 269
f 268 269 232
f 268 232 267
f 267 232 217
f 267 217 261
f 261 217 216
f 261 216 266
f 266 216 265
f 266 265 285
f 285 265 264
f 285 264 263
f 285 263 284
f 284 263 262
f 284 262 283
f 283 262 249
f 283 249 282
f 282 249 248
f 282 248 281
f 281 248 246
f 281 246 278
f 281 278 279
f 281 279 280
f 270 271 276
f 275 193 286
f 193 275 255
f 274 286 155
f 286 274 275
f 273 155 287
f 155 273 274
f 256 287 192
f 287 256 273
f 272 192 288
f 192 272 256
f 277 288 156
f 288 277 272
f 277 289 278
f 289 277 156
f 278 290 279
f 290 278 289
f 279 176 280
f 176 279 290
f 280 215 281
f 215 280 176
f 281 214 282
f 214 281 215
f 282 291 283
f 291 282 214
f 292 283 291
f 283 292 284
f 179 284 292
f 284 179 285
f 293 285 179
f 285 293 266
f 294 266 293
f 266 294 261
f 182 261 294
f 261 182 267
f 295 267 182
f 267 295 268
f 296 268 295
f 268 296 271
f 297 271 296
f 271 297 254
f 154 254 297
f 254 154 298
f 299 298 154
f 298 299 276
f 301 276 299
f 276 301 300
f 193 300 301
f 300 193 255
f 17 303 302
f 303 17 157
f 302 304 29
f 304 302 303
f 305 157 17
f 157 305 308
f 29 306 307
f 306 29 304
f 310 308 305
f 308 310 309
f 307 311 312
f 311 307 306
f 313 309 310
f 309 313 314
f 312 315 316
f 315 312 311
f 317 314 313
f 314 317 158
f 318 315 160
f 320 158 317
f 158 320 319
f 318 322 321
f 322 318 160
f 324 319 320
f 319 324 323
f 321 325 326
f 325 321 322
f 169 324 327
f 324 169 323
f 326 202 328
f 202 326 325
f 203 327 329
f 327 203 169
f 328 330 331
f 330 328 202
f 183 329 332
f 329 183 203
f 331 335 334
f 335 331 330
f 204 332 333
f 332 204 183
f 334 186 15
f 186 334 335
f 337 333 338
f 333 337 204
f 15 163 336
f 163 15 186
f 343 338 339
f 338 343 337
f 336 340 341
f 340 336 163
f 342 339 344
f 339 342 343
f 341 346 345
f 346 341 340
f 196 344 347
f 344 196 342
f 345 348 349
f 348 345 346
f 197 347 350
f 347 197 196
f 184 349 348
f 349 184 351
f 198 350 352
f 350 198 197
f 354 351 184
f 351 354 353
f 356 352 355
f 352 356 198
f 201 353 354
f 353 201 357
f 356 358 359
f 358 356 355
f 360 357 201
f 357 360 361
f 359 362 199
f 362 359 358
f 363 361 360
f 361 363 30
f 199 364 200
f 364 199 362
f 167 30 363
f 30 167 365
f 200 366 166
f 366 200 364
f 166 365 167
f 365 166 366
f 316 315 318
f 367 501 368
f 501 367 373
f 401 567 568
f 567 401 400
f 400 401 369
f 400 369 370
f 370 369 405
f 370 405 393
f 393 405 470
f 470 405 399
f 470 399 413
f 413 399 398
f 398 399 570
f 398 570 412
f 412 570 371
f 371 570 571
f 371 571 467
f 467 571 415
f 415 571 572
f 415 572 416
f 416 572 397
f 416 397 367
f 367 397 372
f 367 372 373
f 373 372 374
f 373 374 588
f 588 374 587
f 587 374 574
f 587 574 411
f 411 574 375
f 411 375 410
f 410 375 576
f 410 576 585
f 585 576 396
f 585 396 459
f 459 396 395
f 459 395 583
f 583 395 458
f 458 395 578
f 458 578 409
f 409 578 376
f 376 578 406
f 376 406 394
f 394 406 580
f 580 406 407
f 580 407 408
f 393 591 566
f 591 393 470
f 566 591 469
f 566 469 468
f 566 468 377
f 566 377 378
f 378 377 392
f 378 392 544
f 378 544 565
f 565 544 414
f 565 414 379
f 565 379 380
f 380 379 391
f 380 391 564
f 564 391 381
f 564 381 382
f 382 381 383
f 382 383 390
f 390 383 545
f 390 545 384
f 384 545 546
f 384 546 548
f 384 548 563
f 563 548 549
f 563 549 561
f 561 549 550
f 561 550 404
f 404 550 385
f 404 385 386
f 386 385 387
f 386 387 389
f 386 389 388
f 388 389 423
f 388 423 424
f 388 424 403
f 403 424 553
f 403 553 557
f 403 557 402
f 402 557 556
f 413 591 470
f 591 413 469
f 469 413 468
f 468 413 398
f 468 398 377
f 377 398 412
f 377 412 392
f 392 412 371
f 392 371 544
f 544 371 467
f 544 467 414
f 414 467 415
f 414 415 379
f 379 415 416
f 379 416 391
f 391 416 367
f 391 367 381
f 381 367 479
f 479 367 373
f 479 373 478
f 478 373 477
f 477 373 476
f 476 373 588
f 476 588 417
f 417 588 475
f 475 588 474
f 474 588 473
f 473 588 587
f 473 587 418
f 418 587 472
f 472 587 466
f 466 587 411
f 466 411 419
f 419 411 471
f 471 411 453
f 471 453 490
f 453 411 420
f 420 411 494
f 494 411 465
f 465 411 421
f 421 411 464
f 464 411 463
f 463 411 462
f 462 411 410
f 462 410 498
f 498 410 461
f 461 410 460
f 460 410 497
f 497 410 422
f 422 410 549
f 549 410 550
f 550 410 585
f 550 585 385
f 385 585 459
f 385 459 387
f 387 459 583
f 387 583 389
f 389 583 458
f 389 458 423
f 423 458 409
f 423 409 424
f 424 409 376
f 424 376 553
f 553 376 394
f 553 394 425
f 425 394 426
f 381 450 383
f 450 381 479
f 383 450 457
f 383 457 456
f 383 456 427
f 383 427 545
f 545 427 486
f 545 486 487
f 545 487 455
f 545 455 428
f 545 428 546
f 546 428 454
f 546 454 429
f 546 429 488
f 546 488 548
f 548 488 489
f 548 489 490
f 548 490 453
f 548 453 452
f 548 452 430
f 548 430 431
f 548 431 432
f 548 432 433
f 548 433 495
f 548 495 434
f 548 434 549
f 549 434 451
f 549 451 435
f 549 435 436
f 549 436 496
f 549 496 422
f 437 450 479
f 450 437 449
f 449 437 438
f 449 438 439
f 439 438 480
f 439 480 448
f 448 480 481
f 448 481 493
f 493 481 447
f 493 447 446
f 446 445 440
f 440 445 482
f 440 482 444
f 444 482 483
f 444 483 441
f 441 483 484
f 441 484 492
f 492 484 485
f 492 485 491
f 491 485 443
f 491 443 442
f 442 443 471
f 442 471 490
f 445 446 447
f 373 499 501
f 499 373 588
f 600 612 624
f 624 611 600
f 611 623 600
f 611 604 623
f 604 528 623
f 604 539 528
f 539 521 528
f 521 569 528
f 521 527 569
f 527 590 569
f 590 622 569
f 590 589 622
f 589 500 622
f 500 614 622
f 500 526 614
f 526 532 614
f 532 601 614
f 532 531 601
f 531 540 601
f 531 368 540
f 368 602 540
f 368 501 602
f 501 502 602
f 501 499 502
f 499 525 502
f 525 573 502
f 525 524 573
f 524 36 573
f 524 503 36
f 503 575 36
f 503 586 575
f 586 541 575
f 586 584 541
f 584 504 541
f 584 530 504
f 530 582 504
f 582 577 504
f 582 505 577
f 505 581 577
f 581 523 577
f 581 529 523
f 529 522 523
f 522 506 523
f 522 579 506
f 539 610 533
f 533 521 539
f 610 534 533
f 610 542 534
f 610 605 542
f 605 543 542
f 605 535 543
f 605 606 535
f 606 520 535
f 606 507 520
f 606 609 507
f 609 519 507
f 609 607 519
f 607 518 519
f 607 608 518
f 608 508 518
f 608 50 508
f 50 509 508
f 50 510 509
f 510 536 509
f 510 547 536
f 510 538 547
f 538 537 547
f 538 562 537
f 562 551 537
f 562 560 551
f 560 511 551
f 560 517 511
f 517 512 511
f 517 516 512
f 517 559 516
f 559 513 516
f 559 552 513
f 559 558 552
f 558 554 552
f 558 514 554
f 558 515 514
f 515 555 514
f 416 368 531
f 368 416 367
f 534 591 533
f 591 534 469
f 469 534 468
f 542 468 534
f 468 542 377
f 543 377 542
f 377 543 392
f 535 392 543
f 392 535 544
f 520 544 535
f 544 520 414
f 379 520 507
f 520 379 414
f 391 507 519
f 507 391 379
f 381 519 518
f 519 381 391
f 383 518 508
f 518 383 381
f 545 508 509
f 508 545 383
f 546 509 536
f 509 546 545
f 548 536 547
f 536 548 546
f 549 547 537
f 547 549 548
f 550 537 551
f 537 550 549
f 385 551 511
f 551 385 550
f 385 512 387
f 512 385 511
f 387 516 389
f 516 387 512
f 389 513 423
f 513 389 516
f 423 552 424
f 552 423 513
f 424 554 553
f 554 424 552
f 557 554 514
f 554 557 553
f 555 557 514
f 557 555 556
f 515 556 555
f 556 515 402
f 558 402 515
f 402 558 403
f 559 403 558
f 403 559 388
f 517 388 559
f 388 517 386
f 404 517 560
f 517 404 386
f 560 561 404
f 562 561 560
f 563 562 538
f 561 562 563
f 384 538 510
f 538 384 563
f 390 510 50
f 510 390 384
f 382 50 608
f 50 382 390
f 564 608 607
f 608 564 382
f 380 607 609
f 607 380 564
f 565 609 606
f 609 565 380
f 378 606 605
f 606 378 565
f 378 610 566
f 610 378 605
f 566 539 393
f 539 566 610
f 393 604 370
f 604 393 539
f 370 611 400
f 611 370 604
f 400 624 567
f 624 400 611
f 567 612 568
f 612 567 624
f 568 600 401
f 600 568 612
f 401 623 369
f 623 401 600
f 369 528 405
f 528 369 623
f 405 569 399
f 569 405 528
f 399 622 570
f 622 399 569
f 571 622 614
f 622 571 570
f 572 614 601
f 614 572 571
f 397 601 540
f 601 397 572
f 372 540 602
f 540 372 397
f 502 372 602
f 372 502 374
f 574 502 573
f 502 574 374
f 375 573 36
f 573 375 574
f 576 36 575
f 36 576 375
f 396 575 541
f 575 396 576
f 395 541 504
f 541 395 396
f 577 395 504
f 395 577 578
f 523 578 577
f 578 523 406
f 506 406 523
f 406 506 407
f 579 407 506
f 407 579 408
f 522 408 579
f 408 522 580
f 394 522 529
f 522 394 580
f 394 581 376
f 581 394 529
f 376 505 409
f 505 376 581
f 409 582 458
f 582 409 505
f 458 530 583
f 530 458 582
f 583 584 459
f 584 583 530
f 585 584 586
f 584 585 459
f 410 586 503
f 586 410 585
f 411 503 524
f 503 411 410
f 587 524 525
f 524 587 411
f 588 525 499
f 525 588 587
f 415 531 532
f 531 415 416
f 467 532 526
f 532 467 415
f 500 467 526
f 467 500 371
f 589 371 500
f 371 589 412
f 590 412 589
f 412 590 398
f 527 398 590
f 398 527 413
f 521 413 527
f 413 521 470
f 533 470 521
f 470 533 591
f 621 625 626
f 625 621 592
f 592 621 620
f 592 620 593
f 593 620 594
f 593 594 595
f 595 594 619
f 595 619 596
f 596 619 597
f 596 597 618
f 618 597 598
f 618 598 617
f 617 598 627
f 617 627 616
f 616 627 628
f 616 628 615
f 615 628 629
f 615 629 613
f 613 629 599
f 613 599 612
f 612 599 600
f 600 599 623
f 623 599 528
f 528 599 569
f 569 599 622
f 622 599 614
f 614 599 601
f 601 599 540
f 540 599 602
f 602 599 502
f 613 624 603
f 624 613 612
f 603 624 611
f 603 611 604
f 603 604 539
f 603 539 610
f 603 610 605
f 603 605 606
f 603 606 609
f 603 609 607
f 603 607 608
f 603 608 50
f 425 426 580 557
f 557 580 522 514
f 630 631 633 632
f 632 633 635 634
f 634 635 637 636
f 636 637 639 638
f 638 639 641 640
f 640 641 643 642
f 642 643 645 644
f 644 645 647 646
f 646 647 649 648
f 648 649 651 650
f 650 651 653 652
f 652 653 655 654
f 654 655 657 656
f 656 657 659 658
f 658 659 661 660
f 660 661 663 662
f 662 663 665 664
f 664 665 667 666
f 666 667 669 668
f 668 669 671 670
f 670 671 673 672
f 672 673 675 674
f 674 675 677 676
f 676 677 679 678
f 678 679 681 680
f 680 681 683 682
f 682 683 685 684
f 684 685 687 686
f 686 687 689 688
f 688 689 691 690
f 690 691 693 692
f 692 693 695 694
f 694 695 697 696
f 696 697 699 698
f 698 699 701 700
f 700 701 703 702
f 702 703 705 704
f 704 705 707 706
f 706 707 709 708
f 708 709 711 710
f 710 711 713 712
f 712 713 715 714
f 714 715 717 716
f 716 717 719 718
f 718 719 721 720
f 720 721 723 722
f 722 723 725 724
f 724 725 727 726
f 726 727 729 728
f 728 729 731 730
f 730 731 733 732
f 732 733 735 734
f 734 735 737 736
f 736 737 739 738
f 738 739 741 740
f 740 741 743 742
f 742 743 745 744
f 744 745 747 746
f 746 747 749 748
f 748 749 751 750
f 750 751 753 752
f 752 753 755 754
f 633 631 757 755 753 751 749 747 745 743 741 739 737 735 733 731 729 727 725 723 721 719 717 715 713 711 709 707 705 703 701 699 697 695 693 691 689 687 685 683 681 679 677 675 673 671 669 667 665 663 661 659 657 655 653 651 649 647 645 643 641 639 637 635
f 754 755 757 756
f 756 757 631 630
f 630 632 634 636 638 640 642 644 646 648 650 652 654 656 658 660 662 664 666 668 670 672 674 676 678 680 682 684 686 688 690 692 694 696 698 700 702 704 706 708 710 712 714 716 718 720 722 724 726 728 730 732 734 736 738 740 742 744 746 748 750 752 754 756
