mtllib Cube_004.mtl
v 0.050000037997961044 0.03499995172023773 -0.09400004893541336
v 0.050000037997961044 0.03499995172023773 -0.0440000519156456
v 0.05000000447034836 -0.03500005230307579 -0.09400004893541336
v 0.05000000447034836 -0.03500005230307579 -0.0440000519156456
v -0.049999967217445374 0.03499998897314072 -0.09400004893541336
v -0.049999967217445374 0.03499998897314072 -0.044000044465065
v -0.04999999701976776 -0.03500001132488251 -0.09400004893541336
v -0.04999999701976776 -0.03500001132488251 -0.044000044465065
v -0.11684386432170868 0.002309551928192377 -0.09400004148483276
v -0.11684386432170868 0.002309548668563366 -0.09900004416704178
v -0.11652516573667526 -0.003986057359725237 -0.09400004148483276
v -0.11652516573667526 -0.003986060153692961 -0.09900004416704178
v -0.11653026193380356 0.008499248884618282 -0.09400004148483276
v -0.11653026193380356 0.008499246090650558 -0.09900004416704178
v -0.11556742340326309 0.014583847485482693 -0.09400004148483276
v -0.11556742340326309 0.014583845622837543 -0.09900004416704178
v -0.11392982304096222 0.02057318389415741 -0.09400004148483276
v -0.11392982304096222 0.02057318203151226 -0.09900004416704178
v -0.11555693298578262 -0.010351658798754215 -0.09400004148483276
v -0.11555693298578262 -0.010351661592721939 -0.09900004416704178
v -0.11391341686248779 -0.016742205247282982 -0.09400004148483276
v -0.11391341686248779 -0.01674220897257328 -0.09900004416704178
v -0.10418732464313507 0.03762451186776161 -0.09400004148483276
v -0.10418732464313507 0.037624508142471313 -0.09900004416704178
v -0.10846250504255295 0.03225018456578255 -0.09400004148483276
v -0.10846251994371414 0.03225018084049225 -0.09900004416704178
v -0.11159193515777588 0.026477152481675148 -0.09400004148483276
v -0.11159193515777588 0.02647714875638485 -0.09900004416704178
v -0.11156881600618362 -0.02311270870268345 -0.09400004148483276
v -0.11156881600618362 -0.023112712427973747 -0.09900004416704178
v -0.1084318533539772 -0.029362570494413376 -0.09400004148483276
v -0.1084318533539772 -0.029362574219703674 -0.09900004416704178
v -0.10414930433034897 -0.03516894951462746 -0.09400004148483276
v -0.10414930433034897 -0.03516894951462746 -0.09900004416704178
v -0.09834639728069305 0.04227682575583458 -0.09400004148483276
v -0.09834639728069305 0.04227682575583458 -0.09900004416704178
v -0.098302461206913 -0.04015345126390457 -0.09400004148483276
v -0.098302461206913 -0.04015345126390457 -0.09900004416704178
v -0.08051366358995438 0.04822801426053047 -0.09400004893541336
v -0.08051366358995438 0.04822801426053047 -0.09900005161762238
v -0.09051970392465591 0.04588392376899719 -0.09400004148483276
v -0.09051970392465591 0.045883920043706894 -0.09900004416704178
v -0.09047255665063858 -0.043937798589468 -0.09400004148483276
v -0.09047255665063858 -0.043937798589468 -0.09900004416704178
v -0.06886801868677139 0.04945367947220802 -0.09400004893541336
v -0.06886801868677139 0.04945367947220802 -0.09900005161762238
v -0.08046672493219376 -0.04627713933587074 -0.09400004893541336
v -0.08046672493219376 -0.04627714306116104 -0.09900005161762238
v -0.0689946711063385 -0.04746105894446373 -0.09400004893541336
v -0.0689946711063385 -0.04746105894446373 -0.09900005161762238
v -0.05697145313024521 -0.047912631183862686 -0.09400004893541336
v -0.05697145313024521 -0.047912631183862686 -0.09900005161762238
v -0.05653044581413269 0.049379512667655945 -0.09400004893541336
v -0.05653044581413269 0.049379512667655945 -0.09900005161762238
v -0.045363351702690125 -0.0480550117790699 -0.09400004893541336
v -0.045363351702690125 -0.0480550155043602 -0.09900005161762238
v -0.046128422021865845 0.0493607372045517 -0.09400004893541336
v -0.043800294399261475 0.0494999885559082 -0.09400004893541336
v -0.04380026459693909 0.0494999885559082 -0.09900005161762238
v -0.046128422021865845 0.0493607372045517 -0.09900005161762238
v -0.03438686579465866 -0.04801938310265541 -0.09400004893541336
v -0.03438686579465866 -0.04801938310265541 -0.09900005161762238
v -0.024965418502688408 -0.04815750941634178 -0.09400004893541336
v -0.024965418502688408 -0.04815750941634178 -0.09900005161762238
v -0.014188067987561226 -0.04892326146364212 -0.09400004893541336
v -0.014188067987561226 -0.04892326146364212 -0.09900005161762238
v -0.0022271908819675446 -0.04943324252963066 -0.09400004893541336
v -0.002227191114798188 -0.04943324252963066 -0.09900005161762238
v 0.011725339107215405 -0.05001966655254364 -0.09400004893541336
v 0.011725339107215405 -0.05001966655254364 -0.09900005161762238
v 0.02381095476448536 -0.05050003156065941 -0.09400004893541336
v 0.02381087839603424 -0.05050003156065941 -0.09900005161762238
v 0.11514250934123993 0.04949995502829552 -0.09400005638599396
v 0.11514247953891754 0.04949995502829552 -0.09900005906820297
v 0.1269044578075409 0.04887524992227554 -0.09400005638599396
v 0.1269044578075409 0.04887524992227554 -0.09900005906820297
v 0.13863086700439453 0.048155441880226135 -0.09400005638599396
v 0.13863085210323334 0.04815543442964554 -0.09900005906820297
v 0.1485152244567871 0.047453757375478745 -0.09400005638599396
v 0.1485152244567871 0.047453753650188446 -0.09900005906820297
v 0.14862163364887238 -0.0505000576376915 -0.09400005638599396
v 0.14862167835235596 -0.050500061362981796 -0.09900005906820297
v 0.1571681648492813 -0.04934503138065338 -0.09400005638599396
v 0.1571681648492813 -0.04934503138065338 -0.09900005906820297
v 0.15732057392597198 0.046736154705286026 -0.09400005638599396
v 0.15732057392597198 0.04673615097999573 -0.09900005906820297
v 0.16563266515731812 -0.047892019152641296 -0.09400005638599396
v 0.16563266515731812 -0.047892019152641296 -0.09900005906820297
v 0.1658100038766861 0.045968566089868546 -0.09400005638599396
v 0.1658100038766861 0.04596855863928795 -0.09900005906820297
v 0.17454297840595245 0.04509889706969261 -0.09400005638599396
v 0.17454297840595245 0.04509889706969261 -0.09900005906820297
v 0.174352765083313 -0.046175163239240646 -0.09400005638599396
v 0.174352765083313 -0.046175163239240646 -0.09900005906820297
v 0.18307457864284515 -0.044147659093141556 -0.09400005638599396
v 0.18307457864284515 -0.044147659093141556 -0.09900005906820297
v 0.18326467275619507 0.04400315135717392 -0.09400005638599396
v 0.18326467275619507 0.04400314763188362 -0.09900005906820297
v 0.19133971631526947 -0.041750211268663406 -0.09400005638599396
v 0.19133971631526947 -0.041750211268663406 -0.09900005906820297
v 0.1915166825056076 0.042539287358522415 -0.09400005638599396
v 0.1915166825056076 0.04253928363323212 -0.09900005906820297
v 0.19884057343006134 0.040565311908721924 -0.09400005638599396
v 0.19884057343006134 0.040565308183431625 -0.09900005906820297
v 0.21401020884513855 0.03065878339111805 -0.09400005638599396
v 0.21401020884513855 0.0306587815284729 -0.09900005906820297
v 0.20986320078372955 0.034665998071432114 -0.09400005638599396
v 0.20986320078372955 0.034665994346141815 -0.09900005906820297
v 0.20490208268165588 0.03795759752392769 -0.09400005638599396
v 0.20490208268165588 0.03795759379863739 -0.09900005906820297
v 0.2176293134689331 0.02590421587228775 -0.09400005638599396
v 0.2176293134689331 0.0259042140096426 -0.09900005906820297
v 0.22090737521648407 0.02041226625442505 -0.09400005638599396
v 0.22090737521648407 0.02041226252913475 -0.09900005906820297
v 0.22363406419754028 0.014359774067997932 -0.09400005638599396
v 0.22363406419754028 0.014359772205352783 -0.09900005906820297
v 0.22549983859062195 0.007965239696204662 -0.09400005638599396
v 0.22549983859062195 0.007965237833559513 -0.09900005906820297
v 0.22619503736495972 0.0014472183538600802 -0.09400005638599396
v 0.22619503736495972 0.0014472168404608965 -0.09900005906820297
v 0.2255125343799591 -0.0049924179911613464 -0.09400005638599396
v 0.2255125343799591 -0.004992419388145208 -0.09900005906820297
v 0.21763400733470917 -0.022554505616426468 -0.09400005638599396
v 0.21763402223587036 -0.022554507479071617 -0.09900005906820297
v 0.22365474700927734 -0.011218355968594551 -0.09400005638599396
v 0.22365474700927734 -0.0112183578312397 -0.09900005906820297
v 0.22092697024345398 -0.017111923545598984 -0.09400005638599396
v 0.22092697024345398 -0.017111925408244133 -0.09900005906820297
v 0.21398374438285828 -0.027450529858469963 -0.09400005638599396
v 0.21398374438285828 -0.027450529858469963 -0.09900005906820297
v 0.20979520678520203 -0.03179721161723137 -0.09400005638599396
v 0.20979520678520203 -0.03179721161723137 -0.09900005906820297
v 0.20479001104831696 -0.03561478853225708 -0.09400005638599396
v 0.20479001104831696 -0.03561478853225708 -0.09900005906820297
v 0.1986900120973587 -0.038923535495996475 -0.09400005638599396
v 0.1986900120973587 -0.038923535495996475 -0.09900005906820297
v 9.215413987462284e-10 -0.00999997928738594 0.02200002409517765
v -1.619061329449778e-08 -0.010000002570450306 -0.06499998271465302
v 0.0009801724227145314 -0.009951826184988022 0.02200002409517765
v 0.0009801553096622229 -0.009951849468052387 -0.06499998271465302
v 0.0019509042613208294 -0.009807833470404148 0.02200002409517765
v 0.0019508871482685208 -0.009807855822145939 -0.06499998271465302
v 0.0029028477147221565 -0.009569384157657623 0.02200002409517765
v 0.00290283071808517 -0.009569406509399414 -0.06499998271465302
v 0.003826836124062538 -0.009238775819540024 0.02200002409517765
v 0.0038268191274255514 -0.009238798171281815 -0.06499998271465302
v 0.004713968839496374 -0.00881919264793396 0.02200002409517765
v 0.004713951610028744 -0.00881921499967575 -0.06499998271465302
v 0.005555704236030579 -0.008314676582813263 0.02200002409517765
v 0.005555687006562948 -0.008314699865877628 -0.06499998271465302
v 0.006343935150653124 -0.007730085402727127 0.02200002409517765
v 0.0063439179211854935 -0.0077301086857914925 -0.06499998271465302
v 0.007071069907397032 -0.007071048952639103 0.02200002409517765
v 0.007071052677929401 -0.007071072235703468 -0.06499998271465302
v 0.0077301072888076305 -0.006343914195895195 0.02200002409517765
v 0.00773009005934 -0.00634393747895956 -0.06499998271465302
v 0.008314698934555054 -0.00555568328127265 0.02200002409517765
v 0.00831468217074871 -0.005555706564337015 -0.06499998271465302
v 0.008819214068353176 -0.00471394881606102 0.02200002409517765
v 0.008819198235869408 -0.004713972099125385 -0.06499998271465302
v 0.00923879723995924 -0.003826816100627184 0.02200002409517765
v 0.009238781407475471 -0.0038268393836915493 -0.06499998271465302
v 0.00956940557807684 -0.0029028281569480896 0.02200002409517765
v 0.009569389745593071 -0.002902851440012455 -0.06499998271465302
v 0.009807854890823364 -0.0019508847035467625 0.02200002409517765
v 0.009807839058339596 -0.0019509081030264497 -0.06499998271465302
v 0.009951850399374962 -0.0009801529813557863 0.02200002409517765
v 0.009951834566891193 -0.0009801763808354735 -0.06499998271465302
v 0.01000000350177288 1.846852804021637e-08 0.02200002409517765
v 0.009999986737966537 -4.909908035699573e-09 -0.06499998271465302
v 0.009951850399374962 0.0009801900014281273 0.02200002409517765
v 0.009951834566891193 0.00098016660194844 -0.06499998271465302
v 0.009807856753468513 0.0019509218400344253 0.02200002409517765
v 0.009807840920984745 0.0019508983241394162 -0.06499998271465302
v 0.009569408372044563 0.0029028654098510742 0.02200002409517765
v 0.00956939160823822 0.002902841893956065 -0.06499998271465302
v 0.00923879910260439 0.003826853586360812 0.02200002409517765
v 0.00923878327012062 0.003826830303296447 -0.06499998271465302
v 0.008819215930998325 0.0047139860689640045 0.02200002409517765
v 0.008819200098514557 0.004713962785899639 -0.06499998271465302
v 0.008314700797200203 0.005555721465498209 0.02200002409517765
v 0.00831468403339386 0.005555698182433844 -0.06499998271465302
v 0.007730110082775354 0.006343952380120754 0.022000016644597054
v 0.007730092853307724 0.006343929097056389 -0.06499998271465302
v 0.0070710740983486176 0.007071087136864662 0.022000016644597054
v 0.007071056868880987 0.007071063853800297 -0.06499998271465302
v 0.00634393934160471 0.007730124518275261 0.022000016644597054
v 0.006343922112137079 0.007730100769549608 -0.06499998271465302
v 0.005555708426982164 0.008314716629683971 0.022000016644597054
v 0.005555691197514534 0.00831469427794218 -0.06499998271465302
v 0.0047139739617705345 0.008819232694804668 0.022000016644597054
v 0.004713956732302904 0.008819209411740303 -0.06499998271465302
v 0.0038268407806754112 0.009238815866410732 0.022000016644597054
v 0.0038268237840384245 0.009238792583346367 -0.06499998271465302
v 0.002902852836996317 0.009569424204528332 0.022000016644597054
v 0.002902836073189974 0.009569400921463966 -0.06499998271465302
v 0.0019509095000103116 0.009807873517274857 0.022000016644597054
v 0.001950892386958003 0.009807850234210491 -0.06499998271465302
v 0.0009801777778193355 0.00995186809450388 0.02200002409517765
v 0.000980160664767027 0.009951845742762089 -0.06499998271465302
v 6.3256431204195e-09 0.010000021196901798 0.02200002409517765
v -1.0786508575222342e-08 0.009999998845160007 -0.06499998271465302
v -0.0009801652049645782 0.00995186809450388 0.02200002409517765
v -0.0009801823180168867 0.009951845742762089 -0.06499998271465302
v -0.0019508970435708761 0.009807875379920006 0.02200002409517765
v -0.0019509141566231847 0.00980785209685564 -0.06499998271465302
v -0.0029028404969722033 0.009569426067173481 0.02200002409517765
v -0.00290285749360919 0.009569402784109116 -0.06499998271465302
v -0.003826828906312585 0.009238817729055882 0.02200002409517765
v -0.0038268459029495716 0.009238794445991516 -0.06499998271465302
v -0.004713961388915777 0.008819234557449818 0.02200002409517765
v -0.004713978618383408 0.008819211274385452 -0.06499998271465302
v -0.005555696785449982 0.00831471849232912 0.02200002409517765
v -0.005555714014917612 0.00831469614058733 -0.06499998271465302
v -0.006343927700072527 0.007730127312242985 0.02200002409517765
v -0.006343944929540157 0.007730104029178619 -0.06499998271465302
v -0.007071062456816435 0.007071090862154961 0.02200002409517765
v -0.007071079686284065 0.007071067579090595 -0.06499998271465302
v -0.007730099372565746 0.006343956105411053 0.02200002409517765
v -0.007730116602033377 0.006343932822346687 -0.06499998271465302
v -0.008314693346619606 0.0055557251907885075 0.02200002409517765
v -0.008314709179103374 0.005555701907724142 -0.06499998271465302
v -0.008819208480417728 0.004713990725576878 0.02200002409517765
v -0.008819224312901497 0.004713967442512512 -0.06499998271465302
v -0.009238791652023792 0.003826858475804329 0.02200002409517765
v -0.009238808415830135 0.0038268351927399635 -0.06499998271465302
v -0.009569399990141392 0.0029028705321252346 0.02200002409517765
v -0.009569416753947735 0.0029028472490608692 -0.06499998271465302
v -0.009807849302887917 0.0019509270787239075 0.02200002409517765
v -0.00980786606669426 0.0019509036792442203 -0.06499998271465302
v -0.009951844811439514 0.0009801953565329313 0.02200002409517765
v -0.009951860643923283 0.0009801719570532441 -0.06499998271465302
v -0.009999997913837433 2.387262831859971e-08 0.02200002409517765
v -0.010000013746321201 4.941941855740595e-10 -0.06499998271465302
v -0.009951844811439514 -0.0009801476262509823 0.02200002409517765
v -0.009951860643923283 -0.0009801710257306695 -0.06499998271465302
v -0.009807851165533066 -0.0019508794648572803 0.02200002409517765
v -0.009807867929339409 -0.0019509028643369675 -0.06499998271465302
v -0.009569401852786541 -0.0029028228018432856 0.02200002409517765
v -0.009569418616592884 -0.0029028463177382946 -0.06499998271465302
v -0.009238793514668941 -0.003826811211183667 0.02200002409517765
v -0.009238810278475285 -0.0038268347270786762 -0.06499998271465302
v -0.008819210343062878 -0.004713944159448147 0.02200002409517765
v -0.00881922710686922 -0.004713967442512512 -0.06499998271465302
v -0.008314695209264755 -0.005555679555982351 0.02200002409517765
v -0.008314711041748524 -0.005555702839046717 -0.06499998271465302
v -0.0077301026321947575 -0.0063439104706048965 0.022000031545758247
v -0.0077301193960011005 -0.006343933753669262 -0.06499998271465302
v -0.007071066182106733 -0.0070710452273488045 0.022000031545758247
v -0.007071083411574364 -0.00707106851041317 -0.06499998271465302
v -0.006343931425362825 -0.007730082608759403 0.022000031545758247
v -0.006343948654830456 -0.007730105891823769 -0.06499998271465302
v -0.00555570051074028 -0.008314674720168114 0.022000031545758247
v -0.0055557177402079105 -0.008314698003232479 -0.06499998271465302
v -0.00471396604552865 -0.00881919078528881 0.022000031545758247
v -0.004713983274996281 -0.008819213137030602 -0.06499998271465302
v -0.003826833562925458 -0.009238773956894875 0.022000031545758247
v -0.0038268505595624447 -0.009238796308636665 -0.06499998271465302
v -0.0029028458520770073 -0.009569382295012474 0.022000031545758247
v -0.0029028626158833504 -0.009569404646754265 -0.06499998271465302
v -0.0019509022822603583 -0.009807831607758999 0.022000031545758247
v -0.001950919395312667 -0.00980785395950079 -0.06499998271465302
v -0.0009801705600693822 -0.009951826184988022 0.02200002409517765
v -0.0009801876731216908 -0.009951849468052387 -0.06499998271465302
v -4.294819500039182e-10 -0.014999980106949806 0.022000031545758247
v -1.7541637475915195e-08 -0.015000002458691597 -0.06499997526407242
v 0.0014702568296343088 -0.014927750453352928 0.022000031545758247
v 0.001470239832997322 -0.014927772805094719 -0.06499998271465302
v 0.002926354529336095 -0.014711759053170681 0.022000031545758247
v 0.002926337532699108 -0.014711782336235046 -0.06499998271465302
v 0.00435427064076066 -0.014354084618389606 0.022000031545758247
v 0.00435425341129303 -0.014354107901453972 -0.06499998271465302
v 0.005740252323448658 -0.013858173042535782 0.02200002409517765
v 0.005740235093981028 -0.013858196325600147 -0.06499998271465302
v 0.007070951163768768 -0.01322879921644926 0.02200002409517765
v 0.007070933934301138 -0.013228822499513626 -0.06499998271465302
v 0.008333553560078144 -0.01247202605009079 0.02200002409517765
v 0.008333537727594376 -0.012472049333155155 -0.06499998271465302
v 0.009515899233520031 -0.011595139279961586 0.02200002409517765
v 0.009515883401036263 -0.011595161631703377 -0.06499998271465302
v 0.01060660183429718 -0.010606584139168262 0.02200002409517765
v 0.010606586001813412 -0.010606607422232628 -0.06499998271465302
v 0.011595156975090504 -0.009515883401036263 0.02200002409517765
v 0.011595141142606735 -0.009515905752778053 -0.06499998271465302
v 0.012472044676542282 -0.008333535864949226 0.02200002409517765
v 0.012472027912735939 -0.008333558216691017 -0.06499998271465302
v 0.013228819705545902 -0.007070933934301138 0.02200002409517765
v 0.01322880294173956 -0.007070957683026791 -0.06499998271465302
v 0.013858195394277573 -0.005740235093981028 0.02200002409517765
v 0.01385817863047123 -0.005740258377045393 -0.06499998271465302
v 0.014354108832776546 -0.004354252479970455 0.02200002409517765
v 0.014354092068970203 -0.0043542757630348206 -0.06499998271465302
v 0.014711781404912472 -0.0029263377655297518 0.02200002409517765
v 0.014711764641106129 -0.002926361281424761 -0.06499998271465302
v 0.014927773736417294 -0.001470239949412644 0.02200002409517765
v 0.014927757903933525 -0.001470263465307653 -0.06499998271465302
v 0.015000003390014172 1.7117500306085276e-08 0.02200002409517765
v 0.014999987557530403 -6.2609335493846174e-09 -0.06499998271465302
v 0.014927773736417294 0.0014702745247632265 0.02200002409517765
v 0.014927757903933525 0.0014702510088682175 -0.06499998271465302
v 0.014711783267557621 0.0029263722244650126 0.022000016644597054
v 0.014711766503751278 0.002926348941400647 -0.06499998271465302
v 0.014354108832776546 0.0043542878702282906 0.022000016644597054
v 0.014354092068970203 0.004354264587163925 -0.06499998271465302
v 0.013858197256922722 0.005740269552916288 0.022000016644597054
v 0.013858180493116379 0.005740246269851923 -0.06499998271465302
v 0.0132288234308362 0.007070968393236399 0.022000016644597054
v 0.013228806667029858 0.007070945110172033 -0.06499999016523361
v 0.01247205026447773 0.008333572186529636 0.022000016644597054
v 0.012472034431993961 0.008333548903465271 -0.06499999016523361
v 0.011595162563025951 0.009515916928648949 0.022000016644597054
v 0.011595146730542183 0.009515894576907158 -0.06499999016523361
v 0.010606608353555202 0.010606620460748672 0.022000016644597054
v 0.01060659158974886 0.010606597177684307 -0.06499999016523361
v 0.009515906684100628 0.011595175601541996 0.022000016644597054
v 0.00951589085161686 0.01159515231847763 -0.06499999016523361
v 0.008333559148013592 0.0124720623716712 0.022000016644597054
v 0.008333543315529823 0.012472040019929409 -0.06499999016523361
v 0.0070709590800106525 0.01322883740067482 0.022000016644597054
v 0.007070941850543022 0.01322881504893303 -0.06499999016523361
v 0.005740259774029255 0.01385821308940649 0.022000016644597054
v 0.0057402425445616245 0.013858189806342125 -0.06499999016523361
v 0.0043542771600186825 0.014354126527905464 0.022000016644597054
v 0.004354260396212339 0.014354104176163673 -0.06499999016523361
v 0.0029263626784086227 0.01471179910004139 0.022000016644597054
v 0.002926345681771636 0.014711776748299599 -0.06499999016523361
v 0.001470264745876193 0.014927792362868786 0.022000016644597054
v 0.0014702477492392063 0.01492776907980442 -0.06499999016523361
v 7.676668190015334e-09 0.015000022016465664 0.022000016644597054
v -9.435484393804927e-09 0.014999998733401299 -0.06499999016523361
v -0.0014702497282996774 0.014927792362868786 0.022000016644597054
v -0.001470266724936664 0.01492776907980442 -0.06499998271465302
v -0.0029263473115861416 0.014711800962686539 0.022000016644597054
v -0.0029263643082231283 0.014711778610944748 -0.06499998271465302
v -0.004354263190180063 0.014354126527905464 0.022000016644597054
v -0.004354280419647694 0.014354104176163673 -0.06499998271465302
v -0.005740244872868061 0.01385821495205164 0.02200002409517765
v -0.005740261636674404 0.013858192600309849 -0.06499998271465302
v -0.007070943713188171 0.013228841125965118 0.02200002409517765
v -0.007070960942655802 0.013228818774223328 -0.06499998271465302
v -0.008333547972142696 0.012472068890929222 0.02200002409517765
v -0.008333563804626465 0.012472045607864857 -0.06499998271465302
v -0.009515893645584583 0.011595181189477444 0.02200002409517765
v -0.009515909478068352 0.011595157906413078 -0.06499998271465302
v -0.010606596246361732 0.01060662604868412 0.02200002409517765
v -0.010606613010168076 0.010606602765619755 -0.06499998271465302
v -0.011595151387155056 0.00951592531055212 0.02200002409517765
v -0.011595168150961399 0.009515902027487755 -0.06499998271465302
v -0.012472039088606834 0.008333577774465084 0.02200002409517765
v -0.012472054921090603 0.008333554491400719 -0.06499998271465302
v -0.013228814117610455 0.007070976309478283 0.02200002409517765
v -0.013228829950094223 0.00707095256075263 -0.06499998271465302
v -0.01385818887501955 0.005740277003496885 0.02200002409517765
v -0.013858205638825893 0.00574025372043252 -0.06499998271465302
v -0.014354103244841099 0.004354294389486313 0.02200002409517765
v -0.014354119077324867 0.0043542711064219475 -0.06499998271465302
v -0.014711775816977024 0.0029263803735375404 0.02200002409517765
v -0.014711791649460793 0.0029263568576425314 -0.06499998271465302
v -0.014927768148481846 0.0014702824410051107 0.02200002409517765
v -0.014927784912288189 0.0014702589251101017 -0.06499998271465302
v -0.014999997802078724 2.5223654276373964e-08 0.02200002409517765
v -0.015000013634562492 1.8452197547702553e-09 -0.06499998271465302
v -0.014927768148481846 -0.0014702320331707597 0.02200002409517765
v -0.014927784912288189 -0.0014702555490657687 -0.06499998271465302
v -0.014711777679622173 -0.0029263298492878675 0.022000031545758247
v -0.014711793512105942 -0.002926353132352233 -0.06499998271465302
v -0.014354103244841099 -0.004354245960712433 0.022000031545758247
v -0.014354119077324867 -0.004354269243776798 -0.06499998271465302
v -0.0138581907376647 -0.005740227643400431 0.022000031545758247
v -0.013858207501471043 -0.005740250926464796 -0.06499998271465302
v -0.013228817842900753 -0.007070926483720541 0.022000031545758247
v -0.013228833675384521 -0.007070949766784906 -0.06499997526407242
v -0.012472044676542282 -0.008333530277013779 0.022000031545758247
v -0.01247206050902605 -0.00833355262875557 -0.06499997526407242
v -0.011595156975090504 -0.009515875019133091 0.022000031545758247
v -0.011595173738896847 -0.009515898302197456 -0.06499997526407242
v -0.01060660183429718 -0.010606578551232815 0.022000031545758247
v -0.010606618598103523 -0.010606600902974606 -0.06499997526407242
v -0.00951590109616518 -0.011595133692026138 0.022000031545758247
v -0.009515916928648949 -0.011595156043767929 -0.06499997526407242
v -0.008333553560078144 -0.012472020462155342 0.022000031545758247
v -0.008333570323884487 -0.012472043745219707 -0.06499997526407242
v -0.007070951163768768 -0.013228795491158962 0.022000031545758247
v -0.007070968393236399 -0.013228818774223328 -0.06499997526407242
v -0.005740252323448658 -0.013858171179890633 0.022000031545758247
v -0.005740269552916288 -0.013858194462954998 -0.06499997526407242
v -0.0043542697094380856 -0.014354084618389606 0.022000031545758247
v -0.004354286938905716 -0.014354107901453972 -0.06499997526407242
v -0.0029263554606586695 -0.014711757190525532 0.022000031545758247
v -0.002926372457295656 -0.014711780473589897 -0.06499997526407242
v -0.0014702576445415616 -0.014927750453352928 0.022000031545758247
v -0.0014702746411785483 -0.014927772805094719 -0.06499997526407242
v 0.003826838219538331 0.009238806553184986 0.003826858475804329
v -0.0038268333300948143 0.009238810278475285 0.003826866624876857
v 0.011800679378211498 0.009238803759217262 0.0038268582429736853
v -0.011800670064985752 0.009238813072443008 0.0038268668577075005
v 0.0029028463177382946 0.009569416753947735 0.0029028700664639473
v -0.002902848646044731 0.009569418616592884 0.002902878215536475
v 0.011546674184501171 0.009569412097334862 0.0029028698336333036
v 0.011595158837735653 0.009515912272036076 0.0030523906461894512
v -0.011546665802598 0.009569422341883183 0.002902878448367119
v -0.011595155112445354 0.009515919722616673 0.003052406944334507
v 0.013924225233495235 -0.005555689334869385 -0.008314679376780987
v 0.013858189806342125 -0.0057402425445616245 -0.008177808485925198
v 0.008314695209264755 -0.005555686075240374 -0.008314674720168114
v -0.013924229890108109 -0.005555677693337202 -0.00831467006355524
v -0.013858196325600147 -0.005740235559642315 -0.008177794516086578
v -0.008314698934555054 -0.005555680487304926 -0.008314674720168114
v 0.013572672381997108 -0.00634392024949193 -0.007730088196694851
v 0.007730103563517332 -0.006343916989862919 -0.007730088196694851
v -0.013572679832577705 -0.006343908607959747 -0.007730083540081978
v -0.007730110082775354 -0.006343911401927471 -0.007730083540081978
v 0.004713968839496374 0.008819221518933773 0.0047139972448349
v 0.012111867778003216 0.00881921872496605 0.004713988862931728
v -0.00471396604552865 0.008819226175546646 0.0047139972448349
v -0.012111853808164597 0.008819228038191795 0.004713997710496187
v 0.01322875078767538 -0.007071055006235838 -0.00707104941830039
v 0.01322881504893303 -0.007070941850543022 -0.007071152329444885
v 0.0070710680447518826 -0.007071051746606827 -0.00707104941830039
v -0.013228757306933403 -0.007071043364703655 -0.007071044761687517
v -0.013228821568191051 -0.007070933468639851 -0.007071143947541714
v -0.007071071770042181 -0.007071046158671379 -0.007071048486977816
v 0.012833729386329651 0.007730117067694664 -0.006343910936266184
v 0.006343933288007975 0.007730119861662388 -0.006343907210975885
v -0.006343933288007975 0.007730124983936548 -0.006343906279653311
v -0.01283373311161995 0.007730127777904272 -0.006343902554363012
v 0.01248334813863039 0.0083147082477808 -0.00555567629635334
v 0.005555698648095131 0.008314711041748524 -0.00555567629635334
v -0.00555570051074028 0.008314714767038822 -0.0055556753650307655
v -0.012483343482017517 0.008314717561006546 -0.005555671639740467
v 0.003826836822554469 0.009238810278475285 -0.0038268056232482195
v -0.00382683495990932 0.009238814003765583 -0.003826805157586932
v 0.01180067379027605 0.00923880748450756 -0.00382681330665946
v -0.011800670996308327 0.009238817729055882 -0.0038268049247562885
v 0.012833734974265099 0.007730111945420504 0.006343955639749765
v 0.0063439360819756985 0.00773011427372694 0.006343955639749765
v -0.006343930494040251 0.007730118930339813 0.006343964487314224
v -0.012833738699555397 0.007730122189968824 0.006343964487314224
v 0.01248335000127554 0.008314704522490501 0.00555572472512722
v 0.005555701442062855 0.008314707316458225 0.00555572472512722
v -0.005555697716772556 0.008314711041748524 0.005555733572691679
v -0.012483347207307816 0.008314713835716248 0.005555733572691679
v 0.0009801730047911406 0.009951862506568432 -0.0009801407577469945
v 0.011200043372809887 0.009951856918632984 -0.0009801489068195224
v -0.0009801695123314857 0.009951862506568432 -0.0009801406413316727
v -0.01120003592222929 0.00995186809450388 -0.0009801401756703854
v 0.012472047470510006 0.008333568461239338 0.005524253472685814
v -0.012472041882574558 0.008333574049174786 0.005524262320250273
v 0.012472044676542282 0.008333563804626465 -0.0055242241360247135
v -0.012472043745219707 0.008333570323884487 -0.005524223204702139
v 0.0047139679081737995 0.008819228038191795 -0.0047139436937868595
v 0.012111851014196873 0.008819224312901497 -0.004713944159448147
v -0.004713966976851225 0.008819231763482094 -0.0047139436937868595
v -0.012111853808164597 0.008819234557449818 -0.004713935777544975
v 0.000980173354037106 0.009951860643923283 0.0009802017593756318
v 0.011200043372809887 0.009951855055987835 0.000980193610303104
v -0.0009801690466701984 0.009951860643923283 0.0009802018757909536
v -0.011200038716197014 0.00995186623185873 0.000980202341452241
v 0.011156399734318256 0.010000010021030903 2.2378387143362488e-08
v 1.9984345289714156e-09 0.010000014677643776 3.051757957450718e-08
v -0.01115639042109251 0.010000019334256649 3.102737622384666e-08
v -0.0019509026315063238 0.009807868860661983 0.0019509278936311603
v 0.0019509034464135766 0.009807866998016834 0.0019509276608005166
v 0.011330553330481052 0.009807862341403961 0.0019509273115545511
v -0.011330544017255306 0.009807872585952282 0.0019509359262883663
v 0.0029028449207544327 0.009569418616592884 -0.002902817213907838
v -0.002902850043028593 0.009569420479238033 -0.0029028167482465506
v 0.011546670459210873 0.009569413959980011 -0.002902825130149722
v -0.011546658352017403 0.009569425135850906 -0.002902816515415907
v -0.0019509034464135766 0.009807868860661983 -0.0019508743425831199
v 0.0019509026315063238 0.009807866998016834 -0.0019508745754137635
v 0.01133054867386818 0.009807861410081387 -0.001950874924659729
v -0.011330543085932732 0.009807873517274857 -0.0019508739933371544
v 0.011595158837735653 0.009515910409390926 -0.0030523536261171103
v -0.011595155112445354 0.009515917859971523 -0.0030523601453751326
v 0.014856473542749882 0.001950907870195806 0.009807868860661983
v -0.014927770011126995 0.0014702790649607778 0.009879174642264843
v -0.014856474474072456 0.001950919977389276 0.00980787817388773
v -0.00980785395950079 0.0019509178819134831 0.009807877242565155
v 0.009807855822145939 0.0019509100820869207 0.009807877242565155
v 0.01495184376835823 0.0009801761480048299 0.009951865300536156
v 0.014927771873772144 0.0014702712651342154 0.009879165329039097
v -0.014951848424971104 0.0009801883716136217 0.009951875545084476
v -0.009951844811439514 0.0009801862761378288 0.009951874613761902
v 0.009951848536729813 0.0009801782434806228 0.00995186623185873
v 0.013228741474449635 0.00707108061760664 -0.007071045693010092
v -0.0070710680447518826 0.007071088999509811 -0.007071041036397219
v 0.007071071770042181 0.007071083411574364 -0.007071041967719793
v -0.013228741474449635 0.007071091793477535 -0.00707103731110692
v 0.009951848536729813 -0.000980164622887969 0.00995186623185873
v 0.014951840043067932 -0.000980166718363762 0.009951865300536156
v 0.014927771873772144 -0.0014702433254569769 0.009879172779619694
v -0.014951848424971104 -0.00098015449475497 0.009951875545084476
v -0.009951844811439514 -0.0009801564738154411 0.009951874613761902
v 0.014856471680104733 -0.0019508982077240944 0.009807868860661983
v 0.00980785395950079 -0.0019508962286636233 0.009807877242565155
v -0.014856473542749882 -0.001950886333361268 0.00980787817388773
v -0.009807855822145939 -0.001950888312421739 0.009807877242565155
v 0.010000001639127731 6.7010437199144235e-09 0.010000023059546947
v 0.015000001527369022 4.66354999062446e-09 0.010000022128224373
v -0.015000001527369022 1.6888520804059226e-08 0.010000023990869522
v -0.009999996051192284 1.4851021745698745e-08 0.010000023059546947
v -0.014927770011126995 -0.0014702354092150927 0.009879174642264843
v 0.009238793514668941 -0.003826818661764264 -0.009238777682185173
v 0.014486221596598625 -0.0038268212229013443 -0.009238778613507748
v -0.014486227184534073 -0.003826809348538518 -0.0092387730255723
v -0.009238801896572113 -0.003826811444014311 -0.009238773956894875
v -0.014354107901453972 -0.004354253876954317 -0.008989310823380947
v 0.014225391671061516 -0.00471396092325449 0.00881922896951437
v 0.008819209411740303 -0.004713959060609341 0.008819229900836945
v -0.014225403778254986 -0.004713950213044882 0.008819238282740116
v -0.014354106038808823 -0.004354249220341444 0.00898936577141285
v -0.008819213137030602 -0.004713952075690031 0.008819237351417542
v 0.014715268276631832 -0.00290283327922225 -0.009569383226335049
v 0.014711775816977024 -0.002926346380263567 -0.009560967795550823
v 0.009569400921463966 -0.002902831183746457 -0.009569382295012474
v -0.014715272933244705 -0.0029028209391981363 -0.009569377638399601
v -0.014711783267557621 -0.002926338231191039 -0.009560962207615376
v -0.009569409303367138 -0.002902823034673929 -0.009569382295012474
v 0.013924220576882362 -0.005555695854127407 0.008314711973071098
v 0.008314697071909904 -0.005555693060159683 0.008314712904393673
v -0.01392422616481781 -0.005555684212595224 0.008314721286296844
v -0.008314698934555054 -0.005555687006562948 0.00831472035497427
v 0.0138581907376647 -0.005740238353610039 0.008177848532795906
v -0.013858194462954998 -0.005740230903029442 0.008177850395441055
v 0.014711777679622173 0.0029263636097311974 -0.009560967795550823
v 0.014715260826051235 0.002902859589084983 -0.009569383226335049
v -0.014711781404912472 0.0029263717588037252 -0.009560962207615376
v -0.014715265482664108 0.0029028719291090965 -0.009569373913109303
v -0.009569406509399414 0.0029028698336333036 -0.009569378569722176
v 0.009569402784109116 0.0029028616845607758 -0.009569382295012474
v 0.013924220576882362 0.005555714946240187 -0.008314675651490688
v 0.013858193531632423 0.005740261171013117 -0.0081778047606349
v -0.013924223370850086 0.005555725656449795 -0.008314666338264942
v -0.013858194462954998 0.005740269087255001 -0.00817780289798975
v -0.008314698934555054 0.005555723328143358 -0.008314670994877815
v 0.008314697071909904 0.0055557177402079105 -0.008314674720168114
v 0.014486219733953476 0.0038268479984253645 -0.00923877488821745
v -0.014486216939985752 0.003826860338449478 -0.009238769300282001
v 0.00923879537731409 0.0038268505595624447 -0.009238773956894875
v -0.00923879910260439 0.003826857777312398 -0.009238770231604576
v 0.014225398190319538 0.004713980946689844 -0.00881919264793396
v -0.014225400984287262 0.004713991191238165 -0.00881918240338564
v 0.008819209411740303 0.004713982809334993 -0.008819191716611385
v -0.008819213137030602 0.004713989328593016 -0.008819187991321087
v 0.014354104176163673 0.004354279953986406 -0.008989316411316395
v -0.014354107901453972 0.004354286473244429 -0.008989314548671246
v 0.014225412160158157 -0.004713953472673893 -0.008819196373224258
v 0.008819207549095154 -0.0047139511443674564 -0.008819191716611385
v -0.014225411228835583 -0.004713942762464285 -0.008819187059998512
v -0.00881921499967575 -0.004713944625109434 -0.008819191716611385
v 0.014354104176163673 -0.004354260861873627 -0.008989316411316395
v 0.013228747062385082 -0.00707106152549386 0.007071082945913076
v 0.007071070838719606 -0.007071058731526136 0.007071082945913076
v -0.013228749856352806 -0.0070710498839616776 0.007071091327816248
v -0.007071068976074457 -0.007071052677929401 0.007071091327816248
v 0.013572664931416512 -0.006343926768749952 0.0077301254495978355
v 0.0077301026321947575 -0.0063439239747822285 0.0077301254495978355
v -0.013572672381997108 -0.00634391512721777 0.00773012638092041
v -0.007730105426162481 -0.0063439179211854935 0.00773012638092041
v 0.013228816911578178 -0.007070938590914011 0.007071197498589754
v -0.013228821568191051 -0.007070930674672127 0.007071198429912329
v 0.01357266679406166 0.006343946326524019 -0.007730080280452967
v -0.007730105426162481 0.0063439542427659035 -0.007730075623840094
v 0.0077301026321947575 0.006343948654830456 -0.007730080280452967
v -0.013572669588029385 0.006343957036733627 -0.007730075623840094
v 0.013228817842900753 0.0070709604769945145 -0.007071152329444885
v -0.013228818774223328 0.007070968393236399 -0.007071151398122311
v 0.014225403778254986 0.004713973496109247 0.008819236420094967
v -0.01422540657222271 0.004713983740657568 0.008819238282740116
v 0.008819211274385452 0.0047139753587543964 0.008819237351417542
v -0.008819211274385452 0.004713981878012419 0.008819237351417542
v 0.013924230821430683 0.005555708426982164 0.008314719423651695
v -0.01392422430217266 0.00555571960285306 0.008314728736877441
v -0.008314698934555054 0.005555716808885336 0.00831472035497427
v 0.008314695209264755 0.005555711220949888 0.00831472035497427
v 0.00923879537731409 -0.0038268272764980793 0.009238815866410732
v 0.014486219733953476 -0.003826829604804516 0.009238814935088158
v -0.014486221596598625 -0.003826817497611046 0.009238816797733307
v -0.00923879910260439 -0.003826820058748126 0.009238815866410732
v 0.014354106038808823 -0.004354255739599466 0.008989356458187103
v 0.014354106038808823 0.004354284610599279 0.008989356458187103
v 0.014711781404912472 0.0029263689648360014 0.00956101156771183
v 0.014715270139276981 0.002902851440012455 0.009569426998496056
v -0.014711777679622173 0.0029263768810778856 0.009561020880937576
v -0.014715265482664108 0.0029028637800365686 0.009569428861141205
v -0.009569402784109116 0.0029028616845607758 0.00956942792981863
v 0.009569406509399414 0.002902853535488248 0.00956942792981863
v 0.01471527200192213 -0.002902841195464134 0.009569419547915459
v 0.014711779542267323 -0.0029263412579894066 0.00956101156771183
v 0.009569404646754265 -0.002902839332818985 0.009569420479238033
v -0.014715268276631832 -0.002902829321101308 0.009569428861141205
v -0.014711779542267323 -0.0029263331089168787 0.009561020880937576
v -0.009569404646754265 -0.002902831183746457 0.00956942792981863
v 0.014486226253211498 0.003826839616522193 0.009238814935088158
v -0.014486219733953476 0.003826851723715663 0.009238824248313904
v -0.014354106038808823 0.004354291129857302 0.00898936577141285
v 0.00923879723995924 0.0038268419448286295 0.009238815866410732
v -0.00923879723995924 0.0038268491625785828 0.00923882331699133
v 0.0009801638079807162 -0.009951830841600895 -0.0009801560081541538
v 0.01120003405958414 -0.009951836429536343 -0.0009801564738154411
v -0.011200045235455036 -0.009951824322342873 -0.000980147859081626
v -0.0009801748674362898 -0.009951830841600895 -0.000980155891738832
v 0.0019509012345224619 -0.009807838127017021 -0.0019508821424096823
v 0.01133054494857788 -0.00980784185230732 -0.0019508901750668883
v -0.011330550536513329 -0.009807831607758999 -0.0019508815603330731
v -0.0019509048433974385 -0.009807836264371872 -0.0019508819095790386
v -3.405670856437837e-09 -0.009999983943998814 1.525878978725359e-08
v 0.011156384833157063 -0.009999988600611687 1.4748992249735693e-08
v -0.011156396009027958 -0.009999978356063366 2.3397982218398283e-08
v 0.014951841905713081 0.0009801849955692887 -0.009951828978955746
v 0.014927768148481846 0.0014702660264447331 -0.009879129007458687
v -0.014951851218938828 0.0009801972191780806 -0.00995181966573
v -0.009951850399374962 0.0009801951237022877 -0.009951820597052574
v 0.009951844811439514 0.0009801870910450816 -0.009951824322342873
v 0.01180066168308258 -0.00923878699541092 0.0038268505595624447
v 0.0038268333300948143 -0.00923878327012062 0.0038268507923930883
v -0.0118006756529212 -0.009238776750862598 0.00382685917429626
v -0.003826838219538331 -0.009238779544830322 0.0038268512580543756
v 0.012111845426261425 -0.008819203823804855 0.0047139814123511314
v 0.0047139679081737995 -0.008819201029837132 0.004713989328593016
v -0.012111859396100044 -0.00881919451057911 0.004713989794254303
v -0.004713966976851225 -0.008819197304546833 0.004713989328593016
v 0.013228744268417358 0.0070710740983486176 0.007071090396493673
v -0.007071065250784159 0.007071082480251789 0.007071099244058132
v 0.007071075029671192 0.007071076892316341 0.007071090396493673
v -0.013228746131062508 0.007071085274219513 0.007071099244058132
v 0.013228820636868477 0.0070709651336073875 0.007071197498589754
v -0.013228816911578178 0.007070972118526697 0.007071198429912329
v 0.01248333603143692 -0.008314686827361584 0.005555717274546623
v 0.012472041882574558 -0.008333539590239525 0.005524261388927698
v 0.005555701442062855 -0.00831468403339386 0.005555717274546623
v -0.01248335000127554 -0.008314677514135838 0.005555725656449795
v -0.012472047470510006 -0.008333534002304077 0.00552426977083087
v -0.005555703304708004 -0.008314680308103561 0.005555725656449795
v 0.012111847288906574 -0.008819197304546833 -0.004713951610028744
v 0.004713966976851225 -0.008819195441901684 -0.0047139511443674564
v -0.01211186870932579 -0.008819189853966236 -0.004713943228125572
v -0.0047139679081737995 -0.008819191716611385 -0.0047139511443674564
v 0.011800664477050304 -0.00923878327012062 -0.0038268209900707006
v 0.0038268319331109524 -0.009238779544830322 -0.003826820757240057
v -0.011800681240856647 -0.0092387730255723 -0.0038268123753368855
v -0.003826839616522193 -0.009238775819540024 -0.003826812608167529
v 0.0029028472490608692 -0.009569387882947922 -0.0029028323478996754
v 0.011546656489372253 -0.009569392539560795 -0.002902832580730319
v -0.011546669527888298 -0.0095693813636899 -0.002902823965996504
v -0.002902851440012455 -0.009569386020302773 -0.0029028241988271475
v 0.011595153249800205 -0.009515889920294285 -0.003052361076697707
v -0.011595160700380802 -0.009515881538391113 -0.003052345011383295
v 0.0009801642736420035 -0.009951832704246044 0.0009801863925531507
v 0.011200029402971268 -0.009951838292181492 0.0009801859268918633
v -0.011200041510164738 -0.009951826184988022 0.0009801946580410004
v -0.0009801745181903243 -0.009951832704246044 0.0009801866253837943
v 0.0019509019330143929 -0.009807838127017021 0.0019509200938045979
v 0.011330537497997284 -0.00980784185230732 0.0019509197445586324
v -0.011330547742545605 -0.009807831607758999 0.001950920675881207
v -0.0019509041449055076 -0.009807836264371872 0.0019509203266352415
v 0.011595153249800205 -0.009515888057649136 0.0030524060130119324
v 0.002902848646044731 -0.009569389745593071 0.0029028623830527067
v 0.011546656489372253 -0.009569394402205944 0.002902862150222063
v -0.011595160700380802 -0.009515879675745964 0.0030523992609232664
v -0.011546667665243149 -0.009569384157657623 0.0029028707649558783
v -0.002902850043028593 -0.009569387882947922 0.002902862848713994
v 0.012833723798394203 -0.0077300965785980225 0.0063439481891691685
v 0.0063439323566854 -0.007730094250291586 0.0063439481891691685
v -0.012833741493523121 -0.007730086799710989 0.00634395657107234
v -0.006343934219330549 -0.007730089593678713 0.00634395657107234
v 0.013858194462954998 0.005740266293287277 0.00817784108221531
v -0.013858192600309849 0.005740273743867874 0.008177850395441055
v 0.009999994188547134 1.5666554276094757e-08 -0.00999998115003109
v 0.014999997802078724 1.3629059658626375e-08 -0.009999982081353664
v -0.015000001527369022 2.585402825161509e-08 -0.009999976493418217
v -0.01000000350177288 2.381653096961145e-08 -0.009999977424740791
v 0.013572677969932556 0.00634393934160471 0.0077301329001784325
v -0.0077301026321947575 0.006343947723507881 0.007730133831501007
v 0.00773010915145278 0.0063439421355724335 0.0077301329001784325
v -0.013572672381997108 0.006343950517475605 0.007730133831501007
v 0.00980785395950079 -0.0019508873810991645 -0.009807831607758999
v 0.014927768148481846 -0.001470248564146459 -0.009879129007458687
v 0.014856469817459583 -0.0019508893601596355 -0.009807832539081573
v -0.014856480062007904 -0.0019508773693814874 -0.009807826951146126
v -0.009807857684791088 -0.001950879581272602 -0.0098078278824687
v 0.012833729386329651 -0.007730090990662575 -0.006343918852508068
v 0.006343929562717676 -0.007730088662356138 -0.006343914661556482
v -0.012833748012781143 -0.007730081677436829 -0.006343910004943609
v -0.006343937013298273 -0.007730084005743265 -0.006343913730233908
v 0.01248333789408207 -0.008314683102071285 -0.005555683746933937
v 0.012472039088606834 -0.008333543315529823 -0.005524216219782829
v 0.005555698648095131 -0.008314680308103561 -0.005555683746933937
v -0.012483356520533562 -0.008314673788845539 -0.005555679090321064
v -0.012472049333155155 -0.008333537727594376 -0.005524207837879658
v -0.005555706098675728 -0.008314676582813263 -0.0055556828156113625
v 0.009951844811439514 -0.0009801557753235102 -0.009951828047633171
v 0.014951841905713081 -0.000980157870799303 -0.009951828978955746
v -0.014951851218938828 -0.0009801456471905112 -0.00995181966573
v -0.014927773736417294 -0.0014702406479045749 -0.00987911969423294
v -0.009951850399374962 -0.0009801477426663041 -0.009951820597052574
v 0.01485646702349186 0.0019509168341755867 -0.009807832539081573
v -0.014856478199362755 0.0019509288249537349 -0.009807822294533253
v -0.009807855822145939 0.001950926729477942 -0.0098078278824687
v 0.009807855822145939 0.0019509189296513796 -0.009807831607758999
v -0.014927773736417294 0.0014702739426866174 -0.00987911969423294
v -0.030000004917383194 -0.009999973699450493 3.1888447438177536e-08
v 0.029999997466802597 -0.009999996982514858 2.9146713487193665e-08
v -0.030000004917383194 -0.009951820597052574 0.0009802031563594937
v 0.029999997466802597 -0.00995184388011694 0.0009802003623917699
v -0.030000004917383194 -0.009807826019823551 0.0019509291741997004
v 0.029999997466802597 -0.009807848371565342 0.0019509264966472983
v -0.030000004917383194 -0.009569375775754452 0.0029028793796896935
v 0.029999997466802597 -0.009569398127496243 0.0029028765857219696
v -0.030000004917383194 -0.009238767437636852 0.0038268601056188345
v 0.029999997466802597 -0.009238789789378643 0.0038268573116511106
v -0.030000003054738045 -0.008819183334708214 0.004713998641818762
v 0.029999999329447746 -0.00881920661777258 0.004713995847851038
v -0.030000003054738045 -0.008314667269587517 0.005555734504014254
v 0.029999999329447746 -0.008314689621329308 0.0055557237938046455
v -0.030000003054738045 -0.007730073761194944 0.006343965418636799
v 0.029999999329447746 -0.007730098441243172 0.006343962624669075
v -0.030000003054738045 -0.00707103731110692 0.0070710922591388226
v 0.029999999329447746 -0.0070710619911551476 0.007071089465171099
v -0.030000003054738045 -0.006343902554363012 0.007730134762823582
v 0.029999999329447746 -0.006343926768749952 0.007730131968855858
v -0.030000003054738045 -0.00555567117407918 0.008314721286296844
v 0.029999999329447746 -0.00555569538846612 0.008314719423651695
v -0.030000003054738045 -0.004713936243206263 0.008819238282740116
v 0.029999999329447746 -0.004713960457593203 0.008819236420094967
v -0.030000003054738045 -0.0038268035277724266 0.009238824248313904
v 0.029999999329447746 -0.0038268265780061483 0.009238822385668755
v -0.030000001192092896 -0.0029028153512626886 0.009569428861141205
v 0.030000001192092896 -0.0029028381686657667 0.009569426998496056
v -0.030000001192092896 -0.001950871548615396 0.00980787817388773
v 0.030000001192092896 -0.0019508949480950832 0.00980787631124258
v -0.030000001192092896 -0.000980139710009098 0.009951875545084476
v 0.030000001192092896 -0.0009801629930734634 0.009951873682439327
v -0.030000001192092896 3.18288435607883e-08 0.010000023990869522
v 0.030000001192092896 8.463979739303795e-09 0.010000022128224373
v -0.030000001192092896 0.0009802032727748156 0.009951867163181305
v 0.030000001192092896 0.0009801799897104502 0.009951873682439327
v -0.030000001192092896 0.0019509349949657917 0.00980787817388773
v 0.030000001192092896 0.0019509115954861045 0.00980787631124258
v -0.030000001192092896 0.002902878215536475 0.009569428861141205
v 0.030000001192092896 0.002902855398133397 0.009569426998496056
v -0.029999997466802597 0.0038268661592155695 0.009238816797733307
v 0.030000004917383194 0.0038268431089818478 0.009238814935088158
v -0.029999997466802597 0.0047139995731413364 0.00881923083215952
v 0.030000004917383194 0.004713974893093109 0.00881922896951437
v -0.029999997466802597 0.005555734504014254 0.008314713835716248
v 0.030000004917383194 0.005555709823966026 0.008314719423651695
v -0.029999997466802597 0.0063439649529755116 0.007730127312242985
v 0.030000004917383194 0.006343940272927284 0.007730124518275261
v -0.029999997466802597 0.007071099244058132 0.0070710922591388226
v 0.030000004917383194 0.007071074564009905 0.007071089465171099
v -0.029999997466802597 0.007730135694146156 0.006343950051814318
v 0.030000004917383194 0.007730111014097929 0.006343947257846594
v -0.030000001192092896 0.008314725942909718 0.005555726587772369
v 0.030000001192092896 0.008314703591167927 0.005555716343224049
v -0.030000001192092896 0.00881924107670784 0.004713990725576878
v 0.030000001192092896 0.008819217793643475 0.004713987931609154
v -0.029999999329447746 0.009238824248313904 0.003826852422207594
v 0.030000003054738045 0.009238801896572113 0.00382684962823987
v -0.029999999329447746 0.009569432586431503 0.0029028640128672123
v 0.030000003054738045 0.009569410234689713 0.0029028612188994884
v -0.029999999329447746 0.009807880967855453 0.0019509214907884598
v 0.030000003054738045 0.009807857684791088 0.0019509189296513796
v -0.029999997466802597 0.009951874613761902 0.0009801879059523344
v 0.030000004917383194 0.009951851330697536 0.0009801851119846106
v -0.029999997466802597 0.010000026784837246 1.6629655874567106e-08
v 0.030000004917383194 0.010000004433095455 1.3887922811761655e-08
v -0.029999997466802597 0.009951874613761902 -0.000980154611170292
v 0.030000004917383194 0.009951851330697536 -0.0009801574051380157
v -0.029999997466802597 0.009807879105210304 -0.0019508807454258204
v 0.030000004917383194 0.009807855822145939 -0.0019508833065629005
v -0.029999997466802597 0.009569428861141205 -0.00290283071808517
v 0.030000004917383194 0.00956940557807684 -0.0029028335120528936
v -0.029999997466802597 0.009238820523023605 -0.003826811444014311
v 0.030000004917383194 0.00923879723995924 -0.0038268144708126783
v -0.029999999329447746 0.008819237351417542 -0.0047139497473835945
v 0.030000003054738045 0.008819214068353176 -0.004713952541351318
v -0.029999999329447746 0.00831472035497427 -0.005555681884288788
v 0.030000003054738045 0.008314698003232479 -0.005555684678256512
v -0.029999999329447746 0.007730129174888134 -0.006343912798911333
v 0.030000003054738045 0.007730104494839907 -0.006343915592879057
v -0.029999999329447746 0.0070710922591388226 -0.007071047555655241
v 0.030000003054738045 0.007071067579090595 -0.007071050349622965
v -0.029999999329447746 0.006343957036733627 -0.007730082608759403
v 0.030000003054738045 0.006343932822346687 -0.007730085402727127
v -0.029999999329447746 0.005555725656449795 -0.008314673788845539
v 0.030000003054738045 0.005555701442062855 -0.008314675651490688
v -0.029999999329447746 0.004713990725576878 -0.00881919078528881
v 0.030000003054738045 0.004713966511189938 -0.00881919264793396
v -0.029999999329447746 0.003826857078820467 -0.0092387730255723
v 0.030000003054738045 0.003826834261417389 -0.00923877488821745
v -0.030000001192092896 0.0029028686694800854 -0.0095693813636899
v 0.030000001192092896 0.0029028458520770073 -0.009569383226335049
v -0.030000001192092896 0.001950925448909402 -0.009807830676436424
v 0.030000001192092896 0.0019509020494297147 -0.009807832539081573
v -0.030000001192092896 0.000980193493887782 -0.009951823391020298
v 0.030000001192092896 0.0009801702108234167 -0.009951825253665447
v -0.030000001192092896 2.2053599835203386e-08 -0.009999976493418217
v 0.030000001192092896 -1.3112625429911873e-09 -0.009999978356063366
v -0.030000001192092896 -0.0009801494888961315 -0.009951823391020298
v 0.030000001192092896 -0.000980172771960497 -0.009951825253665447
v -0.030000001192092896 -0.0019508810946717858 -0.009807830676436424
v 0.030000001192092896 -0.001950904494151473 -0.009807832539081573
v -0.030000001192092896 -0.002902824664488435 -0.009569377638399601
v 0.030000001192092896 -0.0029028477147221565 -0.00956937950104475
v -0.030000004917383194 -0.003826812608167529 -0.009238769300282001
v 0.029999997466802597 -0.003826835658401251 -0.00923877116292715
v -0.030000004917383194 -0.004713944159448147 -0.008819187059998512
v 0.029999997466802597 -0.004713968839496374 -0.008819188922643661
v -0.030000004917383194 -0.005555679090321064 -0.00831467006355524
v 0.029999997466802597 -0.005555703770369291 -0.00831467192620039
v -0.030000004917383194 -0.006343909539282322 -0.0077300784178078175
v 0.029999997466802597 -0.006343934219330549 -0.007730081677436829
v -0.030000004917383194 -0.0070710438303649426 -0.007071040105074644
v 0.029999997466802597 -0.00707106851041317 -0.007071042899042368
v -0.030000004917383194 -0.007730080280452967 -0.006343905348330736
v 0.029999997466802597 -0.007730105426162481 -0.00634390814229846
v -0.030000001192092896 -0.008314672857522964 -0.005555674433708191
v 0.030000001192092896 -0.00831469614058733 -0.005555677227675915
v -0.030000001192092896 -0.008819187991321087 -0.004713942296802998
v 0.030000001192092896 -0.008819210343062878 -0.0047139450907707214
v -0.030000003054738045 -0.00923877116292715 -0.0038268037606030703
v 0.029999999329447746 -0.009238793514668941 -0.0038268067874014378
v -0.030000003054738045 -0.00956937950104475 -0.0029028155840933323
v 0.029999999329447746 -0.009569401852786541 -0.002902818378061056
v -0.030000003054738045 -0.0098078278824687 -0.0019508730620145798
v 0.029999999329447746 -0.009807850234210491 -0.0019508757395669818
v -0.030000004917383194 -0.009951820597052574 -0.0009801393607631326
v 0.029999997466802597 -0.00995184388011694 -0.0009801421547308564
usemtl Alu
f 1 2 4 3
f 3 4 8 7
f 7 8 6 5
f 5 6 2 1
f 3 7 5 1
f 8 4 2 6
f 81 83 87 93 95 99 135 133 131 129 123 127 125 121 119 117 115 113 111 105 107 109 103 101 97 91 89 85 79 77 75 73 58 57 53 45 39 41 35 23 25 27 17 15 13 9 11 19 21 29 31 33 37 43 47 49 51 55 61 63 65 67 69 71
f 63 61 62 64
f 93 87 88 94
f 95 93 94 96
f 61 55 56 62
f 57 58 59 60
f 101 103 104 102
f 13 15 16 14
f 117 119 120 118
f 74 76 78 80 86 90 92 98 102 104 110 108 106 112 114 116 118 120 122 126 128 124 130 132 134 136 100 96 94 88 84 82 72 70 68 66 64 62 56 52 50 48 44 38 34 32 30 22 20 12 10 14 16 18 28 26 24 36 42 40 46 54 60 59
f 87 83 84 88
f 35 41 42 36
f 123 129 130 124
f 103 109 110 104
f 25 23 24 26
f 121 125 126 122
f 71 72 82 81
f 135 99 100 136
f 9 13 14 10
f 49 47 48 50
f 67 65 66 68
f 33 31 32 34
f 53 57 60 54
f 31 29 30 32
f 105 111 112 106
f 69 67 68 70
f 125 127 128 126
f 77 79 80 78
f 43 37 38 44
f 51 49 50 52
f 45 53 54 46
f 79 85 86 80
f 131 133 134 132
f 27 25 26 28
f 111 113 114 112
f 129 131 132 130
f 65 63 64 66
f 39 45 46 40
f 75 77 78 76
f 23 35 36 24
f 55 51 52 56
f 15 17 18 16
f 70 72 71 69
f 97 101 102 98
f 19 11 12 20
f 47 43 44 48
f 41 39 40 42
f 17 27 28 18
f 109 107 108 110
f 119 121 122 120
f 11 9 10 12
f 83 81 82 84
f 113 115 116 114
f 91 97 98 92
f 133 135 136 134
f 76 74 73 75
f 85 89 90 86
f 107 105 106 108
f 127 123 124 128
f 99 95 96 100
f 115 117 118 116
f 89 91 92 90
f 29 21 22 30
f 37 33 34 38
f 21 19 20 22
f 73 74 59 58
f 137 139 650 608
f 139 141 654 650
f 141 143 659 654
f 143 145 617 659
f 145 147 621 617
f 147 149 632 621
f 149 151 665 632
f 151 153 554 665
f 153 155 558 554
f 155 157 521 558
f 157 159 510 521
f 159 161 577 510
f 161 163 591 577
f 163 165 496 591
f 165 167 490 496
f 167 169 499 490
f 169 171 485 499
f 171 173 480 485
f 173 175 588 480
f 175 177 598 588
f 177 179 571 598
f 179 181 576 571
f 181 183 676 576
f 183 185 626 676
f 185 187 436 626
f 187 189 440 436
f 189 191 413 440
f 191 193 393 413
f 193 195 397 393
f 195 197 463 397
f 197 199 455 463
f 199 201 460 455
f 201 203 457 460
f 203 205 462 457
f 205 207 398 462
f 207 209 394 398
f 209 211 415 394
f 211 213 441 415
f 213 215 437 441
f 215 217 625 437
f 217 219 675 625
f 219 221 575 675
f 221 223 572 575
f 223 225 599 572
f 225 227 587 599
f 227 229 479 587
f 229 231 484 479
f 231 233 502 484
f 233 235 494 502
f 235 237 498 494
f 237 239 594 498
f 239 241 580 594
f 241 243 513 580
f 243 245 523 513
f 245 247 560 523
f 247 249 556 560
f 249 251 667 556
f 251 253 635 667
f 253 255 623 635
f 255 257 619 623
f 257 259 663 619
f 259 261 657 663
f 261 263 653 657
f 263 137 608 653
f 265 266 268 267
f 267 268 270 269
f 269 270 272 271
f 271 272 274 273
f 273 274 276 275
f 275 276 278 277
f 277 278 280 279
f 279 280 282 281
f 281 282 284 648 645 605 601 609 651 655 660 658 283
f 283 658 616 620 631 285
f 285 631 630 664 553 561 287
f 287 561 557 524 289
f 289 524 520 509 581 291
f 291 581 578 590 293
f 293 590 589 495 492 295
f 295 492 491 500 297
f 297 500 481 482 299
f 299 482 476 584 583 301
f 301 583 595 582 303
f 303 582 569 573 668 305
f 305 668 674 628 307
f 307 628 624 435 439 447 309
f 309 447 414 395 400 311
f 311 400 399 464 456 459 444 472 468 474 312 314 313
f 313 314 316 315
f 315 316 318 317
f 317 318 320 319
f 319 320 322 321
f 321 322 324 323
f 323 324 326 325
f 325 326 328 327
f 327 328 330 329
f 329 330 332 331
f 331 332 334 333
f 333 334 336 335
f 335 336 338 337
f 337 338 340 339
f 339 340 342 341
f 341 342 344 343
f 343 344 346 345
f 345 346 348 475 469 473 446 461 458 465 401 402 347
f 347 402 396 416 448 349
f 349 448 442 438 627 629 351
f 351 629 677 669 353
f 353 669 574 570 597 355
f 355 597 596 585 357
f 357 585 586 478 477 359
f 359 477 483 501 361
f 361 501 493 503 363
f 363 503 497 592 593 365
f 365 593 579 512 367
f 367 512 511 522 525 369
f 369 525 559 562 371
f 371 562 555 666 633 634 373
f 373 634 622 618 661 375
f 375 661 662 656 652 610 602 606 646 649 376 378 377
f 377 378 380 379
f 379 380 382 381
f 381 382 384 383
f 383 384 386 385
f 385 386 388 387
f 387 388 390 389
f 389 390 392 391
f 391 392 266 265
f 261 259 387 389
f 227 225 353 355
f 193 191 319 321
f 260 262 390 388
f 159 157 285 287
f 226 228 356 354
f 192 194 322 320
f 158 160 288 286
f 263 261 389 391
f 229 227 355 357
f 195 193 321 323
f 262 264 392 390
f 161 159 287 289
f 228 230 358 356
f 194 196 324 322
f 160 162 290 288
f 137 263 391 265
f 231 229 357 359
f 197 195 323 325
f 264 138 266 392
f 163 161 289 291
f 230 232 360 358
f 196 198 326 324
f 162 164 292 290
f 233 231 359 361
f 199 197 325 327
f 165 163 291 293
f 232 234 362 360
f 198 200 328 326
f 164 166 294 292
f 235 233 361 363
f 201 199 327 329
f 167 165 293 295
f 234 236 364 362
f 200 202 330 328
f 166 168 296 294
f 237 235 363 365
f 203 201 329 331
f 169 167 295 297
f 236 238 366 364
f 202 204 332 330
f 168 170 298 296
f 239 237 365 367
f 205 203 331 333
f 171 169 297 299
f 238 240 368 366
f 204 206 334 332
f 170 172 300 298
f 241 239 367 369
f 139 137 265 267
f 207 205 333 335
f 173 171 299 301
f 240 242 370 368
f 206 208 336 334
f 172 174 302 300
f 138 140 268 266
f 243 241 369 371
f 209 207 335 337
f 175 173 301 303
f 242 244 372 370
f 141 139 267 269
f 208 210 338 336
f 174 176 304 302
f 140 142 270 268
f 245 243 371 373
f 211 209 337 339
f 177 175 303 305
f 244 246 374 372
f 143 141 269 271
f 210 212 340 338
f 176 178 306 304
f 142 144 272 270
f 247 245 373 375
f 213 211 339 341
f 179 177 305 307
f 246 248 376 374
f 145 143 271 273
f 212 214 342 340
f 178 180 308 306
f 144 146 274 272
f 249 247 375 377
f 215 213 341 343
f 181 179 307 309
f 248 250 378 376
f 147 145 273 275
f 214 216 344 342
f 180 182 310 308
f 146 148 276 274
f 251 249 377 379
f 217 215 343 345
f 183 181 309 311
f 250 252 380 378
f 149 147 275 277
f 216 218 346 344
f 182 184 312 310
f 148 150 278 276
f 253 251 379 381
f 219 217 345 347
f 185 183 311 313
f 252 254 382 380
f 151 149 277 279
f 218 220 348 346
f 184 186 314 312
f 150 152 280 278
f 255 253 381 383
f 221 219 347 349
f 187 185 313 315
f 254 256 384 382
f 153 151 279 281
f 220 222 350 348
f 186 188 316 314
f 152 154 282 280
f 257 255 383 385
f 223 221 349 351
f 189 187 315 317
f 256 258 386 384
f 155 153 281 283
f 222 224 352 350
f 188 190 318 316
f 154 156 284 282
f 259 257 385 387
f 225 223 351 353
f 191 189 317 319
f 258 260 388 386
f 157 155 283 285
f 224 226 354 352
f 190 192 320 318
f 156 158 286 284
f 618 619 663 662 661
f 617 616 658 660 659
f 678 693 168 166
f 519 507 242 240
f 642 643 639 638
f 641 640 636 637
f 539 541 545 543 547
f 540 538 546 542 544
f 516 678 166 164
f 458 457 462 465
f 455 456 464 463
f 401 398 394 396 402
f 397 399 400 395 393
f 438 437 625 627
f 436 435 624 626
f 535 566 568 352 354
f 701 531 176 174
f 442 441 437 438
f 440 439 435 436
f 607 603 264 262
f 644 641 146 144
f 493 494 498 497 503
f 490 491 492 495 496
f 574 575 572 570
f 576 573 569 571
f 633 635 623 622 634
f 632 630 631 620 621
f 517 519 682 681
f 516 514 680 678
f 547 543 534 535 354 356
f 416 415 441 442 448
f 413 414 447 439 440
f 566 564 487 489 568
f 565 563 567 486 488
f 686 692 254 252
f 564 536 222 220
f 646 647 643 642 649
f 644 645 648 640 641
f 506 507 519 517 518
f 504 505 515 514 516
f 670 615 172 170
f 418 417 683 687 688 286 288
f 406 408 551 550
f 405 403 548 549
f 684 419 154 152
f 627 625 675 677 629
f 626 624 628 674 676
f 671 694 679 296 298
f 544 537 182 180
f 677 675 575 574 669
f 676 674 668 573 576
f 412 422 250 248
f 603 608 138 264
f 702 699 529 528 358 360
f 487 564 220 218
f 407 406 550 508 368 370
f 515 505 552 292 294
f 466 471 198 196
f 533 532 542 546 304 306
f 610 608 603 602
f 608 609 601 600
f 434 432 467 469 475
f 431 433 474 468 466
f 681 682 697 695 696
f 678 680 679 694 693
f 622 623 619 618
f 621 620 616 617
f 424 428 190 188
f 453 429 214 212
f 662 663 657 656
f 659 660 655 654
f 426 425 429 430
f 424 423 427 428
f 474 433 452 449 310 312
f 526 527 698 612 300 302
f 421 411 407 370 372
f 478 479 484 483 477
f 480 476 482 481 485
f 428 451 192 190
f 451 431 194 192
f 656 657 653 652
f 654 655 651 650
f 550 551 507 506 508
f 549 548 552 505 504
f 449 427 423 486 567 308 310
f 469 467 470 473
f 466 468 472 471
f 638 639 692 690 691
f 637 636 688 687 689
f 612 611 671 298 300
f 697 682 238 236
f 529 530 541 539 528
f 531 527 526 538 540
f 454 453 432 434
f 451 452 433 431
f 445 470 206 204
f 690 692 686 685
f 689 687 683 684
f 666 667 635 633
f 665 664 630 632
f 467 432 210 208
f 700 614 232 230
f 405 549 160 158
f 443 460 202 200
f 528 539 547 356 358
f 501 502 494 493
f 499 500 491 490
f 692 639 256 254
f 693 670 170 168
f 643 647 260 258
f 679 680 514 515 294 296
f 699 700 530 529
f 701 698 527 531
f 473 470 445 446
f 471 472 444 443
f 567 563 533 306 308
f 411 412 408 406 407
f 410 409 404 403 405
f 530 700 230 228
f 420 422 412 411 421
f 419 417 418 409 410
f 396 394 415 416
f 393 395 414 413
f 689 684 152 150
f 540 544 180 178
f 551 408 246 244
f 410 405 158 156
f 596 599 587 586 585
f 598 595 583 584 588
f 450 454 434 475 348 350
f 488 424 188 186
f 483 484 502 501
f 485 481 500 499
f 471 443 200 198
f 507 551 244 242
f 685 686 422 420
f 684 683 417 419
f 549 504 162 160
f 545 541 226 224
f 682 519 240 238
f 641 637 148 146
f 537 565 184 182
f 579 580 513 511 512
f 577 578 581 509 510
f 555 556 667 666
f 554 553 664 665
f 404 409 418 288 290
f 695 697 673 672
f 693 694 671 670
f 586 587 479 478
f 588 584 476 480
f 497 498 594 592
f 496 495 589 591
f 432 453 212 210
f 461 460 457 458
f 460 459 456 455
f 408 412 248 246
f 688 636 640 648 284 286
f 565 488 186 184
f 637 689 150 148
f 614 673 234 232
f 639 643 258 256
f 465 462 398 401
f 463 464 399 397
f 672 673 614 613
f 670 671 611 615
f 522 523 560 559 525
f 521 520 524 557 558
f 534 536 564 566 535
f 537 532 533 563 565
f 672 613 702 360 362
f 504 516 164 162
f 536 545 224 222
f 600 604 142 140
f 543 545 536 534
f 544 542 532 537
f 489 487 425 426
f 488 486 423 424
f 568 489 426 430 450 350 352
f 613 614 700 699 702
f 615 611 612 698 701
f 511 513 523 522
f 510 509 520 521
f 647 607 262 260
f 541 530 228 226
f 460 445 204 202
f 430 429 453 454 450
f 428 427 449 452 451
f 446 445 460 461
f 443 444 459 460
f 425 487 218 216
f 652 653 608 610
f 650 651 609 608
f 592 594 580 579 593
f 591 589 590 578 577
f 470 467 208 206
f 570 572 599 596 597
f 571 569 582 595 598
f 546 538 526 302 304
f 431 466 196 194
f 649 642 638 691 374 376
f 606 607 647 646
f 604 605 645 644
f 604 644 144 142
f 559 560 556 555 562
f 558 557 561 553 554
f 691 690 685 420 421 372 374
f 608 600 140 138
f 508 506 518 366 368
f 429 425 216 214
f 422 686 252 250
f 419 410 156 154
f 696 695 672 362 364
f 615 701 174 172
f 602 603 607 606
f 600 601 605 604
f 518 517 681 696 364 366
f 673 697 236 234
f 531 540 178 176
f 552 548 403 404 290 292
usemtl Steel
f 703 704 706 705
f 705 706 708 707
f 707 708 710 709
f 709 710 712 711
f 711 712 714 713
f 713 714 716 715
f 715 716 718 717
f 717 718 720 719
f 719 720 722 721
f 721 722 724 723
f 723 724 726 725
f 725 726 728 727
f 727 728 730 729
f 729 730 732 731
f 731 732 734 733
f 733 734 736 735
f 735 736 738 737
f 737 738 740 739
f 739 740 742 741
f 741 742 744 743
f 743 744 746 745
f 745 746 748 747
f 747 748 750 749
f 749 750 752 751
f 751 752 754 753
f 753 754 756 755
f 755 756 758 757
f 757 758 760 759
f 759 760 762 761
f 761 762 764 763
f 763 764 766 765
f 765 766 768 767
f 767 768 770 769
f 769 770 772 771
f 771 772 774 773
f 773 774 776 775
f 775 776 778 777
f 777 778 780 779
f 779 780 782 781
f 781 782 784 783
f 783 784 786 785
f 785 786 788 787
f 787 788 790 789
f 789 790 792 791
f 791 792 794 793
f 793 794 796 795
f 795 796 798 797
f 797 798 800 799
f 799 800 802 801
f 801 802 804 803
f 803 804 806 805
f 805 806 808 807
f 807 808 810 809
f 809 810 812 811
f 811 812 814 813
f 813 814 816 815
f 815 816 818 817
f 817 818 820 819
f 819 820 822 821
f 821 822 824 823
f 823 824 826 825
f 825 826 828 827
f 706 704 830 828 826 824 822 820 818 816 814 812 810 808 806 804 802 800 798 796 794 792 790 788 786 784 782 780 778 776 774 772 770 768 766 764 762 760 758 756 754 752 750 748 746 744 742 740 738 736 734 732 730 728 726 724 722 720 718 716 714 712 710 708
f 827 828 830 829
f 829 830 704 703
f 703 705 707 709 711 713 715 717 719 721 723 725 727 729 731 733 735 737 739 741 743 745 747 749 751 753 755 757 759 761 763 765 767 769 771 773 775 777 779 781 783 785 787 789 791 793 795 797 799 801 803 805 807 809 811 813 815 817 819 821 823 825 827 829
